<svg xmlns="http://www.w3.org/2000/svg" width="90" height="89.961" viewBox="0 0 90 89.961">
  <g id="螞蟻" transform="translate(-355.077 -152.586)">
    <path id="路径_362" data-name="路径 362" d="M400.078,242.223a44.98,44.98,0,1,1,45-44.98A45.041,45.041,0,0,1,400.078,242.223Zm0-84.756a39.776,39.776,0,1,0,39.793,39.776A39.83,39.83,0,0,0,400.078,157.467Z" transform="translate(0 0.324)" fill="#f23812"/>
    <g id="组_10102" data-name="组 10102" transform="translate(0 5)">
      <path id="路径_363" data-name="路径 363" d="M395.18,184.852s-6.017-1.348-7.11-2.031c-1.032-.646-1.494-.352-1.494-.352a2.259,2.259,0,0,0,1.106,1.834,40.9,40.9,0,0,0,7.49,2.584Z" transform="translate(3.688 3.598)" fill="#cc6444"/>
      <path id="路径_364" data-name="路径 364" d="M385.278,178.4a8.646,8.646,0,0,0-2.678-3.312,29.316,29.316,0,0,0-7.858-4.36c-1.157-.441-2.467-.5-2.923-.114-.472.4-.137,1.157,1.683,1.834a47.031,47.031,0,0,1,6.4,3.129c1.5.885,2.729,1.757,3.517,2.253A4.019,4.019,0,0,0,385.278,178.4Z" transform="translate(1.923 2.169)" fill="#cc6444"/>
      <path id="路径_365" data-name="路径 365" d="M383.22,177.138l1.644,4.276a2.8,2.8,0,0,0,2.548,2.031s-.665-1.43-1.631-3.612C384.638,177.253,383.22,177.138,383.22,177.138Z" transform="translate(3.314 2.971)" fill="#cc6444"/>
      <path id="路径_366" data-name="路径 366" d="M394.635,190.05s-4.153-.372-5.838-.269-4.455.285-4.455.285a5.889,5.889,0,0,0,3.868,1.339,39.921,39.921,0,0,1,6.676.763Z" transform="translate(3.416 4.477)" fill="#cc6444"/>
      <path id="路径_367" data-name="路径 367" d="M379.694,187.15a1.666,1.666,0,0,1,1.878-.223c.936.6,4.16,3.688,4.16,3.688s-1.256.708-1.917.183C382.079,189.42,379.694,187.15,379.694,187.15Z" transform="translate(2.892 4.107)" fill="#cc6444"/>
      <path id="路径_368" data-name="路径 368" d="M382.376,187.445a8.65,8.65,0,0,0-3.761-2,29.3,29.3,0,0,0-8.937-.941c-1.238.047-2.468.5-2.735,1.038-.276.557.327,1.118,2.266,1.031a46.92,46.92,0,0,1,7.114.375c1.724.23,3.2.55,4.118.7A4.021,4.021,0,0,0,382.376,187.445Z" transform="translate(1.544 3.849)" fill="#cc6444"/>
      <path id="路径_369" data-name="路径 369" d="M394.583,193.649s-6.772,2.26-8.31,2.945a3.46,3.46,0,0,0-1.7,2.707,14.671,14.671,0,0,1,4.385-2.187,62.538,62.538,0,0,1,7.138-1.983Z" transform="translate(3.438 4.915)" fill="#cc6444"/>
      <path id="路径_370" data-name="路径 370" d="M385.448,198.083s-1.962.638-4.185,3.906a4.729,4.729,0,0,0-.422,3.418,36.423,36.423,0,0,1,2.3-2.837C386.517,198.721,385.448,198.083,385.448,198.083Z" transform="translate(3.014 5.424)" fill="#cc6444"/>
      <path id="路径_371" data-name="路径 371" d="M382.283,203.781s-1.385,1.849-3.526,5.137c-1.366,2.1-4.73,6.395-7.288,8.276-1.572,1.158-1.139,1.753.452,1.463,3.547-.646,8.81-8.648,9.609-10.191C383.359,204.941,382.283,203.781,382.283,203.781Z" transform="translate(1.795 6.022)" fill="#cc6444"/>
      <path id="路径_372" data-name="路径 372" d="M399.754,184.852s6.018-1.348,7.112-2.031c1.032-.646,1.493-.352,1.493-.352a2.259,2.259,0,0,1-1.106,1.834,40.9,40.9,0,0,1-7.489,2.584Z" transform="translate(4.995 3.598)" fill="#cc6444"/>
      <path id="路径_373" data-name="路径 373" d="M410.24,178.4a8.659,8.659,0,0,1,2.679-3.312,29.316,29.316,0,0,1,7.858-4.36c1.157-.441,2.467-.5,2.922-.114.473.4.138,1.157-1.681,1.834a47.027,47.027,0,0,0-6.4,3.129c-1.5.885-2.73,1.757-3.518,2.253A4.016,4.016,0,0,1,410.24,178.4Z" transform="translate(6.174 2.169)" fill="#cc6444"/>
      <path id="路径_374" data-name="路径 374" d="M411.2,177.138l-1.644,4.276a2.8,2.8,0,0,1-2.548,2.031s.664-1.43,1.631-3.612C409.786,177.253,411.2,177.138,411.2,177.138Z" transform="translate(5.881 2.971)" fill="#cc6444"/>
      <path id="路径_375" data-name="路径 375" d="M400.525,190.05s4.153-.372,5.838-.269,4.454.285,4.454.285a5.888,5.888,0,0,1-3.867,1.339,39.9,39.9,0,0,0-6.676.763Z" transform="translate(5.041 4.477)" fill="#cc6444"/>
      <path id="路径_376" data-name="路径 376" d="M414.944,187.15a1.668,1.668,0,0,0-1.879-.223c-.936.6-4.159,3.688-4.159,3.688s1.255.708,1.917.183C412.56,189.42,414.944,187.15,414.944,187.15Z" transform="translate(6.089 4.107)" fill="#cc6444"/>
      <path id="路径_377" data-name="路径 377" d="M413.356,187.445a8.65,8.65,0,0,1,3.76-2,29.306,29.306,0,0,1,8.938-.941c1.238.047,2.469.5,2.735,1.038.276.557-.327,1.118-2.266,1.031a46.92,46.92,0,0,0-7.114.375c-1.724.23-3.2.55-4.118.7A4.017,4.017,0,0,1,413.356,187.445Z" transform="translate(6.385 3.849)" fill="#cc6444"/>
      <path id="路径_378" data-name="路径 378" d="M400.69,193.649s6.772,2.26,8.31,2.945a3.46,3.46,0,0,1,1.7,2.707,14.671,14.671,0,0,0-4.385-2.187,62.54,62.54,0,0,0-7.138-1.983Z" transform="translate(4.906 4.915)" fill="#cc6444"/>
      <path id="路径_379" data-name="路径 379" d="M409.061,198.083s1.962.638,4.185,3.906a4.728,4.728,0,0,1,.422,3.418,36.429,36.429,0,0,0-2.3-2.837C407.991,198.721,409.061,198.083,409.061,198.083Z" transform="translate(6.097 5.424)" fill="#cc6444"/>
      <path id="路径_380" data-name="路径 380" d="M413.056,203.781s1.386,1.849,3.527,5.137c1.365,2.1,4.73,6.395,7.287,8.276,1.573,1.158,1.139,1.753-.451,1.463-3.547-.646-8.81-8.648-9.609-10.191C411.982,204.941,413.056,203.781,413.056,203.781Z" transform="translate(6.481 6.022)" fill="#cc6444"/>
      <path id="路径_381" data-name="路径 381" d="M392.994,167.543s-2.055-7.342-.985-10.067c1.144-2.915,3.18-2.431,3.18-2.431s-1.972,1.426-1.557,3.4c.27,1.287,1.891,1.288,1.891,1.288s-1.935.984-1.309,2.136a2.83,2.83,0,0,0,1.751,1.177,4.044,4.044,0,0,0-.841,3.718C395.475,168.352,392.994,167.543,392.994,167.543Z" transform="translate(4.209 0.684)" fill="#873217"/>
      <path id="路径_382" data-name="路径 382" d="M401.3,167.543s2.055-7.342.985-10.067c-1.143-2.915-3.179-2.431-3.179-2.431s1.971,1.426,1.556,3.4c-.27,1.287-1.891,1.288-1.891,1.288s1.935.984,1.309,2.136a2.83,2.83,0,0,1-1.75,1.177,4.047,4.047,0,0,1,.842,3.718C398.819,168.352,401.3,167.543,401.3,167.543Z" transform="translate(4.962 0.684)" fill="#873217"/>
      <path id="路径_383" data-name="路径 383" d="M397.253,216.257c-1.912-.96-4.356-.649-6.414-.049a6.8,6.8,0,0,0,.974,1.758c2.558,3.226,4.786,3.64,5.318,3.693.109-.086.211-.178.317-.268C398.361,220.566,400.737,218.005,397.253,216.257Z" transform="translate(4.073 7.338)" fill="#b25336"/>
      <path id="路径_384" data-name="路径 384" d="M401.556,212.654c0-.04,0-.079,0-.119-.088-2.008-1.169-4.217-5.109-5.482a26.1,26.1,0,0,0-6.251-.564,32.581,32.581,0,0,0,.08,8.315c.519.132,1.066.267,1.652.4C397.993,216.608,400.51,214.574,401.556,212.654Z" transform="translate(3.952 6.393)" fill="#b25336"/>
      <path id="路径_385" data-name="路径 385" d="M400.7,204.508c1.539-3.23-.873-7.032-1.729-8.221a4.867,4.867,0,0,0-1.671-.3c-2.147,0-4.095,1.406-5.44,3.935a21.733,21.733,0,0,0-1.409,5.472,8.65,8.65,0,0,0,4.35,1.625C396.241,207.24,399.6,206.819,400.7,204.508Z" transform="translate(4.013 5.15)" fill="#b25336"/>
      <path id="路径_386" data-name="路径 386" d="M402.791,199.89a7.3,7.3,0,0,0-3.769-3.637c.856,1.188,3.268,4.991,1.729,8.221-1.1,2.31-4.462,2.732-5.9,2.513a8.65,8.65,0,0,1-4.35-1.625c-.124.785-.327,2.6-.415,3.453a10.4,10.4,0,0,1,5.489-.282c3.941.82,4.922,3.123,4.793,5.129-.14,2.179-3.358,4.06-8.458,2.881-.586-.135-1.133-.269-1.652-.4a13.116,13.116,0,0,0,.678,2.6c2.058-.6,4.5-.911,6.414.049,3.365,1.688,1.265,4.134.294,5.043-.136.123-.271.245-.416.36.079.008.122.008.122.008s2.5,0,5.44-3.7C406.433,215.912,404.137,202.419,402.791,199.89Z" transform="translate(3.945 4.802)" fill="#873217"/>
      <path id="路径_387" data-name="路径 387" d="M397.457,179.786c4.645,0,5.483-2.273,5.675-3.689.258-1.9.582-7.9.718-10.562a2.968,2.968,0,0,0-1.287-.589h-9.925a3.066,3.066,0,0,0-1.563.822c.142,2.768.456,8.481.706,10.329C391.974,177.513,393.2,179.786,397.457,179.786Z" transform="translate(4.071 1.693)" fill="#a04927"/>
      <path id="路径_388" data-name="路径 388" d="M389.479,172.288c.28,3.963.874,8.319,1.669,9,1.548,1.32,5.449,1.334,6.667,1.3,1.217.029,5.118.015,6.666-1.3.795-.677,1.389-5.033,1.669-9,.223-3.137-.614-5.687-2.086-6.82-.136,2.666-.46,8.66-.718,10.562-.192,1.416-1.03,3.689-5.675,3.689-4.256,0-5.483-2.273-5.675-3.689-.25-1.848-.563-7.56-.706-10.329C389.989,166.929,389.271,169.352,389.479,172.288Z" transform="translate(3.855 1.747)" fill="#873217"/>
      <path id="路径_389" data-name="路径 389" d="M397.925,180.248a2.805,2.805,0,0,0-.865-.148,2.717,2.717,0,0,0-2.759,2.671,2.563,2.563,0,0,0,.117.724,2.763,2.763,0,0,0,5.4-.724A2.671,2.671,0,0,0,397.925,180.248Z" transform="translate(4.495 3.455)" fill="#a04927"/>
      <path id="路径_390" data-name="路径 390" d="M394.512,195.342l-.211,1.417s-.024,1.6,2.5,1.68c2.35.078,2.732-1.54,2.732-1.54V195.53Z" transform="translate(4.497 5.212)" fill="#873217"/>
      <path id="路径_391" data-name="路径 391" d="M397.011,195.283c2.681-.228,3.985-2.515,4.935-4.773a12.027,12.027,0,0,0-1.55-4.095h-3v-.046h-3.027a11.7,11.7,0,0,0-1.658,4.972,8.314,8.314,0,0,0,.255,2.963A6.707,6.707,0,0,0,397.011,195.283Z" transform="translate(4.282 4.139)" fill="#873217"/>
      <path id="路径_392" data-name="路径 392" d="M396.337,196.484c.364.033.694.057,1,.076v.049c.312-.019.654-.044,1.03-.077,3.185-.282,3.841-2.9,3.655-5.622-.022-.3-.059-.593-.107-.879-.95,2.258-2.254,4.545-4.935,4.773a6.707,6.707,0,0,1-4.04-.979A3.572,3.572,0,0,0,396.337,196.484Z" transform="translate(4.312 4.582)" fill="#6d210c"/>
      <path id="路径_393" data-name="路径 393" d="M400.932,183.944a7.746,7.746,0,0,0-1.047-2h-5.347a8.18,8.18,0,0,0-1.518,4.263,6.388,6.388,0,0,0,.053,1.321,5.7,5.7,0,0,0,3.344.9C398.723,188.37,400.035,186.287,400.932,183.944Z" transform="translate(4.328 3.655)" fill="#873217"/>
      <path id="路径_394" data-name="路径 394" d="M396.491,189.976v.015h1.424v-.015c2.714-.147,3.612-1.6,3.478-4a7.958,7.958,0,0,0-.469-2.263c-.9,2.343-2.208,4.426-4.515,4.488a5.7,5.7,0,0,1-3.344-.9C393.314,188.9,394.32,189.859,396.491,189.976Z" transform="translate(4.332 3.864)" fill="#6d210c"/>
      <path id="路径_395" data-name="路径 395" d="M395.893,184.577c0,.675-.382,1.222-.854,1.222s-.854-.547-.854-1.222.382-1.222.854-1.222S395.893,183.9,395.893,184.577Z" transform="translate(4.51 3.845)" fill="#a04927"/>
      <path id="路径_396" data-name="路径 396" d="M397.638,171.22a13.985,13.985,0,0,0-2.744-1.888,17.723,17.723,0,0,1-5.765-4.216c-2.275-2.6-4.415-9.607-5.3-12.445s.795-4.519,2.058-.516a83.224,83.224,0,0,0,4.337,11.026,13.612,13.612,0,0,0,5.156,4.8A3.8,3.8,0,0,1,397.638,171.22Z" transform="translate(3.227)" fill="#6d210c"/>
      <path id="路径_397" data-name="路径 397" d="M398.035,171.22a14.029,14.029,0,0,1,2.744-1.888,17.738,17.738,0,0,0,5.766-4.216c2.274-2.6,4.415-9.607,5.3-12.445s-.795-4.519-2.057-.516a83.183,83.183,0,0,1-4.338,11.026,13.613,13.613,0,0,1-5.156,4.8A3.8,3.8,0,0,0,398.035,171.22Z" transform="translate(4.834)" fill="#6d210c"/>
    </g>
    <rect id="矩形_7" data-name="矩形 7" width="87.833" height="5.279" transform="translate(366.721 225.89) rotate(-45.23)" fill="#f23812"/>
  </g>
</svg>
