<svg xmlns="http://www.w3.org/2000/svg" xmlns:xlink="http://www.w3.org/1999/xlink" width="390" height="452" viewBox="0 0 390 452">
  <defs>
    <clipPath id="clip-banner768">
      <rect width="390" height="452"/>
    </clipPath>
  </defs>
  <g id="banner768" clip-path="url(#clip-banner768)">
    <rect width="390" height="452" fill="#fff"/>
    <g id="组_9937" data-name="组 9937" transform="translate(-753.82 196.771)">
      <path id="路径_7824" data-name="路径 7824" d="M272.155,48.436h0c18.837,23.888,13.663,62.772-10.431,78.4l-61.491,39.878c-14.64,9.495-20.235,31.364-12.563,49.113h0c6.131,14.187,3.9,31.518-5.513,42.809h0c-23.114,27.728-27.364,70.922-10.268,104.372l.1.19c12.974,25.386,13.951,57.088,2.576,83.56l-.722,1.679H-25.6v-400Z" transform="translate(1202.256 -171.17) rotate(90)" fill="#49c4e3"/>
      <text id="專業消毒病媒防治公司_全方位病媒防治" data-name="專業消毒病媒防治公司
全方位病媒防治" transform="translate(788.001 -99.187)" fill="#fff" font-size="33" font-family="MicrosoftJhengHeiBold, Microsoft JhengHei"><tspan x="0" y="0">專業消毒病媒防治公司</tspan><tspan font-size="23" font-family="MicrosoftJhengHeiRegular, Microsoft JhengHei" fill="#000"><tspan x="0" y="33">全方位病媒防治</tspan></tspan></text>
      <g id="组_9992" data-name="组 9992" transform="translate(771.62 -15.255)">
        <path id="路径_7547" data-name="路径 7547" d="M411.205,219.721a19.851,19.851,0,0,0,16.94,20.547,13.262,13.262,0,0,0,1.414,1.139,8.791,8.791,0,0,0,15.681,7.676,13.638,13.638,0,0,0,17.536,1.738,8.791,8.791,0,0,0,14.737-9.57,13.017,13.017,0,0,0,5-16.635,8.792,8.792,0,0,0-8.338-15.474,19.792,19.792,0,0,0-25.166-16.611,13.067,13.067,0,0,0-7.843-6.621,8.793,8.793,0,1,0-14.359,4.768,12.963,12.963,0,0,0-2.047,11.134A19.839,19.839,0,0,0,411.205,219.721Z" transform="translate(-216.605 -136.623)" fill="#49c4e3" opacity="0.25"/>
        <g id="组_9844" data-name="组 9844" transform="translate(204.917 0)">
          <g id="组_9824" data-name="组 9824" transform="translate(91.13 10.512)">
            <g id="组_9811" data-name="组 9811" transform="translate(0.001 41.545)">
              <path id="路径_7548" data-name="路径 7548" d="M499.378,207.13l-5.131,2.952V195.8L506,189.022Z" transform="translate(-469.516 -181.527)" fill="#95a8bd"/>
              <path id="路径_7549" data-name="路径 7549" d="M502.7,212.644,477.97,198.367l0-14.278L502.7,198.366Z" transform="translate(-477.97 -184.089)" fill="#a9bacc"/>
            </g>
            <path id="路径_7550" data-name="路径 7550" d="M502.7,178.681,477.969,164.4l11.748-6.783L514.445,171.9Z" transform="translate(-477.969 -156.29)" fill="#f1a4a1"/>
            <path id="路径_7551" data-name="路径 7551" d="M506,200.448l-11.748,6.783V173.8l11.748-6.783Z" transform="translate(-469.515 -151.41)" fill="#f1625c"/>
            <g id="组_9813" data-name="组 9813" transform="translate(0.002 8.113)">
              <g id="组_9812" data-name="组 9812">
                <path id="路径_7552" data-name="路径 7552" d="M502.7,209.793,477.97,195.515V162.085l24.73,14.277Z" transform="translate(-477.97 -162.085)" fill="#f18480"/>
              </g>
            </g>
            <g id="组_9817" data-name="组 9817" transform="translate(26.713 16.414)">
              <g id="组_9814" data-name="组 9814" transform="translate(0 7.38)">
                <path id="路径_7553" data-name="路径 7553" d="M502.052,176.825a.462.462,0,0,1-.234-.062l-6.033-3.482a.468.468,0,1,1,.468-.811l6.033,3.482a.468.468,0,0,1-.234.874Z" transform="translate(-495.551 -172.405)" fill="#293b49"/>
              </g>
              <g id="组_9815" data-name="组 9815" transform="translate(0 20.317)">
                <path id="路径_7554" data-name="路径 7554" d="M502.051,185.34a.46.46,0,0,1-.232-.062l-6.033-3.482a.468.468,0,1,1,.468-.811l6.033,3.482a.468.468,0,0,1-.236.874Z" transform="translate(-495.551 -180.92)" fill="#293b49"/>
              </g>
              <g id="组_9816" data-name="组 9816">
                <path id="路径_7555" data-name="路径 7555" d="M499.514,203.728a4.62,4.62,0,0,1-2.284-.691l-1.445-.834a.468.468,0,0,1,.468-.811l1.445.834a2.343,2.343,0,0,0,3.885-2.243l0-31.967a.468.468,0,1,1,.936,0v31.967a3.664,3.664,0,0,1-1.579,3.376A2.831,2.831,0,0,1,499.514,203.728Z" transform="translate(-495.551 -167.548)" fill="#293b49"/>
              </g>
            </g>
            <g id="组_9822" data-name="组 9822" transform="translate(18.79 7.855)">
              <g id="组_9821" data-name="组 9821">
                <g id="组_9818" data-name="组 9818">
                  <path id="路径_7556" data-name="路径 7556" d="M494.175,162.9c-.024-.015-.049-.032-.074-.047a3.45,3.45,0,0,0-3.119,0c-.026.015-.049.032-.074.047h-.571v.854h0a1.1,1.1,0,0,0,.646.9,3.45,3.45,0,0,0,3.119,0,1.1,1.1,0,0,0,.646-.9h0V162.9Z" transform="translate(-490.336 -161.623)" fill="#293b49"/>
                  <path id="路径_7557" data-name="路径 7557" d="M494.1,162.289a.95.95,0,0,1,0,1.8,3.45,3.45,0,0,1-3.119,0,.951.951,0,0,1,0-1.8A3.44,3.44,0,0,1,494.1,162.289Z" transform="translate(-490.336 -161.915)" fill="#3d6372"/>
                </g>
                <g id="组_9819" data-name="组 9819" transform="translate(4.71 2.727)">
                  <path id="路径_7558" data-name="路径 7558" d="M497.275,164.69c-.026-.015-.049-.032-.074-.047a3.45,3.45,0,0,0-3.119,0c-.026.015-.05.032-.074.047h-.571v.854h0a1.1,1.1,0,0,0,.646.9,3.441,3.441,0,0,0,3.119,0,1.1,1.1,0,0,0,.646-.9h0v-.854Z" transform="translate(-493.436 -163.418)" fill="#293b49"/>
                  <path id="路径_7559" data-name="路径 7559" d="M497.2,164.082a.951.951,0,0,1,0,1.8,3.45,3.45,0,0,1-3.119,0,.95.95,0,0,1,0-1.8A3.45,3.45,0,0,1,497.2,164.082Z" transform="translate(-493.436 -163.71)" fill="#3d6372"/>
                </g>
                <g id="组_9820" data-name="组 9820" transform="translate(9.419 5.452)">
                  <path id="路径_7560" data-name="路径 7560" d="M500.374,166.486c-.024-.017-.047-.033-.074-.049a3.447,3.447,0,0,0-3.118,0c-.027.015-.05.032-.074.049h-.571v.852h0a1.092,1.092,0,0,0,.646.9,3.437,3.437,0,0,0,3.118,0,1.092,1.092,0,0,0,.646-.9h0v-.852Z" transform="translate(-496.536 -165.212)" fill="#293b49"/>
                  <path id="路径_7561" data-name="路径 7561" d="M500.3,165.876a.95.95,0,0,1,0,1.8,3.447,3.447,0,0,1-3.118,0,.95.95,0,0,1,0-1.8A3.447,3.447,0,0,1,500.3,165.876Z" transform="translate(-496.536 -165.504)" fill="#3d6372"/>
                </g>
              </g>
            </g>
            <g id="组_9823" data-name="组 9823" transform="translate(0.002)">
              <path id="路径_7562" data-name="路径 7562" d="M494.79,173.116,493.2,172.2v-3.863l5.55,2.493Z" transform="translate(-470.06 -150.725)" fill="#f5a459"/>
              <path id="路径_7563" data-name="路径 7563" d="M502.7,174.49l-24.73-14.279V158.25l24.73,14.279Z" transform="translate(-477.97 -155.963)" fill="#f5a459"/>
              <path id="路径_7564" data-name="路径 7564" d="M494.247,169.721v3.864l3.962-2.287v-3.863Z" transform="translate(-469.517 -151.194)" fill="#db763b"/>
              <path id="路径_7565" data-name="路径 7565" d="M502.7,173.311l-24.73-14.279,3.962-2.287,24.73,14.279Z" transform="translate(-477.97 -156.745)" fill="#f5b659"/>
              <path id="路径_7566" data-name="路径 7566" d="M498.209,168.1v-1.961l-3.962,2.287v1.961Z" transform="translate(-469.517 -151.864)" fill="#db763b"/>
            </g>
          </g>
          <g id="组_9843" data-name="组 9843">
            <g id="组_9842" data-name="组 9842" transform="translate(37.499)">
              <g id="组_9825" data-name="组 9825" transform="translate(32.593 46.01)">
                <path id="路径_7567" data-name="路径 7567" d="M475.807,183.932a8.262,8.262,0,0,1-3.39-.716c-5.061-2.258-8.081-1.727-8.112-1.723l-.184-.951c.134-.027,3.32-.606,8.691,1.79,4.953,2.208,10.053-2.179,10.105-2.223l.637.729C483.375,180.995,479.958,183.932,475.807,183.932Z" transform="translate(-464.122 -180.109)" fill="#f5b659"/>
              </g>
              <path id="路径_7568" data-name="路径 7568" d="M492.85,203.814a7.5,7.5,0,0,1,7.449,6.419c1.149,6.565.637,15.918-4.011,17.636s-8.982-14.658-8.982-14.658Z" transform="translate(-419.489 -121.789)" fill="#a9bacc"/>
              <path id="路径_7569" data-name="路径 7569" d="M483.1,232.8a7.5,7.5,0,0,1-3.724,9.1c-5.862,3.171-14.894,5.653-18,1.793s11.05-13.17,11.05-13.17Z" transform="translate(-433.183 -107.917)" fill="#a9bacc"/>
              <g id="组_9826" data-name="组 9826" transform="translate(38.322 62.783)">
                <path id="路径_7570" data-name="路径 7570" d="M477.892,235.983A9.949,9.949,0,0,1,468,226.73a58.858,58.858,0,0,1,7.215-31.558,7.748,7.748,0,1,1,13.587,7.449,44.115,44.115,0,0,0-4.918,14.408c3.431-1.889,6.775-3.906,8.055-4.742a7.762,7.762,0,0,1,12.6,7.426c-.74,3.812-2.674,4.915-10.807,9.555a79.937,79.937,0,0,1-12.673,6.194A9.994,9.994,0,0,1,477.892,235.983Zm5.565-10.331h0Z" transform="translate(-467.892 -191.149)" fill="#00a1c9"/>
              </g>
              <g id="组_9827" data-name="组 9827" transform="translate(36.471 59.75)">
                <path id="路径_7571" data-name="路径 7571" d="M474.431,257.886a7.657,7.657,0,0,1-1-.065,7.746,7.746,0,0,1-6.7-8.672l3.01-23.419a14.581,14.581,0,0,1,4.286-8.587c.637-.623,14.251-12.533,14.251-12.533,1.563-1.056,3.724-.858,3.952-2.894l.634-5.673a7.748,7.748,0,0,1,8.558-6.84c4.253.474,5.778,4.309,5.3,8.561l-.128,5.8c-.734,6.562-3.162,12.246-8.46,15.819l-.1.07-12.977,8.659-2.958,23.013A7.753,7.753,0,0,1,474.431,257.886Z" transform="translate(-466.675 -189.153)" fill="#49c4e3"/>
              </g>
              <g id="组_9841" data-name="组 9841">
                <g id="组_9828" data-name="组 9828" transform="translate(11.545 29.057)">
                  <path id="路径_7572" data-name="路径 7572" d="M453.437,186.1a4.384,4.384,0,0,0,1.46.173h0c.006,0,3.406-.027,13.6,1.934,11.635,2.238,19.406-7.542,21.889-13.027a4.413,4.413,0,0,0-8.033-3.657c-.2.424-4.517,9.491-12.19,8.016-11.241-2.162-15.046-2.113-15.695-2.083a4.414,4.414,0,0,0-1.03,8.643Z" transform="translate(-450.268 -168.951)" fill="#00a1c9"/>
                  <path id="路径_7573" data-name="路径 7573" d="M460.446,175.023s2.458,1.048.738,5.427a20.362,20.362,0,0,1-1.7,3.352,40.088,40.088,0,0,0-4.584-.43h0a4.414,4.414,0,1,1-.43-8.817A37.539,37.539,0,0,1,460.446,175.023Z" transform="translate(-450.268 -166.045)" fill="#e6e6e6"/>
                </g>
                <g id="组_9832" data-name="组 9832" transform="translate(0 37.237)">
                  <g id="组_9829" data-name="组 9829" transform="translate(0 1.559)">
                    <path id="路径_7574" data-name="路径 7574" d="M475.109,182.123l-1.777-1.321-28.023-4.57-.181,3.516,27.842,8.086,1.958-2.194Z" transform="translate(-441.393 -174.909)" fill="#a9bacc"/>
                    <path id="路径_7575" data-name="路径 7575" d="M446.586,176.683l-1.777-1.322-1.958,2.195-.181,3.516,1.777,1.322L446.4,180.2Z" transform="translate(-442.67 -175.361)" fill="#a9bacc"/>
                    <path id="路径_7576" data-name="路径 7576" d="M444.078,175.361l29.8,5.892,1.777,1.321-29.8-5.892Z" transform="translate(-441.938 -175.361)" fill="#ccd9e6"/>
                    <path id="路径_7577" data-name="路径 7577" d="M445.8,178.545l29.8,5.892-1.958,2.194-29.8-5.892Z" transform="translate(-442.062 -173.708)" fill="#95a8bd"/>
                    <path id="路径_7578" data-name="路径 7578" d="M445.895,176.944l-1.31-.974-1.443,1.617-.133,2.591,1.31.974,1.443-1.617Z" transform="translate(-442.494 -175.045)" fill="#95a8bd"/>
                    <path id="路径_7579" data-name="路径 7579" d="M443.8,180.3l.133-2.591,1.191-1.335-.543-.4-1.443,1.617-.133,2.591,1.31.974.252-.283Z" transform="translate(-442.494 -175.045)" fill="#ccd9e6"/>
                  </g>
                  <g id="组_9831" data-name="组 9831" transform="translate(5.574)">
                    <g id="组_9830" data-name="组 9830">
                      <path id="路径_7580" data-name="路径 7580" d="M452.918,176.469c-.035-.032-.067-.065-.1-.1a5.6,5.6,0,0,0-4.983-.895c-.046.017-.088.036-.132.055l-.913-.164-.427,2.381h0a1.778,1.778,0,0,0,.773,1.624,5.6,5.6,0,0,0,4.983.893,1.775,1.775,0,0,0,1.29-1.253h0l.428-2.379Z" transform="translate(-446.338 -173.869)" fill="#293b49"/>
                      <path id="路径_7581" data-name="路径 7581" d="M452.912,175.475c1.234,1.041,1,2.329-.517,2.878a5.6,5.6,0,0,1-4.983-.895c-1.232-1.042-1-2.329.517-2.878A5.6,5.6,0,0,1,452.912,175.475Z" transform="translate(-446.192 -174.335)" fill="#3d6372"/>
                    </g>
                    <path id="路径_7582" data-name="路径 7582" d="M451.531,175.566a1,1,0,0,1-.336,1.875,3.647,3.647,0,0,1-3.247-.582,1.006,1.006,0,0,1,.337-1.875A3.644,3.644,0,0,1,451.531,175.566Z" transform="translate(-445.77 -174.081)" fill="#f5b659"/>
                    <path id="路径_7583" data-name="路径 7583" d="M448.1,175.992a3.645,3.645,0,0,1,3.245.583,1.593,1.593,0,0,1,.421.521c.428-.418.366-1.019-.24-1.532a3.644,3.644,0,0,0-3.245-.582c-.746.269-1.013.811-.758,1.352A1.6,1.6,0,0,1,448.1,175.992Z" transform="translate(-445.77 -174.081)" fill="#293b49"/>
                  </g>
                </g>
                <g id="组_9836" data-name="组 9836" transform="translate(29.164 12.909)">
                  <g id="组_9834" data-name="组 9834" transform="translate(0 13.355)">
                    <path id="路径_7584" data-name="路径 7584" d="M477.526,167.49h.02a4.635,4.635,0,0,1,3.256-.173h.006c25.341,3.036,24.432,15.075,24.432,15.075v25.44c0,2.472-1.633,4.945-4.9,6.831-.334.193-.685.369-1.041.542v.129l-.116-.068c-6.574,3.154-16.345,2.955-22.507-.6-3.266-1.885-4.9-4.359-4.9-6.831V176.048C471.774,169.8,477.526,167.49,477.526,167.49Z" transform="translate(-456.719 -167.113)" fill="#49c4e3"/>
                    <g id="组_9833" data-name="组 9833" transform="translate(0 11.547)">
                      <path id="路径_7585" data-name="路径 7585" d="M463.8,190.353c4.3,4.941,9.479,7.507,15.4,7.636,14.716.319,28.294-15.325,28.864-15.991a4.413,4.413,0,0,0-6.7-5.746c-3.151,3.659-13.247,13.113-21.989,12.913-3.663-.085-6.816-1.872-9.633-5.467a4.413,4.413,0,1,0-6.945,5.448Q463.3,189.771,463.8,190.353Z" transform="translate(-461.865 -174.713)" fill="#00a1c9"/>
                    </g>
                  </g>
                  <path id="路径_7586" data-name="路径 7586" d="M469.867,165.08c.155,5.889,2.271,7.038,3.686,9.313,1.516,2.44,10.695,6.567,10.5,3.467-2.668-.153-7.783-2.8-8.882-4.572-1.413-2.274-3.531-3.423-3.684-9.312-.084-3.207.074-4.289.637-5.486.026-.055.07-.1.1-.147a2.2,2.2,0,0,0-1.72,1.25C469.943,160.791,469.784,161.872,469.867,165.08Z" transform="translate(-457.72 -158.312)" fill="#00a1c9"/>
                  <g id="组_9835" data-name="组 9835" transform="translate(13.748)">
                    <path id="路径_7587" data-name="路径 7587" d="M470.934,163.987c.153,5.889,2.271,7.038,3.684,9.312,1.1,1.767,6.214,4.418,8.882,4.572a2.761,2.761,0,0,0-.235-.9c-1.987-4.692,2.63-11.052-1.714-14.775a18.858,18.858,0,0,0-9.307-3.855,2.112,2.112,0,0,0-1,.122,2.239,2.239,0,0,1,.422-.108c-.03.052-.074.093-.1.147C471.009,159.7,470.851,160.78,470.934,163.987Z" transform="translate(-470.913 -158.323)" fill="#fec6aa"/>
                  </g>
                </g>
                <path id="路径_7588" data-name="路径 7588" d="M470.5,176.091c3.143,8.308,16.678,9.134,19.215,7.893s4.215-4.885,9.225-2.829c0,0-1.764-1.339-1.38-3.163s4.186-5.84,3.937-10.176-.179-17.146-15.418-17.963S467.359,167.783,470.5,176.091Zm-.428-6.588c-.084-3.207.076-4.289.638-5.486a2.194,2.194,0,0,1,2.293-1.264,18.858,18.858,0,0,1,9.307,3.855c4.344,3.724-.274,10.084,1.714,14.775s-8.627.073-10.266-2.566C472.347,176.54,470.23,175.392,470.075,169.5Z" transform="translate(-428.764 -149.826)" fill="#00a1c9"/>
                <path id="路径_7589" data-name="路径 7589" d="M462.806,186.652a4.413,4.413,0,1,1,6.945-5.448,16.758,16.758,0,0,0,3.45,3.371l0,.009s1.7,1.4-.661,3.946c-2.343,2.525-3.8,3.463-5.508,2.449a25.6,25.6,0,0,1-3.232-3.121Q463.3,187.277,462.806,186.652Z" transform="translate(-432.701 -134.407)" fill="#e6e6e6"/>
                <g id="组_9840" data-name="组 9840" transform="translate(36.669 19.988)">
                  <g id="组_9837" data-name="组 9837" transform="translate(0 1.034)">
                    <path id="路径_7590" data-name="路径 7590" d="M470.335,163.662l3.531.315v4.708l-3.531,4.392-3.531-.315v-4.708Z" transform="translate(-466.805 -163.662)" fill="#487587"/>
                    <path id="路径_7591" data-name="路径 7591" d="M471.883,164.606l3.531.315v4.708l-3.531,4.392-3.531-.315V169Z" transform="translate(-466.001 -163.172)" fill="#293b49"/>
                    <path id="路径_7592" data-name="路径 7592" d="M475.011,165.412l-2.351-1.434-3.531-.315,2.351,1.434Z" transform="translate(-465.598 -163.662)" fill="#5990a6"/>
                    <path id="路径_7593" data-name="路径 7593" d="M469.156,167.987l-2.351-1.434v4.708l2.351,1.434Z" transform="translate(-466.805 -162.161)" fill="#304e59"/>
                  </g>
                  <path id="路径_7594" data-name="路径 7594" d="M472.767,162.982l2.476.406,2.476,2.453,2.631,9.761-4.527,1.274-5.681-10.357Z" transform="translate(-465.072 -162.982)" fill="#3d6372"/>
                  <g id="组_9838" data-name="组 9838" transform="translate(3.099 3.537)">
                    <path id="路径_7595" data-name="路径 7595" d="M470.815,165.31l1.855.3,1.855,1.838,1.971,8.215-1.652.707-2.174-1.255-2.174-1.255-1.652-2.614Z" transform="translate(-468.844 -165.31)" fill="#304e59"/>
                    <path id="路径_7596" data-name="路径 7596" d="M470.994,166.421l1.251.164,1.251,1.28,1.329,5.919-1.114.566-1.466-.846-1.466-.846-1.114-1.852Z" transform="translate(-468.418 -164.733)" fill="#db763b"/>
                  </g>
                  <path id="路径_7597" data-name="路径 7597" d="M470.994,166.421l1.033.136-1.116,3.68,1.114,1.852,1.466.846,1.313.758.021.091-1.114.566-1.466-.846-1.466-.846-1.114-1.852Z" transform="translate(-465.319 -161.195)" fill="#f5a459"/>
                  <g id="组_9839" data-name="组 9839" transform="translate(9.656 6.613)">
                    <path id="路径_7598" data-name="路径 7598" d="M476.691,167.334l3.531.315v4.708l-3.531,4.392-3.531-.315v-4.708Z" transform="translate(-473.16 -167.334)" fill="#487587"/>
                    <path id="路径_7599" data-name="路径 7599" d="M478.238,168.278l3.531.315V173.3l-3.531,4.392-3.531-.315V172.67Z" transform="translate(-472.356 -166.844)" fill="#293b49"/>
                    <path id="路径_7600" data-name="路径 7600" d="M481.366,169.083l-2.351-1.434-3.531-.315,2.351,1.434Z" transform="translate(-471.953 -167.334)" fill="#5990a6"/>
                    <path id="路径_7601" data-name="路径 7601" d="M475.511,171.659l-2.351-1.434v4.708l2.351,1.434Z" transform="translate(-473.16 -165.833)" fill="#304e59"/>
                    <path id="路径_7602" data-name="路径 7602" d="M477.921,169.093l2.6.232v3.469l-2.6,3.237-2.6-.232V172.33Z" transform="translate(-472.039 -166.421)" fill="#db763b"/>
                    <path id="路径_7603" data-name="路径 7603" d="M476.842,175.283l2.6-3.237v-2.863l1.079.1v3.469l-2.6,3.237-2.6-.232v-.606Z" transform="translate(-472.039 -166.374)" fill="#f5a459"/>
                  </g>
                  <path id="路径_7604" data-name="路径 7604" d="M474.609,163.249l-3.246,3.435,1.855,1.838,3.867-2.82Z" transform="translate(-464.438 -162.843)" fill="#5990a6"/>
                </g>
              </g>
            </g>
            <path id="路径_7605" data-name="路径 7605" d="M457.455,179.717l-35.975-7.458a.862.862,0,0,0-.823.272l-2.449,2.748a.864.864,0,0,0-.176.848l1.2,3.634a.867.867,0,0,0,1.645-.544l-1.044-3.159,1.785-2,35.485,7.357a.867.867,0,0,0,.351-1.7Z" transform="translate(-417.988 -138.186)" fill="#293b49"/>
          </g>
        </g>
        <g id="组_9934" data-name="组 9934" transform="translate(0 13.095)">
          <g id="组_9847" data-name="组 9847" transform="translate(200.499 116.798)">
            <path id="路径_7606" data-name="路径 7606" d="M426.459,252c.09.155.135.779.331.781.327,0,.067-.748.035-.906-.106-.514-.222-1.025-.325-1.541-.05-.249-.155-.482-.182-.735-.018-.173.024-.381.015-.574-.011-.237-.342-.313-.545-.383-.153-.053-.576-.246-.737-.2-.1.033-.272.377-.336.469l-.4.583c.7.293.618,1.159.643,1.787.011.264.027.53.027.795,0,.436-.243.805-.216,1.241.014.22.112.267.207.45s.041.371.278.242a1.2,1.2,0,0,0,.226-.229c.231-.246.079-.021.3-.036.175-.012.305-.489.345-.617a2.594,2.594,0,0,0,.1-.638c.009-.207.012-.413.018-.621A.259.259,0,0,1,426.459,252Z" transform="translate(-410.287 -228.506)" fill="#ffb3b0"/>
            <g id="组_9845" data-name="组 9845">
              <path id="路径_7607" data-name="路径 7607" d="M420.343,244.046s-.245.074-.2-.175.512-.8.343-1.173a1.222,1.222,0,0,0-1.428-.532c-.64.2-1.085.579-1.367,1.772s0,2.127-.425,2.84S420.343,244.046,420.343,244.046Z" transform="translate(-413.963 -231.794)" fill="#ffb3b0"/>
              <path id="路径_7608" data-name="路径 7608" d="M420.255,242.677a1.1,1.1,0,0,0-.634-.514,1.073,1.073,0,0,0-1.168.72c-.418.886-.337,2.344-.766,3.44.916-.817,2.42-2.3,2.42-2.3s-.245.074-.2-.175S420.422,243.048,420.255,242.677Z" transform="translate(-413.727 -231.773)" fill="#e09e9b"/>
              <path id="路径_7609" data-name="路径 7609" d="M416.749,246.411a.686.686,0,0,0-.6.141c-.208.236-.053,1.03-.053,1.03Z" transform="translate(-414.582 -229.569)" fill="#5c4b51"/>
              <path id="路径_7610" data-name="路径 7610" d="M428.154,242.634a3.538,3.538,0,0,0,1.006-2.363,5.013,5.013,0,0,1,1.884-3.719c1.156-.93,1.218-1.232,1.218-1.232h0a.385.385,0,0,0-.258.1,9.9,9.9,0,0,1-1.413,1.07,4.331,4.331,0,0,0-1.533,1.846c-.175.465-1.1,3.481-2.411,3.82S428.154,242.634,428.154,242.634Z" transform="translate(-409.254 -235.32)" fill="#e09e9b"/>
              <path id="路径_7611" data-name="路径 7611" d="M432.838,239.468a5.673,5.673,0,0,0-5.742.3c-2.7,1.968-2.236,3.935-2.938,4.8s-2.964.728-4.635,2.507a28.362,28.362,0,0,0-4.339,6.954c-.378,1.187.808,2.1,2.344,1.86s2.183-.808,3.207-.971,3.423-.969,4.1-.969,3.99.512,4.42.593.594-.647,1.322-.216.512-.161.539-1.051-.082-2.183.836-2.83,2.7-1.4,3.449-2.776,1.416-.758,1.718-.778-.141-.324,0-.667.345-.293.445-.456a3.08,3.08,0,0,0,0-1.94c-.293-.778-1.785-1.779-2.607-2.291S433.983,240.249,432.838,239.468Z" transform="translate(-415.064 -233.51)" fill="#a9bacc"/>
              <path id="路径_7612" data-name="路径 7612" d="M419.47,247.911a1.013,1.013,0,0,0-1.933.506l0,.082.05.064a.434.434,0,0,0,.283.146.229.229,0,0,1,.07.02,1.1,1.1,0,0,0,.64.211,1.18,1.18,0,0,0,.295-.038.916.916,0,0,0,.612-.878l0-.059Z" transform="translate(-413.806 -229.088)" fill="#899aad"/>
              <path id="路径_7613" data-name="路径 7613" d="M417.61,248.424a.915.915,0,0,1,.552-.893.873.873,0,0,1,1.091.447s-.024.614-.48.731a.971.971,0,0,1-.843-.167C417.823,248.47,417.666,248.5,417.61,248.424Z" transform="translate(-413.767 -229.006)" fill="#41313b"/>
              <path id="路径_7614" data-name="路径 7614" d="M421.35,244.909a1.216,1.216,0,0,0-.656,1.395c.293.921.747.638,1.1.749s.243-.567,1.121-1.132,1.749-1.032,1.961-1.184-.081-.07-.7,0A10.356,10.356,0,0,0,421.35,244.909Z" transform="translate(-412.195 -230.474)" fill="#ffb3b0"/>
              <path id="路径_7615" data-name="路径 7615" d="M429.476,244.619a1.911,1.911,0,0,1,.4.447c.141.211.122-.254.687-.506s1.3.424,1.749.506.515-.082.283-.3.122-.04.5.05.079-.287-.084-.5.03.02.223.07.1-.237-.156-.46-2.423-.477-2.876-.763-.637.8-.637.8Z" transform="translate(-407.605 -231.276)" fill="#c78c8a"/>
              <path id="路径_7616" data-name="路径 7616" d="M415.183,248.859a1.546,1.546,0,0,0-.1.679.558.558,0,0,0,.407.582c.15.056-.052-.114,0-.15s.251.09.322.081a1,1,0,0,0,.431-.369c.062-.143-.441-.125-.675-.242S415.121,249.2,415.183,248.859Z" transform="translate(-415.081 -228.289)" fill="#ffb3b0"/>
              <path id="路径_7617" data-name="路径 7617" d="M418.03,247.75a.338.338,0,0,0-.222.305c-.006.234.21.12.317,0s.2-.1.24-.15S418.282,247.667,418.03,247.75Z" transform="translate(-413.664 -228.876)" fill="#5c4b51"/>
              <path id="路径_7618" data-name="路径 7618" d="M424.55,244.652l-.015.006c.024.011.012.033-.053.079-.213.152-1.082.617-1.961,1.184s-.767,1.243-1.121,1.132a.742.742,0,0,1,.424.576c.021.4-.363.485-.211.738s1.374.111,2.021-.556a5.373,5.373,0,0,0,.918-2.5A1.658,1.658,0,0,0,424.55,244.652Z" transform="translate(-411.8 -230.474)" fill="#e09e9b"/>
              <path id="路径_7619" data-name="路径 7619" d="M434.291,247.208c.629-1.144,1.191-.909,1.538-.81.07.02.039-.292.181-.635s.345-.293.445-.456a3.079,3.079,0,0,0,0-1.94c-.293-.778-1.785-1.779-2.607-2.291a7.069,7.069,0,0,1-1.337-1.4c1.249,1.846.594,4.917.163,6.571s-2.4,3.286-5.158,5.014-3.718,1.007-4.436,1.527-3.838,1.111-4.412,1.664a3.943,3.943,0,0,1-1.424.8,24.794,24.794,0,0,1,2.385-.793c1.024-.161,3.423-.969,4.1-.969s3.99.512,4.42.593.594-.647,1.322-.216.512-.161.539-1.051-.082-2.183.836-2.83S433.538,248.583,434.291,247.208Z" transform="translate(-413.958 -233.056)" fill="#95a8bd"/>
              <path id="路径_7620" data-name="路径 7620" d="M425.2,239.463a3.4,3.4,0,0,0-.855.521,6.041,6.041,0,0,0-.966.95,7.482,7.482,0,0,0-.906,2.183c-.276.849-.483,1.662-1.4,1.922s-.761.348-.45.416a2.069,2.069,0,0,0,1.832-.658c.588-.693,1-2.738,1.8-3.153s2.264-.933,2.437-1.541C426.837,239.573,426.311,239.012,425.2,239.463Z" transform="translate(-412.33 -233.254)" fill="#bfcddb"/>
            </g>
            <path id="路径_7621" data-name="路径 7621" d="M424.482,244.723c-.213.152-1.082.617-1.961,1.184s-.767,1.243-1.121,1.132a.742.742,0,0,1,.424.576c.021.4-.363.485-.211.738.04.067.158.1.319.114-.091-.015-.2-.068-.158-.251.062-.3.491-.544,1.045-.931s1.74-1.621,1.715-2.606A.242.242,0,0,1,424.482,244.723Z" transform="translate(-411.8 -230.46)" fill="#c78c8a"/>
            <path id="路径_7622" data-name="路径 7622" d="M426.506,248.946a24.813,24.813,0,0,0-3.924-.439,5.806,5.806,0,0,0-1.755.6,5.27,5.27,0,0,1,1.038-.191c.618,0,3.459.43,4.257.564.7.293.618,1.161.643,1.787.011.264.027.53.027.795,0,.436-.243.805-.216,1.241a.723.723,0,0,0,.176.4h0c-.225-.662.737-2.625.69-3.285S427.091,249.01,426.506,248.946Z" transform="translate(-412.097 -228.481)" fill="#d5dde6" style="mix-blend-mode: multiply;isolation: isolate"/>
            <path id="路径_7623" data-name="路径 7623" d="M434.832,244.621a13.9,13.9,0,0,0-3.78-1.253c-1.443-.047-1.522,1.13-2.024,2.1a8.825,8.825,0,0,1-2.606,2.416,1.842,1.842,0,0,0-.672,1.167l0,0a1.777,1.777,0,0,1,.672-.986c.916-.646,2.7-1.4,3.449-2.776.629-1.144,1.191-.909,1.538-.81h0a1.91,1.91,0,0,1,.4.447c.141.211.122-.254.687-.506s1.3.424,1.749.506.515-.082.283-.3C434.344,244.446,434.545,244.534,434.832,244.621Z" transform="translate(-409.539 -231.141)" fill="#d5dde6" style="mix-blend-mode: multiply;isolation: isolate"/>
            <path id="路径_7624" data-name="路径 7624" d="M427.8,242.137a4.08,4.08,0,0,0,.875-2.236,5.013,5.013,0,0,1,1.884-3.719c.064-.052.122-.1.179-.147-1.819.849-2.449,3.4-2.872,4.567a2.316,2.316,0,0,1-.62.892A7.765,7.765,0,0,1,427.8,242.137Z" transform="translate(-408.765 -234.949)" fill="#d5dde6" style="mix-blend-mode: multiply;isolation: isolate"/>
            <g id="组_9846" data-name="组 9846" transform="translate(10.239 14.618)" style="mix-blend-mode: multiply;isolation: isolate">
              <path id="路径_7625" data-name="路径 7625" d="M424.55,244.984a1.871,1.871,0,0,1-.21.122c0,.02,0,.038-.009.058a5.372,5.372,0,0,1-.918,2.5,2.484,2.484,0,0,1-1.594.672,4.549,4.549,0,0,0,2.381-.817C425.561,246.615,425.059,244.626,424.55,244.984Z" transform="translate(-421.82 -244.941)" fill="#d5dde6"/>
            </g>
            <path id="路径_7626" data-name="路径 7626" d="M417.816,245.161a3.875,3.875,0,0,1,1.475-.7c.837-.178,3.2-1.481,1.747-1.311a6.573,6.573,0,0,0-2.92,1.677C418.02,244.928,417.918,245.042,417.816,245.161Z" transform="translate(-413.66 -231.264)" fill="#d5dde6" style="mix-blend-mode: multiply;isolation: isolate"/>
          </g>
          <g id="组_9882" data-name="组 9882" transform="translate(37.091)">
            <path id="路径_7627" data-name="路径 7627" d="M541.553,253.016,422.013,322.034h-22.76l-36.225-34.056L482.568,218.96Z" transform="translate(-278.705 -127.018)" fill="#ebe4da" style="mix-blend-mode: multiply;isolation: isolate"/>
            <g id="组_9881" data-name="组 9881">
              <g id="组_9864" data-name="组 9864">
                <g id="组_9854" data-name="组 9854" transform="translate(0 6.905)">
                  <path id="路径_7628" data-name="路径 7628" d="M307.528,256.371V211.378l58.985,34.056v44.993Z" transform="translate(-307.528 -137.861)" fill="#c3cc88"/>
                  <path id="路径_7629" data-name="路径 7629" d="M352.622,276.4V231.41l-6.271,3.621v44.993Z" transform="translate(-287.366 -127.457)" fill="#959e63"/>
                  <path id="路径_7630" data-name="路径 7630" d="M516.875,278.766l-38.616,22.3V256.069l38.616-22.3Z" transform="translate(-218.863 -126.23)" fill="#959e63"/>
                  <g id="组_9849" data-name="组 9849" transform="translate(58.985 34.056)">
                    <path id="路径_7631" data-name="路径 7631" d="M504.658,238.565l-38.616,22.3-38.616-22.3,38.616-22.3Z" transform="translate(-304.247 -169.377)" fill="#85727c"/>
                    <g id="组_9848" data-name="组 9848">
                      <path id="路径_7632" data-name="路径 7632" d="M465.89,189.9,346.351,258.922v-4.5L465.89,185.405Z" transform="translate(-346.351 -185.405)" fill="#d1c2ae"/>
                      <path id="路径_7633" data-name="路径 7633" d="M506.41,213.3,386.871,282.317v-4.5L506.41,208.8Z" transform="translate(-325.308 -173.256)" fill="#d1c2ae"/>
                    </g>
                    <path id="路径_7634" data-name="路径 7634" d="M530.074,241.394l-38.616,22.3-38.616-22.3,38.616-22.3Z" transform="translate(-291.048 -167.907)" fill="#d4db9b"/>
                  </g>
                  <path id="路径_7635" data-name="路径 7635" d="M452.842,233.773v44.993l38.616,22.3V256.069Z" transform="translate(-232.063 -126.23)" fill="#959e63"/>
                  <path id="路径_7636" data-name="路径 7636" d="M427.425,257.205v-22.7l3.723-2.149,34.894,20.146v27Z" transform="translate(-245.262 -126.965)" fill="#85727c"/>
                  <path id="路径_7637" data-name="路径 7637" d="M431.147,232.359l-3.722,2.148v22.7l38.617,22.3v-27Zm30.394,39.349-29.618-17.1V238l29.618,17.1Z" transform="translate(-245.262 -126.965)" fill="#57444e"/>
                  <g id="组_9850" data-name="组 9850" transform="translate(61.563 109.061)">
                    <path id="路径_7638" data-name="路径 7638" d="M348.048,279.766V234.773l58.985,34.056v44.993Z" transform="translate(-348.048 -234.773)" fill="#c3cc88"/>
                    <path id="路径_7639" data-name="路径 7639" d="M393.142,299.8V254.8l-6.271,3.62v44.993Z" transform="translate(-327.886 -224.369)" fill="#959e63"/>
                  </g>
                  <g id="组_9851" data-name="组 9851">
                    <path id="路径_7640" data-name="路径 7640" d="M486.052,197.046,366.513,266.064l-58.985-34.056L427.067,162.99Z" transform="translate(-307.528 -162.99)" fill="#f9f6f1"/>
                    <path id="路径_7641" data-name="路径 7641" d="M526.572,220.441,407.033,289.458,348.048,255.4l119.539-69.018Z" transform="translate(-286.485 -150.84)" fill="#f9f6f1"/>
                  </g>
                  <path id="路径_7642" data-name="路径 7642" d="M407.033,265.867v4.5l-58.985-34.056v-4.5Z" transform="translate(-286.485 -127.249)" fill="#ebe4da"/>
                  <path id="路径_7643" data-name="路径 7643" d="M307.528,208.416v4.5l58.985,34.056v-4.5Z" transform="translate(-307.528 -139.399)" fill="#ebe4da"/>
                  <path id="路径_7644" data-name="路径 7644" d="M485.421,256.4,455.8,273.5V238.9L485.421,256Z" transform="translate(-230.525 -123.566)" fill="#737a4a"/>
                  <g id="组_9852" data-name="组 9852" transform="translate(186.662 111.038)">
                    <path id="路径_7645" data-name="路径 7645" d="M430.386,252.673l14.376-8.3-14.376-8.3Z" transform="translate(-430.386 -236.073)" fill="#382b32"/>
                  </g>
                  <path id="路径_7646" data-name="路径 7646" d="M467.693,229.778V211.761l-6.271,3.621V233.4Z" transform="translate(-227.606 -137.662)" fill="#737a4a"/>
                  <g id="组_9853" data-name="组 9853" transform="translate(218.214 77.72)">
                    <path id="路径_7647" data-name="路径 7647" d="M451.153,223.153l15.6,9.008V214.144Z" transform="translate(-451.153 -214.144)" fill="#959e63"/>
                  </g>
                </g>
                <g id="组_9859" data-name="组 9859" transform="translate(90.834)">
                  <g id="组_9858" data-name="组 9858">
                    <g id="组_9856" data-name="组 9856" transform="translate(0.423 2.111)">
                      <g id="组_9855" data-name="组 9855" transform="translate(2.763)">
                        <path id="路径_7648" data-name="路径 7648" d="M373.5,179.572v6.38l32.857-18.97-2.764-4.784Z" transform="translate(-367.285 -158.607)" fill="#d69f83"/>
                        <path id="路径_7649" data-name="路径 7649" d="M405.72,163.423,375.626,180.8l-6.216-3.589L399.5,159.834Z" transform="translate(-369.41 -159.834)" fill="#ffd6ad"/>
                      </g>
                      <path id="路径_7650" data-name="路径 7650" d="M376.57,181.24v-6.38l-6.216-3.589-2.763,4.785Z" transform="translate(-367.591 -153.895)" fill="#fecb99"/>
                    </g>
                    <g id="组_9857" data-name="组 9857">
                      <path id="路径_7651" data-name="路径 7651" d="M384.825,240.069h-1.256v-28.8l-16.172-28a.631.631,0,0,1,.231-.86l41.424-23.884a.631.631,0,0,1,.857.231l16.257,28.149a.633.633,0,0,1,.084.314l0,28.964h-1.257l0-28.8-15.857-27.459L368.8,183.187l15.941,27.6a.618.618,0,0,1,.085.314Z" transform="translate(-367.313 -158.445)" fill="#57444e"/>
                    </g>
                  </g>
                  <path id="路径_7652" data-name="路径 7652" d="M368.819,221.435l2.911,1.671,85.055-49.069-2.911-1.671Z" transform="translate(-366.531 -151.216)" fill="#d4db9b"/>
                  <path id="路径_7653" data-name="路径 7653" d="M455.79,173.465v19.653l-85.055,49.07V222.534Z" transform="translate(-365.536 -150.645)" fill="#959e63"/>
                  <path id="路径_7654" data-name="路径 7654" d="M368.819,204.662v19.653l2.911,1.671V206.333Z" transform="translate(-366.531 -134.443)" fill="#c3cc88"/>
                </g>
                <path id="路径_7655" data-name="路径 7655" d="M452.842,233.773v44.993l38.615,22.3V256.069Zm34.116,59.5-29.618-17.1V261.507l29.618,17.1Zm-29.618-37.041V241.567l29.618,17.1v14.661Z" transform="translate(-232.062 -119.325)" fill="#c3cc88"/>
                <g id="组_9860" data-name="组 9860" transform="translate(225.278 122.242)">
                  <path id="路径_7656" data-name="路径 7656" d="M455.8,253.565l.007,0,12.7-7.331L455.8,238.9Z" transform="translate(-455.803 -238.903)" fill="#737a4a"/>
                </g>
                <path id="路径_7657" data-name="路径 7657" d="M455.8,251.058l29.618,17.1V253.5l-16.913-9.765Z" transform="translate(-230.525 -114.154)" fill="#959e63"/>
                <g id="组_9863" data-name="组 9863" transform="translate(57.525 54.554)">
                  <g id="组_9861" data-name="组 9861" transform="translate(0 21.354)">
                    <path id="路径_7658" data-name="路径 7658" d="M375.95,236.883l-18.43,10.641V226.051l18.43-10.641Z" transform="translate(-339.09 -204.769)" fill="#737a4a"/>
                    <path id="路径_7659" data-name="路径 7659" d="M382.25,219.047l-18.43,10.641-18.43-10.641,18.43-10.641Z" transform="translate(-345.39 -208.406)" fill="#d4db9b"/>
                    <path id="路径_7660" data-name="路径 7660" d="M345.39,215.41v21.473l18.43,10.641V226.051Z" transform="translate(-345.39 -204.769)" fill="#959e63"/>
                    <path id="路径_7661" data-name="路径 7661" d="M345.39,215.41v21.473l18.429,10.641V226.05ZM361.673,243.8l-14.134-8.162V219.129l14.134,8.16Z" transform="translate(-345.39 -204.769)" fill="#c3cc88"/>
                    <path id="路径_7662" data-name="路径 7662" d="M360.939,226.208,346.8,234.369V217.858l14.135,8.161Z" transform="translate(-344.656 -203.498)" fill="#737a4a"/>
                  </g>
                  <g id="组_9862" data-name="组 9862" transform="translate(4.328)">
                    <path id="路径_7663" data-name="路径 7663" d="M348.238,222.828l18.43,10.641V212l-18.43-10.641Z" transform="translate(-348.238 -190.714)" fill="#57444e"/>
                    <path id="路径_7664" data-name="路径 7664" d="M348.238,204.992l18.43,10.641,18.43-10.641-18.43-10.641Z" transform="translate(-348.238 -194.351)" fill="#85727c"/>
                    <path id="路径_7665" data-name="路径 7665" d="M378.8,201.355v21.473l-18.43,10.641V212Z" transform="translate(-341.939 -190.714)" fill="#85727c"/>
                    <path id="路径_7666" data-name="路径 7666" d="M360.368,212v21.473L378.8,222.828V201.355Zm2.148,1.24,14.134-8.162v16.514l-14.134,8.162Z" transform="translate(-341.939 -190.714)" fill="#382b32"/>
                    <path id="路径_7667" data-name="路径 7667" d="M361.782,212.153l14.135,8.161V203.8l-14.135,8.161Z" transform="translate(-341.205 -189.443)" fill="#57444e"/>
                  </g>
                  <path id="路径_7668" data-name="路径 7668" d="M372.515,218.337l3.4-14.534-14.135,8.161v16.514Z" transform="translate(-336.877 -189.443)" fill="#85727c" style="mix-blend-mode: multiply;isolation: isolate"/>
                  <path id="路径_7669" data-name="路径 7669" d="M346.8,234.369h14.135v-8.35L346.8,217.858Z" transform="translate(-344.656 -182.144)" fill="#d6ccbf" style="mix-blend-mode: multiply;isolation: isolate"/>
                </g>
                <path id="路径_7670" data-name="路径 7670" d="M468.794,242.082l8.645,9.647H485.5l26.492-15.3-16.709-9.647Z" transform="translate(-223.778 -122.953)" fill="#d6ccbf" style="mix-blend-mode: multiply;isolation: isolate"/>
                <path id="路径_7671" data-name="路径 7671" d="M452.278,203.559l-3.045-5.314-11.051-6.38-.949.548,2.811,4.457-16.705,9.645,20.86,15.3h5.632l14.836-8.564,1.873-1.075-1.866-1.454Z" transform="translate(-247.384 -141.089)" fill="#d6ccbf" style="mix-blend-mode: multiply;isolation: isolate"/>
              </g>
              <g id="组_9866" data-name="组 9866" transform="translate(170.323 49.696)">
                <g id="组_9865" data-name="组 9865" transform="translate(0)">
                  <path id="路径_7672" data-name="路径 7672" d="M462.833,210.452,446.124,220.1l-26.492-15.3,16.709-9.647Z" transform="translate(-419.632 -189.075)" fill="#ffd6ad"/>
                  <path id="路径_7673" data-name="路径 7673" d="M446.124,216.35l-12.4-7.157-3.045-5.314-11.051-6.38v6.089l26.492,15.3Z" transform="translate(-419.632 -187.859)" fill="#fecb99"/>
                  <path id="路径_7674" data-name="路径 7674" d="M457.121,210.006l-12.4-7.157-3.045-5.314-11.051-6.38v6.089l26.492,15.3Z" transform="translate(-413.921 -191.154)" fill="#fecb99"/>
                  <path id="路径_7675" data-name="路径 7675" d="M437.068,213.2l16.709-9.639v2.533l-16.709,9.639Z" transform="translate(-410.577 -184.71)" fill="#d69f83"/>
                  <path id="路径_7676" data-name="路径 7676" d="M419.632,200.793l16.709-9.639v6.089l-11.436,6.595Z" transform="translate(-419.632 -191.154)" fill="#d69f83"/>
                </g>
                <path id="路径_7677" data-name="路径 7677" d="M450.436,202.848l-3.045-5.315-11.05-6.38-16.71,9.639,11.052,6.381,3.045,5.315,12.395,7.156,16.71-9.639Zm-16.248,9.18-2.961-5.167-.084-.147L431,206.63l-10.107-5.837,15.452-8.912,10.59,6.114,2.96,5.167.085.147.146.084,11.453,6.614-15.45,8.914Z" transform="translate(-419.632 -191.154)" fill="#ffe5cc"/>
              </g>
              <g id="组_9868" data-name="组 9868" transform="translate(236.951 97.752)">
                <g id="组_9867" data-name="组 9867" transform="translate(0.001 0)">
                  <path id="路径_7678" data-name="路径 7678" d="M463.486,242.082l16.709,9.647,26.492-15.3-16.709-9.647Z" transform="translate(-463.486 -220.705)" fill="#ffd6ad"/>
                  <path id="路径_7679" data-name="路径 7679" d="M474.484,247.98l12.4-7.157,3.045-5.314,11.051-6.38v6.089l-26.492,15.3Z" transform="translate(-457.775 -219.489)" fill="#d69f83"/>
                  <path id="路径_7680" data-name="路径 7680" d="M463.486,241.636l12.4-7.157,3.045-5.314,11.051-6.38v6.089l-26.492,15.3Z" transform="translate(-463.486 -222.784)" fill="#d69f83"/>
                  <path id="路径_7681" data-name="路径 7681" d="M480.2,244.831l-16.709-9.639v2.533l16.709,9.639Z" transform="translate(-463.486 -216.34)" fill="#fecb99"/>
                </g>
                <path id="路径_7682" data-name="路径 7682" d="M463.486,241.636l16.71,9.639,12.4-7.156,3.045-5.315,11.05-6.38-16.708-9.64-11.052,6.381-3.045,5.313Zm16.71,8.914-15.452-8.914,11.453-6.612.147-.085.084-.147,2.961-5.167,10.59-6.114,15.451,8.914-10.108,5.836-.147.084-.083.147-2.961,5.167Z" transform="translate(-463.486 -222.784)" fill="#ffe5cc"/>
              </g>
              <g id="组_9870" data-name="组 9870" transform="translate(236.951 91.666)">
                <g id="组_9869" data-name="组 9869" transform="translate(0.001 0)">
                  <path id="路径_7683" data-name="路径 7683" d="M463.486,238.076l16.709,9.647,26.492-15.3-16.709-9.647Z" transform="translate(-463.486 -216.7)" fill="#85727c"/>
                  <path id="路径_7684" data-name="路径 7684" d="M474.484,243.974l12.4-7.157,3.045-5.314,11.051-6.38v6.089l-26.492,15.3Z" transform="translate(-457.775 -215.483)" fill="#382b32"/>
                  <path id="路径_7685" data-name="路径 7685" d="M463.486,237.63l12.4-7.157,3.045-5.314,11.051-6.38v6.089l-26.492,15.3Z" transform="translate(-463.486 -218.778)" fill="#382b32"/>
                  <path id="路径_7686" data-name="路径 7686" d="M480.2,240.825l-16.709-9.639v2.533l16.709,9.639Z" transform="translate(-463.486 -212.335)" fill="#57444e"/>
                </g>
                <path id="路径_7687" data-name="路径 7687" d="M463.486,237.63l16.71,9.64,12.4-7.158,3.045-5.315,11.05-6.38-16.708-9.64-11.052,6.381-3.045,5.315Zm16.71,8.914-15.452-8.914,11.453-6.612.147-.085.084-.147,2.961-5.167,10.59-6.114,15.451,8.914-10.108,5.836-.147.085-.083.147-2.961,5.166Z" transform="translate(-463.486 -218.778)" fill="#a8909d"/>
              </g>
              <g id="组_9872" data-name="组 9872" transform="translate(236.951 85.58)">
                <g id="组_9871" data-name="组 9871" transform="translate(0.001)">
                  <path id="路径_7688" data-name="路径 7688" d="M463.486,234.07l16.709,9.647,26.492-15.3-16.709-9.647Z" transform="translate(-463.486 -212.694)" fill="#ffd6ad"/>
                  <path id="路径_7689" data-name="路径 7689" d="M474.484,239.969l12.4-7.157,3.045-5.314,11.051-6.38v6.089l-26.492,15.3Z" transform="translate(-457.775 -211.478)" fill="#d69f83"/>
                  <path id="路径_7690" data-name="路径 7690" d="M463.486,233.624l12.4-7.157,3.045-5.314,11.051-6.38v6.089l-26.492,15.3Z" transform="translate(-463.486 -214.773)" fill="#d69f83"/>
                  <path id="路径_7691" data-name="路径 7691" d="M480.2,236.82l-16.709-9.639v2.533l16.709,9.639Z" transform="translate(-463.486 -208.329)" fill="#fecb99"/>
                  <path id="路径_7692" data-name="路径 7692" d="M497.632,224.412l-16.709-9.639v6.089l11.436,6.595Z" transform="translate(-454.431 -214.773)" fill="#fecb99"/>
                </g>
                <path id="路径_7693" data-name="路径 7693" d="M463.486,233.623l16.71,9.64,12.4-7.158,3.045-5.315,11.05-6.38-16.708-9.639-11.052,6.38-3.045,5.315Zm16.71,8.914-15.452-8.914,11.453-6.612.147-.085.084-.147,2.961-5.167,10.59-6.114,15.451,8.914-10.108,5.836-.147.085-.083.147-2.961,5.167Z" transform="translate(-463.486 -214.772)" fill="#ffe5cc"/>
              </g>
              <g id="组_9878" data-name="组 9878" transform="translate(110.185 20.533)">
                <g id="组_9877" data-name="组 9877">
                  <g id="组_9873" data-name="组 9873" transform="translate(41.423 10.013)">
                    <path id="路径_7694" data-name="路径 7694" d="M408.571,206.756l-.628.759h-.629V178.55h1.257Z" transform="translate(-407.314 -178.55)" fill="#57444e"/>
                  </g>
                  <g id="组_9875" data-name="组 9875" transform="translate(16.678 2.083)">
                    <g id="组_9874" data-name="组 9874" transform="translate(2.763)">
                      <path id="路径_7695" data-name="路径 7695" d="M396.937,193.068v6.381l32.857-18.972-2.764-4.784Z" transform="translate(-390.721 -172.104)" fill="#d69f83"/>
                      <path id="路径_7696" data-name="路径 7696" d="M429.156,176.92l-30.094,17.375-6.216-3.589,30.094-17.375Z" transform="translate(-392.846 -173.331)" fill="#ffd6ad"/>
                    </g>
                    <path id="路径_7697" data-name="路径 7697" d="M400.006,194.736v-6.38l-6.216-3.589-2.763,4.785Z" transform="translate(-391.027 -167.392)" fill="#fecb99"/>
                  </g>
                  <g id="组_9876" data-name="组 9876">
                    <path id="路径_7698" data-name="路径 7698" d="M381.306,234.095l-.627.725h-.629V205.856a.628.628,0,0,1,.315-.544l57.68-33.269a.628.628,0,0,1,.628,1.088l-.009.006-16.246,9.379-.006-.009-41.1,23.712Z" transform="translate(-380.05 -171.96)" fill="#57444e"/>
                  </g>
                </g>
              </g>
              <g id="组_9880" data-name="组 9880" transform="translate(133.356 72.227)">
                <g id="组_9879" data-name="组 9879">
                  <ellipse id="椭圆_21" data-name="椭圆 21" cx="5.204" cy="3.005" rx="5.204" ry="3.005" fill="#85727c"/>
                  <ellipse id="椭圆_22" data-name="椭圆 22" cx="3.732" cy="2.155" rx="3.732" ry="2.155" transform="translate(1.472 0.85)" fill="#57444e"/>
                  <path id="路径_7699" data-name="路径 7699" d="M397.36,209.33a5.832,5.832,0,0,1,5.278,0,2.794,2.794,0,0,1,.577.445c.828-.823.646-1.895-.577-2.6a5.832,5.832,0,0,0-5.278,0c-1.223.706-1.407,1.778-.577,2.6A2.755,2.755,0,0,1,397.36,209.33Z" transform="translate(-394.795 -205.693)" fill="#66505b"/>
                </g>
                <path id="路径_7700" data-name="路径 7700" d="M402.465,208.593a5.832,5.832,0,0,0-5.278,0,2.756,2.756,0,0,0-.577.445,2.709,2.709,0,0,0,.577.447,5.832,5.832,0,0,0,5.278,0,2.747,2.747,0,0,0,.577-.447A2.8,2.8,0,0,0,402.465,208.593Z" transform="translate(-394.621 -204.957)" fill="#85727c" style="mix-blend-mode: multiply;isolation: isolate"/>
              </g>
            </g>
            <path id="路径_7701" data-name="路径 7701" d="M394.38,235.209l-18.43-10.641v-7.436l-14.1,8.142-2.267-1.309-2.061,1.19v21.473h10.368l4.705-2.717,3.356,1.938Z" transform="translate(-281.565 -127.967)" fill="#d6ccbf" style="mix-blend-mode: multiply;isolation: isolate"/>
            <path id="路径_7702" data-name="路径 7702" d="M506.41,213.3,386.871,282.317v-4.5L506.41,208.8Z" transform="translate(-266.323 -132.294)" fill="#d6ccbf" style="mix-blend-mode: multiply;isolation: isolate"/>
            <path id="路径_7703" data-name="路径 7703" d="M346.351,280.517h2.578v-48l.966-.558-2.59-1.5-.953.565Z" transform="translate(-287.366 -121.046)" fill="#d6ccbf" style="mix-blend-mode: multiply;isolation: isolate"/>
            <path id="路径_7704" data-name="路径 7704" d="M393.142,299.8V254.8l-6.271,3.62v44.993Z" transform="translate(-266.323 -108.403)" fill="#d6ccbf" style="mix-blend-mode: multiply;isolation: isolate"/>
            <path id="路径_7705" data-name="路径 7705" d="M467.693,229.778V211.761l-6.271,3.621V233.4h6.235l3.17-1.83Z" transform="translate(-227.606 -130.756)" fill="#d6ccbf" style="mix-blend-mode: multiply;isolation: isolate"/>
            <path id="路径_7706" data-name="路径 7706" d="M445.212,261.235l14.371-8.3L447.25,245.8l-16.864-9.731v16.6Z" transform="translate(-243.724 -118.13)" fill="#85727c" style="mix-blend-mode: multiply;isolation: isolate"/>
            <path id="路径_7707" data-name="路径 7707" d="M466.485,259.733l12.7-7.331L455.8,238.9v14.662Z" transform="translate(-230.525 -116.661)" fill="#d6ccbf" style="mix-blend-mode: multiply;isolation: isolate"/>
            <path id="路径_7708" data-name="路径 7708" d="M466.485,272.857l12.7-7.331-23.38-13.5v14.662Z" transform="translate(-230.525 -109.845)" fill="#d6ccbf" style="mix-blend-mode: multiply;isolation: isolate"/>
            <path id="路径_7709" data-name="路径 7709" d="M427.425,234.508v22.7l19.325,11.156v-5.2l-14.826-8.556V238l14.826,8.56v-5.2l-15.6-9.008Z" transform="translate(-245.262 -120.059)" fill="#85727c" style="mix-blend-mode: multiply;isolation: isolate"/>
            <path id="路径_7710" data-name="路径 7710" d="M445.478,250.826l32.329-18.666V214.144l-47.931,27.674Z" transform="translate(-243.99 -129.519)" fill="#85727c" style="mix-blend-mode: multiply;isolation: isolate"/>
            <path id="路径_7711" data-name="路径 7711" d="M516.875,265.316V233.773l-38.616,22.3v44.993h23.3l38.616-22.3Z" transform="translate(-218.863 -119.325)" fill="#ebe4da" style="mix-blend-mode: multiply;isolation: isolate"/>
            <path id="路径_7712" data-name="路径 7712" d="M440.771,213.066l-9-1.588,27.94-16.119-3.906-2.265-.015-19.63-12.834,7.4.445.766-32.857,18.972-.9-.52-36.23,20.9v16.324l-2.68,1.547v3.329l3.921,2.241,13.636-7.866,10.739,1.893a.8.8,0,0,0,.134.012.759.759,0,0,0,.383-.1l5.757-3.314,2.264,1.307,30.095-17.375L435.44,217.7l5.582-3.213a.767.767,0,0,0-.251-1.421Zm-6.867,3.747-2.458-1.419-15.532,8.967c1.443.843,1.44,2.2-.012,3.039a5.83,5.83,0,0,1-5.262.006l-9.288,5.363,2.414,1.395-4.745,2.732-8.66-1.527,39.338-22.7,8.722,1.539Z" transform="translate(-274.703 -150.645)" fill="#d6ccbf" style="mix-blend-mode: multiply;isolation: isolate"/>
            <path id="路径_7713" data-name="路径 7713" d="M401.372,209.111l-2.636,1.521A5.388,5.388,0,0,0,401.36,210c1.452-.839,1.455-2.2.012-3.039h0Z" transform="translate(-260.161 -133.248)" fill="#d6ccbf" style="mix-blend-mode: multiply;isolation: isolate"/>
            <path id="路径_7714" data-name="路径 7714" d="M467.39,235.157l23.669-13.665-1.51-6.242-10.59,6.114-3.045,5.314-11.6,6.7Z" transform="translate(-226.105 -128.944)" fill="#a17c6f" style="mix-blend-mode: multiply;isolation: isolate"/>
            <path id="路径_7715" data-name="路径 7715" d="M479.764,238.239l-13.631-7.864-1.8,1.037.632.365-.652.376,3.076,1.782.657-.379,11.714,6.763,12.575-7.261.533.333,2.329-4.066Z" transform="translate(-226.103 -121.635)" fill="#85727c" style="mix-blend-mode: multiply;isolation: isolate"/>
            <path id="路径_7716" data-name="路径 7716" d="M479.764,242.243l-13.631-7.863-1.8,1.037.632.365-.652.376,3.076,1.782.657-.379,11.714,6.763,12.575-7.261.533.333,2.329-4.066Z" transform="translate(-226.103 -119.555)" fill="#a17c6f" style="mix-blend-mode: multiply;isolation: isolate"/>
            <path id="路径_7717" data-name="路径 7717" d="M489.925,227.5l-3.045,5.314-12.4,7.157V242.5l15.438-8.913-3.042,5.31-12.4,7.157v2.533l15.438-8.913-3.042,5.31-12.4,7.157v2.533l26.492-15.3V221.117Z" transform="translate(-220.823 -125.898)" fill="#d6ccbf" style="mix-blend-mode: multiply;isolation: isolate"/>
            <path id="路径_7718" data-name="路径 7718" d="M435.911,191.632l1.93,6.482-10.787,6.244-6.595-3.812Z" transform="translate(-248.879 -141.21)" fill="#a17c6f" style="mix-blend-mode: multiply;isolation: isolate"/>
            <path id="路径_7719" data-name="路径 7719" d="M437.068,213.2l16.709-9.639v2.533l-16.709,9.639Z" transform="translate(-240.254 -135.014)" fill="#d6ccbf" style="mix-blend-mode: multiply;isolation: isolate"/>
          </g>
          <g id="组_9885" data-name="组 9885" transform="translate(218.073 182.24)">
            <path id="路径_7720" data-name="路径 7720" d="M433.112,295.077c-.09.153-.135.779-.331.781-.327,0-.067-.749-.035-.907.106-.514.22-1.026.325-1.541.05-.249.155-.482.182-.735.018-.173-.024-.381-.015-.574.011-.237.342-.311.545-.383.153-.053.576-.245.735-.2.106.033.273.377.337.469l.4.585c-.7.293-.618,1.159-.643,1.785-.011.264-.027.53-.029.795,0,.436.245.805.217,1.241-.015.222-.114.267-.208.451s-.04.371-.277.24a1.155,1.155,0,0,1-.226-.229c-.231-.245-.079-.02-.3-.036-.173-.011-.3-.489-.343-.615a2.6,2.6,0,0,1-.1-.638c-.011-.207-.012-.415-.018-.621A.259.259,0,0,0,433.112,295.077Z" transform="translate(-423.547 -271.579)" fill="#ffb3b0"/>
            <g id="组_9883" data-name="组 9883">
              <path id="路径_7721" data-name="路径 7721" d="M439.451,287.12s.245.073.2-.176-.512-.8-.345-1.171a1.225,1.225,0,0,1,1.43-.533c.64.2,1.085.58,1.367,1.773s0,2.126.425,2.838S439.451,287.12,439.451,287.12Z" transform="translate(-420.094 -274.868)" fill="#ffb3b0"/>
              <path id="路径_7722" data-name="路径 7722" d="M439.3,285.75a1.086,1.086,0,0,1,.634-.514,1.071,1.071,0,0,1,1.168.72c.416.884.336,2.344.766,3.44-.916-.819-2.42-2.3-2.42-2.3s.245.073.2-.176S439.136,286.121,439.3,285.75Z" transform="translate(-420.094 -274.846)" fill="#e09e9b"/>
              <path id="路径_7723" data-name="路径 7723" d="M442.161,289.482c.02.008.39-.094.6.141s.053,1.032.053,1.032Z" transform="translate(-418.591 -272.642)" fill="#5c4b51"/>
              <path id="路径_7724" data-name="路径 7724" d="M432.552,285.706a3.538,3.538,0,0,1-1.006-2.363,5.014,5.014,0,0,0-1.884-3.719c-1.156-.93-1.219-1.231-1.219-1.231h0a.386.386,0,0,1,.258.1,9.7,9.7,0,0,0,1.413,1.07,4.343,4.343,0,0,1,1.533,1.847c.175.465,1.1,3.479,2.411,3.82S432.552,285.706,432.552,285.706Z" transform="translate(-425.714 -278.393)" fill="#e09e9b"/>
              <path id="路径_7725" data-name="路径 7725" d="M433.557,282.54a5.673,5.673,0,0,1,5.742.3c2.7,1.969,2.236,3.937,2.938,4.8s2.964.728,4.635,2.507a28.389,28.389,0,0,1,4.339,6.954c.378,1.187-.808,2.1-2.344,1.861s-2.183-.81-3.207-.971-3.423-.971-4.1-.971-3.99.512-4.421.593-.592-.646-1.32-.214-.512-.163-.539-1.051.082-2.183-.836-2.831-2.7-1.4-3.449-2.776-1.416-.758-1.718-.779.141-.324,0-.667-.345-.293-.445-.454a3.083,3.083,0,0,1,0-1.942c.293-.778,1.785-1.779,2.607-2.291S432.411,283.323,433.557,282.54Z" transform="translate(-425.593 -276.583)" fill="#a9bacc"/>
              <path id="路径_7726" data-name="路径 7726" d="M439.867,290.983a1.013,1.013,0,0,1,1.933.507l0,.081-.05.065a.438.438,0,0,1-.283.144.361.361,0,0,0-.07.02,1.087,1.087,0,0,1-.64.213,1.19,1.19,0,0,1-.295-.039.917.917,0,0,1-.612-.878l0-.058Z" transform="translate(-419.794 -272.162)" fill="#899aad"/>
              <path id="路径_7727" data-name="路径 7727" d="M441.619,291.5a.916.916,0,0,0-.552-.895.876.876,0,0,0-1.091.447s.024.614.48.731a.966.966,0,0,0,.843-.167C441.407,291.543,441.563,291.567,441.619,291.5Z" transform="translate(-419.725 -272.079)" fill="#41313b"/>
              <path id="路径_7728" data-name="路径 7728" d="M438.791,287.982a1.216,1.216,0,0,1,.656,1.395c-.293.919-.748.637-1.1.748s-.243-.565-1.123-1.132-1.749-1.032-1.96-1.182.08-.071.7,0A10.3,10.3,0,0,1,438.791,287.982Z" transform="translate(-422.209 -273.547)" fill="#ffb3b0"/>
              <path id="路径_7729" data-name="路径 7729" d="M430.513,287.693a1.894,1.894,0,0,0-.4.445c-.141.213-.121-.252-.687-.506s-1.3.425-1.749.506-.515-.081-.283-.3-.121-.038-.5.05-.079-.287.082-.5-.03.02-.222.071-.1-.239.156-.46,2.422-.477,2.876-.764.637.8.637.8Z" transform="translate(-426.647 -274.35)" fill="#c78c8a"/>
              <path id="路径_7730" data-name="路径 7730" d="M443.884,291.931a1.574,1.574,0,0,1,.1.679.556.556,0,0,1-.407.582c-.15.058.052-.114,0-.15s-.251.09-.322.082a1,1,0,0,1-.431-.369c-.064-.144.441-.126.675-.243S443.947,292.277,443.884,291.931Z" transform="translate(-418.249 -271.362)" fill="#ffb3b0"/>
              <path id="路径_7731" data-name="路径 7731" d="M440.832,290.822a.338.338,0,0,1,.222.305c.006.234-.21.12-.317,0s-.2-.1-.24-.149S440.579,290.739,440.832,290.822Z" transform="translate(-419.46 -271.949)" fill="#5c4b51"/>
              <path id="路径_7732" data-name="路径 7732" d="M435.206,287.724l.015.008c-.024.009-.012.032.053.079.211.15,1.082.615,1.96,1.182s.769,1.243,1.123,1.132a.746.746,0,0,0-.425.576c-.02.395.365.486.213.738s-1.375.111-2.021-.556a5.374,5.374,0,0,1-.918-2.5A1.665,1.665,0,0,1,435.206,287.724Z" transform="translate(-422.219 -273.547)" fill="#e09e9b"/>
              <path id="路径_7733" data-name="路径 7733" d="M431,290.281c-.629-1.144-1.191-.91-1.538-.81-.07.02-.04-.293-.181-.637s-.345-.293-.445-.454a3.083,3.083,0,0,1,0-1.942c.293-.778,1.785-1.779,2.607-2.291a7.062,7.062,0,0,0,1.337-1.395c-1.249,1.845-.594,4.917-.163,6.57s2.4,3.286,5.157,5.014,3.719,1.007,4.438,1.527,3.838,1.112,4.412,1.664a3.918,3.918,0,0,0,1.424.8,24.875,24.875,0,0,0-2.385-.792c-1.024-.163-3.423-.971-4.1-.971s-3.99.512-4.421.593-.592-.646-1.32-.214-.512-.163-.539-1.051.082-2.183-.836-2.831S431.75,291.655,431,290.281Z" transform="translate(-425.593 -276.129)" fill="#95a8bd"/>
              <path id="路径_7734" data-name="路径 7734" d="M435.637,282.535a3.407,3.407,0,0,1,.855.521,6.04,6.04,0,0,1,.965.95,7.442,7.442,0,0,1,.907,2.183c.277.849.483,1.664,1.4,1.923s.76.346.45.416a2.075,2.075,0,0,1-1.832-.659c-.588-.693-1-2.736-1.8-3.153s-2.264-.933-2.437-1.541C434,282.645,434.52,282.084,435.637,282.535Z" transform="translate(-422.766 -276.327)" fill="#bfcddb"/>
            </g>
            <path id="路径_7735" data-name="路径 7735" d="M435.258,287.8c.211.15,1.082.615,1.96,1.182s.769,1.243,1.123,1.132a.746.746,0,0,0-.425.576c-.02.395.365.486.213.738-.039.067-.158.106-.319.115.09-.015.2-.07.158-.252-.062-.3-.492-.544-1.045-.931s-1.74-1.62-1.717-2.606A.308.308,0,0,0,435.258,287.8Z" transform="translate(-422.203 -273.533)" fill="#c78c8a"/>
            <path id="路径_7736" data-name="路径 7736" d="M434.423,292.019a24.624,24.624,0,0,1,3.924-.439,5.779,5.779,0,0,1,1.755.6,5.389,5.389,0,0,0-1.038-.191c-.618,0-3.459.432-4.257.565-.7.293-.618,1.159-.643,1.785-.011.264-.027.53-.029.795,0,.436.245.805.217,1.241a.713.713,0,0,1-.176.395h0c.225-.661-.737-2.624-.69-3.283S433.839,292.081,434.423,292.019Z" transform="translate(-423.096 -271.554)" fill="#d5dde6" style="mix-blend-mode: multiply;isolation: isolate"/>
            <path id="路径_7737" data-name="路径 7737" d="M426.94,287.692a13.838,13.838,0,0,1,3.78-1.252c1.443-.047,1.522,1.13,2.024,2.1a8.831,8.831,0,0,0,2.606,2.417,1.836,1.836,0,0,1,.67,1.167h0a1.773,1.773,0,0,0-.671-.985c-.916-.647-2.7-1.4-3.449-2.776-.629-1.146-1.191-.91-1.538-.81h0a1.9,1.9,0,0,0-.4.445c-.141.213-.121-.252-.687-.506s-1.3.425-1.749.506-.515-.081-.283-.3C427.428,287.518,427.227,287.606,426.94,287.692Z" transform="translate(-426.495 -274.214)" fill="#d5dde6" style="mix-blend-mode: multiply;isolation: isolate"/>
            <path id="路径_7738" data-name="路径 7738" d="M432.066,285.209a4.074,4.074,0,0,1-.875-2.236,5.013,5.013,0,0,0-1.884-3.719c-.064-.05-.122-.1-.179-.146,1.819.849,2.449,3.4,2.872,4.566a2.333,2.333,0,0,0,.62.893A7.763,7.763,0,0,0,432.066,285.209Z" transform="translate(-425.359 -278.022)" fill="#d5dde6" style="mix-blend-mode: multiply;isolation: isolate"/>
            <g id="组_9884" data-name="组 9884" transform="translate(12.241 14.616)" style="mix-blend-mode: multiply;isolation: isolate">
              <path id="路径_7739" data-name="路径 7739" d="M435.231,288.055a1.751,1.751,0,0,0,.21.122c0,.02,0,.039.009.059a5.374,5.374,0,0,0,.918,2.5,2.478,2.478,0,0,0,1.594.673,4.556,4.556,0,0,1-2.381-.819C434.221,289.687,434.722,287.7,435.231,288.055Z" transform="translate(-434.704 -288.013)" fill="#d5dde6"/>
            </g>
            <path id="路径_7740" data-name="路径 7740" d="M442.111,288.234a3.825,3.825,0,0,0-1.475-.7c-.837-.178-3.2-1.483-1.747-1.313a6.6,6.6,0,0,1,2.92,1.677C441.907,288,442.008,288.114,442.111,288.234Z" transform="translate(-420.53 -274.337)" fill="#d5dde6" style="mix-blend-mode: multiply;isolation: isolate"/>
          </g>
          <g id="组_9892" data-name="组 9892" transform="translate(152.558 120.829)">
            <g id="组_9891" data-name="组 9891" transform="translate(3.24)">
              <g id="组_9890" data-name="组 9890">
                <path id="路径_7741" data-name="路径 7741" d="M389.488,240.734l-.334-.033a2.545,2.545,0,0,0-1.709.453l-1.054.744a1.071,1.071,0,0,1-.731.191h0s.342-.281.482-.389l1.269-.983a2.542,2.542,0,0,1,1.266-.515l.67-.077Z" transform="translate(-385.659 -236.855)" fill="#54423d"/>
                <g id="组_9889" data-name="组 9889" transform="translate(1.323)">
                  <g id="组_9887" data-name="组 9887" transform="translate(3.834 3.322)">
                    <g id="组_9886" data-name="组 9886">
                      <path id="路径_7742" data-name="路径 7742" d="M389.053,241.812l.348.185a2.968,2.968,0,0,1,1.376,1.55l.547,1.408a1.269,1.269,0,0,0,.591.661h0s-.152-.5-.219-.694l-.6-1.781a2.983,2.983,0,0,0-.9-1.32l-.6-.509Z" transform="translate(-389.053 -239.561)" fill="#54423d"/>
                      <path id="路径_7743" data-name="路径 7743" d="M389.809,241.224l1.164.38a3.4,3.4,0,0,1,1.367.842l1.124,1.133a2.826,2.826,0,0,0,.931.626h0s-.541-.589-.735-.84l-.881-1.133a3.408,3.408,0,0,0-1.5-1.1l-.822-.308Z" transform="translate(-388.66 -239.817)" fill="#54423d"/>
                      <path id="路径_7744" data-name="路径 7744" d="M390.776,241.13l1.261-.222a2.439,2.439,0,0,1,1.3.126l1.8.69a2.5,2.5,0,0,0,1.012.166l.047,0a11.505,11.505,0,0,1-1.059-.53l-1.261-.81a2.44,2.44,0,0,0-2.121-.254l-.562.194Z" transform="translate(-388.158 -240.159)" fill="#54423d"/>
                    </g>
                  </g>
                  <path id="路径_7745" data-name="路径 7745" d="M395.861,239.582h0s-.6-1.6-3.192-1.609-5.041,2.382-5.041,2.382a1.233,1.233,0,0,1,1.51.009,4.2,4.2,0,0,1,1.9,3.286h0a10.107,10.107,0,0,0,2.663-1.056C395.4,241.615,396.2,240.413,395.861,239.582Z" transform="translate(-385.959 -237.973)" fill="#735a53"/>
                  <path id="路径_7746" data-name="路径 7746" d="M389.662,240.367a5.9,5.9,0,0,1,3.2-2.1,6.25,6.25,0,0,0-3.6,1.855,1.162,1.162,0,0,0-1.352.073s-1.141,1.372-.746,2.534h0a1.229,1.229,0,0,0,.571.631,5.279,5.279,0,0,0,3.581.131h0A4.24,4.24,0,0,0,389.662,240.367Z" transform="translate(-386.242 -237.818)" fill="#bf917a"/>
                  <path id="路径_7747" data-name="路径 7747" d="M389.806,242.272c.236-.789-.906-1.729-1.711-1.992-.641-.21-.822.036-.869.146a2.029,2.029,0,0,0-.061,1.308h0a1.093,1.093,0,0,0,.234.369,1.345,1.345,0,0,0,.311.245l.026.017a3.3,3.3,0,0,0,1.492.362A.681.681,0,0,0,389.806,242.272Z" transform="translate(-386.242 -236.817)" fill="#d9a88f"/>
                  <path id="路径_7748" data-name="路径 7748" d="M390.066,243.4a10.027,10.027,0,0,0,2.367-.978c1.7-.98,2.505-2.182,2.162-3.013h0a2.428,2.428,0,0,0-1.082-1.115c.216.141.8.713.012,2.48A5.444,5.444,0,0,1,390.066,243.4Z" transform="translate(-384.693 -237.804)" fill="#d5dde6" style="mix-blend-mode: multiply;isolation: isolate"/>
                  <g id="组_9888" data-name="组 9888" transform="translate(0 4.508)">
                    <path id="路径_7749" data-name="路径 7749" d="M387.013,244.4a.058.058,0,0,1-.039-.017c-.008-.008-.829-.869-.219-1.471a28.26,28.26,0,0,1,2.744-1.966.055.055,0,0,1,.076.017.056.056,0,0,1-.017.074,29.312,29.312,0,0,0-2.727,1.952c-.535.526.19,1.285.222,1.317a.056.056,0,0,1,0,.078A.053.053,0,0,1,387.013,244.4Z" transform="translate(-386.53 -240.94)" fill="#735a53"/>
                  </g>
                </g>
              </g>
              <path id="路径_7750" data-name="路径 7750" d="M388.938,241.351c.05.106-.058.261-.24.346s-.369.07-.419-.036.058-.26.24-.346S388.889,241.246,388.938,241.351Z" transform="translate(-384.305 -236.266)" fill="#735a53"/>
            </g>
            <path id="路径_7751" data-name="路径 7751" d="M389.064,240.366a33.909,33.909,0,0,1-3.084,1.422,4.657,4.657,0,0,1-2.382-.128.054.054,0,0,0-.068.035.055.055,0,0,0,.035.068,5.731,5.731,0,0,0,1.58.252,2.753,2.753,0,0,0,.869-.125c.738-.251,2.281-1.015,3.007-1.381C389.033,240.462,389.049,240.413,389.064,240.366Z" transform="translate(-383.526 -236.73)" fill="#735a53"/>
          </g>
          <g id="组_9899" data-name="组 9899" transform="translate(231.942 66.737)">
            <g id="组_9898" data-name="组 9898">
              <g id="组_9897" data-name="组 9897">
                <path id="路径_7752" data-name="路径 7752" d="M441.939,205.131l.334-.033a2.542,2.542,0,0,1,1.711.454l1.053.743a1.082,1.082,0,0,0,.732.193h0s-.343-.283-.483-.39l-1.269-.983a2.537,2.537,0,0,0-1.264-.515l-.67-.077Z" transform="translate(-432.575 -201.252)" fill="#54423d"/>
                <g id="组_9896" data-name="组 9896">
                  <g id="组_9894" data-name="组 9894" transform="translate(0 3.322)">
                    <g id="组_9893" data-name="组 9893">
                      <path id="路径_7753" data-name="路径 7753" d="M442.043,206.209l-.348.185a2.974,2.974,0,0,0-1.376,1.55l-.547,1.408a1.273,1.273,0,0,1-.589.661h0s.152-.5.217-.693l.6-1.781a2.98,2.98,0,0,1,.9-1.322l.6-.509Z" transform="translate(-434.007 -203.958)" fill="#54423d"/>
                      <path id="路径_7754" data-name="路径 7754" d="M441.878,205.621l-1.165.38a3.418,3.418,0,0,0-1.366.842l-1.126,1.133a2.836,2.836,0,0,1-.93.626h0s.539-.59.735-.84l.88-1.133a3.415,3.415,0,0,1,1.5-1.1l.823-.308Z" transform="translate(-434.989 -204.214)" fill="#54423d"/>
                      <path id="路径_7755" data-name="路径 7755" d="M441.194,205.527l-1.259-.22a2.439,2.439,0,0,0-1.3.125l-1.8.69a2.505,2.505,0,0,1-1.012.166l-.049,0a11.116,11.116,0,0,0,1.059-.53l1.261-.81a2.44,2.44,0,0,1,2.121-.254l.562.194Z" transform="translate(-435.776 -204.556)" fill="#54423d"/>
                    </g>
                  </g>
                  <path id="路径_7756" data-name="路径 7756" d="M437.1,203.979h0s.6-1.6,3.191-1.609,5.041,2.384,5.041,2.384a1.228,1.228,0,0,0-1.509.008,4.193,4.193,0,0,0-1.9,3.286h0a10.106,10.106,0,0,1-2.663-1.056C437.562,206.012,436.755,204.81,437.1,203.979Z" transform="translate(-435.13 -202.37)" fill="#735a53"/>
                  <path id="路径_7757" data-name="路径 7757" d="M442.434,204.764a5.9,5.9,0,0,0-3.2-2.1,6.261,6.261,0,0,1,3.6,1.855,1.159,1.159,0,0,1,1.352.074s1.143,1.37.746,2.533h0a1.228,1.228,0,0,1-.571.631,5.278,5.278,0,0,1-3.581.131h0A4.244,4.244,0,0,1,442.434,204.764Z" transform="translate(-433.982 -202.215)" fill="#bf917a"/>
                  <path id="路径_7758" data-name="路径 7758" d="M441.254,206.669c-.236-.787.905-1.729,1.711-1.992.643-.21.822.038.869.146a2.009,2.009,0,0,1,.061,1.308h0a1.067,1.067,0,0,1-.234.369,1.378,1.378,0,0,1-.311.246l-.026.015a3.272,3.272,0,0,1-1.492.362A.681.681,0,0,1,441.254,206.669Z" transform="translate(-432.948 -201.214)" fill="#d9a88f"/>
                  <path id="路径_7759" data-name="路径 7759" d="M441.626,207.8a10.053,10.053,0,0,1-2.367-.978c-1.7-.98-2.5-2.182-2.16-3.013h0a2.429,2.429,0,0,1,1.08-1.115c-.216.141-.8.713-.012,2.48A5.448,5.448,0,0,0,441.626,207.8Z" transform="translate(-435.13 -202.201)" fill="#d5dde6" style="mix-blend-mode: multiply;isolation: isolate"/>
                  <g id="组_9895" data-name="组 9895" transform="translate(8.817 4.508)">
                    <path id="路径_7760" data-name="路径 7760" d="M444.148,208.8a.05.05,0,0,0,.04-.017c.008-.008.831-.869.219-1.471a28.541,28.541,0,0,0-2.744-1.966.053.053,0,0,0-.074.017.054.054,0,0,0,.015.074,29.112,29.112,0,0,1,2.727,1.952c.535.526-.19,1.285-.222,1.319a.054.054,0,0,0,0,.076A.053.053,0,0,0,444.148,208.8Z" transform="translate(-441.579 -205.337)" fill="#735a53"/>
                  </g>
                </g>
              </g>
              <path id="路径_7761" data-name="路径 7761" d="M441.414,205.748c-.049.106.058.261.24.346s.371.07.419-.036-.058-.26-.24-.346S441.464,205.643,441.414,205.748Z" transform="translate(-432.854 -200.663)" fill="#735a53"/>
            </g>
            <path id="路径_7762" data-name="路径 7762" d="M442.947,204.763a33.94,33.94,0,0,0,3.086,1.422,4.633,4.633,0,0,0,2.381-.128.055.055,0,0,1,.068.036.053.053,0,0,1-.035.067,5.693,5.693,0,0,1-1.58.254,2.755,2.755,0,0,1-.869-.126,32.785,32.785,0,0,1-3.007-1.381C442.977,204.859,442.962,204.81,442.947,204.763Z" transform="translate(-432.052 -201.127)" fill="#735a53"/>
          </g>
          <g id="组_9906" data-name="组 9906" transform="translate(134.648 9.897)">
            <g id="组_9905" data-name="组 9905" transform="translate(3.239)">
              <g id="组_9904" data-name="组 9904">
                <path id="路径_7763" data-name="路径 7763" d="M377.7,167.72l-.334-.032a2.539,2.539,0,0,0-1.711.453l-1.053.744a1.089,1.089,0,0,1-.732.191h0s.343-.281.483-.39l1.269-.981a2.538,2.538,0,0,1,1.264-.515l.67-.077Z" transform="translate(-373.87 -163.841)" fill="#54423d"/>
                <g id="组_9903" data-name="组 9903" transform="translate(1.323)">
                  <g id="组_9901" data-name="组 9901" transform="translate(3.835 3.322)">
                    <g id="组_9900" data-name="组 9900">
                      <path id="路径_7764" data-name="路径 7764" d="M377.265,168.8l.346.184a2.979,2.979,0,0,1,1.378,1.551l.547,1.407a1.27,1.27,0,0,0,.59.662h0s-.152-.5-.219-.694l-.6-1.781a2.979,2.979,0,0,0-.9-1.322l-.6-.509Z" transform="translate(-377.265 -166.547)" fill="#54423d"/>
                      <path id="路径_7765" data-name="路径 7765" d="M378.02,168.211l1.165.38a3.394,3.394,0,0,1,1.366.842l1.126,1.133a2.883,2.883,0,0,0,.93.626h0s-.541-.589-.735-.84l-.88-1.133a3.413,3.413,0,0,0-1.5-1.1l-.824-.308Z" transform="translate(-376.873 -166.803)" fill="#54423d"/>
                      <path id="路径_7766" data-name="路径 7766" d="M378.988,168.117l1.259-.222a2.453,2.453,0,0,1,1.3.125l1.8.691a2.553,2.553,0,0,0,1.012.166l.049,0a11.551,11.551,0,0,1-1.06-.529l-1.259-.811a2.448,2.448,0,0,0-2.123-.254l-.561.2Z" transform="translate(-376.37 -167.146)" fill="#54423d"/>
                    </g>
                  </g>
                  <path id="路径_7767" data-name="路径 7767" d="M384.072,166.57h0s-.6-1.6-3.192-1.61-5.04,2.384-5.04,2.384a1.231,1.231,0,0,1,1.509.009,4.191,4.191,0,0,1,1.9,3.286v0a10.161,10.161,0,0,0,2.665-1.054C383.607,168.6,384.415,167.4,384.072,166.57Z" transform="translate(-374.17 -164.959)" fill="#735a53"/>
                  <path id="路径_7768" data-name="路径 7768" d="M377.873,167.353a5.905,5.905,0,0,1,3.2-2.1,6.254,6.254,0,0,0-3.6,1.857,1.159,1.159,0,0,0-1.352.073s-1.142,1.372-.748,2.534h0a1.222,1.222,0,0,0,.571.63,5.284,5.284,0,0,0,3.579.129l0,0A4.245,4.245,0,0,0,377.873,167.353Z" transform="translate(-374.454 -164.804)" fill="#bf917a"/>
                  <path id="路径_7769" data-name="路径 7769" d="M378.018,169.259c.235-.789-.906-1.731-1.712-1.992-.641-.21-.822.036-.869.146a2.029,2.029,0,0,0-.061,1.308h0a1.076,1.076,0,0,0,.234.369,1.359,1.359,0,0,0,.31.245l.027.017a3.291,3.291,0,0,0,1.492.362A.683.683,0,0,0,378.018,169.259Z" transform="translate(-374.454 -163.803)" fill="#d9a88f"/>
                  <path id="路径_7770" data-name="路径 7770" d="M378.278,170.392a10.182,10.182,0,0,0,2.367-.978c1.7-.98,2.5-2.182,2.16-3.013h0a2.436,2.436,0,0,0-1.08-1.117c.214.143.8.714.012,2.481A5.459,5.459,0,0,1,378.278,170.392Z" transform="translate(-372.904 -164.79)" fill="#d5dde6" style="mix-blend-mode: multiply;isolation: isolate"/>
                  <g id="组_9902" data-name="组 9902" transform="translate(0 4.51)">
                    <path id="路径_7771" data-name="路径 7771" d="M375.226,171.389a.055.055,0,0,1-.04-.017c-.009-.009-.831-.869-.219-1.471a28.266,28.266,0,0,1,2.744-1.966.054.054,0,1,1,.058.091,29.073,29.073,0,0,0-2.726,1.952c-.535.526.19,1.285.22,1.317a.054.054,0,0,1,0,.077A.059.059,0,0,1,375.226,171.389Z" transform="translate(-374.741 -167.927)" fill="#735a53"/>
                  </g>
                </g>
              </g>
              <path id="路径_7772" data-name="路径 7772" d="M377.15,168.338c.049.1-.059.26-.24.345s-.371.07-.421-.035.059-.261.24-.346S377.1,168.232,377.15,168.338Z" transform="translate(-372.516 -163.251)" fill="#735a53"/>
            </g>
            <path id="路径_7773" data-name="路径 7773" d="M377.276,167.352a33.969,33.969,0,0,1-3.086,1.424,4.65,4.65,0,0,1-2.381-.128.054.054,0,1,0-.033.1,5.771,5.771,0,0,0,1.58.252,2.716,2.716,0,0,0,.869-.126,32.745,32.745,0,0,0,3.005-1.38C377.244,167.448,377.259,167.4,377.276,167.352Z" transform="translate(-371.738 -163.716)" fill="#735a53"/>
          </g>
          <g id="组_9932" data-name="组 9932" transform="translate(0 28.491)">
            <path id="路径_7774" data-name="路径 7774" d="M323.019,282.485c.41.012,14.072-.7,13.3,4.181-1.188,7.54-19.906,9.73-22.346,8.941-2.7-.872-3.06-4.637-2.855-7.458a8.173,8.173,0,0,1,.826-3.811C314.151,279.258,323.019,282.485,323.019,282.485Z" transform="translate(-268.595 -123.043)" fill="#a9bacc"/>
            <path id="路径_7775" data-name="路径 7775" d="M296.375,302.939a8.675,8.675,0,0,0,6.834,9.1c7.489,1.832,18.326,1.965,20.667-3.266s-16.226-11.5-16.226-11.5Z" transform="translate(-276.236 -114.843)" fill="#a9bacc"/>
            <g id="组_9907" data-name="组 9907" transform="translate(27.071 101.129)">
              <path id="路径_7776" data-name="路径 7776" d="M323.432,313.224a7.287,7.287,0,0,0,6.437-3.856c1.033-1.934,10.026-19.283,7.583-32.582-2.423-13.2-20.986-28.509-24.683-31.444a7.3,7.3,0,0,0-9.078,11.43h0c7.2,5.728,18.347,16.89,19.406,22.652,1.15,6.27-3.134,17.48-6.106,23.074a7.3,7.3,0,0,0,6.44,10.726Z" transform="translate(-300.932 -243.759)" fill="#00a1c9"/>
            </g>
            <g id="组_9908" data-name="组 9908" transform="translate(19.298 116.907)">
              <path id="路径_7777" data-name="路径 7777" d="M303.119,332.371A7.3,7.3,0,0,0,310.1,327.2a229.315,229.315,0,0,1,9.269-24.419c6.08-13.353,9.771-39.229,9.924-40.324a7.3,7.3,0,0,0-14.453-2.033c-.971,6.883-4.435,26.822-8.754,36.306a240.576,240.576,0,0,0-9.947,26.211,7.3,7.3,0,0,0,6.984,9.427Z" transform="translate(-295.816 -254.144)" fill="#49c4e3"/>
            </g>
            <g id="组_9913" data-name="组 9913" transform="translate(67.085)">
              <g id="组_9909" data-name="组 9909" transform="translate(15.677)">
                <path id="路径_7778" data-name="路径 7778" d="M339.307,221.467a1.042,1.042,0,0,1-1.661-1.136l14.677-41.625a1.039,1.039,0,0,1,.79-.678l4.348-.813a1.04,1.04,0,0,1,.982.346l2.99,3.491a1.041,1.041,0,0,1-1.58,1.355l-2.6-3.036-3.168.591-14.475,41.06A1.046,1.046,0,0,1,339.307,221.467Z" transform="translate(-337.587 -177.197)" fill="#293b49"/>
              </g>
              <g id="组_9910" data-name="组 9910" transform="translate(0 41.198)">
                <path id="路径_7779" data-name="路径 7779" d="M341.018,204.314l-1.963,2.01-10.495,34.457,4.39.823,14.885-33.633-2.427-2.833Z" transform="translate(-326.598 -204.314)" fill="#a9bacc"/>
                <path id="路径_7780" data-name="路径 7780" d="M329.232,228.316l-1.963,2.01,2.427,2.834,4.39.824,1.963-2.01-2.427-2.834Z" transform="translate(-327.269 -191.849)" fill="#a9bacc"/>
                <path id="路径_7781" data-name="路径 7781" d="M327.269,242.791l12.457-36.467,1.963-2.01-12.457,36.467Z" transform="translate(-327.269 -204.314)" fill="#ccd9e6"/>
                <path id="路径_7782" data-name="路径 7782" d="M331.45,241.322l12.457-36.467,2.427,2.834-12.457,36.467Z" transform="translate(-325.098 -204.032)" fill="#95a8bd"/>
                <path id="路径_7783" data-name="路径 7783" d="M329.475,228.806l-1.446,1.481,1.789,2.088,3.235.607L334.5,231.5l-1.789-2.088Z" transform="translate(-326.874 -191.594)" fill="#95a8bd"/>
                <path id="路径_7784" data-name="路径 7784" d="M333.34,231.707,330.1,231.1l-1.476-1.723-.6.614,1.789,2.088,3.235.607,1.446-1.482-.313-.365Z" transform="translate(-326.874 -191.298)" fill="#ccd9e6"/>
              </g>
              <g id="组_9912" data-name="组 9912" transform="translate(6.611 43.59)">
                <g id="组_9911" data-name="组 9911">
                  <path id="路径_7785" data-name="路径 7785" d="M337.888,207.055c-.061.008-.119.014-.181.024a7.1,7.1,0,0,0-4.877,4.178c-.021.059-.035.117-.053.175l-.893.766,1.995,2.329h0a2.257,2.257,0,0,0,2.217.544,7.1,7.1,0,0,0,4.877-4.178,2.261,2.261,0,0,0-.194-2.274h0l-2-2.329Z" transform="translate(-331.484 -205.679)" fill="#293b49"/>
                  <path id="路径_7786" data-name="路径 7786" d="M336.7,205.954c2.013-.375,3.093.886,2.413,2.817a7.1,7.1,0,0,1-4.879,4.178c-2.013.377-3.093-.884-2.411-2.817A7.1,7.1,0,0,1,336.7,205.954Z" transform="translate(-331.62 -205.887)" fill="#3d6372"/>
                </g>
                <path id="路径_7787" data-name="路径 7787" d="M335.813,206.749c1.313-.245,2.016.576,1.573,1.834a4.631,4.631,0,0,1-3.178,2.723c-1.311.245-2.015-.577-1.571-1.835A4.622,4.622,0,0,1,335.813,206.749Z" transform="translate(-331.162 -205.463)" fill="#f5b659"/>
                <path id="路径_7788" data-name="路径 7788" d="M333.483,210.459a4.621,4.621,0,0,1,3.177-2.723,1.988,1.988,0,0,1,.851.006c-.067-.757-.708-1.179-1.7-.994a4.622,4.622,0,0,0-3.177,2.721c-.334.948-.017,1.647.72,1.829A2.018,2.018,0,0,1,333.483,210.459Z" transform="translate(-331.162 -205.463)" fill="#293b49"/>
              </g>
            </g>
            <g id="组_9916" data-name="组 9916" transform="translate(17.527 33.541)">
              <g id="组_9915" data-name="组 9915" transform="translate(0 35.471)">
                <g id="组_9914" data-name="组 9914">
                  <path id="路径_7789" data-name="路径 7789" d="M301.684,223.082h.024a5.674,5.674,0,0,1,3.982-.213h.006c30.99,3.713,29.878,18.435,29.878,18.435v31.11c0,3.023-2,6.047-5.992,8.355-.409.236-.839.451-1.273.664v.156l-.141-.084c-8.039,3.858-19.987,3.615-27.524-.737-4-2.308-5.992-5.331-5.992-8.355V233.546C294.651,225.9,301.684,223.082,301.684,223.082Z" transform="translate(-294.651 -222.62)" fill="#49c4e3"/>
                </g>
              </g>
              <path id="路径_7790" data-name="路径 7790" d="M313.745,199.308c-18.635,1-18.551,16.664-18.855,21.966s4.345,10.214,4.815,12.445-1.688,3.868-1.688,3.868c5.553,6.968,13.335,3.178,15.037,2.434a13.873,13.873,0,0,1,12.664.608c2.51,1.342,3.385-5.143,2.764-10.523C327.233,219.314,332.379,198.31,313.745,199.308Z" transform="translate(-294.534 -199.273)" fill="#00a1c9"/>
            </g>
            <g id="组_9917" data-name="组 9917" transform="translate(45.757 53.075)">
              <path id="路径_7791" data-name="路径 7791" d="M326.768,251.918a20.717,20.717,0,0,0,7.866-1.506c6.776-2.762,11.754-9.01,14.8-18.568,1.784-5.6,3.282-10.214,4.453-13.7a4.561,4.561,0,0,0-8.646-2.908c-1.187,3.531-2.7,8.188-4.5,13.841-2.182,6.858-5.394,11.193-9.546,12.885-5.468,2.227-11.2-.676-11.255-.706a4.561,4.561,0,1,0-4.281,8.055A25.77,25.77,0,0,0,326.768,251.918Z" transform="translate(-313.231 -212.13)" fill="#00a1c9"/>
            </g>
            <g id="组_9931" data-name="组 9931" transform="translate(0 63.563)">
              <g id="组_9918" data-name="组 9918" transform="translate(0.004 49.276)">
                <path id="路径_7792" data-name="路径 7792" d="M313.112,272.477l-5.492,3.159L300.538,264l12.574-7.259Z" transform="translate(-274.07 -248.724)" fill="#95a8bd"/>
                <path id="路径_7793" data-name="路径 7793" d="M316.667,278.379,290.2,263.1l-7.082-11.632,26.468,15.281Z" transform="translate(-283.117 -251.466)" fill="#a9bacc"/>
              </g>
              <path id="路径_7794" data-name="路径 7794" d="M309.582,245.678,283.115,230.4l12.574-7.26,26.467,15.281Z" transform="translate(-283.115 -216.903)" fill="#f1a4a1"/>
              <path id="路径_7795" data-name="路径 7795" d="M313.111,268.975l-12.574,7.259V240.454l12.574-7.259Z" transform="translate(-274.067 -211.679)" fill="#f1625c"/>
              <g id="组_9920" data-name="组 9920" transform="translate(0.002 13.494)">
                <g id="组_9919" data-name="组 9919">
                  <path id="路径_7796" data-name="路径 7796" d="M309.584,278.977,283.116,263.7V227.915L309.584,243.2Z" transform="translate(-283.116 -227.915)" fill="#f18480"/>
                  <path id="路径_7797" data-name="路径 7797" d="M299.75,253.3l-2.077,1.2V240.525l2.077-1.2Z" transform="translate(-275.556 -221.989)" fill="#95a8bd"/>
                </g>
                <path id="路径_7798" data-name="路径 7798" d="M285.323,231l-2.077,1.2h0l21.92,12.656,2.077-1.2Z" transform="translate(-283.049 -226.315)" fill="#ccd9e6"/>
                <path id="路径_7799" data-name="路径 7799" d="M305.166,258.412l-21.921-12.655V231.785l21.92,12.656Z" transform="translate(-283.049 -225.905)" fill="#a9bacc"/>
              </g>
              <path id="路径_7800" data-name="路径 7800" d="M306.6,236.556l-1.7-.982v-4.135l5.94,2.669Z" transform="translate(-271.8 -212.591)" fill="#f5a459"/>
              <path id="路径_7801" data-name="路径 7801" d="M289.718,226.807v-4.135l2.54.705,1.7.982Z" transform="translate(-279.685 -217.144)" fill="#db763b"/>
              <path id="路径_7802" data-name="路径 7802" d="M315.067,238.026,288.6,222.744v-2.1l26.468,15.282Z" transform="translate(-280.266 -218.197)" fill="#f5a459"/>
              <path id="路径_7803" data-name="路径 7803" d="M290.3,227.143v-4.135l-1.7-.981v4.135Z" transform="translate(-280.266 -217.479)" fill="#f5a459"/>
              <path id="路径_7804" data-name="路径 7804" d="M306.02,232.922v4.135l4.24-2.448v-4.135Z" transform="translate(-271.219 -213.092)" fill="#db763b"/>
              <path id="路径_7805" data-name="路径 7805" d="M315.067,236.764,288.6,221.482l4.24-2.448,26.469,15.282Z" transform="translate(-280.266 -219.033)" fill="#f5b659"/>
              <path id="路径_7806" data-name="路径 7806" d="M310.26,231.191v-2.1l-4.24,2.448v2.1Z" transform="translate(-271.219 -213.81)" fill="#db763b"/>
              <g id="组_9924" data-name="组 9924" transform="translate(33.567 19.495)">
                <g id="组_9921" data-name="组 9921" transform="translate(0.001 7.899)">
                  <path id="路径_7807" data-name="路径 7807" d="M312.166,241.8a.5.5,0,0,1-.251-.067L305.458,238a.5.5,0,0,1,.5-.868l6.457,3.727a.5.5,0,0,1-.251.936Z" transform="translate(-305.209 -237.064)" fill="#293b49"/>
                </g>
                <g id="组_9922" data-name="组 9922" transform="translate(0 21.746)">
                  <path id="路径_7808" data-name="路径 7808" d="M312.167,250.908a.5.5,0,0,1-.251-.067l-6.457-3.727a.5.5,0,0,1,.5-.869l6.457,3.727a.5.5,0,0,1-.251.936Z" transform="translate(-305.208 -246.178)" fill="#293b49"/>
                </g>
                <g id="组_9923" data-name="组 9923">
                  <path id="路径_7809" data-name="路径 7809" d="M309.45,270.59a4.951,4.951,0,0,1-2.445-.74l-1.547-.893a.5.5,0,1,1,.5-.868l1.547.892a2.508,2.508,0,0,0,4.158-2.4V232.366a.5.5,0,0,1,1,0V266.58a3.922,3.922,0,0,1-1.69,3.613A3.026,3.026,0,0,1,309.45,270.59Z" transform="translate(-305.208 -231.865)" fill="#293b49"/>
                </g>
              </g>
              <g id="组_9930" data-name="组 9930" transform="translate(5.71 8.856)">
                <g id="组_9925" data-name="组 9925">
                  <path id="路径_7810" data-name="路径 7810" d="M294.486,226.81c-.049-.032-.094-.064-.147-.094a6.836,6.836,0,0,0-6.185,0c-.052.03-.1.062-.147.094h-1.133V228.5h0a2.174,2.174,0,0,0,1.281,1.787,6.836,6.836,0,0,0,6.185,0,2.177,2.177,0,0,0,1.282-1.787h0V226.81Z" transform="translate(-286.873 -224.284)" fill="#293b49"/>
                  <path id="路径_7811" data-name="路径 7811" d="M294.339,225.6c1.709.986,1.709,2.584,0,3.57a6.836,6.836,0,0,1-6.185,0c-1.708-.986-1.708-2.584,0-3.57A6.827,6.827,0,0,1,294.339,225.6Z" transform="translate(-286.873 -224.863)" fill="#3d6372"/>
                </g>
                <g id="组_9929" data-name="组 9929" transform="translate(8.921 7.577)">
                  <g id="组_9926" data-name="组 9926">
                    <path id="路径_7812" data-name="路径 7812" d="M296.853,230.9l-.079-.05a3.692,3.692,0,0,0-3.338,0c-.029.017-.053.033-.081.05h-.611v.913h0a1.169,1.169,0,0,0,.691.963,3.682,3.682,0,0,0,3.338,0,1.172,1.172,0,0,0,.691-.963h0V230.9Z" transform="translate(-292.745 -229.537)" fill="#293b49"/>
                    <path id="路径_7813" data-name="路径 7813" d="M296.774,230.248a1.018,1.018,0,0,1,0,1.928,3.692,3.692,0,0,1-3.338,0,1.018,1.018,0,0,1,0-1.928A3.692,3.692,0,0,1,296.774,230.248Z" transform="translate(-292.745 -229.85)" fill="#3d6372"/>
                  </g>
                  <g id="组_9927" data-name="组 9927" transform="translate(5.04 2.917)">
                    <path id="路径_7814" data-name="路径 7814" d="M300.17,232.821c-.026-.017-.05-.035-.079-.052a3.692,3.692,0,0,0-3.338,0c-.027.017-.053.035-.079.052h-.612v.912h0a1.174,1.174,0,0,0,.691.965,3.691,3.691,0,0,0,3.338,0,1.174,1.174,0,0,0,.691-.965h0v-.912Z" transform="translate(-296.062 -231.457)" fill="#293b49"/>
                    <path id="路径_7815" data-name="路径 7815" d="M300.091,232.168a1.018,1.018,0,0,1,0,1.928,3.691,3.691,0,0,1-3.338,0,1.018,1.018,0,0,1,0-1.928A3.692,3.692,0,0,1,300.091,232.168Z" transform="translate(-296.062 -231.77)" fill="#3d6372"/>
                  </g>
                  <g id="组_9928" data-name="组 9928" transform="translate(10.081 5.835)">
                    <path id="路径_7816" data-name="路径 7816" d="M303.488,234.741c-.026-.017-.052-.035-.079-.052a3.692,3.692,0,0,0-3.338,0c-.029.017-.053.035-.08.052h-.611v.913h0a1.171,1.171,0,0,0,.691.963,3.692,3.692,0,0,0,3.338,0,1.174,1.174,0,0,0,.691-.963h0v-.913Z" transform="translate(-299.38 -233.378)" fill="#293b49"/>
                    <path id="路径_7817" data-name="路径 7817" d="M303.409,234.09a1.017,1.017,0,0,1,0,1.926,3.691,3.691,0,0,1-3.338,0,1.017,1.017,0,0,1,0-1.926A3.682,3.682,0,0,1,303.409,234.09Z" transform="translate(-299.38 -233.69)" fill="#3d6372"/>
                  </g>
                </g>
              </g>
            </g>
            <path id="路径_7818" data-name="路径 7818" d="M334.866,215.238a4.561,4.561,0,0,1,8.647,2.908c-.593,1.764-1.27,3.817-2.025,6.14l-.006-.017c-.076-1.443-1.825-2.47-3.953-3.344a10.042,10.042,0,0,0-4.329-.647C333.81,218.411,334.367,216.72,334.866,215.238Z" transform="translate(-257.105 -159.056)" fill="#e6e6e6"/>
          </g>
          <g id="组_9933" data-name="组 9933" transform="translate(98.061 36.774)" opacity="0.25">
            <path id="路径_7819" data-name="路径 7819" d="M423.2,214.789a19.851,19.851,0,0,0-17.864-19.751,13.08,13.08,0,0,0-1.465-1.073,8.791,8.791,0,0,0-16.017-6.951,13.635,13.635,0,0,0-17.6-.934,8.792,8.792,0,0,0-14.285,10.236,13.022,13.022,0,0,0-4.234,16.846,8.791,8.791,0,0,0,9.037,15.076,19.8,19.8,0,0,0,25.9,15.442,13.069,13.069,0,0,0,8.139,6.254A8.793,8.793,0,1,0,412.28,251.4a8.778,8.778,0,0,0-3.336-6.89A12.971,12.971,0,0,0,410.48,233.3,19.843,19.843,0,0,0,423.2,214.789Z" transform="translate(-347.657 -182.649)" fill="#49c4e3"/>
            <path id="路径_7820" data-name="路径 7820" d="M403.862,216.469a7.044,7.044,0,1,0,7.044,7.044A7.042,7.042,0,0,0,403.862,216.469Z" transform="translate(-322.126 -165.085)" fill="#49c4e3"/>
            <path id="路径_7821" data-name="路径 7821" d="M364.556,227.315A5.447,5.447,0,1,0,370,232.762,5.447,5.447,0,0,0,364.556,227.315Z" transform="translate(-341.71 -159.453)" fill="#49c4e3"/>
          </g>
          <path id="路径_7822" data-name="路径 7822" d="M396.976,175.129a10.562,10.562,0,0,0-1.386,1.138,5.991,5.991,0,1,0-2.338,11.75,10.505,10.505,0,1,0,3.724-12.888Z" transform="translate(-228.449 -150.724)" fill="#49c4e3" opacity="0.25"/>
          <path id="路径_7823" data-name="路径 7823" d="M383.185,171.117a3.567,3.567,0,1,0,3.567,3.567A3.567,3.567,0,0,0,383.185,171.117Z" transform="translate(-232.998 -151.864)" fill="#49c4e3" opacity="0.25"/>
        </g>
      </g>
    </g>
  </g>
</svg>
