<svg xmlns="http://www.w3.org/2000/svg" width="1202" height="415" viewBox="0 0 1202 415">
  <g id="banner" transform="translate(-274 -122)">
    <g id="组_9937" data-name="组 9937" transform="translate(274 122)">
      <rect id="矩形_208" data-name="矩形 208" width="1200" height="415" transform="translate(2 0)" fill="#fff"/>
      <g id="组_9935" data-name="组 9935" transform="translate(600 39.99)">
        <path id="路径_7547" data-name="路径 7547" d="M411.215,239.277A28.581,28.581,0,0,0,435.6,268.86a19.09,19.09,0,0,0,2.036,1.641,12.656,12.656,0,0,0,22.576,11.051,19.635,19.635,0,0,0,25.247,2.5,12.657,12.657,0,0,0,21.218-13.779,18.742,18.742,0,0,0,7.2-23.95,12.658,12.658,0,0,0-12-22.279,28.5,28.5,0,0,0-36.232-23.915,18.813,18.813,0,0,0-11.292-9.533,12.66,12.66,0,1,0-20.673,6.864,18.664,18.664,0,0,0-2.946,16.029A28.563,28.563,0,0,0,411.215,239.277Z" transform="translate(-131.042 -120.024)" fill="#49c4e3" opacity="0.25"/>
        <g id="组_9844" data-name="组 9844" transform="translate(295.026)">
          <g id="组_9824" data-name="组 9824" transform="translate(131.203 15.134)">
            <g id="组_9811" data-name="组 9811" transform="translate(0.002 59.813)">
              <path id="路径_7548" data-name="路径 7548" d="M501.634,215.093l-7.387,4.25,0-20.556,16.914-9.765Z" transform="translate(-458.642 -178.232)" fill="#95a8bd"/>
              <path id="路径_7549" data-name="路径 7549" d="M513.573,225.2l-35.6-20.555,0-20.556,35.6,20.555Z" transform="translate(-477.97 -184.089)" fill="#a9bacc"/>
            </g>
            <path id="路径_7550" data-name="路径 7550" d="M513.572,187.942l-35.6-20.556,16.914-9.766,35.6,20.556Z" transform="translate(-477.969 -155.705)" fill="#f1a4a1"/>
            <path id="路径_7551" data-name="路径 7551" d="M511.161,215.149l-16.914,9.765V176.783l16.914-9.765Z" transform="translate(-458.64 -144.547)" fill="#f1625c"/>
            <g id="组_9813" data-name="组 9813" transform="translate(0.003 11.681)">
              <g id="组_9812" data-name="组 9812">
                <path id="路径_7552" data-name="路径 7552" d="M513.574,230.771l-35.6-20.555V162.085l35.6,20.555Z" transform="translate(-477.97 -162.085)" fill="#f18480"/>
              </g>
            </g>
            <g id="组_9817" data-name="组 9817" transform="translate(38.459 23.631)">
              <g id="组_9814" data-name="组 9814" transform="translate(0 10.625)">
                <path id="路径_7553" data-name="路径 7553" d="M504.911,178.768a.665.665,0,0,1-.337-.09l-8.686-5.014a.674.674,0,1,1,.674-1.168l8.686,5.014a.674.674,0,0,1-.337,1.258Z" transform="translate(-495.551 -172.405)" fill="#293b49"/>
              </g>
              <g id="组_9815" data-name="组 9815" transform="translate(0 29.251)">
                <path id="路径_7554" data-name="路径 7554" d="M504.909,187.283a.662.662,0,0,1-.335-.09l-8.686-5.014a.674.674,0,1,1,.674-1.168l8.686,5.014a.674.674,0,0,1-.339,1.258Z" transform="translate(-495.551 -180.92)" fill="#293b49"/>
              </g>
              <g id="组_9816" data-name="组 9816">
                <path id="路径_7555" data-name="路径 7555" d="M501.256,219.637a6.651,6.651,0,0,1-3.288-1l-2.08-1.2a.674.674,0,1,1,.674-1.168l2.08,1.2c1.546.895,2.966,1.059,4,.462s1.6-1.905,1.6-3.69l0-46.023a.674.674,0,1,1,1.347,0v46.023c0,2.288-.807,4.014-2.273,4.86A4.075,4.075,0,0,1,501.256,219.637Z" transform="translate(-495.551 -167.548)" fill="#293b49"/>
              </g>
            </g>
            <g id="组_9822" data-name="组 9822" transform="translate(27.053 11.31)">
              <g id="组_9821" data-name="组 9821">
                <g id="组_9818" data-name="组 9818">
                  <path id="路径_7556" data-name="路径 7556" d="M495.864,163.081c-.035-.022-.07-.046-.107-.068a4.967,4.967,0,0,0-4.491,0c-.037.022-.07.046-.107.068h-.823v1.229h0a1.577,1.577,0,0,0,.93,1.295,4.967,4.967,0,0,0,4.491,0,1.577,1.577,0,0,0,.93-1.295h0v-1.229Z" transform="translate(-490.336 -161.248)" fill="#293b49"/>
                  <path id="路径_7557" data-name="路径 7557" d="M495.756,162.453a1.368,1.368,0,0,1,0,2.592,4.967,4.967,0,0,1-4.491,0,1.369,1.369,0,0,1,0-2.592A4.954,4.954,0,0,1,495.756,162.453Z" transform="translate(-490.335 -161.915)" fill="#3d6372"/>
                </g>
                <g id="组_9819" data-name="组 9819" transform="translate(6.781 3.926)">
                  <path id="路径_7558" data-name="路径 7558" d="M498.964,164.875c-.037-.022-.07-.046-.107-.068a4.967,4.967,0,0,0-4.491,0c-.037.022-.072.046-.107.068h-.823V166.1h0a1.577,1.577,0,0,0,.93,1.295,4.954,4.954,0,0,0,4.491,0,1.577,1.577,0,0,0,.93-1.295h0v-1.229Z" transform="translate(-493.436 -163.044)" fill="#293b49"/>
                  <path id="路径_7559" data-name="路径 7559" d="M498.857,164.246a1.369,1.369,0,0,1,0,2.592,4.967,4.967,0,0,1-4.491,0,1.368,1.368,0,0,1,0-2.592A4.967,4.967,0,0,1,498.857,164.246Z" transform="translate(-493.436 -163.71)" fill="#3d6372"/>
                </g>
                <g id="组_9820" data-name="组 9820" transform="translate(13.562 7.85)">
                  <path id="路径_7560" data-name="路径 7560" d="M502.062,166.671c-.035-.024-.068-.048-.107-.07a4.963,4.963,0,0,0-4.489,0,1.27,1.27,0,0,0-.107.07h-.822V167.9h0a1.572,1.572,0,0,0,.93,1.295,4.949,4.949,0,0,0,4.489,0,1.573,1.573,0,0,0,.93-1.295h0v-1.227Z" transform="translate(-496.536 -164.838)" fill="#293b49"/>
                  <path id="路径_7561" data-name="路径 7561" d="M501.954,166.04a1.368,1.368,0,0,1,0,2.592,4.962,4.962,0,0,1-4.489,0,1.368,1.368,0,0,1,0-2.592A4.963,4.963,0,0,1,501.954,166.04Z" transform="translate(-496.536 -165.504)" fill="#3d6372"/>
                </g>
              </g>
            </g>
            <g id="组_9823" data-name="组 9823" transform="translate(0.003)">
              <path id="路径_7562" data-name="路径 7562" d="M495.488,175.218,493.2,173.9v-5.562l7.991,3.59Z" transform="translate(-459.884 -142.982)" fill="#f5a459"/>
              <path id="路径_7563" data-name="路径 7563" d="M513.574,181.631l-35.6-20.557V158.25l35.6,20.558Z" transform="translate(-477.97 -154.957)" fill="#f5a459"/>
              <path id="路径_7564" data-name="路径 7564" d="M494.247,170.727v5.562l5.7-3.293v-5.562Z" transform="translate(-458.642 -144.053)" fill="#db763b"/>
              <path id="路径_7565" data-name="路径 7565" d="M513.574,180.6l-35.6-20.558,5.7-3.293,35.6,20.558Z" transform="translate(-477.97 -156.745)" fill="#f5b659"/>
              <path id="路径_7566" data-name="路径 7566" d="M499.951,168.966v-2.823l-5.7,3.293v2.823Z" transform="translate(-458.642 -145.585)" fill="#db763b"/>
            </g>
          </g>
          <g id="组_9843" data-name="组 9843">
            <g id="组_9842" data-name="组 9842" transform="translate(53.989)">
              <g id="组_9825" data-name="组 9825" transform="translate(46.925 66.242)">
                <path id="路径_7567" data-name="路径 7567" d="M480.946,185.613a11.9,11.9,0,0,1-4.88-1.03c-7.286-3.251-11.635-2.487-11.679-2.481l-.265-1.369c.192-.039,4.78-.873,12.512,2.577,7.131,3.178,14.474-3.137,14.549-3.2l.917,1.05C491.841,181.384,486.922,185.613,480.946,185.613Z" transform="translate(-464.122 -180.109)" fill="#f5b659"/>
              </g>
              <path id="路径_7568" data-name="路径 7568" d="M495.288,203.814s9.073-.208,10.725,9.242.917,22.918-5.775,25.392-12.932-21.1-12.932-21.1Z" transform="translate(-389.667 -85.719)" fill="#a9bacc"/>
              <path id="路径_7569" data-name="路径 7569" d="M492.849,233.8s3.078,8.538-5.361,13.1-21.443,8.139-25.91,2.581,15.909-18.961,15.909-18.961Z" transform="translate(-420.978 -54.003)" fill="#a9bacc"/>
              <g id="组_9826" data-name="组 9826" transform="translate(55.173 90.391)">
                <path id="路径_7570" data-name="路径 7570" d="M482.289,255.7a14.324,14.324,0,0,1-14.242-13.321,84.739,84.739,0,0,1,10.388-45.435A11.155,11.155,0,1,1,498,207.666a63.514,63.514,0,0,0-7.081,20.743c4.939-2.719,9.754-5.624,11.6-6.827a11.176,11.176,0,0,1,18.145,10.692c-1.065,5.488-3.85,7.076-15.559,13.757-7.916,4.515-14.054,7.516-18.245,8.918A14.39,14.39,0,0,1,482.289,255.7Zm8.013-14.875h0Z" transform="translate(-467.892 -191.149)" fill="#00a1c9"/>
              </g>
              <g id="组_9827" data-name="组 9827" transform="translate(52.509 86.024)">
                <path id="路径_7571" data-name="路径 7571" d="M477.842,288.11a11.019,11.019,0,0,1-1.435-.094,11.152,11.152,0,0,1-9.64-12.486l4.333-33.717a20.992,20.992,0,0,1,6.171-12.363c.916-.9,20.518-18.044,20.518-18.044,2.251-1.52,5.362-1.236,5.69-4.167l.912-8.168a11.155,11.155,0,0,1,12.322-9.848c6.123.682,8.319,6.2,7.634,12.326l-.184,8.352c-1.057,9.448-4.552,17.631-12.18,22.776l-.149.1-18.683,12.466-4.259,33.133A11.161,11.161,0,0,1,477.842,288.11Z" transform="translate(-466.675 -189.153)" fill="#49c4e3"/>
              </g>
              <g id="组_9841" data-name="组 9841">
                <g id="组_9828" data-name="组 9828" transform="translate(16.622 41.834)">
                  <path id="路径_7572" data-name="路径 7572" d="M454.83,193.647a6.313,6.313,0,0,0,2.1.249h0c.009,0,4.9-.039,19.58,2.785,16.751,3.222,27.94-10.858,31.514-18.755a6.354,6.354,0,0,0-11.565-5.265c-.282.61-6.5,13.665-17.55,11.541-16.185-3.113-21.662-3.043-22.6-3a6.355,6.355,0,0,0-1.483,12.444Z" transform="translate(-450.269 -168.951)" fill="#00a1c9"/>
                  <path id="路径_7573" data-name="路径 7573" d="M464.921,175.232s3.539,1.509,1.063,7.814a29.315,29.315,0,0,1-2.454,4.825,57.721,57.721,0,0,0-6.6-.619h0a6.354,6.354,0,1,1-.619-12.694A54.05,54.05,0,0,1,464.921,175.232Z" transform="translate(-450.269 -162.306)" fill="#e6e6e6"/>
                </g>
                <g id="组_9832" data-name="组 9832" transform="translate(0 53.611)">
                  <g id="组_9829" data-name="组 9829" transform="translate(0 2.245)">
                    <path id="路径_7574" data-name="路径 7574" d="M488.293,184.713l-2.559-1.9-40.346-6.58-.261,5.062,40.085,11.642,2.819-3.159Z" transform="translate(-439.751 -174.328)" fill="#a9bacc"/>
                    <path id="路径_7575" data-name="路径 7575" d="M448.308,177.264l-2.558-1.9-2.819,3.16-.261,5.062,2.558,1.9,2.819-3.16Z" transform="translate(-442.67 -175.361)" fill="#a9bacc"/>
                    <path id="路径_7576" data-name="路径 7576" d="M444.078,175.361l42.9,8.483,2.559,1.9-42.9-8.482Z" transform="translate(-440.998 -175.361)" fill="#ccd9e6"/>
                    <path id="路径_7577" data-name="路径 7577" d="M446.658,178.545l42.9,8.483-2.819,3.159-42.9-8.482Z" transform="translate(-441.281 -171.58)" fill="#95a8bd"/>
                    <path id="路径_7578" data-name="路径 7578" d="M447.164,177.372l-1.886-1.4L443.2,178.3l-.192,3.731,1.886,1.4,2.078-2.328Z" transform="translate(-442.267 -174.638)" fill="#95a8bd"/>
                    <path id="路径_7579" data-name="路径 7579" d="M444.154,182.2l.192-3.731,1.715-1.921-.782-.582L443.2,178.3l-.192,3.731,1.886,1.4.363-.407Z" transform="translate(-442.267 -174.638)" fill="#ccd9e6"/>
                  </g>
                  <g id="组_9831" data-name="组 9831" transform="translate(8.025)">
                    <g id="组_9830" data-name="组 9830">
                      <path id="路径_7580" data-name="路径 7580" d="M455.811,177.013c-.05-.046-.1-.094-.151-.14a8.055,8.055,0,0,0-7.175-1.288c-.066.024-.127.053-.19.079l-1.315-.236-.615,3.428h0a2.56,2.56,0,0,0,1.113,2.338,8.062,8.062,0,0,0,7.175,1.286,2.556,2.556,0,0,0,1.857-1.8h0l.617-3.425Z" transform="translate(-446.338 -173.27)" fill="#293b49"/>
                      <path id="路径_7581" data-name="路径 7581" d="M455.678,175.976c1.776,1.5,1.444,3.353-.744,4.143a8.063,8.063,0,0,1-7.175-1.288c-1.774-1.5-1.441-3.353.744-4.143A8.055,8.055,0,0,1,455.678,175.976Z" transform="translate(-446.004 -174.335)" fill="#3d6372"/>
                    </g>
                    <path id="路径_7582" data-name="路径 7582" d="M453.333,175.892c1.157.978.941,2.185-.483,2.7a5.251,5.251,0,0,1-4.675-.838c-1.155-.978-.938-2.185.486-2.7A5.247,5.247,0,0,1,453.333,175.892Z" transform="translate(-445.039 -173.754)" fill="#f5b659"/>
                    <path id="路径_7583" data-name="路径 7583" d="M448.4,176.506a5.247,5.247,0,0,1,4.672.84,2.294,2.294,0,0,1,.606.75c.617-.6.527-1.468-.346-2.2a5.247,5.247,0,0,0-4.672-.838c-1.074.387-1.459,1.168-1.092,1.947A2.3,2.3,0,0,1,448.4,176.506Z" transform="translate(-445.038 -173.754)" fill="#293b49"/>
                  </g>
                </g>
                <g id="组_9836" data-name="组 9836" transform="translate(41.988 18.586)">
                  <g id="组_9834" data-name="组 9834" transform="translate(0 19.228)">
                    <path id="路径_7584" data-name="路径 7584" d="M480.056,167.655h.028a6.673,6.673,0,0,1,4.688-.249h.009c36.484,4.37,35.176,21.7,35.176,21.7v36.626c0,3.559-2.351,7.12-7.057,9.835-.481.278-.987.532-1.5.781v.186l-.166-.1c-9.465,4.541-23.532,4.255-32.4-.868-4.7-2.715-7.057-6.276-7.057-9.835V179.977C471.774,170.976,480.056,167.655,480.056,167.655Z" transform="translate(-450.098 -167.113)" fill="#49c4e3"/>
                    <g id="组_9833" data-name="组 9833" transform="translate(0 16.624)">
                      <path id="路径_7585" data-name="路径 7585" d="M464.654,197.23c6.2,7.114,13.647,10.808,22.178,10.994,21.187.459,40.736-22.065,41.557-23.023a6.353,6.353,0,0,0-9.644-8.273c-4.537,5.267-19.072,18.88-31.659,18.591-5.274-.123-9.813-2.695-13.868-7.87a6.354,6.354,0,1,0-10,7.844Q463.925,196.393,464.654,197.23Z" transform="translate(-461.865 -174.713)" fill="#00a1c9"/>
                    </g>
                  </g>
                  <path id="路径_7586" data-name="路径 7586" d="M469.876,168.042c.223,8.478,3.27,10.132,5.307,13.409,2.183,3.513,15.4,9.454,15.119,4.992-3.841-.221-11.206-4.038-12.788-6.582-2.034-3.275-5.083-4.928-5.3-13.407-.12-4.618.107-6.175.917-7.9.037-.079.1-.138.144-.212a3.163,3.163,0,0,0-2.476,1.8C469.986,161.867,469.756,163.424,469.876,168.042Z" transform="translate(-452.387 -158.299)" fill="#00a1c9"/>
                  <g id="组_9835" data-name="组 9835" transform="translate(19.793)">
                    <path id="路径_7587" data-name="路径 7587" d="M470.943,166.478c.221,8.478,3.27,10.132,5.3,13.407,1.582,2.544,8.947,6.361,12.788,6.582a3.974,3.974,0,0,0-.339-1.3c-2.861-6.755,3.786-15.911-2.467-21.273-4.451-3.815-10.362-5.116-13.4-5.55a3.041,3.041,0,0,0-1.433.175,3.224,3.224,0,0,1,.608-.155c-.044.074-.107.133-.144.212C471.051,160.3,470.823,161.86,470.943,166.478Z" transform="translate(-470.913 -158.323)" fill="#fec6aa"/>
                  </g>
                </g>
                <path id="路径_7588" data-name="路径 7588" d="M470.969,187.64c4.526,11.961,24.011,13.151,27.664,11.364s6.068-7.033,13.282-4.073c0,0-2.54-1.927-1.986-4.554s6.026-8.408,5.668-14.651-.258-24.685-22.2-25.862S466.441,175.679,470.969,187.64Zm-.617-9.485c-.12-4.618.109-6.175.919-7.9a3.158,3.158,0,0,1,3.3-1.82c3.038.433,8.949,1.735,13.4,5.55,6.254,5.361-.394,14.518,2.467,21.273s-12.42.105-14.78-3.695C473.623,188.288,470.575,186.634,470.352,178.155Z" transform="translate(-410.875 -149.826)" fill="#00a1c9"/>
                <path id="路径_7589" data-name="路径 7589" d="M463.219,189.79a6.354,6.354,0,1,1,10-7.844,24.126,24.126,0,0,0,4.968,4.854l0,.013s2.443,2.021-.952,5.681c-3.373,3.635-5.469,4.985-7.929,3.526a36.863,36.863,0,0,1-4.653-4.493Q463.926,190.69,463.219,189.79Z" transform="translate(-419.877 -114.571)" fill="#e6e6e6"/>
                <g id="组_9840" data-name="组 9840" transform="translate(52.794 28.777)">
                  <g id="组_9837" data-name="组 9837" transform="translate(0 1.489)">
                    <path id="路径_7590" data-name="路径 7590" d="M471.888,163.662l5.084.454v6.778l-5.083,6.324-5.084-.454v-6.778Z" transform="translate(-466.805 -163.662)" fill="#487587"/>
                    <path id="路径_7591" data-name="路径 7591" d="M473.436,164.606l5.083.454v6.778l-5.084,6.324-5.083-.454V170.93Z" transform="translate(-464.967 -162.542)" fill="#293b49"/>
                    <path id="路径_7592" data-name="路径 7592" d="M477.6,166.181l-3.385-2.065-5.084-.454,3.385,2.065Z" transform="translate(-464.045 -163.662)" fill="#5990a6"/>
                    <path id="路径_7593" data-name="路径 7593" d="M470.19,168.618l-3.385-2.064v6.778l3.385,2.065Z" transform="translate(-466.805 -160.23)" fill="#304e59"/>
                  </g>
                  <path id="路径_7594" data-name="路径 7594" d="M473.922,162.982l3.565.585,3.565,3.531,3.787,14.053-6.518,1.834-8.179-14.911Z" transform="translate(-462.842 -162.982)" fill="#3d6372"/>
                  <g id="组_9838" data-name="组 9838" transform="translate(4.462 5.093)">
                    <path id="路径_7595" data-name="路径 7595" d="M471.682,165.31l2.671.438,2.671,2.645,2.837,11.828-2.378,1.018-3.13-1.807-3.129-1.807-2.379-3.764Z" transform="translate(-468.844 -165.31)" fill="#304e59"/>
                    <path id="路径_7596" data-name="路径 7596" d="M471.578,166.421l1.8.236,1.8,1.843,1.913,8.522-1.6.815-2.11-1.218-2.11-1.218-1.6-2.666Z" transform="translate(-467.87 -163.99)" fill="#db763b"/>
                  </g>
                  <path id="路径_7597" data-name="路径 7597" d="M471.578,166.421l1.487.2-1.606,5.3,1.6,2.666,2.11,1.218,1.89,1.091.03.132-1.6.815-2.11-1.218-2.11-1.218-1.6-2.667Z" transform="translate(-463.409 -158.898)" fill="#f5a459"/>
                  <g id="组_9839" data-name="组 9839" transform="translate(13.902 9.521)">
                    <path id="路径_7598" data-name="路径 7598" d="M478.243,167.334l5.083.454v6.778l-5.084,6.324-5.083-.454v-6.778Z" transform="translate(-473.16 -167.334)" fill="#487587"/>
                    <path id="路径_7599" data-name="路径 7599" d="M479.791,168.278l5.083.454v6.778l-5.083,6.324-5.084-.454V174.6Z" transform="translate(-471.322 -166.213)" fill="#293b49"/>
                    <path id="路径_7600" data-name="路径 7600" d="M483.952,169.853l-3.385-2.065-5.083-.454,3.385,2.064Z" transform="translate(-470.4 -167.334)" fill="#5990a6"/>
                    <path id="路径_7601" data-name="路径 7601" d="M476.545,172.29l-3.385-2.064V177l3.385,2.065Z" transform="translate(-473.16 -163.901)" fill="#304e59"/>
                    <path id="路径_7602" data-name="路径 7602" d="M479.065,169.093l3.746.335v5l-3.746,4.661-3.747-.335v-5Z" transform="translate(-470.596 -165.246)" fill="#db763b"/>
                    <path id="路径_7603" data-name="路径 7603" d="M477.511,177.965l3.746-4.661v-4.122l1.554.139v4.995l-3.746,4.661-3.747-.335v-.873Z" transform="translate(-470.596 -165.139)" fill="#f5a459"/>
                  </g>
                  <path id="路径_7604" data-name="路径 7604" d="M476.037,163.249l-4.674,4.946,2.671,2.646,5.568-4.06Z" transform="translate(-461.392 -162.664)" fill="#5990a6"/>
                </g>
              </g>
            </g>
            <path id="路径_7605" data-name="路径 7605" d="M474.811,183l-51.794-10.738a1.242,1.242,0,0,0-1.186.392l-3.526,3.957a1.244,1.244,0,0,0-.254,1.221l1.728,5.232a1.248,1.248,0,0,0,2.369-.783l-1.5-4.548,2.57-2.881,51.09,10.592a1.248,1.248,0,0,0,.505-2.443Z" transform="translate(-417.988 -123.211)" fill="#293b49"/>
          </g>
        </g>
        <g id="组_9934" data-name="组 9934" transform="translate(0 18.853)">
          <g id="组_9847" data-name="组 9847" transform="translate(288.666 167.229)">
            <path id="路径_7606" data-name="路径 7606" d="M427.4,253.57c.129.223.195,1.122.477,1.124.47,0,.1-1.076.05-1.3-.153-.739-.319-1.476-.468-2.218-.072-.359-.223-.693-.263-1.059-.026-.249.035-.549.022-.827-.015-.341-.492-.451-.785-.551-.221-.077-.829-.354-1.061-.282-.151.048-.392.542-.483.676-.192.28-.387.56-.58.84,1.006.422.89,1.669.925,2.572.015.381.039.763.039,1.144,0,.628-.35,1.159-.311,1.787.02.317.162.385.3.647.127.247.059.534.4.348a1.726,1.726,0,0,0,.326-.33c.332-.354.114-.031.433-.053.252-.017.44-.7.5-.888a3.732,3.732,0,0,0,.144-.919c.013-.3.017-.6.026-.895A.373.373,0,0,1,427.4,253.57Z" transform="translate(-404.119 -219.739)" fill="#ffb3b0"/>
            <g id="组_9845" data-name="组 9845">
              <path id="路径_7607" data-name="路径 7607" d="M421.711,244.9s-.352.107-.284-.252.737-1.155.494-1.689a1.759,1.759,0,0,0-2.056-.766c-.921.291-1.562.833-1.969,2.551s0,3.062-.612,4.088S421.711,244.9,421.711,244.9Z" transform="translate(-412.526 -227.259)" fill="#ffb3b0"/>
              <path id="路径_7608" data-name="路径 7608" d="M421.384,242.909a1.579,1.579,0,0,0-.912-.739,1.544,1.544,0,0,0-1.682,1.037c-.6,1.275-.486,3.375-1.1,4.952,1.319-1.177,3.485-3.31,3.485-3.31s-.352.107-.284-.252S421.624,243.443,421.384,242.909Z" transform="translate(-411.986 -227.21)" fill="#e09e9b"/>
              <path id="路径_7609" data-name="路径 7609" d="M417.061,246.418a.987.987,0,0,0-.864.2c-.3.339-.077,1.483-.077,1.483Z" transform="translate(-413.941 -222.17)" fill="#5c4b51"/>
              <path id="路径_7610" data-name="路径 7610" d="M428.969,245.85s1.085-.8,1.448-3.4,1.048-4.016,2.712-5.355,1.754-1.774,1.754-1.774h0a.554.554,0,0,0-.372.144,14.249,14.249,0,0,1-2.034,1.54,6.236,6.236,0,0,0-2.207,2.658c-.251.669-1.59,5.011-3.471,5.5S428.969,245.85,428.969,245.85Z" transform="translate(-401.759 -235.32)" fill="#e09e9b"/>
              <path id="路径_7611" data-name="路径 7611" d="M440.632,239.76s-4.386-2.406-8.266.427-3.22,5.665-4.23,6.908-4.268,1.048-6.674,3.609a40.831,40.831,0,0,0-6.247,10.012c-.545,1.708,1.164,3.027,3.375,2.677s3.143-1.164,4.618-1.4,4.928-1.4,5.9-1.4,5.744.737,6.363.853.855-.932,1.9-.311.737-.232.777-1.514-.118-3.143,1.2-4.075,3.881-2.017,4.965-4,2.039-1.091,2.474-1.12-.2-.466,0-.96.5-.422.641-.656a4.433,4.433,0,0,0,0-2.793c-.422-1.12-2.57-2.561-3.754-3.3S442.282,240.884,440.632,239.76Z" transform="translate(-415.043 -231.181)" fill="#a9bacc"/>
              <path id="路径_7612" data-name="路径 7612" d="M420.32,248.171a1.459,1.459,0,0,0-2.782.728l0,.118.072.092a.624.624,0,0,0,.407.21.329.329,0,0,1,.1.028,1.584,1.584,0,0,0,.921.3,1.7,1.7,0,0,0,.424-.055,1.319,1.319,0,0,0,.882-1.264l0-.085Z" transform="translate(-412.165 -221.071)" fill="#899aad"/>
              <path id="路径_7613" data-name="路径 7613" d="M417.61,248.839a1.317,1.317,0,0,1,.794-1.286,1.257,1.257,0,0,1,1.571.643s-.035.884-.691,1.052a1.4,1.4,0,0,1-1.214-.241C417.916,248.905,417.691,248.942,417.61,248.839Z" transform="translate(-412.078 -220.882)" fill="#41313b"/>
              <path id="路径_7614" data-name="路径 7614" d="M421.663,245.022a1.75,1.75,0,0,0-.945,2.008c.422,1.326,1.076.919,1.586,1.078s.35-.816,1.614-1.63,2.518-1.485,2.824-1.7-.116-.1-1,0S422.842,244.527,421.663,245.022Z" transform="translate(-408.483 -224.239)" fill="#ffb3b0"/>
              <path id="路径_7615" data-name="路径 7615" d="M429.476,245.284a2.752,2.752,0,0,1,.582.643c.2.3.175-.365.989-.728s1.877.61,2.518.728.741-.118.407-.437.175-.057.724.072.114-.413-.12-.726.044.028.322.1.138-.341-.225-.663-3.489-.687-4.141-1.1-.917,1.151-.917,1.151Z" transform="translate(-397.987 -226.074)" fill="#c78c8a"/>
              <path id="路径_7616" data-name="路径 7616" d="M415.228,248.859a2.225,2.225,0,0,0-.144.978.8.8,0,0,0,.586.838c.217.081-.074-.164,0-.217s.361.129.464.116a1.438,1.438,0,0,0,.621-.532c.09-.206-.634-.179-.971-.348S415.138,249.356,415.228,248.859Z" transform="translate(-415.081 -219.243)" fill="#ffb3b0"/>
              <path id="路径_7617" data-name="路径 7617" d="M418.127,247.759a.487.487,0,0,0-.319.44c-.009.337.3.173.457,0s.284-.147.346-.217S418.491,247.639,418.127,247.759Z" transform="translate(-411.842 -220.585)" fill="#5c4b51"/>
              <path id="路径_7618" data-name="路径 7618" d="M425.936,244.652l-.022.009c.035.015.018.048-.077.114-.306.219-1.557.888-2.824,1.7s-1.1,1.789-1.614,1.63a1.068,1.068,0,0,1,.61.829c.031.569-.523.7-.3,1.063s1.977.16,2.909-.8,1.216-3.056,1.321-3.6A2.385,2.385,0,0,0,425.936,244.652Z" transform="translate(-407.578 -224.239)" fill="#e09e9b"/>
              <path id="路径_7619" data-name="路径 7619" d="M441.788,250.519c.906-1.647,1.715-1.308,2.214-1.166.1.028.057-.42.26-.914s.5-.422.641-.656a4.433,4.433,0,0,0,0-2.793c-.422-1.12-2.57-2.561-3.754-3.3a10.179,10.179,0,0,1-1.925-2.01c1.8,2.658.855,7.079.234,9.461s-3.454,4.731-7.426,7.218-5.353,1.45-6.387,2.2-5.525,1.6-6.352,2.4a5.678,5.678,0,0,1-2.05,1.146,35.7,35.7,0,0,1,3.434-1.142c1.474-.232,4.928-1.4,5.9-1.4s5.744.737,6.363.853.855-.932,1.9-.311.737-.232.777-1.514-.118-3.143,1.2-4.075S440.7,252.5,441.788,250.519Z" transform="translate(-412.513 -230.143)" fill="#95a8bd"/>
              <path id="路径_7620" data-name="路径 7620" d="M427.315,239.536a4.9,4.9,0,0,0-1.232.75,8.7,8.7,0,0,0-1.391,1.367,10.772,10.772,0,0,0-1.3,3.143c-.4,1.223-.7,2.393-2.015,2.767s-1.1.5-.647.6a2.979,2.979,0,0,0,2.638-.947c.847-1,1.444-3.942,2.588-4.539s3.259-1.343,3.509-2.218C429.677,239.693,428.921,238.886,427.315,239.536Z" transform="translate(-408.791 -230.596)" fill="#bfcddb"/>
            </g>
            <path id="路径_7621" data-name="路径 7621" d="M425.837,244.742c-.306.219-1.557.888-2.824,1.7s-1.1,1.789-1.614,1.63a1.068,1.068,0,0,1,.61.829c.031.569-.523.7-.3,1.063.057.1.228.151.459.164-.131-.022-.282-.1-.228-.361.09-.437.707-.783,1.505-1.341s2.5-2.334,2.47-3.751A.348.348,0,0,1,425.837,244.742Z" transform="translate(-407.578 -224.207)" fill="#c78c8a"/>
            <path id="路径_7622" data-name="路径 7622" d="M429,249.147c-.844-.09-4.384-.8-5.65-.632a8.36,8.36,0,0,0-2.526.862,7.587,7.587,0,0,1,1.494-.276c.89,0,4.981.619,6.129.812,1.006.422.89,1.671.925,2.572.015.381.039.763.039,1.144,0,.628-.35,1.159-.311,1.787a1.041,1.041,0,0,0,.254.569h0c-.324-.954,1.061-3.78.993-4.729S429.846,249.239,429,249.147Z" transform="translate(-408.258 -219.682)" fill="#d5dde6" style="mix-blend-mode: multiply;isolation: isolate"/>
            <path id="路径_7623" data-name="路径 7623" d="M438.825,245.173c-.986-.35-3.594-1.743-5.442-1.8-2.078-.068-2.192,1.627-2.914,3.03s-2.938,2.935-3.751,3.478a2.652,2.652,0,0,0-.967,1.68l0,0a2.558,2.558,0,0,1,.967-1.42c1.319-.93,3.881-2.017,4.965-4,.906-1.647,1.715-1.308,2.214-1.166h0a2.75,2.75,0,0,1,.582.643c.2.3.175-.365.989-.728s1.877.61,2.518.728.741-.118.407-.437C438.123,244.921,438.412,245.048,438.825,245.173Z" transform="translate(-402.411 -225.766)" fill="#d5dde6" style="mix-blend-mode: multiply;isolation: isolate"/>
            <path id="路径_7624" data-name="路径 7624" d="M428.038,244.821a5.874,5.874,0,0,0,1.26-3.22c.361-2.605,1.048-4.016,2.712-5.355.092-.074.175-.142.258-.212-2.618,1.223-3.526,4.9-4.134,6.575a3.334,3.334,0,0,1-.892,1.284A11.172,11.172,0,0,1,428.038,244.821Z" transform="translate(-400.64 -234.472)" fill="#d5dde6" style="mix-blend-mode: multiply;isolation: isolate"/>
            <g id="组_9846" data-name="组 9846" transform="translate(14.742 21.045)" style="mix-blend-mode: multiply;isolation: isolate">
              <path id="路径_7625" data-name="路径 7625" d="M425.751,245a2.692,2.692,0,0,1-.3.175c0,.028-.007.055-.013.083-.105.54-.389,2.636-1.321,3.6a3.576,3.576,0,0,1-2.295.967,6.55,6.55,0,0,0,3.428-1.177C427.205,247.351,426.484,244.488,425.751,245Z" transform="translate(-421.82 -244.941)" fill="#d5dde6"/>
            </g>
            <path id="路径_7626" data-name="路径 7626" d="M417.816,246.053a5.579,5.579,0,0,1,2.124-1.013c1.205-.256,4.6-2.133,2.516-1.888a9.463,9.463,0,0,0-4.2,2.415C418.109,245.719,417.963,245.883,417.816,246.053Z" transform="translate(-411.833 -226.045)" fill="#d5dde6" style="mix-blend-mode: multiply;isolation: isolate"/>
          </g>
          <g id="组_9882" data-name="组 9882" transform="translate(53.402)">
            <path id="路径_7627" data-name="路径 7627" d="M620.056,267.991l-172.1,99.368H415.182l-52.154-49.032L535.133,218.96Z" transform="translate(-241.625 -88.191)" fill="#ebe4da" style="mix-blend-mode: multiply;isolation: isolate"/>
            <g id="组_9881" data-name="组 9881">
              <g id="组_9864" data-name="组 9864">
                <g id="组_9854" data-name="组 9854" transform="translate(0 9.942)">
                  <path id="路径_7628" data-name="路径 7628" d="M307.528,276.156V211.378l84.923,49.032v64.778Z" transform="translate(-307.528 -106.613)" fill="#c3cc88"/>
                  <path id="路径_7629" data-name="路径 7629" d="M355.379,296.188V231.41l-9.028,5.213V301.4Z" transform="translate(-261.428 -82.94)" fill="#959e63"/>
                  <path id="路径_7630" data-name="路径 7630" d="M533.856,298.552l-55.6,32.1V265.873l55.6-32.1Z" transform="translate(-104.798 -80.542)" fill="#959e63"/>
                  <g id="组_9849" data-name="组 9849" transform="translate(84.923 48.341)">
                    <path id="路径_7631" data-name="路径 7631" d="M538.62,248.369l-55.6,32.1-55.6-32.1,55.6-32.1Z" transform="translate(-250.082 -148.756)" fill="#85727c"/>
                    <g id="组_9848" data-name="组 9848">
                      <path id="路径_7632" data-name="路径 7632" d="M518.456,191.883l-172.1,99.367v-6.478l172.1-99.367Z" transform="translate(-346.351 -185.405)" fill="#d1c2ae"/>
                      <path id="路径_7633" data-name="路径 7633" d="M558.976,215.278l-172.1,99.367v-6.478l172.1-99.368Z" transform="translate(-298.237 -157.626)" fill="#d1c2ae"/>
                    </g>
                    <path id="路径_7634" data-name="路径 7634" d="M564.036,251.2l-55.6,32.1-55.6-32.1,55.6-32.1Z" transform="translate(-219.901 -145.397)" fill="#d4db9b"/>
                  </g>
                  <path id="路径_7635" data-name="路径 7635" d="M452.842,233.773v64.778l55.6,32.1V265.873Z" transform="translate(-134.978 -80.542)" fill="#959e63"/>
                  <path id="路径_7636" data-name="路径 7636" d="M427.425,268.131V235.453l5.359-3.094,50.238,29.005v38.867Z" transform="translate(-165.159 -81.818)" fill="#85727c"/>
                  <path id="路径_7637" data-name="路径 7637" d="M432.784,232.359l-5.359,3.093V268.13l55.6,32.1V261.364Zm43.76,56.652L433.9,264.392V240.485l42.642,24.62Z" transform="translate(-165.159 -81.817)" fill="#57444e"/>
                  <g id="组_9850" data-name="组 9850" transform="translate(88.634 155.417)">
                    <path id="路径_7638" data-name="路径 7638" d="M348.048,299.551V234.773L432.971,283.8v64.778Z" transform="translate(-348.048 -234.773)" fill="#c3cc88"/>
                    <path id="路径_7639" data-name="路径 7639" d="M395.9,319.583V254.8l-9.028,5.212V324.8Z" transform="translate(-301.948 -210.986)" fill="#959e63"/>
                  </g>
                  <g id="组_9851" data-name="组 9851">
                    <path id="路径_7640" data-name="路径 7640" d="M564.556,212.022l-172.1,99.367-84.923-49.032,172.1-99.368Z" transform="translate(-307.528 -162.99)" fill="#f9f6f1"/>
                    <path id="路径_7641" data-name="路径 7641" d="M605.076,235.416l-172.1,99.368-84.923-49.032,172.1-99.367Z" transform="translate(-259.413 -135.21)" fill="#f9f6f1"/>
                  </g>
                  <path id="路径_7642" data-name="路径 7642" d="M432.971,280.843v6.478l-84.923-49.032v-6.478Z" transform="translate(-259.413 -82.39)" fill="#ebe4da"/>
                  <path id="路径_7643" data-name="路径 7643" d="M307.528,208.416v6.478l84.923,49.032v-6.478Z" transform="translate(-307.528 -109.789)" fill="#ebe4da"/>
                  <path id="路径_7644" data-name="路径 7644" d="M498.445,264.092,455.8,288.711V238.9l42.642,24.62Z" transform="translate(-131.462 -74.053)" fill="#737a4a"/>
                  <g id="组_9852" data-name="组 9852" transform="translate(268.744 158.828)">
                    <path id="路径_7645" data-name="路径 7645" d="M430.386,259.973l20.7-11.95-20.7-11.95Z" transform="translate(-430.386 -236.074)" fill="#382b32"/>
                  </g>
                  <path id="路径_7646" data-name="路径 7646" d="M470.451,237.7V211.761l-9.028,5.213v25.939Z" transform="translate(-124.789 -105.791)" fill="#737a4a"/>
                  <g id="组_9853" data-name="组 9853" transform="translate(314.17 111.164)">
                    <path id="路径_7647" data-name="路径 7647" d="M451.153,227.114l22.464,12.97V214.144Z" transform="translate(-451.153 -214.144)" fill="#959e63"/>
                  </g>
                </g>
                <g id="组_9859" data-name="组 9859" transform="translate(130.776)">
                  <g id="组_9858" data-name="组 9858">
                    <g id="组_9856" data-name="组 9856" transform="translate(0.608 3.039)">
                      <g id="组_9855" data-name="组 9855" transform="translate(3.978)">
                        <path id="路径_7648" data-name="路径 7648" d="M373.5,187.212V196.4l47.305-27.312-3.979-6.888Z" transform="translate(-364.552 -157.029)" fill="#d69f83"/>
                        <path id="路径_7649" data-name="路径 7649" d="M421.686,165l-43.327,25.016-8.949-5.167,43.327-25.016Z" transform="translate(-369.41 -159.834)" fill="#ffd6ad"/>
                      </g>
                      <path id="路径_7650" data-name="路径 7650" d="M380.518,185.624v-9.186l-8.949-5.167-3.978,6.89Z" transform="translate(-367.591 -146.255)" fill="#fecb99"/>
                    </g>
                    <g id="组_9857" data-name="组 9857">
                      <path id="路径_7651" data-name="路径 7651" d="M392.525,275.963h-1.809V234.5l-23.283-40.316a.908.908,0,0,1,.332-1.238l59.64-34.386a.908.908,0,0,1,1.234.333l23.405,40.526a.911.911,0,0,1,.12.453l0,41.7h-1.809l0-41.458-22.83-39.533-58.072,33.483,22.95,39.741a.89.89,0,0,1,.123.453Z" transform="translate(-367.313 -158.445)" fill="#57444e"/>
                    </g>
                  </g>
                  <path id="路径_7652" data-name="路径 7652" d="M368.819,243.012l4.191,2.405,122.457-70.647-4.192-2.406Z" transform="translate(-365.526 -141.916)" fill="#d4db9b"/>
                  <path id="路径_7653" data-name="路径 7653" d="M493.192,173.465v28.3L370.735,272.407v-28.3Z" transform="translate(-363.25 -140.61)" fill="#959e63"/>
                  <path id="路径_7654" data-name="路径 7654" d="M368.819,204.662v28.3l4.191,2.406v-28.3Z" transform="translate(-365.526 -103.565)" fill="#c3cc88"/>
                </g>
                <path id="路径_7655" data-name="路径 7655" d="M452.842,233.773v64.778l55.6,32.1V265.874Zm49.119,85.66-42.642-24.622V273.7l42.642,24.62ZM459.319,266.1V244.995l42.642,24.62v21.109Z" transform="translate(-134.978 -70.601)" fill="#c3cc88"/>
                <g id="组_9860" data-name="组 9860" transform="translate(324.341 174.909)">
                  <path id="路径_7656" data-name="路径 7656" d="M455.8,260.013l.01.006,18.281-10.555L455.8,238.9Z" transform="translate(-455.803 -238.903)" fill="#737a4a"/>
                </g>
                <path id="路径_7657" data-name="路径 7657" d="M455.8,254.28l42.642,24.62V257.79l-24.351-14.059Z" transform="translate(-131.462 -58.392)" fill="#959e63"/>
                <g id="组_9863" data-name="组 9863" transform="translate(82.821 77.875)">
                  <g id="组_9861" data-name="组 9861" transform="translate(0 30.744)">
                    <path id="路径_7658" data-name="路径 7658" d="M384.054,246.325l-26.534,15.32V230.73l26.534-15.32Z" transform="translate(-330.986 -200.09)" fill="#737a4a"/>
                    <path id="路径_7659" data-name="路径 7659" d="M398.458,223.726l-26.534,15.32-26.534-15.32,26.534-15.32Z" transform="translate(-345.39 -208.406)" fill="#d4db9b"/>
                    <path id="路径_7660" data-name="路径 7660" d="M345.39,215.41v30.915l26.534,15.32V230.73Z" transform="translate(-345.39 -200.09)" fill="#959e63"/>
                    <path id="路径_7661" data-name="路径 7661" d="M345.39,215.41v30.915l26.533,15.321V230.729Zm23.443,40.881-20.35-11.751V220.765l20.35,11.749Z" transform="translate(-345.39 -200.09)" fill="#c3cc88"/>
                    <path id="路径_7662" data-name="路径 7662" d="M367.154,229.879,346.8,241.629V217.858l20.351,11.75Z" transform="translate(-343.711 -197.183)" fill="#737a4a"/>
                  </g>
                  <g id="组_9862" data-name="组 9862" transform="translate(6.231)">
                    <path id="路径_7663" data-name="路径 7663" d="M348.238,232.27l26.534,15.32V216.675l-26.534-15.32Z" transform="translate(-348.238 -186.035)" fill="#57444e"/>
                    <path id="路径_7664" data-name="路径 7664" d="M348.238,209.671l26.534,15.32,26.534-15.32-26.534-15.32Z" transform="translate(-348.238 -194.351)" fill="#85727c"/>
                    <path id="路径_7665" data-name="路径 7665" d="M386.9,201.355V232.27l-26.534,15.32V216.675Z" transform="translate(-333.835 -186.035)" fill="#85727c"/>
                    <path id="路径_7666" data-name="路径 7666" d="M360.368,216.676v30.915L386.9,232.27V201.355Zm3.093,1.785,20.35-11.751v23.775l-20.35,11.751Z" transform="translate(-333.835 -186.035)" fill="#382b32"/>
                    <path id="路径_7667" data-name="路径 7667" d="M361.782,215.824l20.351,11.75V203.8l-20.351,11.75Z" transform="translate(-332.157 -183.128)" fill="#57444e"/>
                  </g>
                  <path id="路径_7668" data-name="路径 7668" d="M377.235,224.728l4.9-20.925-20.351,11.75v23.776Z" transform="translate(-325.926 -183.128)" fill="#85727c" style="mix-blend-mode: multiply;isolation: isolate"/>
                  <path id="路径_7669" data-name="路径 7669" d="M346.8,241.629h20.351V229.608L346.8,217.858Z" transform="translate(-343.711 -166.439)" fill="#d6ccbf" style="mix-blend-mode: multiply;isolation: isolate"/>
                </g>
                <path id="路径_7670" data-name="路径 7670" d="M468.794,248.808,481.24,262.7h11.61l38.141-22.021-24.056-13.89Z" transform="translate(-116.036 -78.272)" fill="#d6ccbf" style="mix-blend-mode: multiply;isolation: isolate"/>
                <path id="路径_7671" data-name="路径 7671" d="M465,208.7l-4.384-7.651-15.91-9.186-1.366.789,4.047,6.417-24.051,13.886,30.032,22.021h8.109l21.36-12.331,2.7-1.547-2.686-2.094Z" transform="translate(-170.01 -119.255)" fill="#d6ccbf" style="mix-blend-mode: multiply;isolation: isolate"/>
              </g>
              <g id="组_9866" data-name="组 9866" transform="translate(245.22 71.063)">
                <g id="组_9865" data-name="组 9865" transform="translate(0)">
                  <path id="路径_7672" data-name="路径 7672" d="M481.829,217.178l-24.057,13.89-38.141-22.021,24.056-13.89Z" transform="translate(-419.632 -186.401)" fill="#ffd6ad"/>
                  <path id="路径_7673" data-name="路径 7673" d="M457.773,224.64l-17.847-10.3-4.384-7.651-15.91-9.186v8.767l38.141,22.021Z" transform="translate(-419.632 -183.62)" fill="#fecb99"/>
                  <path id="路径_7674" data-name="路径 7674" d="M468.771,218.3l-17.847-10.3-4.384-7.651-15.91-9.186v8.767l38.141,22.021Z" transform="translate(-406.573 -191.154)" fill="#fecb99"/>
                  <path id="路径_7675" data-name="路径 7675" d="M437.068,217.44l24.056-13.878v3.647l-24.056,13.878Z" transform="translate(-398.928 -176.42)" fill="#d69f83"/>
                  <path id="路径_7676" data-name="路径 7676" d="M419.632,205.032l24.056-13.878v8.767l-16.464,9.495Z" transform="translate(-419.632 -191.154)" fill="#d69f83"/>
                </g>
                <path id="路径_7677" data-name="路径 7677" d="M463.982,207.991l-4.384-7.652-15.909-9.185-24.057,13.877,15.911,9.187,4.384,7.652,17.845,10.3L481.829,218.3ZM440.59,221.207l-4.263-7.439-.12-.212-.212-.12-14.551-8.4L443.689,192.2l15.246,8.8,4.261,7.439.122.212.21.12,16.489,9.522-22.244,12.834Z" transform="translate(-419.632 -191.154)" fill="#ffe5cc"/>
              </g>
              <g id="组_9868" data-name="组 9868" transform="translate(341.147 139.782)">
                <g id="组_9867" data-name="组 9867" transform="translate(0.001 0)">
                  <path id="路径_7678" data-name="路径 7678" d="M463.486,248.808l24.056,13.89,38.141-22.021-24.057-13.89Z" transform="translate(-463.486 -218.031)" fill="#ffd6ad"/>
                  <path id="路径_7679" data-name="路径 7679" d="M474.484,256.27l17.847-10.3,4.384-7.651,15.91-9.186V237.9l-38.141,22.021Z" transform="translate(-450.428 -215.251)" fill="#d69f83"/>
                  <path id="路径_7680" data-name="路径 7680" d="M463.486,249.925l17.847-10.3,4.384-7.651,15.91-9.186v8.767l-38.141,22.021Z" transform="translate(-463.486 -222.784)" fill="#d69f83"/>
                  <path id="路径_7681" data-name="路径 7681" d="M487.543,249.07l-24.056-13.878v3.647l24.056,13.878Z" transform="translate(-463.486 -208.051)" fill="#fecb99"/>
                </g>
                <path id="路径_7682" data-name="路径 7682" d="M463.486,249.926,487.543,263.8l17.847-10.3,4.384-7.652,15.909-9.185-24.055-13.879-15.911,9.187-4.384,7.649Zm24.057,12.834L465.3,249.926l16.489-9.52.212-.122.12-.212,4.263-7.439,15.246-8.8,22.246,12.834-14.553,8.4-.212.12-.12.212-4.263,7.439Z" transform="translate(-463.486 -222.784)" fill="#ffe5cc"/>
              </g>
              <g id="组_9870" data-name="组 9870" transform="translate(341.147 131.078)">
                <g id="组_9869" data-name="组 9869" transform="translate(0.001 0.001)">
                  <path id="路径_7683" data-name="路径 7683" d="M463.486,244.8l24.056,13.889,38.141-22.021-24.057-13.89Z" transform="translate(-463.486 -214.026)" fill="#85727c"/>
                  <path id="路径_7684" data-name="路径 7684" d="M474.484,252.264l17.847-10.3,4.384-7.651,15.91-9.186v8.767l-38.141,22.021Z" transform="translate(-450.428 -211.245)" fill="#382b32"/>
                  <path id="路径_7685" data-name="路径 7685" d="M463.486,245.92l17.847-10.3,4.384-7.651,15.91-9.186v8.767l-38.141,22.021Z" transform="translate(-463.486 -218.778)" fill="#382b32"/>
                  <path id="路径_7686" data-name="路径 7686" d="M487.543,245.064l-24.056-13.878v3.647l24.056,13.878Z" transform="translate(-463.486 -204.045)" fill="#57444e"/>
                </g>
                <path id="路径_7687" data-name="路径 7687" d="M463.486,245.92,487.543,259.8l17.847-10.3,4.384-7.652,15.909-9.185-24.055-13.879-15.911,9.187-4.384,7.652Zm24.057,12.834L465.3,245.92l16.489-9.52.212-.123.12-.212,4.263-7.439,15.246-8.8,22.246,12.834-14.553,8.4-.212.123-.12.212-4.263,7.437Z" transform="translate(-463.486 -218.778)" fill="#a8909d"/>
              </g>
              <g id="组_9872" data-name="组 9872" transform="translate(341.147 122.376)">
                <g id="组_9871" data-name="组 9871" transform="translate(0.001)">
                  <path id="路径_7688" data-name="路径 7688" d="M463.486,240.8l24.056,13.89,38.141-22.021-24.057-13.89Z" transform="translate(-463.486 -210.02)" fill="#ffd6ad"/>
                  <path id="路径_7689" data-name="路径 7689" d="M474.484,248.258l17.847-10.3,4.384-7.651,15.91-9.186v8.767l-38.141,22.021Z" transform="translate(-450.428 -207.239)" fill="#d69f83"/>
                  <path id="路径_7690" data-name="路径 7690" d="M463.486,241.914l17.847-10.3,4.384-7.651,15.91-9.186v8.767l-38.141,22.021Z" transform="translate(-463.486 -214.773)" fill="#d69f83"/>
                  <path id="路径_7691" data-name="路径 7691" d="M487.543,241.058,463.486,227.18v3.647l24.056,13.878Z" transform="translate(-463.486 -200.039)" fill="#fecb99"/>
                  <path id="路径_7692" data-name="路径 7692" d="M504.979,228.65l-24.057-13.878v8.767l16.464,9.495Z" transform="translate(-442.782 -214.773)" fill="#fecb99"/>
                </g>
                <path id="路径_7693" data-name="路径 7693" d="M463.486,241.912l24.057,13.879,17.847-10.3,4.384-7.652,15.909-9.185-24.055-13.877-15.911,9.185-4.384,7.652Zm24.057,12.834L465.3,241.912l16.489-9.52.212-.122.12-.212,4.263-7.439,15.246-8.8,22.246,12.834-14.553,8.4-.212.123-.12.212-4.263,7.439Z" transform="translate(-463.486 -214.772)" fill="#ffe5cc"/>
              </g>
              <g id="组_9878" data-name="组 9878" transform="translate(158.637 29.563)">
                <g id="组_9877" data-name="组 9877">
                  <g id="组_9873" data-name="组 9873" transform="translate(59.639 14.416)">
                    <path id="路径_7694" data-name="路径 7694" d="M409.124,219.159l-.9,1.092h-.905v-41.7h1.81Z" transform="translate(-407.314 -178.55)" fill="#57444e"/>
                  </g>
                  <g id="组_9875" data-name="组 9875" transform="translate(24.012 2.999)">
                    <g id="组_9874" data-name="组 9874" transform="translate(3.978)">
                      <path id="路径_7695" data-name="路径 7695" d="M396.937,200.708V209.9l47.305-27.314-3.979-6.888Z" transform="translate(-387.987 -170.526)" fill="#d69f83"/>
                      <path id="路径_7696" data-name="路径 7696" d="M445.122,178.5,401.8,203.513l-8.95-5.167,43.327-25.015Z" transform="translate(-392.846 -173.331)" fill="#ffd6ad"/>
                    </g>
                    <path id="路径_7697" data-name="路径 7697" d="M403.954,199.12v-9.186L395,184.767l-3.978,6.89Z" transform="translate(-391.027 -159.751)" fill="#fecb99"/>
                  </g>
                  <g id="组_9876" data-name="组 9876">
                    <path id="路径_7698" data-name="路径 7698" d="M381.859,261.417l-.9,1.043h-.906v-41.7a.9.9,0,0,1,.453-.783l83.044-47.9a.9.9,0,0,1,.9,1.566l-.013.009-23.39,13.5-.009-.013-59.177,34.139Z" transform="translate(-380.05 -171.96)" fill="#57444e"/>
                  </g>
                </g>
              </g>
              <g id="组_9880" data-name="组 9880" transform="translate(191.997 103.375)">
                <g id="组_9879" data-name="组 9879">
                  <ellipse id="椭圆_21" data-name="椭圆 21" cx="7.492" cy="4.326" rx="7.492" ry="4.326" fill="#85727c"/>
                  <ellipse id="椭圆_22" data-name="椭圆 22" cx="5.374" cy="3.103" rx="5.374" ry="3.103" transform="translate(2.119 1.223)" fill="#57444e"/>
                  <path id="路径_7699" data-name="路径 7699" d="M397.837,210.555a8.4,8.4,0,0,1,7.6,0,4.024,4.024,0,0,1,.831.641c1.192-1.186.93-2.728-.831-3.745a8.4,8.4,0,0,0-7.6,0c-1.761,1.017-2.026,2.559-.831,3.745A3.967,3.967,0,0,1,397.837,210.555Z" transform="translate(-394.144 -205.32)" fill="#66505b"/>
                </g>
                <path id="路径_7700" data-name="路径 7700" d="M405.039,208.87a8.4,8.4,0,0,0-7.6,0,3.967,3.967,0,0,0-.831.641,3.9,3.9,0,0,0,.831.643,8.4,8.4,0,0,0,7.6,0,3.956,3.956,0,0,0,.831-.643A4.025,4.025,0,0,0,405.039,208.87Z" transform="translate(-393.747 -203.635)" fill="#85727c" style="mix-blend-mode: multiply;isolation: isolate"/>
              </g>
            </g>
            <path id="路径_7701" data-name="路径 7701" d="M410.588,243.158l-26.534-15.32V217.133l-20.3,11.723-3.263-1.884-2.967,1.713V259.6h14.927l6.774-3.911,4.832,2.79Z" transform="translate(-248.165 -89.621)" fill="#d6ccbf" style="mix-blend-mode: multiply;isolation: isolate"/>
            <path id="路径_7702" data-name="路径 7702" d="M558.976,215.278l-172.1,99.367v-6.478l172.1-99.368Z" transform="translate(-213.314 -99.661)" fill="#d6ccbf" style="mix-blend-mode: multiply;isolation: isolate"/>
            <path id="路径_7703" data-name="路径 7703" d="M346.351,302.529h3.711V233.416l1.39-.8-3.729-2.153-1.373.813Z" transform="translate(-261.428 -74.142)" fill="#d6ccbf" style="mix-blend-mode: multiply;isolation: isolate"/>
            <path id="路径_7704" data-name="路径 7704" d="M395.9,319.583V254.8l-9.028,5.212V324.8Z" transform="translate(-213.314 -45.627)" fill="#d6ccbf" style="mix-blend-mode: multiply;isolation: isolate"/>
            <path id="路径_7705" data-name="路径 7705" d="M470.451,237.7V211.761l-9.028,5.213v25.939H470.4l4.564-2.635Z" transform="translate(-124.789 -95.884)" fill="#d6ccbf" style="mix-blend-mode: multiply;isolation: isolate"/>
            <path id="路径_7706" data-name="路径 7706" d="M451.732,272.3l20.691-11.946-17.757-10.269-24.279-14.011v23.9Z" transform="translate(-161.642 -67.379)" fill="#85727c" style="mix-blend-mode: multiply;isolation: isolate"/>
            <path id="路径_7707" data-name="路径 7707" d="M471.183,268.892l18.281-10.555L455.8,238.9v21.11Z" transform="translate(-131.462 -64.032)" fill="#d6ccbf" style="mix-blend-mode: multiply;isolation: isolate"/>
            <path id="路径_7708" data-name="路径 7708" d="M471.183,282.016l18.281-10.555L455.8,252.027v21.11Z" transform="translate(-131.462 -48.631)" fill="#d6ccbf" style="mix-blend-mode: multiply;isolation: isolate"/>
            <path id="路径_7709" data-name="路径 7709" d="M427.425,235.453v32.678l27.823,16.061V276.71L433.9,264.391V240.484l21.345,12.324v-7.48l-22.463-12.97Z" transform="translate(-165.159 -71.809)" fill="#85727c" style="mix-blend-mode: multiply;isolation: isolate"/>
            <path id="路径_7710" data-name="路径 7710" d="M452.339,266.957l46.545-26.873V214.144l-69.008,39.843Z" transform="translate(-162.249 -93.163)" fill="#85727c" style="mix-blend-mode: multiply;isolation: isolate"/>
            <path id="路径_7711" data-name="路径 7711" d="M533.856,279.187V233.773l-55.6,32.1v64.778H511.8l55.6-32.1Z" transform="translate(-104.798 -70.6)" fill="#ebe4da" style="mix-blend-mode: multiply;isolation: isolate"/>
            <path id="路径_7712" data-name="路径 7712" d="M471.569,230.48l-12.958-2.286,40.227-23.206-5.624-3.261-.022-28.262-18.477,10.659.641,1.1L428.05,212.541l-1.3-.748-52.161,30.092v23.5l-3.859,2.227v4.793l5.646,3.226,19.632-11.324,15.461,2.726a1.149,1.149,0,0,0,.192.017,1.092,1.092,0,0,0,.551-.149l8.288-4.771,3.259,1.881L467.093,239l-3.2-1.846,8.037-4.626a1.1,1.1,0,0,0-.361-2.045Zm-9.887,5.394-3.539-2.043-22.362,12.91c2.078,1.214,2.074,3.167-.017,4.375a8.394,8.394,0,0,1-7.575.009l-13.372,7.722,3.476,2.008-6.831,3.933-12.468-2.2,56.637-32.676,12.558,2.216Z" transform="translate(-232.474 -140.61)" fill="#d6ccbf" style="mix-blend-mode: multiply;isolation: isolate"/>
            <path id="路径_7713" data-name="路径 7713" d="M402.531,210.055l-3.8,2.19a7.757,7.757,0,0,0,3.778-.906c2.091-1.207,2.1-3.161.017-4.375h0Z" transform="translate(-199.225 -101.449)" fill="#d6ccbf" style="mix-blend-mode: multiply;isolation: isolate"/>
            <path id="路径_7714" data-name="路径 7714" d="M468.742,243.911l34.076-19.674-2.174-8.987-15.247,8.8-4.384,7.651-16.7,9.642Z" transform="translate(-121.356 -91.783)" fill="#a17c6f" style="mix-blend-mode: multiply;isolation: isolate"/>
            <path id="路径_7715" data-name="路径 7715" d="M486.556,242.158l-19.625-11.322-2.586,1.493.909.525-.939.542,4.428,2.565.946-.546,16.865,9.738,18.1-10.453.768.479,3.354-5.854Z" transform="translate(-121.352 -75.217)" fill="#85727c" style="mix-blend-mode: multiply;isolation: isolate"/>
            <path id="路径_7716" data-name="路径 7716" d="M486.556,246.163l-19.625-11.321-2.586,1.493.909.525-.939.542,4.428,2.565.946-.546,16.865,9.738,18.1-10.453.768.479,3.354-5.854Z" transform="translate(-121.352 -70.515)" fill="#a17c6f" style="mix-blend-mode: multiply;isolation: isolate"/>
            <path id="路径_7717" data-name="路径 7717" d="M496.715,230.3l-4.384,7.651-17.847,10.3v3.647l22.227-12.833-4.38,7.644-17.847,10.3v3.647l22.227-12.833-4.38,7.644-17.847,10.3v3.647l38.141-22.021V221.117Z" transform="translate(-109.28 -84.972)" fill="#d6ccbf" style="mix-blend-mode: multiply;isolation: isolate"/>
            <path id="路径_7718" data-name="路径 7718" d="M442.706,191.632l2.779,9.332-15.53,8.989-9.495-5.488Z" transform="translate(-173.429 -119.481)" fill="#a17c6f" style="mix-blend-mode: multiply;isolation: isolate"/>
            <path id="路径_7719" data-name="路径 7719" d="M437.068,217.44l24.056-13.878v3.647l-24.056,13.878Z" transform="translate(-153.708 -105.473)" fill="#d6ccbf" style="mix-blend-mode: multiply;isolation: isolate"/>
          </g>
          <g id="组_9885" data-name="组 9885" transform="translate(313.967 260.775)">
            <path id="路径_7720" data-name="路径 7720" d="M433.329,296.644c-.129.221-.195,1.122-.477,1.124-.47,0-.1-1.078-.05-1.306.153-.739.317-1.477.468-2.218.072-.359.223-.693.263-1.059.026-.249-.035-.549-.022-.827.015-.341.492-.448.785-.551.221-.077.829-.352,1.059-.282.153.048.394.542.486.676l.58.842c-1.006.422-.89,1.669-.925,2.57-.015.381-.039.763-.042,1.144,0,.628.352,1.159.313,1.787-.022.319-.164.385-.3.65-.127.245-.057.534-.4.346a1.667,1.667,0,0,1-.326-.33c-.332-.352-.114-.028-.435-.053-.249-.015-.437-.7-.494-.886a3.746,3.746,0,0,1-.144-.919c-.015-.3-.018-.6-.026-.895A.373.373,0,0,0,433.329,296.644Z" transform="translate(-419.558 -262.813)" fill="#ffb3b0"/>
            <g id="组_9883" data-name="组 9883">
              <path id="路径_7721" data-name="路径 7721" d="M439.531,287.972s.352.105.284-.254-.737-1.153-.5-1.686a1.764,1.764,0,0,1,2.058-.768c.921.291,1.562.836,1.969,2.553s0,3.06.612,4.086S439.531,287.972,439.531,287.972Z" transform="translate(-411.662 -270.333)" fill="#ffb3b0"/>
              <path id="路径_7722" data-name="路径 7722" d="M439.319,285.982a1.563,1.563,0,0,1,.912-.739,1.541,1.541,0,0,1,1.682,1.037c.6,1.273.483,3.375,1.1,4.952-1.319-1.179-3.485-3.31-3.485-3.31s.352.105.284-.254S439.079,286.516,439.319,285.982Z" transform="translate(-411.662 -270.283)" fill="#e09e9b"/>
              <path id="路径_7723" data-name="路径 7723" d="M442.161,289.489c.028.011.562-.136.864.2s.077,1.485.077,1.485Z" transform="translate(-408.226 -265.244)" fill="#5c4b51"/>
              <path id="路径_7724" data-name="路径 7724" d="M434.359,288.921s-1.085-.8-1.448-3.4-1.048-4.016-2.712-5.355-1.754-1.772-1.754-1.772h0a.556.556,0,0,1,.372.142,13.957,13.957,0,0,0,2.034,1.54,6.253,6.253,0,0,1,2.207,2.66c.252.669,1.59,5.009,3.471,5.5S434.359,288.921,434.359,288.921Z" transform="translate(-424.514 -278.393)" fill="#e09e9b"/>
              <path id="路径_7725" data-name="路径 7725" d="M435.7,282.832s4.386-2.406,8.266.426,3.22,5.668,4.23,6.908,4.268,1.048,6.674,3.609a40.872,40.872,0,0,1,6.247,10.012c.545,1.708-1.164,3.027-3.375,2.68s-3.143-1.166-4.618-1.4-4.928-1.4-5.9-1.4-5.744.737-6.365.853-.853-.93-1.9-.308-.737-.234-.777-1.514.118-3.143-1.2-4.075-3.88-2.019-4.965-4-2.039-1.092-2.474-1.122.2-.466,0-.96-.5-.422-.641-.654a4.439,4.439,0,0,1,0-2.8c.422-1.12,2.57-2.561,3.754-3.3S434.053,283.958,435.7,282.832Z" transform="translate(-424.237 -274.255)" fill="#a9bacc"/>
              <path id="路径_7726" data-name="路径 7726" d="M439.877,291.243a1.459,1.459,0,0,1,2.782.731l0,.116-.072.094a.631.631,0,0,1-.407.208.518.518,0,0,0-.1.028,1.565,1.565,0,0,1-.921.306,1.711,1.711,0,0,1-.424-.057,1.32,1.32,0,0,1-.882-1.264l0-.083Z" transform="translate(-410.977 -264.145)" fill="#899aad"/>
              <path id="路径_7727" data-name="路径 7727" d="M442.342,291.913a1.319,1.319,0,0,0-.794-1.288,1.261,1.261,0,0,0-1.571.643s.035.884.691,1.052a1.391,1.391,0,0,0,1.214-.241C442.035,291.979,442.261,292.014,442.342,291.913Z" transform="translate(-410.819 -263.956)" fill="#41313b"/>
              <path id="路径_7728" data-name="路径 7728" d="M440.373,288.1a1.75,1.75,0,0,1,.945,2.008c-.422,1.323-1.076.916-1.586,1.076s-.35-.814-1.617-1.63-2.518-1.485-2.822-1.7.116-.1,1,0S439.194,287.6,440.373,288.1Z" transform="translate(-416.498 -267.313)" fill="#ffb3b0"/>
              <path id="路径_7729" data-name="路径 7729" d="M432.214,288.359a2.727,2.727,0,0,0-.582.641c-.2.306-.175-.363-.989-.728s-1.877.612-2.518.728-.742-.116-.407-.437-.175-.055-.724.072-.114-.413.118-.726-.044.028-.319.1-.138-.343.225-.663,3.487-.687,4.141-1.1.917,1.151.917,1.151Z" transform="translate(-426.647 -269.149)" fill="#c78c8a"/>
              <path id="路径_7730" data-name="路径 7730" d="M444.353,291.931a2.264,2.264,0,0,1,.144.978.8.8,0,0,1-.586.838c-.217.083.074-.164,0-.217s-.361.129-.464.118a1.439,1.439,0,0,1-.621-.532c-.092-.208.634-.181.971-.35S444.443,292.43,444.353,291.931Z" transform="translate(-407.446 -262.318)" fill="#ffb3b0"/>
              <path id="路径_7731" data-name="路径 7731" d="M440.983,290.831a.487.487,0,0,1,.319.44c.009.337-.3.173-.457,0s-.284-.147-.346-.214S440.62,290.711,440.983,290.831Z" transform="translate(-410.213 -263.659)" fill="#5c4b51"/>
              <path id="路径_7732" data-name="路径 7732" d="M435.22,287.724l.022.011c-.035.013-.017.046.077.114.3.217,1.557.886,2.822,1.7s1.107,1.789,1.617,1.63a1.073,1.073,0,0,0-.613.829c-.028.569.525.7.306,1.063s-1.98.16-2.909-.8-1.216-3.056-1.321-3.594A2.4,2.4,0,0,1,435.22,287.724Z" transform="translate(-416.523 -267.313)" fill="#e09e9b"/>
              <path id="路径_7733" data-name="路径 7733" d="M432.017,293.592c-.906-1.647-1.715-1.31-2.214-1.166-.1.028-.057-.422-.26-.917s-.5-.422-.641-.654a4.439,4.439,0,0,1,0-2.8c.422-1.12,2.57-2.561,3.754-3.3a10.164,10.164,0,0,0,1.925-2.008c-1.8,2.656-.855,7.079-.234,9.458s3.454,4.731,7.424,7.219,5.355,1.45,6.389,2.2,5.525,1.6,6.352,2.4a5.642,5.642,0,0,0,2.05,1.146,35.836,35.836,0,0,0-3.434-1.14c-1.474-.234-4.928-1.4-5.9-1.4s-5.744.737-6.365.853-.853-.93-1.9-.308-.737-.234-.777-1.514.118-3.143-1.2-4.075S433.1,295.569,432.017,293.592Z" transform="translate(-424.237 -273.216)" fill="#95a8bd"/>
              <path id="路径_7734" data-name="路径 7734" d="M436.3,282.608a4.9,4.9,0,0,1,1.232.75,8.69,8.69,0,0,1,1.389,1.367,10.716,10.716,0,0,1,1.306,3.143c.4,1.223.7,2.4,2.015,2.769s1.094.5.648.6a2.988,2.988,0,0,1-2.638-.949c-.846-1-1.444-3.94-2.588-4.539s-3.259-1.343-3.509-2.218C433.941,282.766,434.7,281.958,436.3,282.608Z" transform="translate(-417.773 -273.67)" fill="#bfcddb"/>
            </g>
            <path id="路径_7735" data-name="路径 7735" d="M435.282,287.817c.3.217,1.557.886,2.822,1.7s1.107,1.789,1.617,1.63a1.073,1.073,0,0,0-.613.829c-.028.569.525.7.306,1.063-.057.1-.228.153-.459.166.129-.022.282-.1.228-.363-.09-.435-.709-.783-1.505-1.341s-2.5-2.332-2.472-3.751A.449.449,0,0,0,435.282,287.817Z" transform="translate(-416.486 -267.281)" fill="#c78c8a"/>
            <path id="路径_7736" data-name="路径 7736" d="M434.836,292.22c.844-.092,4.384-.8,5.65-.632a8.32,8.32,0,0,1,2.526.86,7.758,7.758,0,0,0-1.494-.276c-.89,0-4.981.621-6.129.814-1.006.422-.89,1.669-.925,2.57-.015.381-.039.763-.042,1.144,0,.628.352,1.159.313,1.787a1.027,1.027,0,0,1-.254.569h0c.324-.952-1.061-3.778-.993-4.727S433.994,292.31,434.836,292.22Z" transform="translate(-418.527 -262.755)" fill="#d5dde6" style="mix-blend-mode: multiply;isolation: isolate"/>
            <path id="路径_7737" data-name="路径 7737" d="M426.94,288.243c.987-.35,3.592-1.743,5.442-1.8,2.078-.068,2.192,1.627,2.914,3.027s2.938,2.938,3.751,3.48a2.644,2.644,0,0,1,.965,1.68h0a2.553,2.553,0,0,0-.967-1.417c-1.319-.932-3.88-2.019-4.965-4-.906-1.649-1.715-1.31-2.214-1.166h0a2.727,2.727,0,0,0-.582.641c-.2.306-.175-.363-.989-.728s-1.877.612-2.518.728-.742-.116-.407-.437C427.642,287.992,427.353,288.119,426.94,288.243Z" transform="translate(-426.3 -268.839)" fill="#d5dde6" style="mix-blend-mode: multiply;isolation: isolate"/>
            <path id="路径_7738" data-name="路径 7738" d="M433.359,287.892a5.865,5.865,0,0,1-1.26-3.22c-.361-2.605-1.048-4.016-2.712-5.355-.092-.072-.175-.142-.258-.21,2.618,1.223,3.526,4.9,4.134,6.573a3.358,3.358,0,0,0,.892,1.286A11.166,11.166,0,0,0,433.359,287.892Z" transform="translate(-423.702 -277.545)" fill="#d5dde6" style="mix-blend-mode: multiply;isolation: isolate"/>
            <g id="组_9884" data-name="组 9884" transform="translate(17.623 21.044)" style="mix-blend-mode: multiply;isolation: isolate">
              <path id="路径_7739" data-name="路径 7739" d="M435.463,288.074a2.511,2.511,0,0,0,.3.175c0,.028.007.057.013.085.105.538.389,2.634,1.321,3.594a3.568,3.568,0,0,0,2.295.969,6.56,6.56,0,0,1-3.428-1.179C434.008,290.423,434.73,287.562,435.463,288.074Z" transform="translate(-434.704 -288.013)" fill="#d5dde6"/>
            </g>
            <path id="路径_7740" data-name="路径 7740" d="M443.731,289.128a5.507,5.507,0,0,0-2.124-1.013c-1.205-.256-4.6-2.135-2.516-1.89a9.5,9.5,0,0,1,4.2,2.415C443.437,288.791,443.582,288.955,443.731,289.128Z" transform="translate(-412.659 -269.119)" fill="#d5dde6" style="mix-blend-mode: multiply;isolation: isolate"/>
          </g>
          <g id="组_9892" data-name="组 9892" transform="translate(219.643 173.071)">
            <g id="组_9891" data-name="组 9891" transform="translate(4.665)">
              <g id="组_9890" data-name="组 9890">
                <path id="路径_7741" data-name="路径 7741" d="M391.171,241l-.481-.048a3.664,3.664,0,0,0-2.461.652l-1.518,1.072a1.542,1.542,0,0,1-1.052.276h0s.492-.4.693-.56l1.827-1.415a3.66,3.66,0,0,1,1.822-.742l.965-.112Z" transform="translate(-385.659 -235.418)" fill="#54423d"/>
                <g id="组_9889" data-name="组 9889" transform="translate(1.904)">
                  <g id="组_9887" data-name="组 9887" transform="translate(5.52 4.782)">
                    <g id="组_9886" data-name="组 9886">
                      <path id="路径_7742" data-name="路径 7742" d="M389.053,242.032l.5.267a4.273,4.273,0,0,1,1.982,2.231l.787,2.028a1.828,1.828,0,0,0,.851.952h0s-.219-.715-.315-1l-.868-2.564a4.3,4.3,0,0,0-1.3-1.9l-.871-.733Z" transform="translate(-389.053 -238.79)" fill="#54423d"/>
                      <path id="路径_7743" data-name="路径 7743" d="M389.809,241.4l1.676.547a4.9,4.9,0,0,1,1.969,1.212l1.619,1.632a4.069,4.069,0,0,0,1.341.9h0s-.779-.849-1.059-1.21l-1.269-1.632a4.906,4.906,0,0,0-2.161-1.59l-1.183-.444Z" transform="translate(-388.155 -239.377)" fill="#54423d"/>
                      <path id="路径_7744" data-name="路径 7744" d="M390.776,241.557l1.816-.319a3.512,3.512,0,0,1,1.868.182l2.592.993a3.6,3.6,0,0,0,1.457.238l.068,0a16.568,16.568,0,0,1-1.525-.763l-1.816-1.166a3.513,3.513,0,0,0-3.054-.365l-.809.28Z" transform="translate(-387.007 -240.159)" fill="#54423d"/>
                    </g>
                  </g>
                  <path id="路径_7745" data-name="路径 7745" d="M399.482,240.29h0s-.862-2.3-4.6-2.316-7.258,3.43-7.258,3.43a1.775,1.775,0,0,1,2.174.013,6.041,6.041,0,0,1,2.73,4.731h0a14.551,14.551,0,0,0,3.835-1.52C398.812,243.216,399.976,241.486,399.482,240.29Z" transform="translate(-385.225 -237.973)" fill="#735a53"/>
                  <path id="路径_7746" data-name="路径 7746" d="M390.8,241.288a8.494,8.494,0,0,1,4.611-3.016,9,9,0,0,0-5.184,2.671,1.673,1.673,0,0,0-1.947.1s-1.643,1.975-1.074,3.649h0a1.769,1.769,0,0,0,.823.908c1.135.656,3.091.683,5.156.188h0A6.1,6.1,0,0,0,390.8,241.288Z" transform="translate(-385.873 -237.618)" fill="#bf917a"/>
                  <path id="路径_7747" data-name="路径 7747" d="M391,243.184c.339-1.135-1.3-2.489-2.463-2.868-.923-.3-1.183.052-1.251.21a2.922,2.922,0,0,0-.088,1.883h0a1.574,1.574,0,0,0,.337.532,1.936,1.936,0,0,0,.448.352l.037.024a4.753,4.753,0,0,0,2.148.521A.981.981,0,0,0,391,243.184Z" transform="translate(-385.873 -235.331)" fill="#d9a88f"/>
                  <path id="路径_7748" data-name="路径 7748" d="M390.066,245.65a14.434,14.434,0,0,0,3.408-1.409c2.443-1.411,3.607-3.141,3.113-4.338h0a3.5,3.5,0,0,0-1.557-1.606c.311.2,1.148,1.026.017,3.57C393.962,244.313,391.142,245.339,390.066,245.65Z" transform="translate(-382.33 -237.587)" fill="#d5dde6" style="mix-blend-mode: multiply;isolation: isolate"/>
                  <g id="组_9888" data-name="组 9888" transform="translate(0 6.491)">
                    <path id="路径_7749" data-name="路径 7749" d="M387.226,245.925a.083.083,0,0,1-.057-.024c-.011-.011-1.194-1.251-.315-2.117a40.7,40.7,0,0,1,3.95-2.831.079.079,0,0,1,.109.024.08.08,0,0,1-.024.107,42.206,42.206,0,0,0-3.927,2.811c-.77.757.273,1.851.319,1.9a.081.081,0,0,1,0,.112A.076.076,0,0,1,387.226,245.925Z" transform="translate(-386.53 -240.94)" fill="#735a53"/>
                  </g>
                </g>
              </g>
              <path id="路径_7750" data-name="路径 7750" d="M389.233,241.391c.072.153-.083.376-.346.5s-.532.1-.6-.052.083-.374.346-.5S389.163,241.24,389.233,241.391Z" transform="translate(-382.563 -234.07)" fill="#735a53"/>
            </g>
            <path id="路径_7751" data-name="路径 7751" d="M391.5,240.366a48.828,48.828,0,0,1-4.44,2.047,6.7,6.7,0,0,1-3.43-.184.078.078,0,0,0-.1.05.079.079,0,0,0,.05.1,8.251,8.251,0,0,0,2.275.363,3.964,3.964,0,0,0,1.251-.179c1.063-.361,3.283-1.461,4.329-1.988C391.455,240.5,391.477,240.434,391.5,240.366Z" transform="translate(-383.526 -235.131)" fill="#735a53"/>
          </g>
          <g id="组_9899" data-name="组 9899" transform="translate(333.936 95.591)">
            <g id="组_9898" data-name="组 9898">
              <g id="组_9897" data-name="组 9897">
                <path id="路径_7752" data-name="路径 7752" d="M441.939,205.4l.481-.048a3.659,3.659,0,0,1,2.463.654l1.516,1.07a1.558,1.558,0,0,0,1.054.278h0s-.494-.407-.7-.562l-1.826-1.415a3.653,3.653,0,0,0-1.82-.742l-.965-.112Z" transform="translate(-428.458 -199.815)" fill="#54423d"/>
                <g id="组_9896" data-name="组 9896">
                  <g id="组_9894" data-name="组 9894" transform="translate(0 4.782)">
                    <g id="组_9893" data-name="组 9893">
                      <path id="路径_7753" data-name="路径 7753" d="M443.3,206.429l-.5.267a4.282,4.282,0,0,0-1.982,2.231l-.787,2.028a1.833,1.833,0,0,1-.849.952h0s.219-.715.313-1l.868-2.564a4.29,4.29,0,0,1,1.3-1.9l.871-.733Z" transform="translate(-431.732 -203.187)" fill="#54423d"/>
                      <path id="路径_7754" data-name="路径 7754" d="M443.895,205.8l-1.678.547a4.92,4.92,0,0,0-1.966,1.212l-1.621,1.632a4.083,4.083,0,0,1-1.339.9h0s.777-.849,1.059-1.21l1.267-1.632a4.917,4.917,0,0,1,2.161-1.59l1.186-.444Z" transform="translate(-433.977 -203.774)" fill="#54423d"/>
                      <path id="路径_7755" data-name="路径 7755" d="M443.576,205.954l-1.813-.317a3.51,3.51,0,0,0-1.868.179l-2.592.993a3.607,3.607,0,0,1-1.457.238l-.07,0a16.006,16.006,0,0,0,1.525-.763l1.816-1.166a3.513,3.513,0,0,1,3.054-.365l.809.28Z" transform="translate(-435.776 -204.556)" fill="#54423d"/>
                    </g>
                  </g>
                  <path id="路径_7756" data-name="路径 7756" d="M437.133,204.687h0s.86-2.3,4.594-2.316,7.258,3.432,7.258,3.432a1.768,1.768,0,0,0-2.172.011,6.037,6.037,0,0,0-2.732,4.731h0a14.55,14.55,0,0,1-3.835-1.52C437.8,207.613,436.638,205.883,437.133,204.687Z" transform="translate(-434.298 -202.37)" fill="#735a53"/>
                  <path id="路径_7757" data-name="路径 7757" d="M443.843,205.685a8.5,8.5,0,0,0-4.613-3.016,9.015,9.015,0,0,1,5.184,2.671,1.668,1.668,0,0,1,1.947.107s1.645,1.973,1.074,3.646h0a1.768,1.768,0,0,1-.822.908c-1.133.656-3.091.682-5.156.188h0A6.111,6.111,0,0,1,443.843,205.685Z" transform="translate(-431.675 -202.015)" fill="#bf917a"/>
                  <path id="路径_7758" data-name="路径 7758" d="M441.268,207.581c-.339-1.133,1.3-2.489,2.463-2.868.925-.3,1.183.055,1.251.21a2.892,2.892,0,0,1,.087,1.883h0a1.537,1.537,0,0,1-.337.532,1.984,1.984,0,0,1-.448.354l-.037.022a4.71,4.71,0,0,1-2.148.521A.98.98,0,0,1,441.268,207.581Z" transform="translate(-429.309 -199.728)" fill="#d9a88f"/>
                  <path id="路径_7759" data-name="路径 7759" d="M443.651,210.047a14.474,14.474,0,0,1-3.408-1.409c-2.443-1.411-3.6-3.141-3.11-4.338h0a3.5,3.5,0,0,1,1.555-1.606c-.311.2-1.148,1.026-.017,3.57C439.758,208.71,442.575,209.736,443.651,210.047Z" transform="translate(-434.298 -201.984)" fill="#d5dde6" style="mix-blend-mode: multiply;isolation: isolate"/>
                  <g id="组_9895" data-name="组 9895" transform="translate(12.694 6.491)">
                    <path id="路径_7760" data-name="路径 7760" d="M445.278,210.322a.071.071,0,0,0,.057-.024c.011-.011,1.2-1.251.315-2.117a41.09,41.09,0,0,0-3.951-2.831.076.076,0,0,0-.107.024.078.078,0,0,0,.022.107,41.926,41.926,0,0,1,3.926,2.811c.77.757-.273,1.851-.319,1.9a.078.078,0,0,0,0,.109A.076.076,0,0,0,445.278,210.322Z" transform="translate(-441.579 -205.337)" fill="#735a53"/>
                  </g>
                </g>
              </g>
              <path id="路径_7761" data-name="路径 7761" d="M441.419,205.788c-.07.153.083.376.346.5s.534.1.6-.053-.083-.374-.346-.5S441.491,205.637,441.419,205.788Z" transform="translate(-429.095 -198.467)" fill="#735a53"/>
            </g>
            <path id="路径_7762" data-name="路径 7762" d="M442.947,204.763a48.871,48.871,0,0,0,4.443,2.047,6.67,6.67,0,0,0,3.428-.184.079.079,0,0,1,.1.052.076.076,0,0,1-.05.1,8.2,8.2,0,0,1-2.275.365,3.966,3.966,0,0,1-1.251-.182,47.194,47.194,0,0,1-4.329-1.988C442.991,204.9,442.969,204.831,442.947,204.763Z" transform="translate(-427.261 -199.528)" fill="#735a53"/>
          </g>
          <g id="组_9906" data-name="组 9906" transform="translate(193.858 14.249)">
            <g id="组_9905" data-name="组 9905" transform="translate(4.663)">
              <g id="组_9904" data-name="组 9904">
                <path id="路径_7763" data-name="路径 7763" d="M379.384,167.987l-.481-.046a3.655,3.655,0,0,0-2.463.652l-1.516,1.072a1.568,1.568,0,0,1-1.054.276h0s.494-.4.7-.562l1.827-1.413a3.653,3.653,0,0,1,1.82-.742l.965-.112Z" transform="translate(-373.87 -162.402)" fill="#54423d"/>
                <g id="组_9903" data-name="组 9903" transform="translate(1.905)">
                  <g id="组_9901" data-name="组 9901" transform="translate(5.521 4.783)">
                    <g id="组_9900" data-name="组 9900">
                      <path id="路径_7764" data-name="路径 7764" d="M377.265,169.02l.5.265a4.289,4.289,0,0,1,1.984,2.233l.788,2.026a1.828,1.828,0,0,0,.849.954h0s-.219-.718-.315-1l-.866-2.564a4.289,4.289,0,0,0-1.3-1.9l-.871-.733Z" transform="translate(-377.265 -165.777)" fill="#54423d"/>
                      <path id="路径_7765" data-name="路径 7765" d="M378.02,168.389l1.678.547a4.887,4.887,0,0,1,1.967,1.212l1.621,1.632a4.15,4.15,0,0,0,1.339.9h0s-.779-.849-1.059-1.21l-1.266-1.632a4.914,4.914,0,0,0-2.161-1.59l-1.186-.444Z" transform="translate(-376.369 -166.363)" fill="#54423d"/>
                      <path id="路径_7766" data-name="路径 7766" d="M378.988,168.544l1.813-.319a3.532,3.532,0,0,1,1.868.179l2.592,1a3.676,3.676,0,0,0,1.457.238l.07,0a16.624,16.624,0,0,1-1.527-.761l-1.813-1.168a3.525,3.525,0,0,0-3.056-.365l-.807.282Z" transform="translate(-375.219 -167.146)" fill="#54423d"/>
                    </g>
                  </g>
                  <path id="路径_7767" data-name="路径 7767" d="M387.691,167.278h0s-.86-2.3-4.6-2.319-7.256,3.432-7.256,3.432a1.772,1.772,0,0,1,2.172.013,6.034,6.034,0,0,1,2.732,4.731v0a14.63,14.63,0,0,0,3.837-1.518C387.022,170.2,388.186,168.474,387.691,167.278Z" transform="translate(-373.436 -164.959)" fill="#735a53"/>
                  <path id="路径_7768" data-name="路径 7768" d="M379.007,168.274a8.5,8.5,0,0,1,4.613-3.016,9,9,0,0,0-5.184,2.673,1.669,1.669,0,0,0-1.947.105s-1.645,1.975-1.076,3.649h0a1.76,1.76,0,0,0,.823.908c1.133.654,3.091.68,5.154.186l0,0A6.112,6.112,0,0,0,379.007,168.274Z" transform="translate(-374.085 -164.604)" fill="#bf917a"/>
                  <path id="路径_7769" data-name="路径 7769" d="M379.217,170.171c.339-1.135-1.3-2.492-2.465-2.868-.923-.3-1.183.052-1.251.21a2.921,2.921,0,0,0-.088,1.883h0a1.549,1.549,0,0,0,.337.532,1.958,1.958,0,0,0,.446.352l.039.024a4.738,4.738,0,0,0,2.148.521A.984.984,0,0,0,379.217,170.171Z" transform="translate(-374.085 -162.316)" fill="#d9a88f"/>
                  <path id="路径_7770" data-name="路径 7770" d="M378.278,172.638a14.66,14.66,0,0,0,3.408-1.409c2.441-1.411,3.6-3.141,3.111-4.338h0a3.507,3.507,0,0,0-1.555-1.608c.308.206,1.148,1.028.017,3.572C382.172,171.3,379.354,172.325,378.278,172.638Z" transform="translate(-370.541 -164.573)" fill="#d5dde6" style="mix-blend-mode: multiply;isolation: isolate"/>
                  <g id="组_9902" data-name="组 9902" transform="translate(0 6.493)">
                    <path id="路径_7771" data-name="路径 7771" d="M375.439,172.912a.08.08,0,0,1-.057-.024c-.013-.013-1.2-1.251-.315-2.117a40.689,40.689,0,0,1,3.95-2.831.078.078,0,0,1,.107.022.078.078,0,0,1-.024.109,41.845,41.845,0,0,0-3.924,2.811c-.77.757.273,1.851.317,1.9a.077.077,0,0,1,0,.112A.086.086,0,0,1,375.439,172.912Z" transform="translate(-374.741 -167.927)" fill="#735a53"/>
                  </g>
                </g>
              </g>
              <path id="路径_7772" data-name="路径 7772" d="M377.446,168.378c.07.151-.085.374-.346.5s-.534.1-.606-.05.085-.376.346-.5S377.373,168.225,377.446,168.378Z" transform="translate(-370.774 -161.055)" fill="#735a53"/>
            </g>
            <path id="路径_7773" data-name="路径 7773" d="M379.711,167.352a48.9,48.9,0,0,1-4.443,2.05,6.7,6.7,0,0,1-3.428-.184.078.078,0,1,0-.048.149,8.307,8.307,0,0,0,2.275.363,3.911,3.911,0,0,0,1.251-.182,47.139,47.139,0,0,0,4.327-1.986C379.665,167.49,379.687,167.422,379.711,167.352Z" transform="translate(-371.738 -162.117)" fill="#735a53"/>
          </g>
          <g id="组_9932" data-name="组 9932" transform="translate(0 41.02)">
            <path id="路径_7774" data-name="路径 7774" d="M328.272,282.93c.591.017,20.26-1,19.153,6.02-1.711,10.856-28.66,14.008-32.173,12.873-3.883-1.256-4.405-6.676-4.11-10.738a11.767,11.767,0,0,1,1.19-5.486C315.5,278.284,328.272,282.93,328.272,282.93Z" transform="translate(-249.916 -54.978)" fill="#a9bacc"/>
            <path id="路径_7775" data-name="路径 7775" d="M296.381,305.434s-.943,10.456,9.839,13.1,26.385,2.828,29.756-4.7-23.362-16.561-23.362-16.561Z" transform="translate(-267.386 -36.227)" fill="#a9bacc"/>
            <g id="组_9907" data-name="组 9907" transform="translate(38.975 143.997)">
              <path id="路径_7776" data-name="路径 7776" d="M333.325,343.77a10.491,10.491,0,0,0,9.268-5.552c1.487-2.784,14.435-27.763,10.917-46.909-3.489-19-30.215-41.045-35.537-45.271a10.507,10.507,0,0,0-13.07,16.456h0c10.366,8.247,26.415,24.318,27.94,32.612,1.656,9.027-4.513,25.166-8.791,33.22a10.512,10.512,0,0,0,9.272,15.443Z" transform="translate(-300.932 -243.759)" fill="#00a1c9"/>
            </g>
            <g id="组_9908" data-name="组 9908" transform="translate(27.784 166.712)">
              <path id="路径_7777" data-name="路径 7777" d="M306.331,366.77a10.513,10.513,0,0,0,10.045-7.442,330.155,330.155,0,0,1,13.345-35.156c8.754-19.225,14.067-56.479,14.288-58.056a10.507,10.507,0,0,0-20.809-2.927c-1.4,9.909-6.385,38.617-12.6,52.271A346.373,346.373,0,0,0,296.275,353.2a10.513,10.513,0,0,0,10.056,13.573Z" transform="translate(-295.816 -254.144)" fill="#49c4e3"/>
            </g>
            <g id="组_9913" data-name="组 9913" transform="translate(96.584)">
              <g id="组_9909" data-name="组 9909" transform="translate(22.571)">
                <path id="路径_7778" data-name="路径 7778" d="M340.063,240.934a1.5,1.5,0,0,1-2.391-1.636L358.8,179.369a1.5,1.5,0,0,1,1.137-.976l6.26-1.17a1.5,1.5,0,0,1,1.413.5l4.3,5.027a1.5,1.5,0,0,1-2.275,1.951l-3.743-4.37-4.561.851L340.5,240.3A1.505,1.505,0,0,1,340.063,240.934Z" transform="translate(-337.587 -177.197)" fill="#293b49"/>
              </g>
              <g id="组_9910" data-name="组 9910" transform="translate(0 59.315)">
                <path id="路径_7779" data-name="路径 7779" d="M346.5,204.314l-2.826,2.894-15.11,49.609,6.32,1.186,21.43-48.423-3.494-4.08Z" transform="translate(-325.735 -204.314)" fill="#a9bacc"/>
                <path id="路径_7780" data-name="路径 7780" d="M330.095,228.316l-2.826,2.894,3.494,4.08,6.32,1.186,2.826-2.894-3.494-4.08Z" transform="translate(-327.269 -175.813)" fill="#a9bacc"/>
                <path id="路径_7781" data-name="路径 7781" d="M327.269,259.711l17.935-52.5,2.826-2.894-17.935,52.5Z" transform="translate(-327.269 -204.314)" fill="#ccd9e6"/>
                <path id="路径_7782" data-name="路径 7782" d="M331.45,257.358l17.935-52.5,3.494,4.08-17.935,52.5Z" transform="translate(-322.304 -203.67)" fill="#95a8bd"/>
                <path id="路径_7783" data-name="路径 7783" d="M330.111,228.806l-2.082,2.133,2.575,3.007,4.658.874,2.082-2.133-2.575-3.007Z" transform="translate(-326.366 -175.23)" fill="#95a8bd"/>
                <path id="路径_7784" data-name="路径 7784" d="M335.675,232.732l-4.658-.874-2.125-2.481-.864.885,2.575,3.007,4.658.874,2.082-2.133-.45-.525Z" transform="translate(-326.366 -174.553)" fill="#ccd9e6"/>
              </g>
              <g id="组_9912" data-name="组 9912" transform="translate(9.519 62.758)">
                <g id="组_9911" data-name="组 9911">
                  <path id="路径_7785" data-name="路径 7785" d="M340.529,207.391c-.088.011-.171.02-.26.035a10.221,10.221,0,0,0-7.022,6.015c-.031.085-.05.168-.077.252l-1.286,1.1,2.872,3.353h0a3.25,3.25,0,0,0,3.191.783,10.221,10.221,0,0,0,7.022-6.015,3.255,3.255,0,0,0-.28-3.275h0l-2.874-3.353Z" transform="translate(-331.307 -205.411)" fill="#293b49"/>
                  <path id="路径_7786" data-name="路径 7786" d="M338.936,205.983c2.9-.54,4.454,1.275,3.474,4.055a10.219,10.219,0,0,1-7.024,6.015c-2.9.542-4.454-1.273-3.471-4.055A10.221,10.221,0,0,1,338.936,205.983Z" transform="translate(-331.62 -205.888)" fill="#3d6372"/>
                </g>
                <path id="路径_7787" data-name="路径 7787" d="M337.269,206.768c1.89-.352,2.9.829,2.264,2.64a6.667,6.667,0,0,1-4.576,3.92c-1.888.352-2.9-.831-2.262-2.642A6.655,6.655,0,0,1,337.269,206.768Z" transform="translate(-330.572 -204.916)" fill="#f5b659"/>
                <path id="路径_7788" data-name="路径 7788" d="M333.913,212.11a6.652,6.652,0,0,1,4.574-3.92,2.863,2.863,0,0,1,1.225.009c-.1-1.089-1.019-1.7-2.443-1.431a6.655,6.655,0,0,0-4.574,3.918c-.481,1.365-.024,2.371,1.037,2.634A2.9,2.9,0,0,1,333.913,212.11Z" transform="translate(-330.572 -204.916)" fill="#293b49"/>
              </g>
            </g>
            <g id="组_9916" data-name="组 9916" transform="translate(25.235 47.759)">
              <g id="组_9915" data-name="组 9915" transform="translate(0 51.068)">
                <g id="组_9914" data-name="组 9914">
                  <path id="路径_7789" data-name="路径 7789" d="M304.777,223.285l.035,0a8.169,8.169,0,0,1,5.733-.306h.009c44.617,5.346,43.016,26.542,43.016,26.542v44.79c0,4.353-2.874,8.706-8.627,12.029-.588.339-1.207.65-1.833.956v.225l-.2-.12c-11.574,5.554-28.776,5.2-39.627-1.061-5.753-3.323-8.627-7.676-8.627-12.029V238.35C294.651,227.345,304.777,223.285,304.777,223.285Z" transform="translate(-294.651 -222.62)" fill="#49c4e3"/>
                </g>
              </g>
              <path id="路径_7790" data-name="路径 7790" d="M322.042,199.323c-26.829,1.437-26.709,23.992-27.146,31.626s6.256,14.706,6.932,17.917-2.43,5.569-2.43,5.569c7.995,10.032,19.2,4.576,21.649,3.5a19.973,19.973,0,0,1,18.232.875c3.614,1.931,4.874-7.4,3.979-15.15C341.462,228.127,348.871,197.886,322.042,199.323Z" transform="translate(-294.384 -199.273)" fill="#00a1c9"/>
            </g>
            <g id="组_9917" data-name="组 9917" transform="translate(65.878 75.877)">
              <path id="路径_7791" data-name="路径 7791" d="M332.721,269.414a29.827,29.827,0,0,0,11.324-2.168c9.756-3.977,16.922-12.971,21.3-26.733,2.568-8.069,4.725-14.706,6.411-19.722a6.567,6.567,0,0,0-12.449-4.187c-1.708,5.084-3.889,11.788-6.479,19.927-3.141,9.874-7.765,16.115-13.744,18.552-7.873,3.207-16.121-.973-16.2-1.017a6.567,6.567,0,1,0-6.164,11.6A37.1,37.1,0,0,0,332.721,269.414Z" transform="translate(-313.231 -212.13)" fill="#00a1c9"/>
            </g>
            <g id="组_9931" data-name="组 9931" transform="translate(0 90.679)">
              <g id="组_9918" data-name="组 9918" transform="translate(0.006 70.944)">
                <path id="路径_7792" data-name="路径 7792" d="M318.642,279.4l-7.907,4.549-10.2-16.747,18.1-10.451Z" transform="translate(-262.431 -245.197)" fill="#95a8bd"/>
                <path id="路径_7793" data-name="路径 7793" d="M331.42,290.213l-38.106-22-10.2-16.747,38.107,22Z" transform="translate(-283.117 -251.466)" fill="#a9bacc"/>
              </g>
              <path id="路径_7794" data-name="路径 7794" d="M321.221,255.59l-38.106-22,18.1-10.452,38.106,22Z" transform="translate(-283.115 -214.161)" fill="#f1a4a1"/>
              <path id="路径_7795" data-name="路径 7795" d="M318.641,284.71l-18.1,10.452V243.646l18.1-10.452Z" transform="translate(-262.427 -202.218)" fill="#f1625c"/>
              <g id="组_9920" data-name="组 9920" transform="translate(0.003 19.427)">
                <g id="组_9919" data-name="组 9919">
                  <path id="路径_7796" data-name="路径 7796" d="M321.223,301.43l-38.107-22V227.915l38.107,22Z" transform="translate(-283.116 -227.915)" fill="#f18480"/>
                  <path id="路径_7797" data-name="路径 7797" d="M300.664,259.441l-2.99,1.726V241.052l2.99-1.726Z" transform="translate(-265.83 -214.365)" fill="#95a8bd"/>
                </g>
                <path id="路径_7798" data-name="路径 7798" d="M286.236,231l-2.99,1.726h0l31.56,18.221,2.99-1.726Z" transform="translate(-282.962 -224.256)" fill="#ccd9e6"/>
                <path id="路径_7799" data-name="路径 7799" d="M314.805,270.121,283.246,251.9V231.785l31.56,18.221Z" transform="translate(-282.962 -223.319)" fill="#a9bacc"/>
              </g>
              <path id="路径_7800" data-name="路径 7800" d="M307.349,238.806l-2.448-1.413v-5.953l8.552,3.842Z" transform="translate(-257.245 -204.303)" fill="#f5a459"/>
              <path id="路径_7801" data-name="路径 7801" d="M289.718,228.626v-5.954l3.657,1.016,2.448,1.413Z" transform="translate(-275.274 -214.712)" fill="#db763b"/>
              <path id="路径_7802" data-name="路径 7802" d="M326.707,245.669l-38.107-22v-3.022l38.107,22Z" transform="translate(-276.602 -217.12)" fill="#f5a459"/>
              <path id="路径_7803" data-name="路径 7803" d="M291.047,229.393v-5.954l-2.448-1.413v5.954Z" transform="translate(-276.602 -215.48)" fill="#f5a459"/>
              <path id="路径_7804" data-name="路径 7804" d="M306.02,234v5.954l6.1-3.525v-5.954Z" transform="translate(-255.916 -205.449)" fill="#db763b"/>
              <path id="路径_7805" data-name="路径 7805" d="M326.707,244.561l-38.107-22,6.1-3.525,38.108,22Z" transform="translate(-276.602 -219.033)" fill="#f5b659"/>
              <path id="路径_7806" data-name="路径 7806" d="M312.125,232.114v-3.022l-6.1,3.525v3.022Z" transform="translate(-255.916 -207.089)" fill="#db763b"/>
              <g id="组_9924" data-name="组 9924" transform="translate(48.327 28.068)">
                <g id="组_9921" data-name="组 9921" transform="translate(0.002 11.373)">
                  <path id="路径_7807" data-name="路径 7807" d="M315.226,243.876a.721.721,0,0,1-.361-.1l-9.3-5.368a.721.721,0,0,1,.722-1.249l9.3,5.366a.722.722,0,0,1-.361,1.347Z" transform="translate(-305.209 -237.064)" fill="#293b49"/>
                </g>
                <g id="组_9922" data-name="组 9922" transform="translate(0 31.308)">
                  <path id="路径_7808" data-name="路径 7808" d="M315.226,252.988a.721.721,0,0,1-.361-.1l-9.3-5.366a.722.722,0,0,1,.722-1.251l9.3,5.366a.722.722,0,0,1-.361,1.347Z" transform="translate(-305.208 -246.178)" fill="#293b49"/>
                </g>
                <g id="组_9923" data-name="组 9923">
                  <path id="路径_7809" data-name="路径 7809" d="M311.316,287.618a7.128,7.128,0,0,1-3.52-1.065l-2.227-1.286a.721.721,0,1,1,.722-1.249l2.227,1.284c1.656.956,3.174,1.131,4.276.494s1.711-2.039,1.711-3.951V232.587a.722.722,0,1,1,1.444,0v49.259c0,2.448-.864,4.3-2.432,5.2A4.356,4.356,0,0,1,311.316,287.618Z" transform="translate(-305.208 -231.865)" fill="#293b49"/>
                </g>
              </g>
              <g id="组_9930" data-name="组 9930" transform="translate(8.221 12.751)">
                <g id="组_9925" data-name="组 9925">
                  <path id="路径_7810" data-name="路径 7810" d="M297.834,227.177c-.07-.046-.136-.092-.212-.136a9.842,9.842,0,0,0-8.9,0c-.074.044-.142.09-.212.136h-1.632v2.435h0a3.131,3.131,0,0,0,1.844,2.572,9.842,9.842,0,0,0,8.9,0,3.134,3.134,0,0,0,1.846-2.572h0v-2.435Z" transform="translate(-286.873 -223.54)" fill="#293b49"/>
                  <path id="路径_7811" data-name="路径 7811" d="M297.622,225.929c2.461,1.42,2.461,3.721,0,5.14a9.842,9.842,0,0,1-8.9,0c-2.459-1.42-2.459-3.721,0-5.14A9.829,9.829,0,0,1,297.622,225.929Z" transform="translate(-286.873 -224.862)" fill="#3d6372"/>
                </g>
                <g id="组_9929" data-name="组 9929" transform="translate(12.844 10.909)">
                  <g id="组_9926" data-name="组 9926">
                    <path id="路径_7812" data-name="路径 7812" d="M298.66,231.1l-.114-.072a5.315,5.315,0,0,0-4.806,0c-.042.024-.077.048-.116.072h-.879v1.315h0a1.683,1.683,0,0,0,1,1.387,5.3,5.3,0,0,0,4.806,0,1.688,1.688,0,0,0,1-1.387h0V231.1Z" transform="translate(-292.745 -229.136)" fill="#293b49"/>
                    <path id="路径_7813" data-name="路径 7813" d="M298.546,230.424c1.326.766,1.326,2.008,0,2.776a5.315,5.315,0,0,1-4.806,0c-1.328-.768-1.328-2.01,0-2.776A5.315,5.315,0,0,1,298.546,230.424Z" transform="translate(-292.745 -229.85)" fill="#3d6372"/>
                  </g>
                  <g id="组_9927" data-name="组 9927" transform="translate(7.256 4.2)">
                    <path id="路径_7814" data-name="路径 7814" d="M301.977,233.019c-.037-.024-.072-.05-.114-.074a5.315,5.315,0,0,0-4.806,0c-.039.024-.077.05-.114.074h-.882v1.312h0a1.69,1.69,0,0,0,1,1.389,5.314,5.314,0,0,0,4.806,0,1.691,1.691,0,0,0,1-1.389h0v-1.312Z" transform="translate(-296.062 -231.056)" fill="#293b49"/>
                    <path id="路径_7815" data-name="路径 7815" d="M301.862,232.344c1.328.768,1.328,2.01,0,2.776a5.315,5.315,0,0,1-4.806,0c-1.326-.766-1.326-2.008,0-2.776A5.315,5.315,0,0,1,301.862,232.344Z" transform="translate(-296.061 -231.77)" fill="#3d6372"/>
                  </g>
                  <g id="组_9928" data-name="组 9928" transform="translate(14.514 8.4)">
                    <path id="路径_7816" data-name="路径 7816" d="M305.295,234.939c-.037-.024-.074-.05-.114-.074a5.315,5.315,0,0,0-4.806,0c-.042.024-.077.05-.116.074h-.879v1.315h0a1.686,1.686,0,0,0,1,1.387,5.315,5.315,0,0,0,4.806,0,1.691,1.691,0,0,0,1-1.387h0v-1.315Z" transform="translate(-299.379 -232.976)" fill="#293b49"/>
                    <path id="路径_7817" data-name="路径 7817" d="M305.181,234.266c1.326.766,1.326,2.008,0,2.774a5.315,5.315,0,0,1-4.806,0c-1.328-.766-1.328-2.008,0-2.774A5.3,5.3,0,0,1,305.181,234.266Z" transform="translate(-299.38 -233.69)" fill="#3d6372"/>
                  </g>
                </g>
              </g>
            </g>
            <path id="路径_7818" data-name="路径 7818" d="M335.6,216.605a6.567,6.567,0,0,1,12.449,4.187c-.853,2.54-1.829,5.495-2.916,8.839l-.009-.024c-.109-2.078-2.627-3.557-5.692-4.815a14.457,14.457,0,0,0-6.232-.932C334.078,221.172,334.881,218.738,335.6,216.605Z" transform="translate(-223.643 -136.174)" fill="#e6e6e6"/>
          </g>
          <g id="组_9933" data-name="组 9933" transform="translate(141.182 52.547)" opacity="0.25">
            <path id="路径_7819" data-name="路径 7819" d="M456.422,228.922a28.581,28.581,0,0,0-25.72-28.437,18.834,18.834,0,0,0-2.109-1.544,12.657,12.657,0,0,0-23.06-10.007,19.631,19.631,0,0,0-25.333-1.345,12.658,12.658,0,0,0-20.566,14.737,18.748,18.748,0,0,0-6.1,24.254,12.657,12.657,0,0,0,13.011,21.706,28.5,28.5,0,0,0,37.289,22.233,18.816,18.816,0,0,0,11.718,9,12.66,12.66,0,1,0,25.14,2.117,12.638,12.638,0,0,0-4.8-9.92,18.676,18.676,0,0,0,2.211-16.145A28.569,28.569,0,0,0,456.422,228.922Z" transform="translate(-347.657 -182.649)" fill="#49c4e3"/>
            <path id="路径_7820" data-name="路径 7820" d="M406.959,216.469A10.141,10.141,0,1,0,417.1,226.61,10.139,10.139,0,0,0,406.959,216.469Z" transform="translate(-289.282 -142.49)" fill="#49c4e3"/>
            <path id="路径_7821" data-name="路径 7821" d="M366.951,227.315a7.842,7.842,0,1,0,7.842,7.842A7.842,7.842,0,0,0,366.951,227.315Z" transform="translate(-334.059 -129.611)" fill="#49c4e3"/>
          </g>
          <path id="路径_7822" data-name="路径 7822" d="M400.757,175.927a15.213,15.213,0,0,0-1.995,1.638,8.625,8.625,0,1,0-3.366,16.918,15.125,15.125,0,1,0,5.361-18.556Z" transform="translate(-158.122 -140.79)" fill="#49c4e3" opacity="0.25"/>
          <path id="路径_7823" data-name="路径 7823" d="M384.754,171.117a5.136,5.136,0,1,0,5.136,5.136A5.135,5.135,0,0,0,384.754,171.117Z" transform="translate(-168.524 -143.398)" fill="#49c4e3" opacity="0.25"/>
        </g>
      </g>
      <path id="路径_7824" data-name="路径 7824" d="M360.755,48.436h0c22.259,24.784,16.145,65.126-12.326,81.339l-72.661,41.374c-17.3,9.851-23.911,32.54-14.845,50.955h0a39.583,39.583,0,0,1-6.515,44.414h0C227.1,295.286,222.073,340.1,242.274,374.8l.115.2a92.511,92.511,0,0,1,3.044,86.693l-.853,1.742H-215.6v-415Z" transform="translate(215.601 -48.436)" fill="#49c4e3"/>
      <text id="專業消毒病媒防治公司_全方位病媒防治" data-name="專業消毒病媒防治公司
全方位病媒防治" transform="translate(29.841 204.972)" fill="#fff" font-size="56" font-family="MicrosoftJhengHeiBold, Microsoft JhengHei"><tspan x="0" y="0">專業消毒病媒防治</tspan><tspan y="0" fill="#49c4e3">公司</tspan><tspan font-size="46" font-family="MicrosoftJhengHeiRegular, Microsoft JhengHei" fill="#000"><tspan x="0" y="63">全方位病媒防治</tspan></tspan></text>
    </g>
    <g id="矩形_224" data-name="矩形 224" transform="translate(276 122)" fill="none" stroke="#fff" stroke-width="2">
      <rect width="1200" height="415" stroke="none"/>
      <rect x="1" y="1" width="1198" height="413" fill="none"/>
    </g>
  </g>
</svg>
