<svg xmlns="http://www.w3.org/2000/svg" width="90" height="90" viewBox="0 0 90 90">
  <g id="蟑螂" transform="translate(-83.936 -218.727)">
    <g id="组_119" data-name="组 119" transform="translate(83.936 218.727)">
      <g id="组_118" data-name="组 118">
        <path id="路径_398" data-name="路径 398" d="M128.937,308.727a45,45,0,1,1,45-45A45.052,45.052,0,0,1,128.937,308.727Zm0-84.793a39.793,39.793,0,1,0,39.793,39.793A39.838,39.838,0,0,0,128.937,223.934Z" transform="translate(-83.936 -218.727)" fill="#f23812"/>
      </g>
    </g>
    <g id="组_198" data-name="组 198" transform="translate(100.591 220.086)">
      <g id="组_121" data-name="组 121" transform="translate(12.761)">
        <g id="组_120" data-name="组 120">
          <path id="路径_399" data-name="路径 399" d="M110.423,221.593a28.524,28.524,0,0,0,1.774,7.625c1.1,2.888,3.813,4.94,5.9,6.334a12.369,12.369,0,0,1,3.18,3.024s2.412-2.93,1.647-3.053a19.825,19.825,0,0,1-8.117-5.06c-1.66-1.831-3-6.443-3-8.869C111.813,219.47,110.371,219.3,110.423,221.593Z" transform="translate(-110.422 -219.935)" fill="#873217"/>
        </g>
      </g>
      <g id="组_123" data-name="组 123" transform="translate(31.431)">
        <g id="组_122" data-name="组 122">
          <path id="路径_400" data-name="路径 400" d="M139.673,221.593a28.568,28.568,0,0,1-1.774,7.625c-1.1,2.888-3.814,4.94-5.9,6.334a12.386,12.386,0,0,0-3.182,3.024s-2.411-2.93-1.646-3.053a19.83,19.83,0,0,0,8.116-5.06c1.662-1.831,3-6.443,3-8.869C138.283,219.47,139.724,219.3,139.673,221.593Z" transform="translate(-127.018 -219.935)" fill="#873217"/>
        </g>
      </g>
      <g id="组_136" data-name="组 136" transform="translate(0 26.753)">
        <g id="组_125" data-name="组 125" transform="translate(2.989 1.071)">
          <g id="组_124" data-name="组 124">
            <path id="路径_401" data-name="路径 401" d="M114.069,245.087s-2.477,4.1-5.5,5.6-6.915,1.5-6.831,2.85c.1,1.6,4.186,2.134,7.444-.374a35.048,35.048,0,0,0,6.219-6.873Z" transform="translate(-101.736 -245.087)" fill="#873217"/>
          </g>
        </g>
        <g id="组_127" data-name="组 127" transform="translate(14.461)">
          <g id="组_126" data-name="组 126">
            <path id="路径_402" data-name="路径 402" d="M117.912,245.431a33.762,33.762,0,0,0-4.95-1.3c-1.565-.024-1.593,3.608,1.66,4.8S117.912,245.431,117.912,245.431Z" transform="translate(-111.933 -244.135)" fill="#424242"/>
          </g>
        </g>
        <g id="组_129" data-name="组 129" transform="translate(0 12.529)">
          <g id="组_128" data-name="组 128">
            <path id="路径_403" data-name="路径 403" d="M111.412,255.272s-2.477,4.1-5.5,5.6-6.915,1.5-6.83,2.849c.1,1.6,4.186,2.135,7.443-.372a35.041,35.041,0,0,0,6.219-6.873Z" transform="translate(-99.079 -255.272)" fill="#873217"/>
          </g>
        </g>
        <g id="组_131" data-name="组 131" transform="translate(11.471 11.459)">
          <g id="组_130" data-name="组 130">
            <path id="路径_404" data-name="路径 404" d="M115.254,255.616a33.608,33.608,0,0,0-4.95-1.295c-1.564-.025-1.592,3.608,1.662,4.8S115.254,255.616,115.254,255.616Z" transform="translate(-109.276 -254.321)" fill="#424242"/>
          </g>
        </g>
        <g id="组_133" data-name="组 133" transform="translate(2.939 23.585)">
          <g id="组_132" data-name="组 132">
            <path id="路径_405" data-name="路径 405" d="M110.2,265.1s-.83,4.721-3.111,7.208-5.911,3.891-5.343,5.121c.673,1.46,4.674.481,6.807-3.033a35.075,35.075,0,0,0,3.321-8.652Z" transform="translate(-101.691 -265.099)" fill="#873217"/>
          </g>
        </g>
        <g id="组_135" data-name="组 135" transform="translate(10.622 21.949)">
          <g id="组_134" data-name="组 134">
            <path id="路径_406" data-name="路径 406" d="M114.2,263.645a33.639,33.639,0,0,0-5.084.578c-1.468.541-.183,3.94,3.283,3.88S114.2,263.645,114.2,263.645Z" transform="translate(-108.521 -263.645)" fill="#424242"/>
          </g>
        </g>
      </g>
      <g id="组_149" data-name="组 149" transform="translate(35.87 26.753)">
        <g id="组_138" data-name="组 138" transform="translate(3.787 1.071)">
          <g id="组_137" data-name="组 137">
            <path id="路径_407" data-name="路径 407" d="M135.659,245.087s2.477,4.1,5.5,5.6,6.915,1.5,6.83,2.85c-.1,1.6-4.186,2.134-7.443-.374a35.048,35.048,0,0,1-6.219-6.873Z" transform="translate(-134.329 -245.087)" fill="#873217"/>
          </g>
        </g>
        <g id="组_140" data-name="组 140">
          <g id="组_139" data-name="组 139">
            <path id="路径_408" data-name="路径 408" d="M130.963,245.431a33.722,33.722,0,0,1,4.95-1.3c1.565-.024,1.593,3.608-1.662,4.8S130.963,245.431,130.963,245.431Z" transform="translate(-130.963 -244.135)" fill="#424242"/>
          </g>
        </g>
        <g id="组_142" data-name="组 142" transform="translate(6.776 12.529)">
          <g id="组_141" data-name="组 141">
            <path id="路径_409" data-name="路径 409" d="M138.317,255.272s2.477,4.1,5.5,5.6,6.915,1.5,6.831,2.849c-.1,1.6-4.187,2.135-7.444-.372a35.082,35.082,0,0,1-6.219-6.873Z" transform="translate(-136.986 -255.272)" fill="#873217"/>
          </g>
        </g>
        <g id="组_144" data-name="组 144" transform="translate(2.989 11.459)">
          <g id="组_143" data-name="组 143">
            <path id="路径_410" data-name="路径 410" d="M133.62,255.616a33.608,33.608,0,0,1,4.95-1.295c1.565-.025,1.593,3.608-1.66,4.8S133.62,255.616,133.62,255.616Z" transform="translate(-133.62 -254.321)" fill="#424242"/>
          </g>
        </g>
        <g id="组_146" data-name="组 146" transform="translate(7.314 23.585)">
          <g id="组_145" data-name="组 145">
            <path id="路径_411" data-name="路径 411" d="M139.139,265.1s.83,4.721,3.111,7.208,5.91,3.891,5.343,5.121c-.673,1.46-4.674.481-6.807-3.033a35.075,35.075,0,0,1-3.321-8.652Z" transform="translate(-137.464 -265.099)" fill="#873217"/>
          </g>
        </g>
        <g id="组_148" data-name="组 148" transform="translate(3.736 21.949)">
          <g id="组_147" data-name="组 147">
            <path id="路径_412" data-name="路径 412" d="M134.683,263.645a33.627,33.627,0,0,1,5.083.578c1.468.541.184,3.94-3.282,3.88S134.683,263.645,134.683,263.645Z" transform="translate(-134.284 -263.645)" fill="#424242"/>
          </g>
        </g>
      </g>
      <g id="组_192" data-name="组 192" transform="translate(14.16 23.105)">
        <g id="组_151" data-name="组 151" transform="translate(1.33 4.665)">
          <g id="组_150" data-name="组 150">
            <path id="路径_413" data-name="路径 413" d="M123.772,264.459a11.467,11.467,0,0,0,4.088.144,13.763,13.763,0,0,0,6.124-2.926c-.113-1.06-.236-2.087-.367-3.062-.12-.9-.242-1.758-.361-2.581a12.787,12.787,0,0,1-7.549,2.579,12.972,12.972,0,0,1-7.91-2.792c-3.944-3.415-2.174-10.1-2.058-10.515a57.111,57.111,0,0,0-2.892,9.992S116.844,263,123.772,264.459Z" transform="translate(-112.848 -245.305)" fill="#a04927"/>
          </g>
        </g>
        <g id="组_153" data-name="组 153" transform="translate(0.073 14.658)">
          <g id="组_152" data-name="组 152">
            <path id="路径_414" data-name="路径 414" d="M123.026,274.625a21.044,21.044,0,0,0,5.583,0,14.351,14.351,0,0,0,6.046-2.837c.049-2.2-.011-4.441-.144-6.616-.273.269-.56.534-.87.794a12.755,12.755,0,0,1-15.7,0,13.755,13.755,0,0,1-4.95-11.779,76.443,76.443,0,0,0-1.258,10.659C111.885,265.177,116.1,274.025,123.026,274.625Z" transform="translate(-111.73 -254.187)" fill="#a04927"/>
          </g>
        </g>
        <g id="组_155" data-name="组 155" transform="translate(0 25.397)">
          <g id="组_154" data-name="组 154">
            <path id="路径_415" data-name="路径 415" d="M123.92,283.466a11.441,11.441,0,0,0,4.088.144,15.261,15.261,0,0,0,5.131-2.076,32.606,32.606,0,0,0,1.206-6.042c-.224.21-.453.419-.7.622-1.786,1.5-4.992,2.159-7.794,2.117a14.816,14.816,0,0,1-7.91-2.117c-5.627-3.836-6.166-11.446-6.211-12.381a65.681,65.681,0,0,0,.4,10.911C112.195,274.733,117.033,282.014,123.92,283.466Z" transform="translate(-111.665 -263.733)" fill="#a04927"/>
          </g>
        </g>
        <g id="组_157" data-name="组 157" transform="translate(0.894 39.261)">
          <g id="组_156" data-name="组 156">
            <path id="路径_416" data-name="路径 416" d="M124.768,288.27a8.172,8.172,0,0,0,3.778-1.376,11.657,11.657,0,0,1-2.847.352,13.2,13.2,0,0,1-7.851-2.7,16.19,16.19,0,0,1-5.387-8.485c.344,2.061.747,3.915,1.14,5.582a20.032,20.032,0,0,0,3.071,6.4A28.441,28.441,0,0,0,124.768,288.27Z" transform="translate(-112.46 -276.057)" fill="#a04927"/>
          </g>
        </g>
        <g id="组_159" data-name="组 159" transform="translate(4.228)">
          <g id="组_158" data-name="组 158">
            <path id="路径_417" data-name="路径 417" d="M123.059,254.012a13.305,13.305,0,0,0,5.06,0,10.428,10.428,0,0,0,4.014-2.485,66.96,66.96,0,0,0-2.328-10.194l.278-.176H117.476a49.163,49.163,0,0,0-2.052,4.648C115.438,245.89,116.622,253.016,123.059,254.012Z" transform="translate(-115.424 -241.158)" fill="#a04927"/>
          </g>
        </g>
        <g id="组_161" data-name="组 161" transform="translate(4.223 4.645)">
          <g id="组_160" data-name="组 160">
            <path id="路径_418" data-name="路径 418" d="M115.425,245.287l-.006.02.006-.017Z" transform="translate(-115.419 -245.287)" fill="#873217"/>
          </g>
        </g>
        <g id="组_163" data-name="组 163" transform="translate(3.727 4.648)">
          <g id="组_162" data-name="组 162">
            <path id="路径_419" data-name="路径 419" d="M117.532,255.822a12.972,12.972,0,0,0,7.91,2.792,12.787,12.787,0,0,0,7.549-2.579c-.273-1.87-.542-3.54-.8-5.025a10.428,10.428,0,0,1-4.014,2.485,13.305,13.305,0,0,1-5.06,0c-6.437-1-7.622-8.122-7.635-8.206l-.006.017C115.358,245.722,113.587,252.407,117.532,255.822Z" transform="translate(-114.978 -245.29)" fill="#873217"/>
          </g>
        </g>
        <g id="组_165" data-name="组 165" transform="translate(1.269 14.658)">
          <g id="组_164" data-name="组 164">
            <path id="路径_420" data-name="路径 420" d="M117.8,265.966a12.755,12.755,0,0,0,15.7,0c.309-.26.6-.525.87-.794-.1-1.581-.231-3.125-.387-4.6a13.763,13.763,0,0,1-6.124,2.926,11.467,11.467,0,0,1-4.088-.144c-6.928-1.46-10.924-9.162-10.924-9.162A13.755,13.755,0,0,0,117.8,265.966Z" transform="translate(-112.794 -254.187)" fill="#873217"/>
          </g>
        </g>
        <g id="组_167" data-name="组 167" transform="translate(0.467 36.305)">
          <g id="组_166" data-name="组 166">
            <path id="路径_421" data-name="路径 421" d="M112.081,273.429a12.494,12.494,0,0,0,.426,2.957c-.156-.939-.3-1.926-.424-2.953Z" transform="translate(-112.081 -273.429)" fill="#873217"/>
          </g>
        </g>
        <g id="组_169" data-name="组 169" transform="translate(0.47 36.308)">
          <g id="组_168" data-name="组 168">
            <path id="路径_422" data-name="路径 422" d="M117.894,284.87a13.2,13.2,0,0,0,7.851,2.7,11.657,11.657,0,0,0,2.847-.352c2.117-1.447,3.555-3.894,4.494-6.9a15.261,15.261,0,0,1-5.131,2.076,11.441,11.441,0,0,1-4.088-.144c-6.886-1.451-11.725-8.732-11.784-8.821.125,1.027.268,2.014.424,2.953A16.19,16.19,0,0,0,117.894,284.87Z" transform="translate(-112.083 -273.432)" fill="#873217"/>
          </g>
        </g>
        <g id="组_171" data-name="组 171" transform="translate(0.065 25.301)">
          <g id="组_170" data-name="组 170">
            <path id="路径_423" data-name="路径 423" d="M111.723,263.648s0,.033,0,.1l0-.08Z" transform="translate(-111.723 -263.648)" fill="#873217"/>
          </g>
        </g>
        <g id="组_173" data-name="组 173" transform="translate(0.069 25.317)">
          <g id="组_172" data-name="组 172">
            <path id="路径_424" data-name="路径 424" d="M117.938,276.123a14.816,14.816,0,0,0,7.91,2.117c2.8.042,6.008-.621,7.794-2.117.242-.2.471-.412.7-.622.179-1.588.282-3.232.318-4.9a14.351,14.351,0,0,1-6.046,2.837,21.044,21.044,0,0,1-5.583,0c-6.922-.6-11.141-9.448-11.3-9.779l0,.08C111.772,264.677,112.311,272.286,117.938,276.123Z" transform="translate(-111.727 -263.662)" fill="#873217"/>
          </g>
        </g>
        <g id="组_175" data-name="组 175" transform="translate(5.105 38.681)">
          <g id="组_174" data-name="组 174">
            <path id="路径_425" data-name="路径 425" d="M125.01,293.961v.01c.03,0,.061.006.09.006.056,0,.11,0,.165-.007s.11.007.166.007c.029,0,.06,0,.089-.006v-.01c6.434-.341,10.968-8.386,11.878-12.257.429-1.82.868-3.871,1.231-6.163a16.684,16.684,0,0,1-5.546,9.065,12.826,12.826,0,0,1-5.005,2.352,8.172,8.172,0,0,1-3.778,1.376,28.441,28.441,0,0,1-8.1-.235C118.316,291.087,121.355,293.767,125.01,293.961Z" transform="translate(-116.203 -275.541)" fill="#873217"/>
          </g>
        </g>
        <g id="组_177" data-name="组 177" transform="translate(21.474 25.629)">
          <g id="组_176" data-name="组 176">
            <path id="路径_426" data-name="路径 426" d="M131.959,275.466a32.607,32.607,0,0,1-1.206,6.042,18.208,18.208,0,0,0,6.433-7.228,65.588,65.588,0,0,0,.369-10.341A19.206,19.206,0,0,1,131.959,275.466Z" transform="translate(-130.753 -263.939)" fill="#873217"/>
          </g>
        </g>
        <g id="组_179" data-name="组 179" transform="translate(18.61)">
          <g id="组_178" data-name="组 178">
            <path id="路径_427" data-name="路径 427" d="M130.536,251.527a11.753,11.753,0,0,0,3.129-5.724s2.019,7.01-2.052,10.536c-.084.073-.186.142-.276.214.119.822.241,1.68.361,2.581.13.975.254,2,.367,3.062a15.071,15.071,0,0,0,4.466-6.38,13.744,13.744,0,0,1-4.079,10.984c.133,2.175.193,4.411.144,6.616a18.4,18.4,0,0,0,5.267-6.862,76.312,76.312,0,0,0-1.261-10.738,57.6,57.6,0,0,0-4.95-14.658h-3.166l-.278.176A66.962,66.962,0,0,1,130.536,251.527Z" transform="translate(-128.208 -241.158)" fill="#873217"/>
          </g>
        </g>
        <g id="组_181" data-name="组 181" transform="translate(20.938 4.645)">
          <g id="组_180" data-name="组 180">
            <path id="路径_428" data-name="路径 428" d="M133.406,245.287a11.753,11.753,0,0,1-3.129,5.724c.259,1.485.528,3.156.8,5.025.09-.072.191-.141.276-.214C135.425,252.3,133.406,245.287,133.406,245.287Z" transform="translate(-130.277 -245.287)" fill="#6d210c"/>
          </g>
        </g>
        <g id="组_183" data-name="组 183" transform="translate(22.467 14.658)">
          <g id="组_182" data-name="组 182">
            <path id="路径_429" data-name="路径 429" d="M136.1,254.187a15.072,15.072,0,0,1-4.466,6.38c.156,1.479.291,3.024.387,4.6A13.744,13.744,0,0,0,136.1,254.187Z" transform="translate(-131.636 -254.187)" fill="#6d210c"/>
          </g>
        </g>
        <g id="组_185" data-name="组 185" transform="translate(27.531 35.967)">
          <g id="组_184" data-name="组 184">
            <path id="路径_430" data-name="路径 430" d="M136.514,273.129v0c-.109.943-.238,1.842-.376,2.711A13.28,13.28,0,0,0,136.514,273.129Z" transform="translate(-136.137 -273.129)" fill="#6d210c"/>
          </g>
        </g>
        <g id="组_187" data-name="组 187" transform="translate(16.979 35.97)">
          <g id="组_186" data-name="组 186">
            <path id="路径_431" data-name="路径 431" d="M131.252,280.359c-.939,3.007-2.377,5.454-4.494,6.9a12.826,12.826,0,0,0,5.005-2.352,16.684,16.684,0,0,0,5.546-9.065c.137-.87.267-1.768.376-2.711A18.208,18.208,0,0,1,131.252,280.359Z" transform="translate(-126.758 -273.131)" fill="#6d210c"/>
          </g>
        </g>
        <g id="组_189" data-name="组 189" transform="translate(28.265 25.301)">
          <g id="组_188" data-name="组 188">
            <path id="路径_432" data-name="路径 432" d="M136.828,263.648s-.012.033-.038.094l.01.233C136.823,263.764,136.828,263.648,136.828,263.648Z" transform="translate(-136.79 -263.648)" fill="#6d210c"/>
          </g>
        </g>
        <g id="组_191" data-name="组 191" transform="translate(22.68 25.396)">
          <g id="组_190" data-name="组 190">
            <path id="路径_433" data-name="路径 433" d="M132.143,270.595c-.036,1.665-.14,3.309-.318,4.9a19.206,19.206,0,0,0,5.6-11.527l-.01-.233A18.4,18.4,0,0,1,132.143,270.595Z" transform="translate(-131.825 -263.732)" fill="#6d210c"/>
          </g>
        </g>
      </g>
      <g id="组_197" data-name="组 197" transform="translate(20.44 13.947)">
        <g id="组_194" data-name="组 194" transform="translate(3.541)">
          <g id="组_193" data-name="组 193">
            <path id="路径_434" data-name="路径 434" d="M120.59,240.267c.745,3.094,7.8.76,11.435-.671-.936-2.893-3.069-7.124-7.539-7.124a6.868,6.868,0,0,0-2.583.476C121.031,234.7,119.947,237.6,120.59,240.267Z" transform="translate(-120.395 -232.473)" fill="#424242"/>
          </g>
        </g>
        <g id="组_196" data-name="组 196" transform="translate(0 0.476)">
          <g id="组_195" data-name="组 195">
            <path id="路径_435" data-name="路径 435" d="M117.248,242.191a15.5,15.5,0,0,0,7.91,2.676c3.954,0,7.91-2.676,7.91-2.676a17.8,17.8,0,0,0-.65-2.647c-3.637,1.431-10.69,3.764-11.435.671-.642-2.668.441-5.564,1.313-7.318C117.426,234.848,117.248,242.191,117.248,242.191Z" transform="translate(-117.248 -232.896)" fill="#333"/>
          </g>
        </g>
      </g>
    </g>
    <g id="组_200" data-name="组 200" transform="translate(95.519 230.506)">
      <g id="组_199" data-name="组 199" transform="translate(0 0)">
        <path id="路径_848" data-name="路径 848" d="M0,0,86.867.512,86.9,5.734.031,5.222Z" transform="translate(0 61.69) rotate(-45.228)" fill="#f23812"/>
      </g>
    </g>
  </g>
</svg>
