<svg xmlns="http://www.w3.org/2000/svg" width="90.13" height="90.13" viewBox="0 0 90.13 90.13">
  <g id="果蠅" transform="translate(-282.934 -220.946)">
    <g id="组_304" data-name="组 304" transform="translate(282.934 220.946)">
      <g id="组_303" data-name="组 303">
        <path id="路径_479" data-name="路径 479" d="M328,309.9a45.065,45.065,0,1,1,45.064-45.064A45.116,45.116,0,0,1,328,309.9Zm0-84.914a39.85,39.85,0,1,0,39.85,39.85A39.895,39.895,0,0,0,328,224.982Z" transform="translate(-282.934 -219.766)" fill="#eb0000"/>
      </g>
    </g>
    <g id="组_352" data-name="组 352" transform="translate(294.437 233.021)">
      <g id="组_351" data-name="组 351">
        <g id="fly" transform="translate(-4.728 -6.019)">
          <g id="组_10037" data-name="组 10037" transform="translate(1.31 7.948)">
            <path id="路径_8313" data-name="路径 8313" d="M37.35,47.956a1.309,1.309,0,0,1-1-.467l-6.932-8.242a3.137,3.137,0,0,0-1.357-.6L17.566,37.6a6.543,6.543,0,0,1-3.014-1.229l-5.525-4.42a1.31,1.31,0,0,1,1.637-2.046l5.525,4.42A3.987,3.987,0,0,0,17.827,35l10.49,1.049a5.525,5.525,0,0,1,3.025,1.434L38.351,45.8a1.31,1.31,0,0,1-1,2.153Z" transform="translate(-8.535 -29.621)" fill="#6b676e"/>
            <path id="路径_8314" data-name="路径 8314" d="M308.51,47.956a1.309,1.309,0,0,0,1-.467l6.932-8.242a3.136,3.136,0,0,1,1.357-.6l10.49-1.049a6.544,6.544,0,0,0,3.015-1.229l5.525-4.42a1.31,1.31,0,1,0-1.637-2.046l-5.525,4.42a3.987,3.987,0,0,1-1.638.669l-10.49,1.049a5.525,5.525,0,0,0-3.025,1.434L307.508,45.8a1.31,1.31,0,0,0,1,2.153Z" transform="translate(-261.362 -29.62)" fill="#6b676e"/>
            <path id="路径_8315" data-name="路径 8315" d="M337.318,208.784a1.31,1.31,0,0,0,.728-2.4l-2.839-1.893a4.558,4.558,0,0,1-1.23-1.394l-2.758-5.515a4.168,4.168,0,0,0-2.836-2.092l-19.634-3.709a1.309,1.309,0,0,0-.486,2.573l19.663,3.714a1.657,1.657,0,0,1,.949.686l2.758,5.515a7.134,7.134,0,0,0,2.122,2.4l2.838,1.892A1.311,1.311,0,0,0,337.318,208.784Z" transform="translate(-261.358 -166.875)" fill="#6b676e"/>
            <path id="路径_8316" data-name="路径 8316" d="M349.147,271.762a1.31,1.31,0,0,0,.728-2.4l-2.839-1.893a4.031,4.031,0,0,1-1.14-1.36l-8.12-18.557a4.281,4.281,0,0,0-2.678-2.264l-9.206-2.3a1.309,1.309,0,0,0-.634,2.54l9.207,2.3a1.782,1.782,0,0,1,.911.77l8.12,18.557a6.565,6.565,0,0,0,2.089,2.493l2.838,1.892A1.3,1.3,0,0,0,349.147,271.762Z" transform="translate(-275.806 -210.207)" fill="#6b676e"/>
          </g>
          <ellipse id="椭圆_27" data-name="椭圆 27" cx="13.097" cy="21.61" rx="13.097" ry="21.61" transform="translate(26.193 23.665)" fill="#46c19c"/>
          <g id="组_10038" data-name="组 10038" transform="translate(34.051 4.019)">
            <path id="路径_8317" data-name="路径 8317" d="M223.176,11.877a1.31,1.31,0,0,1-.587-2.481c1.751-.875,1.9-2.424,1.9-4.067a1.31,1.31,0,1,1,2.619,0c0,1.538,0,4.739-3.343,6.41A1.309,1.309,0,0,1,223.176,11.877Z" transform="translate(-221.865 -4.019)" fill="#585661"/>
            <path id="路径_8318" data-name="路径 8318" d="M259.928,11.877a1.31,1.31,0,0,0,.587-2.481c-1.751-.875-1.9-2.424-1.9-4.067a1.31,1.31,0,1,0-2.619,0c0,1.538,0,4.739,3.343,6.41A1.308,1.308,0,0,0,259.928,11.877Z" transform="translate(-250.761 -4.019)" fill="#585661"/>
          </g>
          <g id="组_10039" data-name="组 10039" transform="translate(28.813 7.948)">
            <circle id="椭圆_28" data-name="椭圆 28" cx="3.929" cy="3.929" r="3.929" transform="translate(0 0)" fill="#7a645a"/>
            <circle id="椭圆_29" data-name="椭圆 29" cx="3.929" cy="3.929" r="3.929" transform="translate(13.097 0)" fill="#7a645a"/>
          </g>
          <ellipse id="椭圆_30" data-name="椭圆 30" cx="10.348" cy="7.858" rx="10.348" ry="7.858" transform="translate(28.942 9.258)" fill="#6b676e"/>
          <path id="路径_8319" data-name="路径 8319" d="M208.691,67.005c0,8.68-4.691,18.336-10.477,18.336s-10.477-9.656-10.477-18.336,4.691-11.787,10.477-11.787S208.691,58.325,208.691,67.005Z" transform="translate(-158.923 -43.341)" fill="#9be178"/>
          <g id="组_10040" data-name="组 10040" transform="translate(0 32.833)">
            <path id="路径_8320" data-name="路径 8320" d="M1.311,208.784a1.31,1.31,0,0,1-.728-2.4l2.839-1.893a4.558,4.558,0,0,0,1.23-1.394l2.758-5.515a4.168,4.168,0,0,1,2.836-2.092l19.634-3.709a1.309,1.309,0,0,1,.486,2.573L10.7,198.069a1.657,1.657,0,0,0-.949.686L7,204.269a7.134,7.134,0,0,1-2.122,2.4l-2.838,1.892A1.31,1.31,0,0,1,1.311,208.784Z" transform="translate(0 -191.76)" fill="#6b676e"/>
            <path id="路径_8321" data-name="路径 8321" d="M18.378,271.762a1.31,1.31,0,0,1-.728-2.4l2.839-1.893a4.031,4.031,0,0,0,1.14-1.36l8.12-18.557a4.281,4.281,0,0,1,2.678-2.264l9.206-2.3a1.309,1.309,0,0,1,.634,2.54l-9.207,2.3a1.781,1.781,0,0,0-.911.77l-8.12,18.557a6.564,6.564,0,0,1-2.089,2.493L19.1,271.542A1.308,1.308,0,0,1,18.378,271.762Z" transform="translate(-14.447 -235.092)" fill="#6b676e"/>
          </g>
          <g id="组_10041" data-name="组 10041" transform="translate(28.942 17.116)">
            <path id="路径_8322" data-name="路径 8322" d="M212.391,192.263a11.072,11.072,0,0,0-6.653,0c-2.209.479-4.061.808-5.183.364a22.373,22.373,0,0,0,1.361,2.819,21.253,21.253,0,0,0,4.377-.622,15.6,15.6,0,0,1,2.772-.453,15.616,15.616,0,0,1,2.772.453,21.259,21.259,0,0,0,4.37.625h.005a22.367,22.367,0,0,0,1.363-2.823C216.452,193.071,214.6,192.742,212.391,192.263Z" transform="translate(-198.716 -176.035)" fill="#78c36e"/>
            <path id="路径_8323" data-name="路径 8323" d="M189.172,90.731a14.921,14.921,0,0,0-.6,2.927,32.562,32.562,0,0,1,20.7,0,14.933,14.933,0,0,0-.6-2.927,35.146,35.146,0,0,0-19.506,0Z" transform="translate(-188.577 -89.351)" fill="#78c36e"/>
          </g>
          <path id="路径_8324" data-name="路径 8324" d="M143.5,203.229c-.327-6.712-12.114-34.052-14.9-38.144-1.672,5.8-5.994,8.79-9.976,10.734-3.981-1.944-8.3-4.932-9.976-10.734-2.783,4.093-14.57,31.432-14.9,38.144s3.111,15.389,6.548,14.406c2.28-.651,11.342-11.431,18.325-22.025,6.983,10.594,16.045,21.374,18.325,22.025C140.385,218.618,143.823,209.942,143.5,203.229Z" transform="translate(-79.343 -136.346)" fill="#f0ebe1"/>
          <path id="路径_8325" data-name="路径 8325" d="M183.754,184.229c-3.6-1.76-7.469-4.4-9.412-9.186a30.135,30.135,0,0,0-3.674,14.986c0,9.377,3.626,17.336,8.686,20.326,1.5-2.065,2.994-4.2,4.4-6.335,1.409,2.137,2.9,4.277,4.407,6.345,5.067-2.984,8.7-10.949,8.7-20.336a30.12,30.12,0,0,0-3.687-15.01C191.235,179.82,187.365,182.465,183.754,184.229Z" transform="translate(-144.474 -144.755)" fill="#b5dcc9"/>
          <path id="路径_8326" data-name="路径 8326" d="M212.1,235.024c-4.5,2.2-8.564,3.061-7.869,5.146,1.311,3.933,4.323,9.266,7.869,14.646,3.546-5.38,6.558-10.713,7.869-14.646C220.664,238.085,216.6,237.221,212.1,235.024Z" transform="translate(-172.82 -195.551)" fill="#9fc7b6"/>
          <path id="路径_8327" data-name="路径 8327" d="M193.736,175.293c1.638,6.224,5.3,11.461,9.556,11.461s7.919-5.237,9.556-11.461c-.051-.089-.1-.187-.147-.275-1.94,4.8-5.81,7.446-9.421,9.21-3.6-1.76-7.469-4.4-9.412-9.186C193.823,175.122,193.782,175.212,193.736,175.293Z" transform="translate(-164.002 -144.754)" fill="#aadcaa"/>
          <g id="组_10042" data-name="组 10042" transform="translate(30.783 33.707)">
            <path id="路径_8328" data-name="路径 8328" d="M290.487,197.643a16.444,16.444,0,0,1-2.353,2.431,14.041,14.041,0,0,0,2.21.2h0l.009-.015q.369-.642.7-1.333l.011-.022q.333-.69.629-1.426l.01-.026A3.628,3.628,0,0,1,290.487,197.643Z" transform="translate(-274.694 -197.452)" fill="#91cf8c"/>
            <path id="路径_8329" data-name="路径 8329" d="M204.121,200.078a16.429,16.429,0,0,1-2.355-2.431,3.6,3.6,0,0,1-1.2-.191l.01.027q.3.732.628,1.423l.01.02q.333.689.7,1.331l.01.017A14.019,14.019,0,0,0,204.121,200.078Z" transform="translate(-200.566 -197.455)" fill="#91cf8c"/>
          </g>
          <g id="组_10043" data-name="组 10043" transform="translate(21.78 33.119)">
            <path id="路径_8330" data-name="路径 8330" d="M167.169,193.937c-.429.892-.887,1.874-1.367,2.923l2.041-.386a27.622,27.622,0,0,1,.993-2.853Z" transform="translate(-162.134 -193.622)" fill="#ada9a7"/>
            <path id="路径_8331" data-name="路径 8331" d="M146.6,244.382l-3.41.852q-.636,1.48-1.276,3.018l4.462-1.116C146.414,246.2,146.484,245.28,146.6,244.382Z" transform="translate(-141.91 -236.591)" fill="#ada9a7"/>
            <path id="路径_8332" data-name="路径 8332" d="M328.1,193.937c.429.892.887,1.874,1.367,2.923l-2.041-.386a27.586,27.586,0,0,0-.993-2.853Z" transform="translate(-298.11 -193.622)" fill="#ada9a7"/>
            <path id="路径_8333" data-name="路径 8333" d="M339.562,244.382l3.41.852q.636,1.48,1.276,3.018l-4.462-1.116C339.743,246.2,339.674,245.28,339.562,244.382Z" transform="translate(-309.227 -236.591)" fill="#ada9a7"/>
          </g>
        </g>
        <rect id="矩形_10" data-name="矩形 10" width="86.767" height="5.215" transform="translate(0 61.599) rotate(-45.23)" fill="#eb0000"/>
      </g>
    </g>
  </g>
</svg>
