<svg xmlns="http://www.w3.org/2000/svg" xmlns:xlink="http://www.w3.org/1999/xlink" width="90.13" height="90.13" viewBox="0 0 90.13 90.13">
  <defs>
    <linearGradient id="linear-gradient" x1="0.804" y1="0.091" x2="0.316" y2="0.838" gradientUnits="objectBoundingBox">
      <stop offset="0.182" stop-color="#c24925"/>
      <stop offset="0.298" stop-color="#c95426"/>
      <stop offset="0.505" stop-color="#df732b"/>
      <stop offset="0.733" stop-color="#fb9c32"/>
      <stop offset="1" stop-color="#fbd75f"/>
    </linearGradient>
    <linearGradient id="linear-gradient-2" x1="0.842" y1="0.313" x2="0.036" y2="0.788" gradientUnits="objectBoundingBox">
      <stop offset="0.005" stop-color="#84353b"/>
      <stop offset="0.588" stop-color="#c24925"/>
      <stop offset="1" stop-color="#fb9c32"/>
    </linearGradient>
    <linearGradient id="linear-gradient-3" x1="0.981" y1="0.401" x2="0.187" y2="0.642" xlink:href="#linear-gradient-2"/>
    <linearGradient id="linear-gradient-4" x1="1.019" y1="0.158" x2="0.334" y2="0.861" xlink:href="#linear-gradient"/>
    <linearGradient id="linear-gradient-5" x1="0.873" y1="0.185" x2="0.217" y2="0.997" xlink:href="#linear-gradient"/>
    <linearGradient id="linear-gradient-6" x1="0.88" y1="0.416" x2="0.2" y2="0.726" xlink:href="#linear-gradient-2"/>
    <linearGradient id="linear-gradient-7" x1="0.716" y1="0.174" x2="0.177" y2="0.96" xlink:href="#linear-gradient"/>
    <linearGradient id="linear-gradient-8" x1="0.938" y1="0.351" x2="0.16" y2="0.676" xlink:href="#linear-gradient-2"/>
    <linearGradient id="linear-gradient-9" x1="0.644" y1="0.217" x2="0.23" y2="0.867" xlink:href="#linear-gradient"/>
    <linearGradient id="linear-gradient-10" x1="1.232" y1="0.276" x2="-0.011" y2="0.668" xlink:href="#linear-gradient-2"/>
    <linearGradient id="linear-gradient-11" x1="0.702" y1="0.155" x2="0.253" y2="0.845" xlink:href="#linear-gradient"/>
    <linearGradient id="linear-gradient-12" x1="1.162" y1="0.239" x2="-0.036" y2="0.696" xlink:href="#linear-gradient-2"/>
    <linearGradient id="linear-gradient-13" x1="0.746" y1="0.116" x2="0.221" y2="0.868" xlink:href="#linear-gradient"/>
    <linearGradient id="linear-gradient-14" x1="1.128" y1="0.261" x2="-0.064" y2="0.723" xlink:href="#linear-gradient-2"/>
    <linearGradient id="linear-gradient-15" x1="1.041" y1="0.284" x2="-0.057" y2="0.695" gradientUnits="objectBoundingBox">
      <stop offset="0" stop-color="#84353b"/>
      <stop offset="0.588" stop-color="#c24925"/>
      <stop offset="1" stop-color="#fb9c32"/>
    </linearGradient>
    <linearGradient id="linear-gradient-16" x1="0.893" y1="0.032" x2="0.27" y2="0.842" xlink:href="#linear-gradient"/>
    <linearGradient id="linear-gradient-17" x1="1.049" y1="0.292" x2="-0.185" y2="0.718" xlink:href="#linear-gradient-2"/>
    <linearGradient id="linear-gradient-18" x1="1.037" y1="0.308" x2="-0.164" y2="0.728" xlink:href="#linear-gradient-2"/>
    <linearGradient id="linear-gradient-19" x1="1.137" y1="0.319" x2="-0.121" y2="0.662" xlink:href="#linear-gradient-2"/>
    <linearGradient id="linear-gradient-20" x1="1.17" y1="0.339" x2="-0.074" y2="0.676" xlink:href="#linear-gradient-2"/>
    <linearGradient id="linear-gradient-21" x1="0.5" x2="0.5" y2="1" gradientUnits="objectBoundingBox">
      <stop offset="0" stop-color="#c24925"/>
      <stop offset="1" stop-color="#fb9c32"/>
    </linearGradient>
    <linearGradient id="linear-gradient-22" x1="0.5" y1="0" x2="0.5" y2="1" xlink:href="#linear-gradient-21"/>
    <linearGradient id="linear-gradient-23" x1="0.5" y1="0" x2="0.5" y2="1" xlink:href="#linear-gradient-21"/>
    <linearGradient id="linear-gradient-24" x1="0.5" x2="0.5" y2="1" gradientUnits="objectBoundingBox">
      <stop offset="0" stop-color="#c24925"/>
      <stop offset="1" stop-color="#d56429"/>
    </linearGradient>
    <linearGradient id="linear-gradient-25" x1="0.102" y1="-0.292" x2="1.407" y2="2.263" xlink:href="#linear-gradient-21"/>
    <linearGradient id="linear-gradient-26" x1="-0.174" y1="-0.629" x2="1.08" y2="1.485" xlink:href="#linear-gradient-21"/>
    <linearGradient id="linear-gradient-27" x1="-1.327" y1="-1.515" x2="1.163" y2="1.236" xlink:href="#linear-gradient-21"/>
    <linearGradient id="linear-gradient-28" x1="-0.84" y1="-1.215" x2="0.748" y2="0.813" xlink:href="#linear-gradient-21"/>
    <linearGradient id="linear-gradient-29" x1="-0.91" y1="-1.642" x2="0.404" y2="0.356" xlink:href="#linear-gradient-21"/>
    <linearGradient id="linear-gradient-30" x1="0.976" y1="-4.249" x2="-0.116" y2="0.585" xlink:href="#linear-gradient-21"/>
    <linearGradient id="linear-gradient-31" x1="1.057" y1="-4.706" x2="0.011" y2="0.076" xlink:href="#linear-gradient-21"/>
    <linearGradient id="linear-gradient-32" x1="1.179" y1="-5.324" x2="0.195" y2="-0.671" xlink:href="#linear-gradient-21"/>
    <linearGradient id="linear-gradient-33" x1="1.275" y1="-4.49" x2="0.304" y2="-0.856" xlink:href="#linear-gradient-21"/>
    <linearGradient id="linear-gradient-34" x1="1.647" y1="-6.568" x2="0.417" y2="-1.924" xlink:href="#linear-gradient-21"/>
    <linearGradient id="linear-gradient-35" x1="1.505" y1="-5.946" x2="0.545" y2="-2.018" xlink:href="#linear-gradient-21"/>
    <linearGradient id="linear-gradient-36" x1="0.567" y1="-0.461" x2="0.567" y2="0.495" xlink:href="#linear-gradient-21"/>
    <linearGradient id="linear-gradient-37" x1="0.524" y1="-0.957" x2="0.524" y2="0.076" xlink:href="#linear-gradient-21"/>
    <linearGradient id="linear-gradient-38" x1="0.539" y1="-0.216" x2="0.539" y2="0.754" xlink:href="#linear-gradient-21"/>
    <linearGradient id="linear-gradient-39" x1="0.555" y1="-0.434" x2="0.555" y2="0.637" xlink:href="#linear-gradient-24"/>
    <linearGradient id="linear-gradient-40" x1="1.153" y1="-0.091" x2="1.153" y2="0.861" xlink:href="#linear-gradient-21"/>
    <linearGradient id="linear-gradient-41" x1="3.269" y1="-1.958" x2="1.058" y2="7.801" xlink:href="#linear-gradient-21"/>
    <linearGradient id="linear-gradient-42" x1="2.973" y1="-3.62" x2="0.969" y2="9.842" xlink:href="#linear-gradient-21"/>
    <linearGradient id="linear-gradient-43" x1="3.288" y1="-3.802" x2="1.182" y2="7.926" xlink:href="#linear-gradient-21"/>
    <linearGradient id="linear-gradient-44" x1="4.302" y1="-8.792" x2="1.574" y2="11.624" xlink:href="#linear-gradient-21"/>
    <linearGradient id="linear-gradient-45" x1="4.393" y1="-12.525" x2="1.589" y2="13.305" xlink:href="#linear-gradient-21"/>
    <linearGradient id="linear-gradient-46" x1="3.931" y1="-9.152" x2="1.579" y2="7.048" xlink:href="#linear-gradient-21"/>
    <linearGradient id="linear-gradient-47" x1="3.419" y1="-8.268" x2="1.466" y2="5.358" xlink:href="#linear-gradient-21"/>
    <linearGradient id="linear-gradient-48" x1="3.407" y1="-9.268" x2="1.516" y2="4.424" xlink:href="#linear-gradient-21"/>
    <linearGradient id="linear-gradient-49" x1="2.909" y1="-6.728" x2="1.378" y2="2.63" xlink:href="#linear-gradient-21"/>
    <linearGradient id="linear-gradient-50" x1="3.298" y1="-7.752" x2="1.565" y2="2.231" xlink:href="#linear-gradient-21"/>
    <linearGradient id="linear-gradient-51" x1="3.064" y1="-7.006" x2="1.521" y2="1.45" xlink:href="#linear-gradient-21"/>
    <linearGradient id="linear-gradient-52" x1="2.789" y1="-5.519" x2="1.445" y2="0.933" xlink:href="#linear-gradient-21"/>
    <linearGradient id="linear-gradient-53" x1="3.965" y1="-9.708" x2="2.009" y2="0.173" xlink:href="#linear-gradient-21"/>
    <linearGradient id="linear-gradient-54" x1="4.506" y1="-12.59" x2="2.315" y2="-0.787" xlink:href="#linear-gradient-21"/>
    <linearGradient id="linear-gradient-55" x1="5.194" y1="-11.489" x2="2.702" y2="-1.333" xlink:href="#linear-gradient-21"/>
    <linearGradient id="linear-gradient-56" x1="7.435" y1="-15.758" x2="3.759" y2="-1.825" xlink:href="#linear-gradient-21"/>
    <linearGradient id="linear-gradient-57" x1="1.084" y1="-0.154" x2="1.084" y2="0.786" gradientUnits="objectBoundingBox">
      <stop offset="0" stop-color="#f89831"/>
      <stop offset="1" stop-color="#fb9c32"/>
    </linearGradient>
    <linearGradient id="linear-gradient-58" x1="1.334" y1="-0.351" x2="1.334" y2="0.59" xlink:href="#linear-gradient-57"/>
    <linearGradient id="linear-gradient-59" x1="1.359" y1="-0.587" x2="1.359" y2="0.36" xlink:href="#linear-gradient-57"/>
    <linearGradient id="linear-gradient-60" x1="1.232" y1="-0.278" x2="1.232" y2="0.696" xlink:href="#linear-gradient-57"/>
    <linearGradient id="linear-gradient-61" x1="1.478" y1="-0.656" x2="1.478" y2="0.325" xlink:href="#linear-gradient-57"/>
    <linearGradient id="linear-gradient-62" x1="1.033" y1="-0.987" x2="1.033" y2="0.123" xlink:href="#linear-gradient-57"/>
    <linearGradient id="linear-gradient-63" x1="0.804" y1="-0.035" x2="0.804" y2="0.884" xlink:href="#linear-gradient-21"/>
    <linearGradient id="linear-gradient-64" x1="0.934" y1="0.072" x2="0.934" y2="1.007" xlink:href="#linear-gradient-21"/>
    <linearGradient id="linear-gradient-65" x1="2.259" y1="-1.343" x2="0.069" y2="1.083" gradientUnits="objectBoundingBox">
      <stop offset="0.005" stop-color="#84353b"/>
      <stop offset="0.032" stop-color="#883639"/>
      <stop offset="0.239" stop-color="#a7402e"/>
      <stop offset="0.414" stop-color="#bb4627"/>
      <stop offset="0.535" stop-color="#c24925"/>
      <stop offset="1" stop-color="#fb9c32"/>
    </linearGradient>
    <linearGradient id="linear-gradient-66" x1="2.5" y1="-1.364" x2="-0.213" y2="1.359" xlink:href="#linear-gradient-65"/>
    <linearGradient id="linear-gradient-67" x1="2.409" y1="-0.709" x2="-0.653" y2="1.276" xlink:href="#linear-gradient-65"/>
    <linearGradient id="linear-gradient-68" x1="2.463" y1="-0.57" x2="-1.066" y2="1.366" xlink:href="#linear-gradient-65"/>
    <linearGradient id="linear-gradient-69" x1="1" y1="0.5" x2="0" y2="0.5" xlink:href="#linear-gradient-65"/>
  </defs>
  <g id="跳找" transform="translate(-282.934 -220.946)">
    <g id="组_304" data-name="组 304" transform="translate(282.934 220.946)">
      <g id="组_303" data-name="组 303">
        <path id="路径_479" data-name="路径 479" d="M328,309.9a45.065,45.065,0,1,1,45.064-45.064A45.116,45.116,0,0,1,328,309.9Zm0-84.914a39.85,39.85,0,1,0,39.85,39.85A39.895,39.895,0,0,0,328,224.982Z" transform="translate(-282.934 -219.766)" fill="#eb0000"/>
      </g>
    </g>
    <g id="组_371" data-name="组 371" transform="translate(44.77 -103.15)">
      <path id="路径_581" data-name="路径 581" d="M245.429,355.482a25.435,25.435,0,0,0-5.072,4.671c-.3.422,4.02,5.045,5.9,5.438,1.865.39,3.72-5.435,2.929-6.625S246.442,354.847,245.429,355.482Z" transform="translate(0.643 7.279)" fill="url(#linear-gradient)"/>
      <path id="路径_582" data-name="路径 582" d="M246.527,358.026c-1.227.862-6.668,2.327-7.5,2.065a.184.184,0,0,1-.077-.041c-.245-.579,1.8-4.376,3.085-6.336a6.939,6.939,0,0,1,.8-1.06C244.5,351.1,247.807,357.128,246.527,358.026Z" transform="translate(0 5.915)" fill="url(#linear-gradient-2)"/>
      <path id="路径_583" data-name="路径 583" d="M245.085,347.824c-1.693.884-4.64,5.339-4.327,6.77.411,1.872,4.334,8.155,6.193,8.72.808.246,2.318-4.713,1.865-5.429S245.5,347.61,245.085,347.824Z" transform="translate(0.822 3.827)" fill="url(#linear-gradient-3)"/>
      <path id="路径_584" data-name="路径 584" d="M247.515,360.749c-1.916-.587-5.879-6.881-6.556-9.145a2.543,2.543,0,0,0-.2,1.265c.411,1.872,4.334,8.155,6.193,8.72.243.074.546-.316.839-.916A.308.308,0,0,1,247.515,360.749Z" transform="translate(0.822 5.552)" fill="#f7b683" opacity="0.4" style="mix-blend-mode: overlay;isolation: isolate"/>
      <path id="路径_585" data-name="路径 585" d="M248.369,354.7a14.572,14.572,0,0,0-4.305,6.012c-.769,2.124-1.238,4.867-.5,5.717.815.946,6.774,4.021,8.111,3.979s.712-12.316.47-12.926S248.369,354.7,248.369,354.7Z" transform="translate(1.943 6.966)" fill="url(#linear-gradient-4)"/>
      <path id="路径_586" data-name="路径 586" d="M254.616,355.234c-3.72-2.348-5.573,5.358-5.979,7.559-.674,3.66-.1,8.564.828,9.168s9.64,1.511,11.576.75S255.289,355.659,254.616,355.234Z" transform="translate(4.291 7.006)" fill="url(#linear-gradient-5)"/>
      <path id="路径_587" data-name="路径 587" d="M242.891,350.011c.108,1.3,2.123,7.516,4.25,10.3,3.2,4.2,8.779,5.294,12.107,3.2.821-.515-4.959-8.034-5.144-10.339-.186-2.334-.508-9.669-2.238-9.522S242.781,348.7,242.891,350.011Z" transform="translate(1.805 1.927)" fill="url(#linear-gradient-6)"/>
      <path id="路径_588" data-name="路径 588" d="M247.773,357.88c-2.075-2.736-4.042-8.618-4.378-10.487a1.538,1.538,0,0,0-.5.913c.108,1.3,2.123,7.516,4.25,10.3,3.2,4.2,8.779,5.294,12.107,3.2C255.76,363.155,250.765,361.827,247.773,357.88Z" transform="translate(1.805 3.632)" fill="#f7b683" opacity="0.4" style="mix-blend-mode: overlay;isolation: isolate"/>
      <path id="路径_589" data-name="路径 589" d="M254.164,356.384a21.85,21.85,0,0,0-.935,7.189c.147,4.168,2.593,9.127,3.622,9.356,1.449.322,9.65-1.319,10.423-2.037s-4.577-12.354-5.484-12.671S254.486,355.524,254.164,356.384Z" transform="translate(6.513 7.647)" fill="url(#linear-gradient-7)"/>
      <path id="路径_590" data-name="路径 590" d="M248.314,344.426c-.409.965.74,10.783,4.741,16.66,2.548,3.743,7.537,5.308,11.3,3.751s-2.394-3.231-3.017-4.257-.5-18.464-1.622-18.9C256.979,340.606,248.723,343.458,248.314,344.426Z" transform="translate(4.242 0.918)" fill="url(#linear-gradient-8)"/>
      <path id="路径_591" data-name="路径 591" d="M254.073,359.944c-3.633-5.381-5.03-13.849-5.078-16.829a1.687,1.687,0,0,0-.68.547c-.409.965.74,10.783,4.741,16.66a9.983,9.983,0,0,0,9.517,4.248A10.666,10.666,0,0,1,254.073,359.944Z" transform="translate(4.242 1.682)" fill="#f7b683" opacity="0.4" style="mix-blend-mode: overlay;isolation: isolate"/>
      <path id="路径_592" data-name="路径 592" d="M258.712,355.617c-1.644.591-1.144,4.018-.645,5.94,1.08,4.151,5.821,10.052,6.7,10.394s7.246-2.378,7.737-3.194-7.2-10.328-8.58-11.47S259.73,355.252,258.712,355.617Z" transform="translate(8.504 7.344)" fill="url(#linear-gradient-9)"/>
      <path id="路径_593" data-name="路径 593" d="M255.406,340.872c-1.222.694-1.089,18.723,1.944,21.507,2.96,2.714,7.17,3.818,9.331,4.228,2.14.406,3.625-3.685,1.974-4.934-1.67-1.264,1.136-21.373-.149-21.775S256.354,340.334,255.406,340.872Z" transform="translate(7.182 0.167)" fill="url(#linear-gradient-10)"/>
      <path id="路径_594" data-name="路径 594" d="M258.465,362.113c-2.849-2.626-3.172-18.256-2.252-21.727a3.326,3.326,0,0,0-.807.215c-1.222.694-1.089,18.723,1.944,21.507,2.96,2.714,7.17,3.817,9.331,4.228a1.592,1.592,0,0,0,.627-.009A19.725,19.725,0,0,1,258.465,362.113Z" transform="translate(7.182 0.438)" fill="#f7b683" opacity="0.4" style="mix-blend-mode: overlay;isolation: isolate"/>
      <path id="路径_595" data-name="路径 595" d="M263.417,355.062c-1.063,1.548-.952,4.9-.7,6.451.61,3.675,6.674,8.409,7.619,8.332s5-2.069,5.706-2.964-6.376-10.914-6.968-11.62S263.986,354.233,263.417,355.062Z" transform="translate(10.767 6.903)" fill="url(#linear-gradient-11)"/>
      <path id="路径_596" data-name="路径 596" d="M264.181,339.478c-1.837.188-4.77,15.364-3.526,18.723,1.214,3.282,4.611,5.739,9.841,6.26,5.138.511,2.338-3.48,1.952-4.419s4.982-18.436,4.457-19.341S266.417,339.251,264.181,339.478Z" transform="translate(9.768 0)" fill="url(#linear-gradient-12)"/>
      <path id="路径_597" data-name="路径 597" d="M261.7,358.4c-1.137-3.1,1.137-15.763,3.034-18.963-.213.007-.4.019-.549.035-1.837.188-4.77,15.364-3.526,18.723.946,2.557,3.223,4.608,6.649,5.637A9.551,9.551,0,0,1,261.7,358.4Z" transform="translate(9.768 0.005)" fill="#f7b683" opacity="0.4" style="mix-blend-mode: overlay;isolation: isolate"/>
      <path id="路径_598" data-name="路径 598" d="M274.717,352.536c-2.142-1.862-6.177.892-7,1.8s-.987,4.976-.676,5.862c1.392,3.946,5.875,8.377,7.022,8.048s5.71-2.624,6.329-4.94C281.016,360.964,275.256,353,274.717,352.536Z" transform="translate(12.746 5.689)" fill="url(#linear-gradient-13)"/>
      <path id="路径_599" data-name="路径 599" d="M272.317,339.52c-1.567,0-8.883,16.8-5.305,19.814,3.481,2.938,7.76,3.566,8.95,3.018s6.739-20.082,5.3-20.552S274.226,339.516,272.317,339.52Z" transform="translate(12.358 0.043)" fill="url(#linear-gradient-14)"/>
      <path id="路径_600" data-name="路径 600" d="M267.8,359.581c-3.315-2.8,2.43-17.021,4.872-20.047-.127-.01-.245-.016-.351-.015-1.567,0-8.883,16.8-5.305,19.814A14.318,14.318,0,0,0,271.843,362,14.772,14.772,0,0,1,267.8,359.581Z" transform="translate(12.358 0.043)" fill="#f7b683" opacity="0.4" style="mix-blend-mode: overlay;isolation: isolate"/>
      <path id="路径_601" data-name="路径 601" d="M277.527,340.349c-1.37.14-6.486,13.7-4.851,16.073,1.6,2.324,5.525,4.074,6.738,4.382s6.684-14.709,6.147-15.659S279.459,340.151,277.527,340.349Z" transform="translate(15.239 0.418)" fill="url(#linear-gradient-15)"/>
      <path id="路径_602" data-name="路径 602" d="M273.222,356.832c-1.618-2.345,3.244-15.409,4.854-16.446a1.935,1.935,0,0,0-.549-.036c-1.37.14-6.486,13.7-4.851,16.073a8.847,8.847,0,0,0,2.088,2.024A8.068,8.068,0,0,1,273.222,356.832Z" transform="translate(15.239 0.417)" fill="#f7b683" opacity="0.4" style="mix-blend-mode: overlay;isolation: isolate"/>
      <path id="路径_603" data-name="路径 603" d="M281.389,350.06c-2.337-1.971-10.509,3.911-10.507,5.556,0,1.628,3.967,8.651,7.546,9.937,3.513,1.261,4.344-6.275,4.484-7.418A38.108,38.108,0,0,0,281.389,350.06Z" transform="translate(14.567 4.666)" fill="url(#linear-gradient-16)"/>
      <path id="路径_604" data-name="路径 604" d="M283.056,342.014c-.984-.162-4.534,6.339-5.69,12.37-1.039,5.423.112,10.4.651,10.761,1.112.759,7.063.2,8.439-1.54s5.694-15.462,4.244-16.363C289,346.19,284.485,342.247,283.056,342.014Z" transform="translate(17.332 1.178)" fill="url(#linear-gradient-17)"/>
      <path id="路径_605" data-name="路径 605" d="M278.742,365.377c-.55-.376-1.721-5.471-.642-11.036,1-5.174,3.723-10.691,5.185-12.266a1.428,1.428,0,0,0-.229-.061c-.984-.162-4.534,6.339-5.69,12.37-1.039,5.423.112,10.4.651,10.761a1.967,1.967,0,0,0,.745.245Z" transform="translate(17.332 1.178)" fill="#f7b683" opacity="0.4" style="mix-blend-mode: overlay;isolation: isolate"/>
      <path id="路径_606" data-name="路径 606" d="M286.443,344.05c-.793-.3-2.618,3.928-3.608,7.109-.973,3.127-1.916,8.845-1.385,9.772.46.8,2.129,1.492,5.4,1.588,3.234.1,6.492-12.7,5.454-13.843S287.923,344.6,286.443,344.05Z" transform="translate(19.315 2.101)" fill="url(#linear-gradient-18)"/>
      <path id="路径_607" data-name="路径 607" d="M289.7,345.681c-1.532-.2-5.007,6.763-4.291,11.288.7,4.391,2.146,6,3.459,6.032s5.327-12.811,4.538-13.911S290.454,345.779,289.7,345.681Z" transform="translate(21.145 2.85)" fill="url(#linear-gradient-19)"/>
      <path id="路径_608" data-name="路径 608" d="M291.9,347.13c-1.577.293-5.767,9.258-2.594,14.344,2.337,3.746,4.541,2.252,5.757,1.54s.767-3.055.859-6.412c.093-3.429.264-5.985-.214-6.67S292.895,346.947,291.9,347.13Z" transform="translate(22.44 3.508)" fill="url(#linear-gradient-20)"/>
      <g id="组_368" data-name="组 368" transform="translate(276.9 359.627)">
        <g id="组_359" data-name="组 359" transform="translate(27.32 2.234)">
          <path id="路径_609" data-name="路径 609" d="M287.893,374.743a.527.527,0,0,0,.652-.328c.172-.46-.172-.9-.4-1.254-.092-.144-.207-.3-.377-.316a.385.385,0,0,0-.37.351,3.353,3.353,0,0,0,.125.945A.766.766,0,0,0,287.893,374.743Z" transform="translate(-282.129 -346.624)" fill="#fa9a32"/>
          <path id="路径_610" data-name="路径 610" d="M288.5,374.061a1.339,1.339,0,0,0-.277-.3.3.3,0,0,0-.377.018.272.272,0,0,0-.035.266.625.625,0,0,0,.162.229,2.113,2.113,0,0,0,1.489.6.6.6,0,0,0,.5-.194A1.708,1.708,0,0,1,288.5,374.061Z" transform="translate(-281.942 -346.234)" fill="#fa9a32"/>
          <path id="路径_611" data-name="路径 611" d="M287.543,368.955a.378.378,0,0,0,.269-.253c.115-.326-.272-.648-.47-.85l-.753-.769c-.183-.186-.427-.39-.677-.309a.482.482,0,0,0-.3.386,1.428,1.428,0,0,0,.036.508c.063.328.125.658.188.987.049.264.178.785.536.756a.661.661,0,0,1,.523-.425A4.628,4.628,0,0,0,287.543,368.955Z" transform="translate(-282.941 -349.401)" fill="#fa9a32"/>
          <path id="路径_612" data-name="路径 612" d="M286.5,368.075a.338.338,0,0,0-.169.137.818.818,0,0,0-.106.495c0,.331-.15,1.813.434,1.66l.761-.2a.333.333,0,0,0,.221-.13.329.329,0,0,0-.054-.306c-.239-.434-.5-.862-.718-1.306C286.79,368.27,286.665,368.032,286.5,368.075Z" transform="translate(-282.667 -348.802)" fill="#fa9a32"/>
          <path id="路径_613" data-name="路径 613" d="M287.794,370.843a4.316,4.316,0,0,0-.287-.625c-.127-.31-.176-.681-.466-.891-.336-.245-.338-.009-.386.306-.058.368-.118.738-.176,1.106a.439.439,0,0,0,.026.312c.087.134.278.134.435.122l.563-.051c.108-.01.233-.031.284-.125A.21.21,0,0,0,287.794,370.843Z" transform="translate(-282.549 -348.274)" fill="#fa9a32"/>
          <path id="路径_614" data-name="路径 614" d="M288.127,372.835a2.893,2.893,0,0,1-.278-.692,8.377,8.377,0,0,0-.652-1.67c-.052-.118-.141-.255-.266-.231s-.156.157-.175.268a7.523,7.523,0,0,0,.2,3.435c.067.23.16.488.381.575a.783.783,0,0,0,.568-.076,1.041,1.041,0,0,0,.473-.3C288.641,373.8,288.284,373.146,288.127,372.835Z" transform="translate(-282.467 -347.813)" fill="#fa9a32"/>
          <path id="路径_615" data-name="路径 615" d="M284.248,363.975a.44.44,0,0,0-.039.061,1.773,1.773,0,0,0,.052,1.1c.28,1.257.617,1.977.844,2.96a1.354,1.354,0,0,0,.788.876,2.021,2.021,0,0,0,1.242,0,1.538,1.538,0,0,0,.751-.307c.387-.358.066-.776-.111-1.143a18.178,18.178,0,0,0-1.823-3.014,2.1,2.1,0,0,0-.756-.709A.782.782,0,0,0,284.248,363.975Z" transform="translate(-283.612 -350.788)" fill="url(#linear-gradient-21)"/>
          <path id="路径_616" data-name="路径 616" d="M289.714,366.107c1.025-.125,2.258-.826,1.807-2.065a2.007,2.007,0,0,0-1.254-1.141,4.454,4.454,0,0,0-1.733-.172c-.843.048-4.754.395-4.442,1.967.074.374.814.689,1.118.811A9.117,9.117,0,0,0,289.714,366.107Z" transform="translate(-283.638 -351.243)" fill="url(#linear-gradient-22)"/>
          <path id="路径_617" data-name="路径 617" d="M293.228,358.017a3.012,3.012,0,0,0-3.938.524,6.476,6.476,0,0,0-1.449,4.04,16.145,16.145,0,0,0,.124,3.456,1.763,1.763,0,0,0,.74,1.417c.687.338,1.45-.264,1.954-.84a24.363,24.363,0,0,0,2.325-3.142,7.13,7.13,0,0,0,1.144-2.737A3,3,0,0,0,293.228,358.017Z" transform="translate(-281.94 -353.624)" fill="url(#linear-gradient-23)"/>
          <path id="路径_618" data-name="路径 618" d="M292.837,358.017a2.416,2.416,0,0,0-1.789-.511,1.9,1.9,0,0,1,1.143.511,3.26,3.26,0,0,1,.793,2.718,7.678,7.678,0,0,1-1.01,2.737,24.15,24.15,0,0,1-2.048,3.142,2.182,2.182,0,0,1-1.267.933,2.24,2.24,0,0,0,1.609-.933,24.366,24.366,0,0,0,2.325-3.142,7.131,7.131,0,0,0,1.144-2.737A3,3,0,0,0,292.837,358.017Z" transform="translate(-281.549 -353.623)" fill="#e3c5ad" style="mix-blend-mode: multiply;isolation: isolate"/>
          <path id="路径_619" data-name="路径 619" d="M287.859,356.812c-.146.757.457,1.434,1.01,1.969a14.075,14.075,0,0,0,2.357,1.968,2.957,2.957,0,0,0,2.762.341c.846-.587-.093-2.941-.76-4.5a2.277,2.277,0,0,0-3.8-1.221C288.756,355.672,288,356.083,287.859,356.812Z" transform="translate(-281.923 -354.835)" fill="url(#linear-gradient-24)"/>
          <path id="路径_620" data-name="路径 620" d="M288.507,355.719c.951-.434,2.082-.862,2.985-.342a3.314,3.314,0,0,1,1.2,1.689,13.766,13.766,0,0,1,1.2,3.838c.515-.791-.319-2.884-.932-4.318a2.277,2.277,0,0,0-3.8-1.221,5.657,5.657,0,0,0-.753.4Z" transform="translate(-281.66 -354.835)" fill="#e3c5ad" style="mix-blend-mode: multiply;isolation: isolate"/>
          <g id="组_358" data-name="组 358" transform="translate(0 14.1)">
            <path id="路径_621" data-name="路径 621" d="M284.568,364.554a4.414,4.414,0,0,1-.331,1.013,4.092,4.092,0,0,1-.332.526c-.022.033-.055.221-.131.144.018.077,0,.063.041.1a.184.184,0,0,0,.121-.118c.093-.181.236-.335.339-.51a2.884,2.884,0,0,0,.376-1.137A.042.042,0,0,0,284.568,364.554Z" transform="translate(-283.775 -364.52)" fill="url(#linear-gradient-25)"/>
            <path id="路径_622" data-name="路径 622" d="M284.81,365.133a5.655,5.655,0,0,1-.82,2.129,4.056,4.056,0,0,0,.9-2.115A.041.041,0,1,0,284.81,365.133Z" transform="translate(-283.677 -364.256)" fill="url(#linear-gradient-26)"/>
            <path id="路径_623" data-name="路径 623" d="M284.824,365.9a6.821,6.821,0,0,0-.377,1.638c0,.035.051.028.051,0a11.141,11.141,0,0,1,.411-1.62C284.917,365.863,284.837,365.851,284.824,365.9Z" transform="translate(-283.469 -363.904)" fill="url(#linear-gradient-27)"/>
            <path id="路径_624" data-name="路径 624" d="M285.094,366.059a11.363,11.363,0,0,1-.629,2.172c-.026.077.089.128.114.051a10.173,10.173,0,0,0,.607-2.207C285.192,366.015,285.1,366,285.094,366.059Z" transform="translate(-283.462 -363.835)" fill="url(#linear-gradient-28)"/>
            <path id="路径_625" data-name="路径 625" d="M285.6,366.714a7.276,7.276,0,0,1-.777,2.239c-.022.048.052.082.077.035a6.532,6.532,0,0,0,.795-2.258C285.7,366.67,285.612,366.654,285.6,366.714Z" transform="translate(-283.298 -363.537)" fill="url(#linear-gradient-29)"/>
          </g>
        </g>
        <g id="组_362" data-name="组 362" transform="translate(12.622)">
          <g id="组_361" data-name="组 361" transform="translate(0.529)">
            <g id="组_360" data-name="组 360" transform="translate(0 22.287)">
              <path id="路径_626" data-name="路径 626" d="M277.576,368.627c-.662.558-1.468,1.753-2.359,1.622.773.339,1.9-.955,2.42-1.553C277.686,368.64,277.634,368.577,277.576,368.627Z" transform="translate(-273.507 -368.609)" fill="url(#linear-gradient-30)"/>
              <path id="路径_627" data-name="路径 627" d="M277.466,369.2c-.69.529-1.619,1.689-2.472,1.642.287.2.8-.147,1.091-.355a16.416,16.416,0,0,0,1.437-1.226C277.575,369.213,277.519,369.158,277.466,369.2Z" transform="translate(-273.609 -368.346)" fill="url(#linear-gradient-31)"/>
              <path id="路径_628" data-name="路径 628" d="M277.206,370.121a5.619,5.619,0,0,1-1.345,1.137c-.421.265-.875.362-1.289.616a6.4,6.4,0,0,0,1.479-.6,4.5,4.5,0,0,0,1.251-1.105C277.353,370.1,277.26,370.054,277.206,370.121Z" transform="translate(-273.801 -367.934)" fill="url(#linear-gradient-32)"/>
              <path id="路径_629" data-name="路径 629" d="M277.16,370.621a17.1,17.1,0,0,1-2.648,2.177c-.052.032-.023.1.029.07a12.45,12.45,0,0,0,2.686-2.175C277.282,370.636,277.22,370.566,277.16,370.621Z" transform="translate(-273.841 -367.7)" fill="url(#linear-gradient-33)"/>
              <path id="路径_630" data-name="路径 630" d="M276.49,371.6a4.531,4.531,0,0,1-2.072,1.677c-.055.016-.047.1.009.08a4.327,4.327,0,0,0,2.13-1.724C276.593,371.582,276.526,371.55,276.49,371.6Z" transform="translate(-273.888 -367.257)" fill="url(#linear-gradient-34)"/>
              <path id="路径_631" data-name="路径 631" d="M276.782,372.167a14.742,14.742,0,0,1-2.714,2.031c-.049.028-.02.09.029.064a12.238,12.238,0,0,0,2.742-2.034C276.887,372.179,276.833,372.122,276.782,372.167Z" transform="translate(-274.042 -366.994)" fill="url(#linear-gradient-35)"/>
            </g>
            <path id="路径_632" data-name="路径 632" d="M275.132,376.69c.406.265,1.344-.686,1.728-.894a1.834,1.834,0,0,1,1.165-.268c.178.031.377.1.549-.028.272-.205.169-.63.179-.878.019-.453.084-.922.118-1.38q.1-1.336.14-2.673a19.046,19.046,0,0,0,.015-2.427c-.067-.651.115-1.342.093-2.018,0-.111-.019-.236-.106-.282-.317-.17-1.112,1.06-1.249,1.31a9.18,9.18,0,0,0-.708,1.881q-.991,3.494-1.98,6.968C275,376.256,274.944,376.569,275.132,376.69Z" transform="translate(-273.604 -347.591)" fill="url(#linear-gradient-36)"/>
            <path id="路径_633" data-name="路径 633" d="M277.211,376.476a.674.674,0,0,0,.208-.546c.012-.559.013-1.118-.007-1.67-.01-.246-.076-.495-.073-.738,0-.22.108-.435.114-.654a.351.351,0,0,0-.323-.4c-.265,0-.494.293-.651.544a18.973,18.973,0,0,0-1.588,3.164c-.111.287-.2.651.031.779.341.194.837-.323,1.219-.355C276.475,376.572,276.844,376.742,277.211,376.476Z" transform="translate(-273.707 -344.562)" fill="#fa9b32"/>
            <path id="路径_634" data-name="路径 634" d="M276.586,375.452c-.061-.175-.153-.371-.355-.364-.224.007-.413.258-.539.473-.141.243-.288.485-.422.731-.108.2-.182.415-.28.622a2.148,2.148,0,0,0-.2.556c-.041.271.038.552.36.483a1.543,1.543,0,0,0,.351-.146,1.219,1.219,0,0,1,.354-.132c.231-.033.425.09.658.045a.725.725,0,0,0,.494-.472.812.812,0,0,0-.022-.636C276.853,376.225,276.719,375.838,276.586,375.452Z" transform="translate(-273.706 -343.368)" fill="#fa9b32"/>
            <path id="路径_635" data-name="路径 635" d="M275.389,382.393a1.6,1.6,0,0,0,.987-.415,1.383,1.383,0,0,0,.272-1.016q-.055-2.26-.265-4.5c-.087-.083-.272-.017-.377.1a.965.965,0,0,0-.189.4q-.646,2.23-1.288,4.451c-.089.3-.169.644-.007.847S275.064,382.444,275.389,382.393Z" transform="translate(-273.867 -342.757)" fill="#fa9b32"/>
            <path id="路径_636" data-name="路径 636" d="M274.756,382.721c.288.163.775-.06,1.016-.4a1.885,1.885,0,0,0,.029-1.76c-.058-.2-.141-.431-.361-.464a.741.741,0,0,0-.655.453,5.148,5.148,0,0,0-.256,1.319C274.481,382.2,274.494,382.577,274.756,382.721Z" transform="translate(-273.831 -341.087)" fill="#fa9b32"/>
            <path id="路径_637" data-name="路径 637" d="M275.783,381.829a1.28,1.28,0,0,0-.233-.438.4.4,0,0,0-.51-.006.47.47,0,0,0-.167.364.661.661,0,0,0,.114.328,2.05,2.05,0,0,0,1.706.933.989.989,0,0,0,.738-.23A1.664,1.664,0,0,1,275.783,381.829Z" transform="translate(-273.664 -340.538)" fill="#fa9b32"/>
            <path id="路径_638" data-name="路径 638" d="M286.809,364.783c-2.311-.879-5.356.01-8.109.975a3.773,3.773,0,0,0-1.626.941,1.875,1.875,0,0,0-.425.949.455.455,0,0,0,.128.416.788.788,0,0,0,.645.01,5.89,5.89,0,0,1,2.871-.106,15.675,15.675,0,0,0,3.165.552,4.967,4.967,0,0,0,3.443-1.7C287.24,366.384,287.734,365.135,286.809,364.783Z" transform="translate(-272.856 -348.23)" fill="url(#linear-gradient-37)"/>
            <path id="路径_639" data-name="路径 639" d="M289.048,357.419c-1.077-1.083-3.274-.494-4.577.9a8.041,8.041,0,0,0-1.925,5.058c-.093,1.73.173,3.37.147,5.074a1.948,1.948,0,0,0,.309,1.437,1.263,1.263,0,0,0,1.4.022,4.58,4.58,0,0,0,1.283-1.09,16.357,16.357,0,0,0,3.934-7.954C289.839,359.6,289.833,358.21,289.048,357.419Z" transform="translate(-270.174 -351.678)" fill="url(#linear-gradient-38)"/>
            <path id="路径_640" data-name="路径 640" d="M288.458,357.419a2.576,2.576,0,0,0-2.768-.307,2.074,2.074,0,0,1,1.67.6c.791.841.8,2.3.581,3.647A17.387,17.387,0,0,1,284,369.7l-.182.205a4.58,4.58,0,0,0,1.275-1.086,16.357,16.357,0,0,0,3.934-7.954C289.249,359.6,289.243,358.209,288.458,357.419Z" transform="translate(-269.584 -351.678)" fill="#e3c5ad" style="mix-blend-mode: multiply;isolation: isolate"/>
            <path id="路径_641" data-name="路径 641" d="M281.538,356.747c-.172,1,.593,1.685,1.293,2.209a12.788,12.788,0,0,0,2.938,1.81,3.574,3.574,0,0,0,3.375-.331c1.022-.949-.116-3.612-.938-5.385a2.846,2.846,0,0,0-1.347-1.644c-1.018-.387-2.295.37-3.365,1.092C282.651,355.067,281.7,355.788,281.538,356.747Z" transform="translate(-270.636 -353.301)" fill="url(#linear-gradient-39)"/>
            <path id="路径_642" data-name="路径 642" d="M287.459,355.05a2.846,2.846,0,0,0-1.347-1.644c-.892-.339-1.983.2-2.96.826a2.708,2.708,0,0,1,2.382-.432,3.369,3.369,0,0,1,1.418,1.949,16.9,16.9,0,0,1,1.4,4.719C289.418,359.486,288.28,356.823,287.459,355.05Z" transform="translate(-269.889 -353.301)" fill="#e3c5ad" style="mix-blend-mode: multiply;isolation: isolate"/>
          </g>
          <path id="路径_643" data-name="路径 643" d="M276.281,372.832a4.127,4.127,0,0,1-1.737,1.085,3.01,3.01,0,0,0,1.786-1.029C276.373,372.847,276.326,372.793,276.281,372.832Z" transform="translate(-273.285 -344.402)" fill="#fb9c32"/>
          <path id="路径_644" data-name="路径 644" d="M276.623,373.556a5.329,5.329,0,0,1-2.366,1.313.033.033,0,1,0,.007.065,4.927,4.927,0,0,0,2.412-1.319C276.724,373.57,276.673,373.513,276.623,373.556Z" transform="translate(-273.429 -344.073)" fill="#fb9c32"/>
          <path id="路径_645" data-name="路径 645" d="M276.022,374.067a3.612,3.612,0,0,1-1.9,1.208c-.051.006-.064.083-.012.077a3.46,3.46,0,0,0,1.958-1.233C276.108,374.081,276.064,374.028,276.022,374.067Z" transform="translate(-273.498 -343.839)" fill="#fb9c32"/>
          <path id="路径_646" data-name="路径 646" d="M275.8,373.1c-.367.37-.766.878-1.284.978-.034.006-.036.06,0,.055.556-.085.946-.59,1.326-.989C275.874,373.108,275.835,373.061,275.8,373.1Z" transform="translate(-273.309 -344.282)" fill="#fb9c32"/>
          <path id="路径_647" data-name="路径 647" d="M275.986,374.906c-.492.336-.853.887-1.459.97-.029,0-.038.048-.007.048.626-.051,1.021-.574,1.5-.962C276.056,374.934,276.024,374.88,275.986,374.906Z" transform="translate(-273.305 -343.454)" fill="#fb9c32"/>
          <path id="路径_648" data-name="路径 648" d="M275.868,375.353a2.675,2.675,0,0,1-1.476,1.124c-.05.007-.066.084-.013.079a2.5,2.5,0,0,0,1.581-1.152C276.006,375.339,275.917,375.289,275.868,375.353Z" transform="translate(-273.376 -343.26)" fill="#fb9c32"/>
          <path id="路径_649" data-name="路径 649" d="M275.3,376.151a15.976,15.976,0,0,1-1.581,1.179c-.073.049-.029.157.045.106a12.917,12.917,0,0,0,1.588-1.229C275.4,376.166,275.344,376.106,275.3,376.151Z" transform="translate(-273.679 -342.89)" fill="#fb9c32"/>
          <path id="路径_650" data-name="路径 650" d="M275.9,376.674a2.908,2.908,0,0,1-1.61,1.376,2.444,2.444,0,0,0,1.667-1.344C275.985,376.664,275.929,376.632,275.9,376.674Z" transform="translate(-273.401 -342.654)" fill="#fb9c32"/>
          <path id="路径_651" data-name="路径 651" d="M275.766,377.638c-.571.493-1.121,1.009-1.7,1.486-.074.063.007.154.08.092.579-.482,1.144-.987,1.683-1.513C275.875,377.656,275.82,377.591,275.766,377.638Z" transform="translate(-273.518 -342.212)" fill="#fb9c32"/>
          <path id="路径_652" data-name="路径 652" d="M275.984,377.194a4.911,4.911,0,0,1-1.837,1.472c-.048.019-.029.092.017.074a4.257,4.257,0,0,0,1.9-1.5C276.115,377.182,276.032,377.14,275.984,377.194Z" transform="translate(-273.479 -342.419)" fill="#fb9c32"/>
          <path id="路径_653" data-name="路径 653" d="M275.767,378.348a4.534,4.534,0,0,1-2.066,1.53,3.866,3.866,0,0,0,2.129-1.5C275.865,378.338,275.8,378.307,275.767,378.348Z" transform="translate(-273.67 -341.89)" fill="#fb9c32"/>
          <path id="路径_654" data-name="路径 654" d="M275.633,378.826a13.7,13.7,0,0,1-1.7,1.492c-.087.064.006.165.09.1a11.612,11.612,0,0,0,1.686-1.508C275.766,378.847,275.7,378.762,275.633,378.826Z" transform="translate(-273.58 -341.674)" fill="#fb9c32"/>
          <path id="路径_655" data-name="路径 655" d="M275.228,379.788c-.245.425-.588,1-1.092,1.155-.035.01-.039.065,0,.06.558-.082.941-.731,1.171-1.184C275.328,379.771,275.254,379.742,275.228,379.788Z" transform="translate(-273.484 -341.235)" fill="#fb9c32"/>
          <path id="路径_656" data-name="路径 656" d="M275.252,380c-.237.408-.524,1.037-1.026,1.187-.063.018-.054.1.009.087.565-.124.865-.788,1.108-1.239C275.374,379.982,275.284,379.95,275.252,380Z" transform="translate(-273.45 -341.139)" fill="#fb9c32"/>
        </g>
        <g id="组_363" data-name="组 363" transform="translate(29.385 20.556)">
          <path id="路径_657" data-name="路径 657" d="M286.35,367.438a6.633,6.633,0,0,1-1.157,1.862,5.348,5.348,0,0,0,1.214-1.836A.031.031,0,0,0,286.35,367.438Z" transform="translate(-285.193 -367.42)" fill="#fb9c32"/>
          <path id="路径_658" data-name="路径 658" d="M286.332,368.065a6.833,6.833,0,0,1-.888,2.012c-.022.047.048.077.071.035a5.965,5.965,0,0,0,.91-2.03A.047.047,0,0,0,286.332,368.065Z" transform="translate(-285.08 -367.143)" fill="#fb9c32"/>
          <path id="路径_659" data-name="路径 659" d="M286.755,368.323c-.218.523-.425,1.307-.98,1.569-.028.012-.013.055.016.044.587-.232.868-1.04,1.044-1.588C286.852,368.3,286.774,368.281,286.755,368.323Z" transform="translate(-284.934 -367.018)" fill="#fb9c32"/>
          <path id="路径_660" data-name="路径 660" d="M286.7,368.913a4.509,4.509,0,0,1-.365.991,1.858,1.858,0,0,1-.265.412c-.045.051-.1.1-.138.151-.042,0-.035.023-.029.049a2.143,2.143,0,0,0,.547-.652,3.367,3.367,0,0,0,.329-.939A.04.04,0,0,0,286.7,368.913Z" transform="translate(-284.874 -366.754)" fill="#fb9c32"/>
          <path id="路径_661" data-name="路径 661" d="M287.1,370.485c-.188.425-.325,1.431-.971,1.3.633.421.927-.9,1.051-1.268C287.191,370.468,287.118,370.431,287.1,370.485Z" transform="translate(-284.769 -366.034)" fill="#fb9c32"/>
          <path id="路径_662" data-name="路径 662" d="M287.085,371.14c-.269.464-.307,1.626-1.031,1.612-.039,0-.041.063,0,.068.763.115.965-1.136,1.115-1.655C287.18,371.114,287.109,371.1,287.085,371.14Z" transform="translate(-284.814 -365.734)" fill="#fb9c32"/>
          <path id="路径_663" data-name="路径 663" d="M287.061,371.719c-.175.364-.271,1.061-.706,1.206a.052.052,0,0,0,.034.1c.486-.148.611-.852.754-1.267A.045.045,0,0,0,287.061,371.719Z" transform="translate(-284.679 -365.471)" fill="#fb9c32"/>
          <path id="路径_664" data-name="路径 664" d="M287.762,373.263c-.092.186-.172.377-.262.563a1.58,1.58,0,0,1-.188.3c-.063.079-.1.109-.179.039.007.071.009.108.057.149a2.039,2.039,0,0,0,.644-1.021A.039.039,0,0,0,287.762,373.263Z" transform="translate(-284.309 -364.766)" fill="#fb9c32"/>
          <path id="路径_665" data-name="路径 665" d="M287.9,373.649a3.839,3.839,0,0,1-.84,1.28c-.042.047.033.108.077.061a3.378,3.378,0,0,0,.85-1.315C288.008,373.624,287.922,373.6,287.9,373.649Z" transform="translate(-284.345 -364.592)" fill="#fb9c32"/>
          <path id="路径_666" data-name="路径 666" d="M287.845,373.775c-.1.431-.143.949-.533,1.227.486-.13.53-.807.613-1.214C287.937,373.734,287.855,373.722,287.845,373.775Z" transform="translate(-284.227 -364.538)" fill="#fb9c32"/>
        </g>
        <g id="组_367" data-name="组 367" transform="translate(0 2.476)">
          <g id="组_365" data-name="组 365" transform="translate(1.215)">
            <path id="路径_667" data-name="路径 667" d="M267.158,377.9c.527.361,1.695-.773,2.177-1.012a2.273,2.273,0,0,1,1.466-.258c.227.052.479.15.693,0,.336-.237.638-9.931.6-10.743a1.459,1.459,0,0,0-.4-1.023c-.4-.227-1.144.552-1.5,1.475-.285.735-2.35,7.837-3.124,10.691C266.981,377.351,266.916,377.74,267.158,377.9Z" transform="translate(-265.322 -350.521)" fill="url(#linear-gradient-40)"/>
            <g id="组_364" data-name="组 364" transform="translate(0.701 16.303)">
              <path id="路径_668" data-name="路径 668" d="M269.613,366.215c-.192.166-.342.386-.523.568a2.335,2.335,0,0,1-.843.571,2.35,2.35,0,0,0,1.438-1.076C269.716,366.225,269.662,366.173,269.613,366.215Z" transform="translate(-265.45 -366.199)" fill="url(#linear-gradient-41)"/>
              <path id="路径_669" data-name="路径 669" d="M269.659,366.792a3.85,3.85,0,0,1-1.584.818c-.031,0-.032.057,0,.055a2.641,2.641,0,0,0,1.648-.8C269.776,366.814,269.718,366.751,269.659,366.792Z" transform="translate(-265.539 -365.935)" fill="url(#linear-gradient-42)"/>
              <path id="路径_670" data-name="路径 670" d="M269.413,367.159a4.229,4.229,0,0,1-.668.568,4.791,4.791,0,0,1-.793.393,2.091,2.091,0,0,0,1.536-.917C269.509,367.158,269.448,367.128,269.413,367.159Z" transform="translate(-265.585 -365.768)" fill="url(#linear-gradient-43)"/>
              <path id="路径_671" data-name="路径 671" d="M269.028,367.96a5.029,5.029,0,0,0-.521.336,2.334,2.334,0,0,1-.38.16,1.662,1.662,0,0,1-.243.057,1.86,1.86,0,0,0,1.172-.508C269.085,367.983,269.056,367.948,269.028,367.96Z" transform="translate(-265.616 -365.398)" fill="url(#linear-gradient-44)"/>
              <path id="路径_672" data-name="路径 672" d="M268.958,368.433c-.207.07-.4.175-.61.25-.183.068-.377.112-.556.2a1.922,1.922,0,0,0,1.184-.383C269.009,368.475,269,368.416,268.958,368.433Z" transform="translate(-265.658 -365.182)" fill="url(#linear-gradient-45)"/>
              <path id="路径_673" data-name="路径 673" d="M268.864,369.045a4.055,4.055,0,0,1-1.37.7c.218.084.45-.051.668-.141a2.123,2.123,0,0,0,.75-.476C268.95,369.083,268.917,369.007,268.864,369.045Z" transform="translate(-265.793 -364.907)" fill="url(#linear-gradient-46)"/>
              <path id="路径_674" data-name="路径 674" d="M269.078,369.387a6.383,6.383,0,0,1-.756.46,3.423,3.423,0,0,1-.91.374c.234.1.515-.068.756-.17a2.636,2.636,0,0,0,.962-.6A.041.041,0,0,0,269.078,369.387Z" transform="translate(-265.831 -364.749)" fill="url(#linear-gradient-47)"/>
              <path id="路径_675" data-name="路径 675" d="M268.91,369.925a8.159,8.159,0,0,1-1.751.872,3.314,3.314,0,0,0,1.791-.811A.036.036,0,1,0,268.91,369.925Z" transform="translate(-265.946 -364.504)" fill="url(#linear-gradient-48)"/>
              <path id="路径_676" data-name="路径 676" d="M269.022,370.253a6.039,6.039,0,0,1-2.184,1.284,3.815,3.815,0,0,0,2.238-1.222C269.118,370.272,269.068,370.212,269.022,370.253Z" transform="translate(-266.093 -364.357)" fill="url(#linear-gradient-49)"/>
              <path id="路径_677" data-name="路径 677" d="M268.822,370.718a4.305,4.305,0,0,1-.876.639,7.964,7.964,0,0,1-1.059.565,3.161,3.161,0,0,0,.97-.421,3.28,3.28,0,0,0,1.009-.732C268.9,370.732,268.858,370.683,268.822,370.718Z" transform="translate(-266.07 -364.145)" fill="url(#linear-gradient-50)"/>
              <path id="路径_678" data-name="路径 678" d="M268.935,371.136a5.878,5.878,0,0,1-2.171,1.422,4.123,4.123,0,0,0,2.225-1.377C269.021,371.144,268.968,371.1,268.935,371.136Z" transform="translate(-266.126 -363.954)" fill="url(#linear-gradient-51)"/>
              <path id="路径_679" data-name="路径 679" d="M269.058,371.336a10.726,10.726,0,0,1-2.475,1.852,5.1,5.1,0,0,0,2.527-1.789C269.154,371.351,269.108,371.3,269.058,371.336Z" transform="translate(-266.209 -363.864)" fill="url(#linear-gradient-52)"/>
              <path id="路径_680" data-name="路径 680" d="M268.256,372.345a4.247,4.247,0,0,1-1.692,1.21,3.25,3.25,0,0,0,1.754-1.172C268.353,372.336,268.291,372.3,268.256,372.345Z" transform="translate(-266.217 -363.406)" fill="url(#linear-gradient-53)"/>
              <path id="路径_681" data-name="路径 681" d="M267.991,373.008a4.831,4.831,0,0,1-1.51,1.018,2.811,2.811,0,0,0,1.561-.958C268.084,373.025,268.036,372.97,267.991,373.008Z" transform="translate(-266.255 -363.101)" fill="url(#linear-gradient-54)"/>
              <path id="路径_682" data-name="路径 682" d="M267.641,373.508a3.507,3.507,0,0,1-1.315,1.176,1.221,1.221,0,0,0,.665-.36,3.812,3.812,0,0,0,.709-.783C267.731,373.5,267.674,373.468,267.641,373.508Z" transform="translate(-266.326 -362.876)" fill="url(#linear-gradient-55)"/>
              <path id="路径_683" data-name="路径 683" d="M267.716,373.561c-.3.265-.539.6-.859.843a3.6,3.6,0,0,0,.907-.789C267.8,373.575,267.76,373.522,267.716,373.561Z" transform="translate(-266.084 -362.849)" fill="url(#linear-gradient-56)"/>
            </g>
            <path id="路径_684" data-name="路径 684" d="M268.475,380.942c.5-.049.952.157,1.382-.24a2.321,2.321,0,0,0,.485-1.392q.3-2.878.607-5.723a1.593,1.593,0,0,0-.044-.782.474.474,0,0,0-.62-.272,1.034,1.034,0,0,0-.419.508q-1.05,2.094-1.952,4.278a24.214,24.214,0,0,0-1.619,3.944.825.825,0,0,0,.022.594c.364.569,1.425-.7,1.885-.856A1.374,1.374,0,0,1,268.475,380.942Z" transform="translate(-265.659 -347.027)" fill="url(#linear-gradient-57)"/>
            <path id="路径_685" data-name="路径 685" d="M268.781,382.464a.732.732,0,0,0,.211-.611c0-.636-.017-1.271-.054-1.9-.017-.277-.1-.562-.1-.836,0-.247.1-.486.1-.732a.421.421,0,0,0-.364-.462c-.285-.009-.524.306-.687.579a20.072,20.072,0,0,0-1.654,3.515c-.115.325-.2.738.049.894.38.239.91-.332,1.326-.352C267.981,382.542,268.389,382.753,268.781,382.464Z" transform="translate(-265.716 -344.551)" fill="url(#linear-gradient-58)"/>
            <path id="路径_686" data-name="路径 686" d="M268.087,381.294c-.07-.2-.175-.432-.395-.434-.246,0-.448.278-.581.52-.147.272-.3.542-.443.818-.114.227-.189.472-.293.706a2.287,2.287,0,0,0-.207.63c-.041.313.054.642.406.577a1.555,1.555,0,0,0,.384-.153,1.2,1.2,0,0,1,.384-.138c.252-.029.472.122.725.08a.753.753,0,0,0,.53-.521,1.007,1.007,0,0,0-.042-.737Z" transform="translate(-265.7 -343.212)" fill="url(#linear-gradient-59)"/>
            <path id="路径_687" data-name="路径 687" d="M266.924,389.341a1.315,1.315,0,0,0,1.364-1.644q-.12-2.658-.411-5.253c-.1-.1-.3-.031-.412.1a1.118,1.118,0,0,0-.2.457q-.657,2.562-1.323,5.152a1.258,1.258,0,0,0,.012,1C266.154,389.418,266.565,389.387,266.924,389.341Z" transform="translate(-265.844 -342.512)" fill="url(#linear-gradient-60)"/>
            <path id="路径_688" data-name="路径 688" d="M266.251,389.76c.328.205.868-.042,1.128-.444a2.377,2.377,0,0,0-.01-2.094c-.071-.245-.17-.514-.413-.566-.271-.052-.591.217-.721.513a6.177,6.177,0,0,0-.255,1.559C265.931,389.13,265.956,389.574,266.251,389.76Z" transform="translate(-265.791 -340.573)" fill="url(#linear-gradient-61)"/>
            <path id="路径_689" data-name="路径 689" d="M267.391,388.739a1.625,1.625,0,0,0-.269-.53.423.423,0,0,0-.571-.028.555.555,0,0,0-.178.431.84.84,0,0,0,.134.393,2.422,2.422,0,0,0,1.936,1.187,1,1,0,0,0,.817-.249A1.977,1.977,0,0,1,267.391,388.739Z" transform="translate(-265.603 -339.919)" fill="url(#linear-gradient-62)"/>
            <path id="路径_690" data-name="路径 690" d="M281.434,365.2a2.919,2.919,0,0,1-1.744,2.158,7.412,7.412,0,0,1-2.736.517l-5.237.312a3.4,3.4,0,0,1-1.682-.179,1.126,1.126,0,0,1-.594-1.417,2.075,2.075,0,0,1,.715-.773,15.288,15.288,0,0,1,7.441-2.993,4.811,4.811,0,0,1,2.584.28A2.141,2.141,0,0,1,281.434,365.2Z" transform="translate(-264.241 -351.458)" fill="url(#linear-gradient-63)"/>
            <path id="路径_691" data-name="路径 691" d="M279.977,363.106a4.811,4.811,0,0,0-2.584-.28,14.963,14.963,0,0,0-6.129,2.113,17.1,17.1,0,0,1,5.454-1.862,5.277,5.277,0,0,1,2.511.08,1.632,1.632,0,0,1,1.2,1.686,2.828,2.828,0,0,1-1.712,1.923,8.64,8.64,0,0,1-2.664.6l-5.088.579a5.616,5.616,0,0,1-1.153.051,3.361,3.361,0,0,0,1.7.192l5.237-.312a7.412,7.412,0,0,0,2.736-.517,2.919,2.919,0,0,0,1.744-2.158A2.141,2.141,0,0,0,279.977,363.106Z" transform="translate(-264.036 -351.458)" fill="#e3c5ad" style="mix-blend-mode: multiply;isolation: isolate"/>
            <path id="路径_692" data-name="路径 692" d="M283.239,355.082q-1.629.247-3.282.5a4.412,4.412,0,0,0-2.651,1.053,4.679,4.679,0,0,0-.874,3.309q-.009,4.387-.015,8.836c0,.445.036.964.4,1.159.392.207.9-.09,1.284-.387a20.17,20.17,0,0,0,7.368-11.457c.236-1.074.259-2.429-.636-2.918A2.54,2.54,0,0,0,283.239,355.082Z" transform="translate(-261.024 -355.002)" fill="url(#linear-gradient-64)"/>
            <path id="路径_693" data-name="路径 693" d="M284.6,355.177a2.54,2.54,0,0,0-1.6-.095c-.258.038-.517.077-.776.118a1.233,1.233,0,0,1,.756.194c.747.511.743,1.871.556,2.944a19.92,19.92,0,0,1-5.966,11.266,1.735,1.735,0,0,1-.626.4,1.981,1.981,0,0,0,.922-.448,20.17,20.17,0,0,0,7.368-11.457C285.469,357.02,285.492,355.666,284.6,355.177Z" transform="translate(-260.784 -355.002)" fill="#e3c5ad" style="mix-blend-mode: multiply;isolation: isolate"/>
          </g>
          <g id="组_366" data-name="组 366" transform="translate(0 29.557)">
            <path id="路径_694" data-name="路径 694" d="M268.369,375.323c-.284.281-.558.571-.847.844-.272.252-.791.782-1.16.655.25.612,1.874-1.152,2.1-1.428A.056.056,0,1,0,268.369,375.323Z" transform="translate(-264.394 -375.303)" fill="#fb9c32"/>
            <path id="路径_695" data-name="路径 695" d="M268.377,376.008a6.717,6.717,0,0,1-2.562,1.941,4.291,4.291,0,0,0,1.567-.794,3.511,3.511,0,0,0,1.083-1.1C268.5,375.992,268.421,375.946,268.377,376.008Z" transform="translate(-264.643 -374.995)" fill="#fb9c32"/>
            <path id="路径_696" data-name="路径 696" d="M267.817,376.976c-.317.268-.617.559-.93.84a2.855,2.855,0,0,1-1.376.844c.367.079.69-.175,1.018-.412a11.5,11.5,0,0,0,1.35-1.2C267.931,376.992,267.871,376.93,267.817,376.976Z" transform="translate(-264.782 -374.548)" fill="#fb9c32"/>
            <path id="路径_697" data-name="路径 697" d="M267.889,377.585a14.039,14.039,0,0,1-1.067,1.158,4.461,4.461,0,0,1-1.526,1.124c-.038.01-.029.064.007.055a3.163,3.163,0,0,0,1.3-.821,9.225,9.225,0,0,0,1.374-1.466C268.024,377.572,267.937,377.527,267.889,377.585Z" transform="translate(-264.891 -374.275)" fill="#fb9c32"/>
            <path id="路径_698" data-name="路径 698" d="M267.974,377.907c-.325.32-.643.649-.973.968s-.993,1.093-1.463,1.121c-.063,0-.077.1-.013.1.379-.006.68-.335.983-.587a15.182,15.182,0,0,0,1.543-1.517C268.109,377.929,268.039,377.844,267.974,377.907Z" transform="translate(-264.794 -374.126)" fill="#fb9c32"/>
            <path id="路径_699" data-name="路径 699" d="M267.89,379.339a5.28,5.28,0,0,1-2.477,1.572c-.032.012-.033.06,0,.058a3.781,3.781,0,0,0,2.567-1.559A.057.057,0,1,0,267.89,379.339Z" transform="translate(-264.837 -373.474)" fill="#fb9c32"/>
            <path id="路径_700" data-name="路径 700" d="M267.979,379.8a5.978,5.978,0,0,1-2.916,1.752c1.048.081,2.21-.907,2.982-1.676C268.1,379.822,268.037,379.75,267.979,379.8Z" transform="translate(-264.986 -373.26)" fill="#fb9c32"/>
            <path id="路径_701" data-name="路径 701" d="M267.737,380.184c-.673.588-1.74,1.855-2.634,1.813.847.234,2.091-1.146,2.7-1.741C267.853,380.2,267.794,380.136,267.737,380.184Z" transform="translate(-264.968 -373.085)" fill="#fb9c32"/>
            <path id="路径_702" data-name="路径 702" d="M267.225,380.724c-.272.29-.553.577-.837.86a3.618,3.618,0,0,1-.964.814,1.833,1.833,0,0,0,.8-.546,11.41,11.41,0,0,0,1.048-1.074C267.311,380.735,267.264,380.682,267.225,380.724Z" transform="translate(-264.821 -372.839)" fill="#fb9c32"/>
            <path id="路径_703" data-name="路径 703" d="M267.225,381.848a3.769,3.769,0,0,1-1.891,1.661,3.159,3.159,0,0,0,1.97-1.644C267.324,381.808,267.247,381.792,267.225,381.848Z" transform="translate(-264.862 -372.335)" fill="#fb9c32"/>
            <path id="路径_704" data-name="路径 704" d="M267.131,382.218a10.119,10.119,0,0,1-1.839,1.829c-.028.017-.012.058.018.039a7.4,7.4,0,0,0,1.881-1.82A.038.038,0,1,0,267.131,382.218Z" transform="translate(-264.888 -372.158)" fill="#fb9c32"/>
            <path id="路径_705" data-name="路径 705" d="M266.96,382.7c-.371.421-.815,1.293-1.4,1.355.445.3,1.227-.971,1.473-1.294A.049.049,0,1,0,266.96,382.7Z" transform="translate(-264.757 -371.942)" fill="#fb9c32"/>
            <path id="路径_706" data-name="路径 706" d="M267.233,384.583a5.725,5.725,0,0,1-2.015,2.092,4.262,4.262,0,0,0,2.091-2.066C267.331,384.561,267.258,384.534,267.233,384.583Z" transform="translate(-264.915 -371.084)" fill="#fb9c32"/>
            <path id="路径_707" data-name="路径 707" d="M267.436,384.933a11.135,11.135,0,0,1-2.426,2.858,6.9,6.9,0,0,0,2.513-2.81C267.558,384.912,267.476,384.861,267.436,384.933Z" transform="translate(-265.01 -370.928)" fill="#fb9c32"/>
            <path id="路径_708" data-name="路径 708" d="M267.052,385.518a11.475,11.475,0,0,1-1.907,2.34c-.057.047,0,.111.06.067a10.017,10.017,0,0,0,1.913-2.372C267.151,385.505,267.087,385.47,267.052,385.518Z" transform="translate(-264.959 -370.656)" fill="#fb9c32"/>
            <path id="路径_709" data-name="路径 709" d="M267.141,385.7a34.511,34.511,0,0,1-2.059,2.771,18.336,18.336,0,0,0,2.133-2.73C267.251,385.686,267.179,385.645,267.141,385.7Z" transform="translate(-264.977 -370.575)" fill="#fb9c32"/>
          </g>
        </g>
      </g>
      <path id="路径_710" data-name="路径 710" d="M293.159,358.538a2.178,2.178,0,0,1,.134-.824.672.672,0,0,1,.657-.425.66.66,0,0,1,.495.507,1.831,1.831,0,0,1-.012.744,21.207,21.207,0,0,1-1.909,6,3.164,3.164,0,0,1-.55.853c-.039.039-.737.521-.77.29-.06-.422.543-1.21.715-1.615a15.64,15.64,0,0,0,1.24-5.525Z" transform="translate(23.83 8.142)" fill="#c24925"/>
      <path id="路径_711" data-name="路径 711" d="M295.546,357.947a.739.739,0,0,0-.617.4,2.527,2.527,0,0,0-.236.731,12.555,12.555,0,0,1-2.827,5.569,1.557,1.557,0,0,0,1.242-.572,11.468,11.468,0,0,0,2.931-4.559,1.883,1.883,0,0,0,.138-.942A.726.726,0,0,0,295.546,357.947Z" transform="translate(24.133 8.444)" fill="#c24925"/>
      <g id="组_369" data-name="组 369" transform="translate(312.625 365.752)">
        <path id="路径_712" data-name="路径 712" d="M294.6,357.521c-.756.389-1.385.973-2.182,1.345a5.02,5.02,0,0,1-2.827.629c-.048-.013-.063.055-.025.079.759.438,2.209-.226,2.937-.47.6-.2,2.348-.632,2.3-1.457A.149.149,0,0,0,294.6,357.521Z" transform="translate(-289.548 -357.508)" fill="url(#linear-gradient-65)"/>
        <path id="路径_713" data-name="路径 713" d="M294.81,358.243a7.137,7.137,0,0,1-3.97,1.884,4.619,4.619,0,0,0,2.715-.606c.445-.242,1.542-.561,1.508-1.2A.145.145,0,0,0,294.81,358.243Z" transform="translate(-288.959 -357.195)" fill="url(#linear-gradient-66)"/>
        <path id="路径_714" data-name="路径 714" d="M295.858,358.351a.2.2,0,0,0-.339-.057,6.8,6.8,0,0,1-1.175,1.325,5.067,5.067,0,0,1-2.162,1.238c-.033,0-.042.058,0,.061a4.165,4.165,0,0,0,2.378-1C294.982,359.656,296.182,359,295.858,358.351Z" transform="translate(-288.361 -357.183)" fill="url(#linear-gradient-67)"/>
        <path id="路径_715" data-name="路径 715" d="M296.189,358.616c-.493.53-.887,1.1-1.434,1.585-.5.446-1.089.735-1.618,1.133a4.929,4.929,0,0,0,3.239-2.6A.112.112,0,0,0,296.189,358.616Z" transform="translate(-287.912 -357.022)" fill="url(#linear-gradient-68)"/>
      </g>
      <path id="路径_716" data-name="路径 716" d="M294.224,348.6c-.662.035-2.82,2.329-2.854,6.721-.032,4.358,2.289,9.174,5.738,8.623,3.427-.546,4.178-4.477,4.195-5.831C301.365,353.291,296.773,348.464,294.224,348.6Z" transform="translate(23.908 4.182)" fill="url(#linear-gradient-69)"/>
      <path id="路径_717" data-name="路径 717" d="M292.225,355.726c.042-4.074,1.8-6.466,2.72-7.045a2.446,2.446,0,0,0-.721-.079c-.661.035-2.82,2.329-2.854,6.721-.025,3.228,1.248,6.712,3.3,8.07A12.056,12.056,0,0,1,292.225,355.726Z" transform="translate(23.908 4.182)" fill="#f7b683" opacity="0.4" style="mix-blend-mode: overlay;isolation: isolate"/>
      <path id="路径_718" data-name="路径 718" d="M296.116,355.741a.882.882,0,1,1-.881-.884A.879.879,0,0,1,296.116,355.741Z" transform="translate(25.268 7.035)" fill="#26120b"/>
      <g id="组_370" data-name="组 370" transform="translate(238.932 339.427)">
        <path id="路径_719" data-name="路径 719" d="M240.757,358.421a4.99,4.99,0,0,0,.255.754c.029-.1.064-.211.1-.323a14.775,14.775,0,0,1,3.005-4.585,4.773,4.773,0,0,1-.1-.593.406.406,0,0,1,.01-.115.967.967,0,0,1,.045-.147c.042-.086.06-.119.079-.153l.049-.08c.013-.02.028-.039.042-.061.042-.061.09-.127.146-.194s.092-.109.13-.154a28.623,28.623,0,0,1,7.246-5.017c0-.042,0-.087,0-.125a2.474,2.474,0,0,1,.038-.381.607.607,0,0,1,.033-.117.447.447,0,0,1,.054-.084.706.706,0,0,1,.1-.1c.063-.054.093-.079.125-.1s.048-.035.074-.052.063-.042.1-.064.055-.036.084-.054c.047-.026.092-.055.143-.083a24.4,24.4,0,0,1,8.868-2.43c.115-.741.262-1.213.437-1.31a.878.878,0,0,1,.118-.052c.063-.02.115-.038.178-.054a74.406,74.406,0,0,1,10.432-.98c.2-.3.395-.469.575-.488l.248-.019c.1-.007.194-.012.3-.016a69.817,69.817,0,0,1,9.551.517c.234-.272.432-.424.575-.425q.083,0,.17,0c.058,0,.119.006.182.012a44.6,44.6,0,0,1,7.064,1.753l.063-.087c.229-.312.425-.491.574-.507a1.507,1.507,0,0,1,.245,0,2.87,2.87,0,0,1,.3.039c1.553.281,4.259,1.983,5.953,3.3a6,6,0,0,1,.457-.562c.052-.054.1-.1.151-.147a1.191,1.191,0,0,1,.266-.194.34.34,0,0,1,.213-.047c.036.006.074.015.115.025s.073.02.111.033a24.516,24.516,0,0,1,4.628,3.087c.189-.192.357-.278.494-.227a18.25,18.25,0,0,1,4.071,2.9c.371-.383.715-.587.99-.553.574.073,1.954,1.35,2.928,2.439a1.206,1.206,0,0,1,.559-.358c.814-.154,2.542,1.37,3.386,2.286a.834.834,0,0,1,.386-.17c.068,0,.141,0,.213,0l.086.006c.041,0,.083.009.124.016a2.213,2.213,0,0,1,.294.055c2.609.638,6.394,4.978,6.342,9.331,0,.051,0,.108-.006.166a7.484,7.484,0,0,0,.232-1.625c.057-4.394-3.742-8.784-6.358-9.434-.1-.023-.2-.044-.3-.057-.042-.006-.085-.012-.125-.015s-.058,0-.086-.006a2.083,2.083,0,0,0-.213,0,.821.821,0,0,0-.389.169c-.849-.926-2.581-2.468-3.4-2.315a1.214,1.214,0,0,0-.56.361c-.978-1.1-2.363-2.394-2.94-2.468-.277-.038-.622.169-.994.553a18.482,18.482,0,0,0-4.088-2.934c-.137-.051-.306.035-.5.227a24.734,24.734,0,0,0-4.646-3.124c-.041-.014-.077-.026-.112-.036a1.052,1.052,0,0,0-.116-.025.367.367,0,0,0-.214.047,1.24,1.24,0,0,0-.268.2c-.048.044-.1.095-.151.149a5.9,5.9,0,0,0-.459.566c-1.7-1.332-4.42-3.057-5.981-3.346a2.327,2.327,0,0,0-.268-.035,1.654,1.654,0,0,0-.281,0c-.15.015-.346.2-.577.51-.02.029-.044.058-.063.089a44.747,44.747,0,0,0-7.1-1.788l-.182-.012-.169,0c-.146,0-.344.15-.581.428a69.836,69.836,0,0,0-9.6-.547c-.106,0-.2.007-.294.013l-.255.022c-.182.019-.376.194-.578.491a74.325,74.325,0,0,0-10.483.965c-.066.017-.116.032-.165.048a.8.8,0,0,0-.135.057c-.175.1-.323.577-.438,1.323a24.389,24.389,0,0,0-8.913,2.434l-.143.084-.086.052-.1.065c-.026.019-.052.035-.076.054s-.063.047-.09.07a1.041,1.041,0,0,0-.121.118.461.461,0,0,0-.068.1.582.582,0,0,0-.033.118,2.361,2.361,0,0,0-.039.386v.127a28.654,28.654,0,0,0-7.283,5.051c-.041.045-.077.09-.112.131-.074.093-.122.159-.166.221l-.042.061c-.017.026-.033.054-.05.08s-.036.066-.052.1a1.034,1.034,0,0,0-.064.169.535.535,0,0,0-.017.153,4.945,4.945,0,0,0,.1.6,14.852,14.852,0,0,0-3.018,4.62c-.045.128-.084.25-.118.368s-.054.22-.071.317a2.147,2.147,0,0,0-.032.309,1.31,1.31,0,0,0,.02.269Z" transform="translate(-238.109 -339.427)" fill="#e3c5ad" style="mix-blend-mode: multiply;isolation: isolate"/>
        <path id="路径_720" data-name="路径 720" d="M242.613,354.443a50.9,50.9,0,0,0-3.055,5.254,1.6,1.6,0,0,1-.528-.019.184.184,0,0,1-.077-.041c-.245-.579,1.8-4.376,3.085-6.336a8.8,8.8,0,0,0,.435.828C242.516,354.231,242.564,354.336,242.613,354.443Z" transform="translate(-238.932 -333.101)" fill="#e3c5ad" style="mix-blend-mode: multiply;isolation: isolate"/>
      </g>
    </g>
    <g id="组_352" data-name="组 352" transform="translate(294.437 233.021)">
      <g id="组_351" data-name="组 351">
        <rect id="矩形_10" data-name="矩形 10" width="86.767" height="5.215" transform="translate(0 61.599) rotate(-45.23)" fill="#eb0000"/>
      </g>
    </g>
  </g>
</svg>
