<svg xmlns="http://www.w3.org/2000/svg" width="90" height="90" viewBox="0 0 90 90">
  <g id="蒼蠅" transform="translate(-83.936 -68.854)">
    <g id="组_203" data-name="组 203" transform="translate(83.936 68.854)">
      <g id="组_202" data-name="组 202">
        <path id="路径_436" data-name="路径 436" d="M128.937,158.854a45,45,0,1,1,45-45A45.051,45.051,0,0,1,128.937,158.854Zm0-84.792a39.793,39.793,0,1,0,39.793,39.792A39.837,39.837,0,0,0,128.937,74.062Z" transform="translate(-83.936 -68.854)" fill="#f23812"/>
      </g>
    </g>
    <g id="组_299" data-name="组 299" transform="translate(94.345 69.853)">
      <g id="组_208" data-name="组 208" transform="translate(24.309 42.031)">
        <g id="组_205" data-name="组 205" transform="translate(2.432)">
          <g id="组_204" data-name="组 204">
            <path id="路径_437" data-name="路径 437" d="M127.544,107.327h-4.216a15.705,15.705,0,0,0-6.121,4.726,4.591,4.591,0,0,1,2.354.071c2.639.939,4.887,7.137,3.661,10.589-.6,1.692-1.419,3.273-.518,5.059a9.88,9.88,0,0,0,2.577,3.045,16.386,16.386,0,0,0,4.492,2.411,22.121,22.121,0,0,0,6.215-12.214C137.231,111.07,127.544,107.327,127.544,107.327Z" transform="translate(-117.207 -107.327)" fill="#424242"/>
          </g>
        </g>
        <g id="组_207" data-name="组 207" transform="translate(0 4.61)">
          <g id="组_206" data-name="组 206">
            <path id="路径_438" data-name="路径 438" d="M122.944,127.315c-.9-1.786-.082-3.368.518-5.059,1.226-3.452-1.021-9.65-3.661-10.589a4.591,4.591,0,0,0-2.354-.071,11.889,11.889,0,0,0-2.322,8.961c1.2,9.591,9.913,15.535,10.532,15.947v.024l.019-.012.019.012V136.5a27.317,27.317,0,0,0,4.318-3.733,16.386,16.386,0,0,1-4.492-2.411A9.88,9.88,0,0,1,122.944,127.315Z" transform="translate(-115.016 -111.48)" fill="#333"/>
          </g>
        </g>
      </g>
      <g id="组_215" data-name="组 215" transform="translate(26.357 23.882)">
        <g id="组_210" data-name="组 210" transform="translate(0 1.289)">
          <g id="组_209" data-name="组 209">
            <path id="路径_439" data-name="路径 439" d="M132.184,92.282h-1.7c.851,2.774,2.506,9.231.213,11.334a6.892,6.892,0,0,1-9.753,0c-2.144-2.086-.509-8.557.325-11.334h-2a21.768,21.768,0,0,0-2.412,8.382c-.087,3.744,4.826,13.093,8.77,13.114,3.971.022,9.053-9.37,8.966-13.114A21.768,21.768,0,0,0,132.184,92.282Z" transform="translate(-116.859 -92.282)" fill="#333"/>
          </g>
        </g>
        <g id="组_212" data-name="组 212" transform="translate(4.412)">
          <g id="组_211" data-name="组 211">
            <path id="路径_440" data-name="路径 440" d="M125.388,92.41h4.661c-.244-.795-.423-1.289-.423-1.289h-8.38s-.173.494-.412,1.289h4.554Z" transform="translate(-120.834 -91.121)" fill="#b25336"/>
          </g>
        </g>
        <g id="组_214" data-name="组 214" transform="translate(3.027 1.289)">
          <g id="组_213" data-name="组 213">
            <path id="路径_441" data-name="路径 441" d="M120.646,103.616a6.892,6.892,0,0,0,9.753,0c2.293-2.1.638-8.56-.213-11.334h-9.215C120.137,95.059,118.5,101.53,120.646,103.616Z" transform="translate(-119.586 -92.282)" fill="#424242"/>
          </g>
        </g>
      </g>
      <g id="组_224" data-name="组 224" transform="translate(25.742 18.175)">
        <g id="组_217" data-name="组 217">
          <g id="组_216" data-name="组 216">
            <path id="路径_442" data-name="路径 442" d="M118.378,90.033c.235-1.417,2.279-2.624,3.6-2.647a.044.044,0,0,1,.021.081l-.078.039a1.69,1.69,0,0,1,.2,0,1.443,1.443,0,0,1,.9.511V86.037s-6.682,1.738-6.708,5.248,6.708,2.03,6.708,2.03v-2a2.733,2.733,0,0,1-1.473.592C120.388,92.027,118.1,91.7,118.378,90.033Z" transform="translate(-116.306 -86.037)" fill="#333"/>
          </g>
        </g>
        <g id="组_219" data-name="组 219" transform="translate(12.083)">
          <g id="组_218" data-name="组 218">
            <path id="路径_443" data-name="路径 443" d="M127.192,86.037v1.608a1.347,1.347,0,0,1,.436-.144,1.685,1.685,0,0,1,.2,0l-.078-.039a.044.044,0,0,1,.022-.081c1.319.023,3.363,1.23,3.6,2.647.276,1.667-2.01,1.995-3.162,1.874a2.947,2.947,0,0,1-1.013-.3v1.7s6.735,1.48,6.708-2.03S127.192,86.037,127.192,86.037Z" transform="translate(-127.192 -86.037)" fill="#333"/>
          </g>
        </g>
        <g id="组_221" data-name="组 221" transform="translate(2.049 1.349)">
          <g id="组_220" data-name="组 220">
            <path id="路径_444" data-name="路径 444" d="M121.915,87.367a1.687,1.687,0,0,0-.2,0l.078-.039a.044.044,0,0,0-.021-.081c-1.32.023-3.363,1.23-3.6,2.647-.276,1.667,2.01,1.995,3.163,1.874a2.733,2.733,0,0,0,1.473-.592v-3.3A1.443,1.443,0,0,0,121.915,87.367Z" transform="translate(-118.152 -87.252)" fill="#424242"/>
          </g>
        </g>
        <g id="组_223" data-name="组 223" transform="translate(12.083 1.349)">
          <g id="组_222" data-name="组 222">
            <path id="路径_445" data-name="路径 445" d="M131.368,89.9c-.234-1.417-2.279-2.624-3.6-2.647a.044.044,0,0,0-.022.081l.078.039a1.682,1.682,0,0,0-.2,0,1.346,1.346,0,0,0-.436.144v3.966a2.947,2.947,0,0,0,1.013.3C129.357,91.894,131.644,91.566,131.368,89.9Z" transform="translate(-127.192 -87.252)" fill="#424242"/>
          </g>
        </g>
      </g>
      <g id="组_226" data-name="组 226" transform="translate(30.83 15.851)">
        <g id="组_225" data-name="组 225">
          <path id="路径_446" data-name="路径 446" d="M124.245,84.233a14.694,14.694,0,0,0-3.356,2.572l1.622,6.754s1.789.153,2.774.153c1.16,0,2.826-.168,2.826-.168l1.51-6.74a16.8,16.8,0,0,0-3.243-2.6A2.265,2.265,0,0,0,124.245,84.233Z" transform="translate(-120.889 -83.953)" fill="#6d6d6d"/>
        </g>
      </g>
      <g id="组_228" data-name="组 228" transform="translate(18.464 56.609)">
        <g id="组_227" data-name="组 227">
          <path id="路径_447" data-name="路径 447" d="M119.9,120.463s-3.711,3.149-6.656,5.461-3.414,3.839-3.414,3.839,1.34-.143,4.125-2.222S119.085,125.1,119.9,120.463Z" transform="translate(-109.826 -120.463)" fill="#333"/>
        </g>
      </g>
      <g id="组_230" data-name="组 230" transform="translate(8.418 65.733)">
        <g id="组_229" data-name="组 229">
          <path id="路径_448" data-name="路径 448" d="M110.485,129.884c-.548,2.623-1.137,7.124-2.562,10.455a22.973,22.973,0,0,1-6.352,8.138c-.63.561-1.289,1.751.4.645a18.728,18.728,0,0,0,7.378-9.114c.519-1.383,2.121-8.313,1.985-10.388C111.173,127.226,110.53,129.667,110.485,129.884Z" transform="translate(-100.898 -128.576)" fill="#333"/>
        </g>
      </g>
      <g id="组_232" data-name="组 232" transform="translate(43.312 56.609)">
        <g id="组_231" data-name="组 231">
          <path id="路径_449" data-name="路径 449" d="M132.047,120.463s3.711,3.149,6.655,5.461,3.414,3.839,3.414,3.839-1.34-.143-4.123-2.222S132.858,125.1,132.047,120.463Z" transform="translate(-132.047 -120.463)" fill="#333"/>
        </g>
      </g>
      <g id="组_234" data-name="组 234" transform="translate(52.975 65.733)">
        <g id="组_233" data-name="组 233">
          <path id="路径_450" data-name="路径 450" d="M141.495,129.884c.548,2.623,1.138,7.124,2.562,10.455a22.985,22.985,0,0,0,6.352,8.138c.63.561,1.289,1.751-.4.645a18.719,18.719,0,0,1-7.377-9.114c-.521-1.383-2.122-8.313-1.986-10.388C140.806,127.226,141.45,129.667,141.495,129.884Z" transform="translate(-140.641 -128.576)" fill="#333"/>
        </g>
      </g>
      <g id="组_236" data-name="组 236" transform="translate(53.426 39.321)">
        <g id="组_235" data-name="组 235">
          <path id="路径_451" data-name="路径 451" d="M141.047,108.165c.966.443,3.283-.418,5.811-1.06,1.286-.327,7.438-.632,8.034-.672,3.486-.238,3.948-1.2,1.271-1.432-1.019-.089-8.852.4-10.958,1.047A19.09,19.09,0,0,0,141.047,108.165Z" transform="translate(-141.047 -104.992)" fill="#333"/>
        </g>
      </g>
      <g id="组_238" data-name="组 238" transform="translate(0 39.321)">
        <g id="组_237" data-name="组 237">
          <path id="路径_452" data-name="路径 452" d="M110.151,108.165c-.966.443-3.283-.418-5.811-1.06-1.288-.327-7.439-.632-8.035-.672-3.486-.238-3.947-1.2-1.27-1.432,1.019-.089,8.851.4,10.958,1.047A19.09,19.09,0,0,1,110.151,108.165Z" transform="translate(-93.314 -104.992)" fill="#333"/>
        </g>
      </g>
      <g id="组_258" data-name="组 258" transform="translate(4.799 34.053)">
        <g id="组_243" data-name="组 243" transform="translate(15.423 8.916)">
          <g id="组_240" data-name="组 240" transform="translate(2.454 1.255)">
            <g id="组_239" data-name="组 239">
              <path id="路径_453" data-name="路径 453" d="M114.928,120.835c-.463,2.594-.182,5.223-.571,7.817a9.3,9.3,0,0,1-.615,2.194c6.329-6.282,8.6-13.71,7.762-17.105a15.459,15.459,0,0,0-1.73-4.544c-.336,1.523-1.627,2.241-2.484,3.727C116.029,115.111,115.369,118.37,114.928,120.835Z" transform="translate(-113.743 -109.197)" fill="#fbcc02"/>
            </g>
          </g>
          <g id="组_242" data-name="组 242">
            <g id="组_241" data-name="组 241">
              <path id="路径_454" data-name="路径 454" d="M118.774,108.066a3.114,3.114,0,0,1-2.168,1.758c-.31,0-.971-.029-.979.327a9.406,9.406,0,0,1-.342,1.608c-.546,1.516-1.692,3.323-2.193,4.563a19.9,19.9,0,0,0-1.253,5.087,37.656,37.656,0,0,0,.042,9.108,9.071,9.071,0,0,1-.35,2.792c.757-.7,1.463-1.366,2.1-1.982.122-.118.232-.239.351-.356a9.3,9.3,0,0,0,.615-2.194c.388-2.594.108-5.223.571-7.817.441-2.465,1.1-5.724,2.362-7.911.085-.149.179-.285.272-.42a3.1,3.1,0,0,1,1.7-.957,2.641,2.641,0,0,1,1.757.467A5.966,5.966,0,0,0,118.774,108.066Z" transform="translate(-111.532 -108.066)" fill="#f9ae06"/>
            </g>
          </g>
        </g>
        <g id="组_250" data-name="组 250" transform="translate(0.587 9.693)">
          <g id="组_245" data-name="组 245" transform="translate(2.904 11.823)">
            <g id="组_244" data-name="组 244">
              <path id="路径_455" data-name="路径 455" d="M105.907,127.01c-.764,1.966-1.171,4.061-2.025,5.991-.607,1.373-1.631,1.973-2.405,3.149a5.705,5.705,0,0,0-.58,4.061c.093-.031.184-.058.284-.1,4.361-1.854,8.407-5.175,11.533-8.05a9.071,9.071,0,0,0,.35-2.792,37.657,37.657,0,0,1-.042-9.108c.011-.093.029-.184.041-.277C109.554,117.472,106.642,125.119,105.907,127.01Z" transform="translate(-100.783 -119.418)" fill="#fbcc02"/>
            </g>
          </g>
          <g id="组_247" data-name="组 247" transform="translate(15.184 1.251)">
            <g id="组_246" data-name="组 246">
              <path id="路径_456" data-name="路径 456" d="M115.251,111.559c-.546,1.516-1.692,3.323-2.193,4.563a19.58,19.58,0,0,0-1.212,4.809c.071.049.142.1.214.153.4.324,1.1.039.932-.544a5.262,5.262,0,0,0-.178-.512c1.329-.735,1.829-3.017,2.257-4.315.594-1.8,1.11-3.962.537-5.819a.3.3,0,0,0-.016.057A9.4,9.4,0,0,1,115.251,111.559Z" transform="translate(-111.846 -109.894)" fill="#f9ae06"/>
            </g>
          </g>
          <g id="组_249" data-name="组 249">
            <g id="组_248" data-name="组 248">
              <path id="路径_457" data-name="路径 457" d="M116.238,109.331c-1.127,5.373-6.187,8.591-9.157,12.986-.112.163-.221.333-.321.5-.037.057-.073.113-.109.17-.006.008-.013.011-.019.019-.375.549-.743,1.113-1.092,1.688a24.7,24.7,0,0,0-3.291,6.216c-.246.547-.479,1.1-.7,1.659a18.247,18.247,0,0,1-1.073,1.856,10.114,10.114,0,0,1-1.011,1.217c-.193.118-.841.607-1.3.958.069,2.965.619,5.59,3.018,4.782a5.705,5.705,0,0,1,.58-4.061c.775-1.175,1.8-1.776,2.405-3.149.854-1.93,1.261-4.026,2.025-5.991.736-1.891,3.647-9.538,7.156-7.126a19.58,19.58,0,0,1,1.212-4.809c.5-1.24,1.647-3.047,2.193-4.563a9.406,9.406,0,0,0,.342-1.608.3.3,0,0,1,.016-.057,4.606,4.606,0,0,0-.553-1.187C116.41,108.6,116.3,109.028,116.238,109.331Z" transform="translate(-98.166 -108.766)" fill="#f9ae06"/>
            </g>
          </g>
        </g>
        <g id="组_255" data-name="组 255" transform="translate(0.338 1.01)">
          <g id="组_252" data-name="组 252" transform="translate(1.895 3.744)">
            <g id="组_251" data-name="组 251">
              <path id="路径_458" data-name="路径 458" d="M118.137,104.317c-2.053.031-4.579,1.664-6.132,2.893-2.947,2.329-13.1,13.788-12.313,28.49a8.718,8.718,0,0,0,.617-.784,18.247,18.247,0,0,0,1.073-1.856c.224-.559.457-1.112.7-1.659a24.7,24.7,0,0,1,3.291-6.216c.35-.575.717-1.139,1.092-1.688.006-.008.013-.011.019-.019.036-.057.072-.113.109-.17.1-.169.209-.339.321-.5,2.97-4.4,8.03-7.613,9.157-12.986.063-.3.172-.728.322-.5a4.606,4.606,0,0,1,.553,1.187c.079-.292.673-.272.963-.271a3.114,3.114,0,0,0,2.168-1.758.666.666,0,0,0-.178-.052,8.817,8.817,0,0,0,.668-2.594C119.869,105.1,119.792,104.293,118.137,104.317Z" transform="translate(-99.649 -104.317)" fill="#fbcc02"/>
            </g>
          </g>
          <g id="组_254" data-name="组 254">
            <g id="组_253" data-name="组 253">
              <path id="路径_459" data-name="路径 459" d="M120.131,102.1c-.532-1.148-.995-1.764-2.793-.3a40.457,40.457,0,0,0-16.17,17.879,35.086,35.086,0,0,0-3.224,13.879c-.031.928.224,2.85.244,3.823l0,.075c.454-.351,1.1-.84,1.3-.958.134-.139.266-.285.394-.433-.786-14.7,9.366-26.161,12.313-28.49,1.554-1.229,4.079-2.861,6.132-2.893,1.655-.024,1.732.784,2.434,1.515A7.769,7.769,0,0,0,120.131,102.1Z" transform="translate(-97.942 -100.943)" fill="#f9ae06"/>
            </g>
          </g>
        </g>
        <g id="组_257" data-name="组 257">
          <g id="组_256" data-name="组 256">
            <path id="路径_460" data-name="路径 460" d="M120.869,100.034c-3.7.277-7.279,3.41-9.857,5.836A46.818,46.818,0,0,0,103,115.6c-4.439,7.311-6.771,16.6-4.464,25.013-.064-.829-.153-1.864-.221-2.783a.162.162,0,0,0,.053-.016,5.911,5.911,0,0,0,1.535-1.141,5.171,5.171,0,0,0,4.929-.127c1.749-.97,2.346-2.663,2.728-4.46,2.291.118,3.52-2.658,5.258-3.918.22,2.193.874,4.317-.029,6.424a7.046,7.046,0,0,0,.738-4.807,21.3,21.3,0,0,1-.282-3.364,29.933,29.933,0,0,1,.494-5.328,37.526,37.526,0,0,1,2.847-7.286,6.438,6.438,0,0,0,.71-2.8.734.734,0,0,0,.535-.123c3.4.048,3.578-5.747,2.714-8.2a.982.982,0,0,0-.253-1.523,1.527,1.527,0,0,0-.223-.107c.321-.128.642-.259.962-.4C121.341,100.525,121.187,100.011,120.869,100.034Zm-5.19,3.05a19.041,19.041,0,0,1,3.245-1.575c.193-.006.721-.021.828.161.546.929-1.614,1.538-2,1.66-1.238.4-2.5.734-3.712,1.2-.3.115-.595.242-.886.375A28.168,28.168,0,0,1,115.679,103.084Zm-4.268,3.312a15.663,15.663,0,0,1,4.161-1.816c.371-.109,1.08-.205,1.531-.305-.753.909-4.63,5.348-5.149,5.775a19.367,19.367,0,0,1-3.759,2.412c-1.084.534-2.262.859-3.359,1.347A56.154,56.154,0,0,1,111.411,106.4Zm-7.929,9.483c.354-.58.727-1.149,1.109-1.713a14.5,14.5,0,0,0,6.575-2.87l-2.336,2.77q-2.208,2.619-4.411,5.238a10.728,10.728,0,0,1-4.17,3.4A35.959,35.959,0,0,1,103.482,115.88ZM98.3,137.407a37.158,37.158,0,0,1,1.778-14.213,5.248,5.248,0,0,0,3.389-1.926c1.761-1.809,3.31-3.865,4.931-5.8q2.517-3,5.032-5.995l.053-.062a21.571,21.571,0,0,0,2.871-3.305c1.069,6.805-5.079,11.584-8.82,16.412a40.041,40.041,0,0,0-4.795,7.944C101.85,132.414,100.518,136.122,98.3,137.407Zm9.1-6.82c-.263,1.627-1.031,4.281-2.3,5.226a5.07,5.07,0,0,1-4.927.557,17.34,17.34,0,0,0,2.515-4.7,40.281,40.281,0,0,1,5.912-9.8c.453-.553.931-1.108,1.42-1.667a2.189,2.189,0,0,1,.792,2.07,4.6,4.6,0,0,1-.675,1.219,21.938,21.938,0,0,0-1.291,2.383A18.663,18.663,0,0,0,107.393,130.587Zm8.705-16.757c-.388.827-.854,1.614-1.236,2.443a23.162,23.162,0,0,0-1.8,5.826,23.567,23.567,0,0,0-.276,5.533c-1.938,1.179-2.777,3.687-5.146,4.1.067-.34.129-.682.191-1.021a19.793,19.793,0,0,1,1.394-4.608c.566-1.254,1.491-2.355,2.007-3.618.364-.895.15-2.534-.9-2.634,2.675-3.053,5.464-6,6.28-9.843A5.135,5.135,0,0,1,116.1,113.831Zm.643-4.246s-.009,0-.013,0a10.283,10.283,0,0,0,.011-3.949.252.252,0,0,0-.011-.026c.415-.519.814-1.05,1.188-1.594.155-.041.307-.088.46-.133,1.5.3.127,6.434-1.154,6.606A2.176,2.176,0,0,0,116.741,109.585Zm3.588-6.67c.324,2.383.521,6.532-1.98,7.376a11.817,11.817,0,0,0,.916-3.5c.064-.433.322-2.582-.321-3.1A4.254,4.254,0,0,0,120.33,102.915Z" transform="translate(-97.637 -100.033)" fill="#333"/>
          </g>
        </g>
      </g>
      <g id="组_278" data-name="组 278" transform="translate(40.824 34.053)">
        <g id="组_263" data-name="组 263" transform="translate(0 8.916)">
          <g id="组_260" data-name="组 260" transform="translate(0 1.255)">
            <g id="组_259" data-name="组 259">
              <path id="路径_461" data-name="路径 461" d="M136.439,120.835c.463,2.594.181,5.223.57,7.817a9.3,9.3,0,0,0,.615,2.194c-6.329-6.282-8.6-13.71-7.763-17.105a15.484,15.484,0,0,1,1.731-4.544c.336,1.523,1.627,2.241,2.484,3.727C135.338,115.111,136,118.37,136.439,120.835Z" transform="translate(-129.694 -109.197)" fill="#fbcc02"/>
            </g>
          </g>
          <g id="组_262" data-name="组 262" transform="translate(0.655)">
            <g id="组_261" data-name="组 261">
              <path id="路径_462" data-name="路径 462" d="M132.77,108.066a3.118,3.118,0,0,0,2.169,1.758c.31,0,.971-.029.978.327a9.518,9.518,0,0,0,.343,1.608c.546,1.516,1.692,3.323,2.193,4.563a19.9,19.9,0,0,1,1.253,5.087,37.655,37.655,0,0,1-.042,9.108,9.072,9.072,0,0,0,.35,2.792c-.758-.7-1.463-1.366-2.1-1.982-.122-.118-.232-.239-.351-.356a9.3,9.3,0,0,1-.615-2.194c-.39-2.594-.108-5.223-.571-7.817-.441-2.465-1.1-5.724-2.362-7.911-.087-.149-.179-.285-.272-.42a3.1,3.1,0,0,0-1.7-.957,2.644,2.644,0,0,0-1.758.467A5.974,5.974,0,0,1,132.77,108.066Z" transform="translate(-130.284 -108.066)" fill="#f9ae06"/>
            </g>
          </g>
        </g>
        <g id="组_270" data-name="组 270" transform="translate(6.025 9.693)">
          <g id="组_265" data-name="组 265" transform="translate(3.989 11.823)">
            <g id="组_264" data-name="组 264">
              <path id="路径_463" data-name="路径 463" d="M145.894,127.01c.764,1.966,1.171,4.061,2.025,5.991.607,1.373,1.63,1.973,2.405,3.149a5.705,5.705,0,0,1,.581,4.061c-.094-.031-.185-.058-.285-.1-4.36-1.854-8.406-5.175-11.532-8.05a9.071,9.071,0,0,1-.35-2.792,37.656,37.656,0,0,0,.042-9.108c-.011-.093-.029-.184-.041-.277C142.247,117.472,145.158,125.119,145.894,127.01Z" transform="translate(-138.715 -119.418)" fill="#fbcc02"/>
            </g>
          </g>
          <g id="组_267" data-name="组 267" transform="translate(0 1.251)">
            <g id="组_266" data-name="组 266">
              <path id="路径_464" data-name="路径 464" d="M135.728,111.559c.546,1.516,1.692,3.323,2.193,4.563a19.63,19.63,0,0,1,1.212,4.809c-.071.049-.142.1-.214.153-.405.324-1.1.039-.933-.544.056-.186.115-.356.179-.512-1.329-.735-1.829-3.017-2.257-4.315-.594-1.8-1.111-3.962-.537-5.819a.234.234,0,0,1,.014.057A9.519,9.519,0,0,0,135.728,111.559Z" transform="translate(-135.121 -109.894)" fill="#f9ae06"/>
            </g>
          </g>
          <g id="组_269" data-name="组 269" transform="translate(0.249)">
            <g id="组_268" data-name="组 268">
              <path id="路径_465" data-name="路径 465" d="M136.221,109.331c1.127,5.373,6.186,8.591,9.157,12.986.111.163.221.333.321.5.036.057.073.113.108.17.007.008.014.011.02.019.375.549.743,1.113,1.092,1.688a24.73,24.73,0,0,1,3.29,6.216c.248.547.481,1.1.7,1.659a18.447,18.447,0,0,0,1.072,1.856A10.237,10.237,0,0,0,153,135.643c.193.118.841.607,1.294.958-.068,2.965-.618,5.59-3.017,4.782a5.705,5.705,0,0,0-.581-4.061c-.775-1.175-1.8-1.776-2.405-3.149-.854-1.93-1.261-4.026-2.025-5.991-.736-1.891-3.647-9.538-7.156-7.126a19.629,19.629,0,0,0-1.212-4.809c-.5-1.24-1.647-3.047-2.193-4.563a9.52,9.52,0,0,1-.343-1.608.234.234,0,0,0-.014-.057,4.607,4.607,0,0,1,.553-1.187C136.049,108.6,136.157,109.028,136.221,109.331Z" transform="translate(-135.346 -108.766)" fill="#f9ae06"/>
            </g>
          </g>
        </g>
        <g id="组_275" data-name="组 275" transform="translate(2.602 1.01)">
          <g id="组_272" data-name="组 272" transform="translate(0.05 3.744)">
            <g id="组_271" data-name="组 271">
              <path id="路径_466" data-name="路径 466" d="M134.517,104.317c2.052.031,4.579,1.664,6.132,2.893,2.947,2.329,13.1,13.788,12.313,28.49a8.952,8.952,0,0,1-.618-.784,18.449,18.449,0,0,1-1.072-1.856c-.224-.559-.457-1.112-.7-1.659a24.73,24.73,0,0,0-3.29-6.216c-.35-.575-.717-1.139-1.092-1.688-.006-.008-.013-.011-.02-.019-.034-.057-.072-.113-.108-.17-.1-.169-.21-.339-.321-.5-2.971-4.4-8.03-7.613-9.157-12.986-.063-.3-.172-.728-.322-.5a4.607,4.607,0,0,0-.553,1.187c-.079-.292-.673-.272-.963-.271a3.118,3.118,0,0,1-2.169-1.758.678.678,0,0,1,.178-.052,8.838,8.838,0,0,1-.667-2.594C132.784,105.1,132.862,104.293,134.517,104.317Z" transform="translate(-132.083 -104.317)" fill="#fbcc02"/>
            </g>
          </g>
          <g id="组_274" data-name="组 274">
            <g id="组_273" data-name="组 273">
              <path id="路径_467" data-name="路径 467" d="M132.716,102.1c.531-1.148.995-1.764,2.793-.3a40.457,40.457,0,0,1,16.17,17.879,35.106,35.106,0,0,1,3.224,13.879c.031.928-.225,2.85-.244,3.823l0,.075c-.453-.351-1.1-.84-1.294-.958-.134-.139-.266-.285-.394-.433.786-14.7-9.366-26.161-12.313-28.49-1.554-1.229-4.08-2.861-6.132-2.893-1.655-.024-1.733.784-2.434,1.515A7.769,7.769,0,0,1,132.716,102.1Z" transform="translate(-132.038 -100.943)" fill="#f9ae06"/>
            </g>
          </g>
        </g>
        <g id="组_277" data-name="组 277" transform="translate(2.243)">
          <g id="组_276" data-name="组 276">
            <path id="路径_468" data-name="路径 468" d="M132.047,100.034c3.7.277,7.278,3.41,9.857,5.836a46.817,46.817,0,0,1,8.007,9.731c4.439,7.311,6.771,16.6,4.464,25.013.064-.829.153-1.864.221-2.783a.161.161,0,0,1-.053-.016,5.936,5.936,0,0,1-1.536-1.141,5.169,5.169,0,0,1-4.928-.127c-1.75-.97-2.346-2.663-2.728-4.46-2.291.118-3.521-2.658-5.258-3.918-.22,2.193-.874,4.317.029,6.424a7.046,7.046,0,0,1-.738-4.807,21.3,21.3,0,0,0,.282-3.364,29.933,29.933,0,0,0-.494-5.328,37.6,37.6,0,0,0-2.847-7.286,6.438,6.438,0,0,1-.71-2.8.732.732,0,0,1-.535-.123c-3.4.048-3.578-5.747-2.714-8.2a.981.981,0,0,1,.253-1.523,1.527,1.527,0,0,1,.223-.107c-.321-.128-.642-.259-.963-.4C131.575,100.525,131.729,100.011,132.047,100.034Zm5.19,3.05a19.041,19.041,0,0,0-3.245-1.575c-.193-.006-.721-.021-.828.161-.547.929,1.614,1.538,2,1.66,1.238.4,2.5.734,3.712,1.2.3.115.595.242.886.375A28.17,28.17,0,0,0,137.237,103.084ZM141.5,106.4a15.656,15.656,0,0,0-4.16-1.816c-.371-.109-1.081-.205-1.531-.305.753.909,4.63,5.348,5.149,5.775a19.366,19.366,0,0,0,3.759,2.412c1.084.534,2.261.859,3.359,1.347A56.227,56.227,0,0,0,141.5,106.4Zm7.931,9.483c-.354-.58-.727-1.149-1.109-1.713a14.5,14.5,0,0,1-6.575-2.87l2.336,2.77q2.208,2.619,4.411,5.238a10.72,10.72,0,0,0,4.17,3.4A36.026,36.026,0,0,0,149.434,115.88Zm5.187,21.527a37.179,37.179,0,0,0-1.778-14.213,5.248,5.248,0,0,1-3.389-1.926c-1.761-1.809-3.31-3.865-4.933-5.8l-5.031-5.995-.053-.062a21.512,21.512,0,0,1-2.871-3.305c-1.069,6.805,5.079,11.584,8.818,16.412a39.992,39.992,0,0,1,4.8,7.944C151.066,132.414,152.4,136.122,154.621,137.407Zm-9.1-6.82c.264,1.627,1.031,4.281,2.3,5.226a5.07,5.07,0,0,0,4.927.557,17.309,17.309,0,0,1-2.515-4.7,40.281,40.281,0,0,0-5.912-9.8c-.454-.553-.932-1.108-1.42-1.667a2.189,2.189,0,0,0-.793,2.07,4.572,4.572,0,0,0,.675,1.219,22.133,22.133,0,0,1,1.291,2.383A18.616,18.616,0,0,1,145.522,130.587Zm-8.7-16.757c.388.827.854,1.614,1.236,2.443a23.162,23.162,0,0,1,1.8,5.826,23.568,23.568,0,0,1,.275,5.533c1.939,1.179,2.778,3.687,5.147,4.1-.067-.34-.129-.682-.191-1.021a19.847,19.847,0,0,0-1.394-4.608c-.566-1.254-1.492-2.355-2.007-3.618-.365-.895-.15-2.534.9-2.634-2.675-3.053-5.464-6-6.281-9.843A5.141,5.141,0,0,0,136.817,113.831Zm-.643-4.246s.009,0,.012,0a10.306,10.306,0,0,1-.01-3.949.257.257,0,0,1,.011-.026c-.415-.519-.815-1.05-1.188-1.594-.155-.041-.307-.088-.46-.133-1.5.3-.127,6.434,1.154,6.606A2.164,2.164,0,0,1,136.175,109.585Zm-3.588-6.67c-.324,2.383-.521,6.532,1.98,7.376a11.749,11.749,0,0,1-.916-3.5c-.064-.433-.322-2.582.32-3.1A4.26,4.26,0,0,1,132.586,102.915Z" transform="translate(-131.715 -100.033)" fill="#333"/>
          </g>
        </g>
      </g>
      <g id="组_280" data-name="组 280" transform="translate(30.149 17.694)">
        <g id="组_279" data-name="组 279">
          <path id="路径_469" data-name="路径 469" d="M120.3,86.89s1.124,1.725,2.279,6.472c.849-.911.783-2.278.707-4.177a5.344,5.344,0,0,0-1.232-3.58A7.164,7.164,0,0,0,120.3,86.89Z" transform="translate(-120.297 -85.606)" fill="#fbcc02"/>
        </g>
      </g>
      <g id="组_282" data-name="组 282" transform="translate(37.318 17.694)">
        <g id="组_281" data-name="组 281">
          <path id="路径_470" data-name="路径 470" d="M129.819,87.019s-1.2,1.6-2.358,6.343c-.849-.911-.783-2.278-.706-4.177.049-1.241.3-2.85,1.147-3.58A8.661,8.661,0,0,1,129.819,87.019Z" transform="translate(-126.713 -85.606)" fill="#fbcc02"/>
        </g>
      </g>
      <g id="组_284" data-name="组 284" transform="translate(31.684 10.274)">
        <g id="组_283" data-name="组 283">
          <path id="路径_471" data-name="路径 471" d="M124.631,85.808a3.355,3.355,0,0,1-2.042-3.093,6.3,6.3,0,0,0-.918-3.7,3.851,3.851,0,0,1,2.431,2.911A17.081,17.081,0,0,1,124.631,85.808Z" transform="translate(-121.671 -79.01)" fill="#333"/>
        </g>
      </g>
      <g id="组_286" data-name="组 286" transform="translate(36.108 10.274)">
        <g id="组_285" data-name="组 285">
          <path id="路径_472" data-name="路径 472" d="M125.631,85.808a3.355,3.355,0,0,0,2.042-3.093,6.3,6.3,0,0,1,.919-3.7,3.851,3.851,0,0,0-2.432,2.911A17.081,17.081,0,0,0,125.631,85.808Z" transform="translate(-125.631 -79.01)" fill="#333"/>
        </g>
      </g>
      <g id="组_288" data-name="组 288" transform="translate(41.273 21.598)">
        <g id="组_287" data-name="组 287">
          <path id="路径_473" data-name="路径 473" d="M130.214,97.826a25.753,25.753,0,0,0,6.393-3.621c4.248-3.122,5.308-5.106,5.308-5.106s2.018,1.528-2.265,4.933a58.478,58.478,0,0,1-7.77,5.279Z" transform="translate(-130.214 -89.1)" fill="#333"/>
        </g>
      </g>
      <g id="组_290" data-name="组 290" transform="translate(51.205 14.482)">
        <g id="组_289" data-name="组 289">
          <path id="路径_474" data-name="路径 474" d="M140.933,90.892a25.97,25.97,0,0,1-1.2-3.772c-.26-1.171-.463-2.318-.582-3.033a3.625,3.625,0,0,1,.291-1.359,11.179,11.179,0,0,1,1.44,3.194A7.742,7.742,0,0,1,140.933,90.892Z" transform="translate(-139.146 -82.728)" fill="#333"/>
        </g>
      </g>
      <g id="组_292" data-name="组 292" transform="translate(51.216)">
        <g id="组_291" data-name="组 291">
          <path id="路径_475" data-name="路径 475" d="M139.148,85.37c-.179-1.047,1.248-3.065,2.517-5.342.647-1.16,2.521-7.027,2.713-7.593,1.125-3.308,2.173-3.506,1.71-.86-.176,1.008-2.657,8.453-3.827,10.322A19.077,19.077,0,0,1,139.148,85.37Z" transform="translate(-139.132 -69.754)" fill="#333"/>
        </g>
      </g>
      <g id="组_294" data-name="组 294" transform="translate(16.616 21.598)">
        <g id="组_293" data-name="组 293">
          <path id="路径_476" data-name="路径 476" d="M120.345,97.826a25.753,25.753,0,0,1-6.393-3.621c-4.248-3.122-5.308-5.106-5.308-5.106s-2.018,1.528,2.265,4.933a58.478,58.478,0,0,0,7.77,5.279Z" transform="translate(-108.169 -89.1)" fill="#333"/>
        </g>
      </g>
      <g id="组_296" data-name="组 296" transform="translate(16.715 14.482)">
        <g id="组_295" data-name="组 295">
          <path id="路径_477" data-name="路径 477" d="M108.632,90.892a25.968,25.968,0,0,0,1.2-3.772c.26-1.171.463-2.318.582-3.033a3.625,3.625,0,0,0-.291-1.359,11.178,11.178,0,0,0-1.44,3.194A7.742,7.742,0,0,0,108.632,90.892Z" transform="translate(-108.275 -82.728)" fill="#333"/>
        </g>
      </g>
      <g id="组_298" data-name="组 298" transform="translate(11.781)">
        <g id="组_297" data-name="组 297">
          <path id="路径_478" data-name="路径 478" d="M110.906,85.37c.179-1.047-1.248-3.065-2.517-5.342-.647-1.16-2.521-7.027-2.713-7.593-1.125-3.308-2.173-3.506-1.71-.86.176,1.008,2.657,8.453,3.827,10.322A19.077,19.077,0,0,0,110.906,85.37Z" transform="translate(-103.853 -69.754)" fill="#333"/>
        </g>
      </g>
    </g>
    <g id="组_301" data-name="组 301" transform="translate(95.364 80.854)">
      <g id="组_300" data-name="组 300" transform="translate(0 0)">
        <path id="路径_849" data-name="路径 849" d="M0,0,86.512-.3l-.018,5.2L-.018,5.2Z" transform="translate(0 61.624) rotate(-45.228)" fill="#f23812"/>
      </g>
    </g>
  </g>
</svg>
