<svg xmlns="http://www.w3.org/2000/svg" width="69.333" height="77.653" viewBox="0 0 69.333 77.653">
  <g id="happy_shopping_color" transform="translate(-1142.856 -597)">
    <path id="路径_248" data-name="路径 248" d="M687.26,1140.552a3.789,3.789,0,1,0,3.766,3.812A3.789,3.789,0,0,0,687.26,1140.552Z" transform="translate(479.095 -496.754)" fill="#545454"/>
    <path id="路径_249" data-name="路径 249" d="M744.861,1140.812a3.789,3.789,0,1,0,3.766,3.812A3.789,3.789,0,0,0,744.861,1140.812Z" transform="translate(452.054 -496.876)" fill="#545454"/>
    <path id="路径_250" data-name="路径 250" d="M687.887,1126.454a.72.72,0,0,1-.132.508.933.933,0,0,1-.945,0,.686.686,0,0,1-.13-.486.726.726,0,0,1,.133-.512.678.678,0,0,1,.478-.13.66.66,0,0,1,.467.128A.691.691,0,0,1,687.887,1126.454Z" transform="translate(477.578 -489.846)" fill="#249499"/>
    <path id="路径_251" data-name="路径 251" d="M693.4,1123.406a1.229,1.229,0,0,1-.116.544,1.088,1.088,0,0,1-.328.394,1.475,1.475,0,0,1-.5.239,2.369,2.369,0,0,1-.626.079,2.473,2.473,0,0,1-.388-.031,2.32,2.32,0,0,1-.331-.078,1.607,1.607,0,0,1-.244-.1.588.588,0,0,1-.143-.091.279.279,0,0,1-.069-.134,1.136,1.136,0,0,1-.025-.27,1.514,1.514,0,0,1,.009-.19.427.427,0,0,1,.023-.114.109.109,0,0,1,.041-.057.123.123,0,0,1,.061-.014.292.292,0,0,1,.132.051c.058.033.131.07.218.112a2.477,2.477,0,0,0,.3.114,1.343,1.343,0,0,0,.393.052.918.918,0,0,0,.246-.029.586.586,0,0,0,.187-.081.35.35,0,0,0,.12-.134.426.426,0,0,0,.04-.187.307.307,0,0,0-.075-.209.685.685,0,0,0-.2-.153,2.392,2.392,0,0,0-.281-.121c-.1-.038-.211-.081-.32-.126a2.763,2.763,0,0,1-.321-.159,1.205,1.205,0,0,1-.28-.219,1,1,0,0,1-.2-.314,1.155,1.155,0,0,1-.075-.439,1.106,1.106,0,0,1,.1-.478,1.033,1.033,0,0,1,.293-.372,1.391,1.391,0,0,1,.465-.239,2.052,2.052,0,0,1,.615-.086,2.193,2.193,0,0,1,.332.025,2.353,2.353,0,0,1,.291.061,1.307,1.307,0,0,1,.219.08.669.669,0,0,1,.128.073.2.2,0,0,1,.054.061.289.289,0,0,1,.025.073c0,.029.01.064.014.106s.006.094.006.156,0,.134-.006.179a.467.467,0,0,1-.02.11.1.1,0,0,1-.039.055.115.115,0,0,1-.057.013.268.268,0,0,1-.114-.042c-.051-.028-.116-.058-.193-.091a2.163,2.163,0,0,0-.268-.091,1.276,1.276,0,0,0-.347-.042.883.883,0,0,0-.24.028.454.454,0,0,0-.167.081.328.328,0,0,0-.1.124.346.346,0,0,0-.033.152.3.3,0,0,0,.077.212.716.716,0,0,0,.2.151,2.172,2.172,0,0,0,.287.121c.107.039.216.08.325.125a2.709,2.709,0,0,1,.325.156,1.215,1.215,0,0,1,.286.219,1.044,1.044,0,0,1,.2.311A1.11,1.11,0,0,1,693.4,1123.406Z" transform="translate(475.724 -487.375)" fill="#249499"/>
    <path id="路径_252" data-name="路径 252" d="M700.913,1122.959a.113.113,0,0,1-.024.072.183.183,0,0,1-.081.05.721.721,0,0,1-.156.031c-.067.006-.149.01-.247.01s-.184,0-.249-.01a.718.718,0,0,1-.157-.031.184.184,0,0,1-.081-.05.112.112,0,0,1-.024-.072v-2.069a1.756,1.756,0,0,0-.039-.414.822.822,0,0,0-.112-.258.5.5,0,0,0-.189-.167.6.6,0,0,0-.271-.058.676.676,0,0,0-.394.143,2.142,2.142,0,0,0-.414.413v2.411a.113.113,0,0,1-.024.072.192.192,0,0,1-.083.05.767.767,0,0,1-.157.031c-.065.006-.147.01-.247.01s-.182,0-.248-.01a.775.775,0,0,1-.157-.031.193.193,0,0,1-.083-.05.117.117,0,0,1-.024-.072v-5.344a.128.128,0,0,1,.024-.074.19.19,0,0,1,.083-.054.653.653,0,0,1,.157-.035,2.419,2.419,0,0,1,.5,0,.647.647,0,0,1,.157.035.189.189,0,0,1,.083.054.123.123,0,0,1,.024.074v2a1.973,1.973,0,0,1,.538-.388,1.347,1.347,0,0,1,.572-.128,1.431,1.431,0,0,1,.623.123,1.087,1.087,0,0,1,.411.332,1.373,1.373,0,0,1,.225.494,2.923,2.923,0,0,1,.07.685Z" transform="translate(472.522 -485.904)" fill="#249499"/>
    <path id="路径_253" data-name="路径 253" d="M709.5,1122.581a2.777,2.777,0,0,1-.122.846,1.786,1.786,0,0,1-.37.657,1.642,1.642,0,0,1-.622.427,2.332,2.332,0,0,1-.873.151,2.389,2.389,0,0,1-.842-.135,1.52,1.52,0,0,1-.593-.39,1.6,1.6,0,0,1-.35-.63,2.936,2.936,0,0,1-.114-.855,2.756,2.756,0,0,1,.124-.847,1.8,1.8,0,0,1,.372-.659,1.678,1.678,0,0,1,.62-.424,2.32,2.32,0,0,1,.872-.151,2.427,2.427,0,0,1,.845.133,1.476,1.476,0,0,1,.592.388,1.614,1.614,0,0,1,.348.63A2.95,2.95,0,0,1,709.5,1122.581Zm-1.053.04a2.586,2.586,0,0,0-.042-.493,1.15,1.15,0,0,0-.143-.392.727.727,0,0,0-.271-.26.866.866,0,0,0-.424-.094.905.905,0,0,0-.4.083.731.731,0,0,0-.281.244,1.188,1.188,0,0,0-.165.386,2.215,2.215,0,0,0-.054.514,2.551,2.551,0,0,0,.044.494,1.209,1.209,0,0,0,.144.392.692.692,0,0,0,.27.258.893.893,0,0,0,.423.091.916.916,0,0,0,.4-.083.721.721,0,0,0,.28-.242,1.126,1.126,0,0,0,.163-.384A2.29,2.29,0,0,0,708.446,1122.62Z" transform="translate(468.69 -487.375)" fill="#249499"/>
    <path id="路径_254" data-name="路径 254" d="M718.269,1122.565a3.358,3.358,0,0,1-.1.871,1.957,1.957,0,0,1-.3.661,1.344,1.344,0,0,1-.5.419,1.516,1.516,0,0,1-.678.146,1.324,1.324,0,0,1-.291-.031,1.125,1.125,0,0,1-.257-.094,1.559,1.559,0,0,1-.246-.156,2.876,2.876,0,0,1-.252-.219v1.707a.118.118,0,0,1-.024.073.185.185,0,0,1-.083.055.746.746,0,0,1-.157.035,2.515,2.515,0,0,1-.495,0,.76.76,0,0,1-.157-.035.188.188,0,0,1-.083-.055.121.121,0,0,1-.024-.073V1120.8a.118.118,0,0,1,.021-.072.143.143,0,0,1,.07-.05.55.55,0,0,1,.135-.031,2.13,2.13,0,0,1,.415,0,.535.535,0,0,1,.133.031.15.15,0,0,1,.072.05.129.129,0,0,1,.021.072v.427a3.564,3.564,0,0,1,.311-.288,1.831,1.831,0,0,1,.31-.206,1.4,1.4,0,0,1,.327-.124,1.54,1.54,0,0,1,.359-.041,1.376,1.376,0,0,1,.68.157,1.285,1.285,0,0,1,.457.428,1.936,1.936,0,0,1,.258.634A3.545,3.545,0,0,1,718.269,1122.565Zm-1.065.072a2.8,2.8,0,0,0-.034-.444,1.307,1.307,0,0,0-.118-.38.72.72,0,0,0-.22-.266.56.56,0,0,0-.339-.1.669.669,0,0,0-.2.031.753.753,0,0,0-.2.1,1.363,1.363,0,0,0-.213.179,2.424,2.424,0,0,0-.232.273v1.194a2.346,2.346,0,0,0,.411.421.656.656,0,0,0,.406.148.558.558,0,0,0,.338-.1.792.792,0,0,0,.23-.266,1.391,1.391,0,0,0,.132-.371A2.081,2.081,0,0,0,717.2,1122.637Z" transform="translate(464.462 -487.375)" fill="#249499"/>
    <path id="路径_255" data-name="路径 255" d="M726.845,1122.565a3.365,3.365,0,0,1-.1.871,1.968,1.968,0,0,1-.3.661,1.346,1.346,0,0,1-.5.419,1.518,1.518,0,0,1-.679.146,1.323,1.323,0,0,1-.291-.031,1.131,1.131,0,0,1-.257-.094,1.561,1.561,0,0,1-.245-.156,2.959,2.959,0,0,1-.252-.219v1.707a.118.118,0,0,1-.024.073.183.183,0,0,1-.083.055.758.758,0,0,1-.158.035,2.51,2.51,0,0,1-.495,0,.759.759,0,0,1-.157-.035.184.184,0,0,1-.083-.055.118.118,0,0,1-.024-.073V1120.8a.121.121,0,0,1,.021-.072.146.146,0,0,1,.07-.05.54.54,0,0,1,.134-.031,2.129,2.129,0,0,1,.415,0,.535.535,0,0,1,.134.031.148.148,0,0,1,.071.05.125.125,0,0,1,.021.072v.427a3.608,3.608,0,0,1,.311-.288,1.83,1.83,0,0,1,.311-.206,1.392,1.392,0,0,1,.327-.124,1.545,1.545,0,0,1,.359-.041,1.376,1.376,0,0,1,.68.157,1.284,1.284,0,0,1,.457.428,1.937,1.937,0,0,1,.258.634A3.545,3.545,0,0,1,726.845,1122.565Zm-1.065.072a2.814,2.814,0,0,0-.034-.444,1.3,1.3,0,0,0-.119-.38.711.711,0,0,0-.219-.266.563.563,0,0,0-.339-.1.662.662,0,0,0-.2.031.741.741,0,0,0-.2.1,1.335,1.335,0,0,0-.213.179,2.424,2.424,0,0,0-.232.273v1.194a2.344,2.344,0,0,0,.411.421.657.657,0,0,0,.406.148.557.557,0,0,0,.338-.1.8.8,0,0,0,.231-.266,1.391,1.391,0,0,0,.132-.371A2.085,2.085,0,0,0,725.78,1122.637Z" transform="translate(460.436 -487.375)" fill="#249499"/>
    <path id="路径_256" data-name="路径 256" d="M732.8,1118.228a.568.568,0,0,1-.126.426.686.686,0,0,1-.467.118.7.7,0,0,1-.466-.113.559.559,0,0,1-.119-.411.586.586,0,0,1,.124-.428.681.681,0,0,1,.469-.12.69.69,0,0,1,.464.116A.56.56,0,0,1,732.8,1118.228Zm-.077,4.853a.112.112,0,0,1-.024.072.184.184,0,0,1-.083.05.767.767,0,0,1-.158.031c-.065.006-.147.01-.247.01s-.183,0-.248-.01a.767.767,0,0,1-.157-.031.185.185,0,0,1-.083-.05.112.112,0,0,1-.024-.072v-3.617a.113.113,0,0,1,.024-.072.191.191,0,0,1,.083-.052.724.724,0,0,1,.157-.036,2.646,2.646,0,0,1,.495,0,.724.724,0,0,1,.158.036.191.191,0,0,1,.083.052.113.113,0,0,1,.024.072Z" transform="translate(456.478 -486.027)" fill="#249499"/>
    <path id="路径_257" data-name="路径 257" d="M739.246,1124.43a.116.116,0,0,1-.024.072.189.189,0,0,1-.081.05.734.734,0,0,1-.157.031c-.067.006-.149.01-.247.01s-.183,0-.249-.01a.724.724,0,0,1-.157-.031.187.187,0,0,1-.081-.05.111.111,0,0,1-.023-.072v-2.069a1.788,1.788,0,0,0-.039-.414.836.836,0,0,0-.113-.258.5.5,0,0,0-.188-.167.6.6,0,0,0-.271-.058.675.675,0,0,0-.394.143,2.133,2.133,0,0,0-.415.413v2.411a.113.113,0,0,1-.024.072.186.186,0,0,1-.083.05.774.774,0,0,1-.158.031c-.065.006-.147.01-.247.01s-.183,0-.248-.01a.775.775,0,0,1-.157-.031.186.186,0,0,1-.083-.05.113.113,0,0,1-.024-.072V1120.8a.121.121,0,0,1,.021-.072.145.145,0,0,1,.072-.05.575.575,0,0,1,.136-.031,1.894,1.894,0,0,1,.209-.01,2.009,2.009,0,0,1,.216.01.488.488,0,0,1,.132.031.152.152,0,0,1,.067.05.126.126,0,0,1,.02.072v.418a2.334,2.334,0,0,1,.612-.488,1.393,1.393,0,0,1,.648-.162,1.424,1.424,0,0,1,.623.123,1.094,1.094,0,0,1,.411.331,1.362,1.362,0,0,1,.225.489,2.864,2.864,0,0,1,.07.676Z" transform="translate(454.527 -487.375)" fill="#249499"/>
    <path id="路径_258" data-name="路径 258" d="M747.27,1121.071a.727.727,0,0,1-.044.289c-.031.063-.067.093-.11.093h-.426a.59.59,0,0,1,.127.221.857.857,0,0,1,.039.258,1.417,1.417,0,0,1-.106.562,1.118,1.118,0,0,1-.3.415,1.33,1.33,0,0,1-.476.256,2.077,2.077,0,0,1-.62.087,1.262,1.262,0,0,1-.333-.042.829.829,0,0,1-.244-.1.635.635,0,0,0-.088.126.355.355,0,0,0-.039.162.229.229,0,0,0,.1.193.518.518,0,0,0,.291.083l.882.033a2.18,2.18,0,0,1,.55.088,1.184,1.184,0,0,1,.406.211.908.908,0,0,1,.252.328,1.023,1.023,0,0,1,.088.434,1.122,1.122,0,0,1-.118.505,1.137,1.137,0,0,1-.353.413,1.825,1.825,0,0,1-.592.276,3.034,3.034,0,0,1-.831.1,3.67,3.67,0,0,1-.79-.072,1.731,1.731,0,0,1-.537-.2.821.821,0,0,1-.305-.311.839.839,0,0,1-.1-.4.925.925,0,0,1,.034-.257.977.977,0,0,1,.1-.234,1.246,1.246,0,0,1,.164-.213,1.75,1.75,0,0,1,.224-.2.68.68,0,0,1-.27-.254.671.671,0,0,1-.1-.352.892.892,0,0,1,.109-.437,1.412,1.412,0,0,1,.285-.356,1.05,1.05,0,0,1-.228-.341,1.245,1.245,0,0,1-.086-.5,1.365,1.365,0,0,1,.112-.567,1.2,1.2,0,0,1,.31-.423,1.369,1.369,0,0,1,.476-.264,1.923,1.923,0,0,1,.609-.092,2.5,2.5,0,0,1,.328.021,2.079,2.079,0,0,1,.29.057h1.151c.046,0,.083.03.112.09A.765.765,0,0,1,747.27,1121.071Zm-1.073,3.752a.316.316,0,0,0-.146-.281.762.762,0,0,0-.4-.106l-.728-.02a1.041,1.041,0,0,0-.169.149.886.886,0,0,0-.1.135.431.431,0,0,0-.052.126.752.752,0,0,0-.012.127.336.336,0,0,0,.2.309,1.305,1.305,0,0,0,.58.1,1.447,1.447,0,0,0,.391-.046.785.785,0,0,0,.256-.124.446.446,0,0,0,.138-.173A.505.505,0,0,0,746.2,1124.823Zm-.239-2.894a.618.618,0,0,0-.163-.455.624.624,0,0,0-.459-.163.636.636,0,0,0-.265.051.526.526,0,0,0-.189.138.554.554,0,0,0-.111.2.765.765,0,0,0-.037.242.585.585,0,0,0,.162.437.613.613,0,0,0,.451.161.686.686,0,0,0,.269-.049.521.521,0,0,0,.189-.135.576.576,0,0,0,.114-.2A.712.712,0,0,0,745.958,1121.929Z" transform="translate(450.857 -487.389)" fill="#249499"/>
    <path id="路径_259" data-name="路径 259" d="M746.828,1096.615a1.11,1.11,0,0,0,.71.693.976.976,0,0,0,.864-.157,2.017,2.017,0,0,0,.65-1.134,2.114,2.114,0,0,0,.037-1.372,1.063,1.063,0,0,0-1.61-.478,1.808,1.808,0,0,0-.652,1.052A2.088,2.088,0,0,0,746.828,1096.615Z" transform="translate(449.398 -474.885)" fill="#e6d15d"/>
    <path id="路径_260" data-name="路径 260" d="M744.154,1077.792a8.9,8.9,0,1,0,6.13,11A8.9,8.9,0,0,0,744.154,1077.792Zm-1.673,7.273a2.369,2.369,0,0,1,1.525,1.318,3.163,3.163,0,0,1,.132,2.318,3.234,3.234,0,0,1-1.4,1.984,2.828,2.828,0,0,1-4.041-1.39,5.822,5.822,0,0,1,.146-3.687,5.933,5.933,0,0,1,1.876-3.3,2.864,2.864,0,0,1,2.566-.445,2.418,2.418,0,0,1,1.45,1.028,2.827,2.827,0,0,1,.343,1.888l-1.639-.267a1.282,1.282,0,0,0-.088-.843.9.9,0,0,0-.566-.425,1.1,1.1,0,0,0-1.017.238,4.432,4.432,0,0,0-1.03,1.9A1.959,1.959,0,0,1,742.481,1085.065Z" transform="translate(455.92 -467.132)" fill="#e6d15d"/>
    <path id="路径_261" data-name="路径 261" d="M693.2,1078.3a3.342,3.342,0,0,0-4.318-1.89l-6.44,2.519a3.342,3.342,0,0,0-1.89,4.318l2.9,7.4a3.342,3.342,0,0,0,4.318,1.89l6.44-2.519a3.343,3.343,0,0,0,1.89-4.318Zm-1.2,10.644-1.854.714-2.692-6.99a6.863,6.863,0,0,1-1.855,2.328l-.649-1.683a5.74,5.74,0,0,0,1.231-1.508,3.667,3.667,0,0,0,.572-2l1.505-.58Z" transform="translate(480.56 -466.535)" fill="#fff"/>
    <path id="路径_262" data-name="路径 262" d="M693.2,1078.3a3.342,3.342,0,0,0-4.318-1.89l-6.44,2.519a3.342,3.342,0,0,0-1.89,4.318l2.9,7.4a3.342,3.342,0,0,0,4.318,1.89l6.44-2.519a3.343,3.343,0,0,0,1.89-4.318Zm-1.2,10.644-1.854.714-2.692-6.99a6.863,6.863,0,0,1-1.855,2.328l-.649-1.683a5.74,5.74,0,0,0,1.231-1.508,3.667,3.667,0,0,0,.572-2l1.505-.58Z" transform="translate(480.56 -466.535)" fill="#80b98b"/>
    <path id="路径_263" data-name="路径 263" d="M701.129,1063.659l8.042,18.449a1.572,1.572,0,0,0,2.705.306l11.957-16.188a1.572,1.572,0,0,0-1.088-2.5l-20-2.26A1.572,1.572,0,0,0,701.129,1063.659Zm13.687,6.573a18.044,18.044,0,0,0-2.033,3.927,16.219,16.219,0,0,0-.977,3.825l-2.249-.261a17.665,17.665,0,0,1,1.677-5.349,18.7,18.7,0,0,1,3.2-4.68l-5.3-.615h0l.267-2.3,7.973.925-.15,1.293a1.362,1.362,0,0,1-.432.838A14.928,14.928,0,0,0,714.815,1070.232Z" transform="translate(470.858 -459.624)" fill="#dd7676"/>
    <path id="路径_264" data-name="路径 264" d="M666.678,1086.624a1.065,1.065,0,0,1-1.014-.745c-2.175-6.927-4.533-13.925-6.306-18.72-.8-2.157-1.494-3.806-1.91-4.792-.141-.334-.25-.593-.321-.771-.441-1.106-1.7-3.823-3.8-5.16a5.451,5.451,0,0,0-2.808-.868c-1.531-.041-3.006-.022-3.005-.022H647.5a1.064,1.064,0,0,1-.012-2.127s1.514-.019,3.086.023a7.546,7.546,0,0,1,3.89,1.2c2.633,1.669,4.122,4.87,4.641,6.168.067.169.171.415.305.731.424,1,1.132,2.68,1.946,4.882,1.784,4.826,4.154,11.862,6.34,18.82a1.065,1.065,0,0,1-1.016,1.383Z" transform="translate(496.472 -455.848)" fill="#545454"/>
    <path id="路径_265" data-name="路径 265" d="M719,1103H679.43a6.028,6.028,0,0,1-5.833-6.247c0-5.077,4.9-6.22,6.613-6.22h37.575c.042,0,4.218-.152,5.279-5.6.517-2.656,3.267-17.628,3.3-17.779a1.064,1.064,0,0,1,2.092.384c-.028.151-2.78,15.134-3.3,17.8-1.17,6.009-5.715,7.325-7.367,7.325H680.21c-.162.006-4.486.2-4.486,4.092a3.953,3.953,0,0,0,3.765,4.121l39.515,0a1.064,1.064,0,0,1,0,2.127Z" transform="translate(483.72 -461.888)" fill="#545454"/>
    <path id="路径_266" data-name="路径 266" d="M711.178,1156.1a11.986,11.986,0,0,1-7.648-2.761,1.064,1.064,0,1,1,1.36-1.636,9.853,9.853,0,0,0,6.288,2.27,9.741,9.741,0,0,0,6.067-2.092,1.063,1.063,0,0,1,1.313,1.674A11.847,11.847,0,0,1,711.178,1156.1Z" transform="translate(469.848 -501.874)" fill="#545454"/>
    <circle id="椭圆_1" data-name="椭圆 1" cx="1.631" cy="1.631" r="1.631" transform="translate(1142.856 597)" fill="#545454"/>
    <path id="路径_267" data-name="路径 267" d="M694.312,1171.614a.855.855,0,0,1,.414.312.54.54,0,0,1-.043.476l-.594,1.333a5.509,5.509,0,0,0-.55,1.931,11.756,11.756,0,0,0,.442,3.04.55.55,0,0,1,.005.5.641.641,0,0,1-.355.351.755.755,0,0,1-.632-.041.389.389,0,0,1-.173-.247,11.7,11.7,0,0,1-.416-3.254c0-.039-.011-.061-.026-.068s-.045,0-.085.033a10.427,10.427,0,0,1-2.608,1.822.5.5,0,0,1-.431.047.672.672,0,0,1-.362-.458.038.038,0,0,1,0-.029.645.645,0,0,1-.338-.066l-4.211-1.875a.766.766,0,0,1-.439-1.143l.893-2.006a1.356,1.356,0,0,1-.478-.07.587.587,0,0,1-.3-.346.647.647,0,0,1,.011-.4.443.443,0,0,1,.261-.237,12.424,12.424,0,0,0,2.568-1.8.669.669,0,0,1,.16-.042l-.684-.3c-.378-.169-.489-.425-.335-.772l.54-1.215a.573.573,0,0,1,.866-.292l1.51.673a.573.573,0,0,1,.349.834l-.542,1.215a.5.5,0,0,1-.749.288l-.485-.216a1.791,1.791,0,0,1,.129.155.535.535,0,0,1,.036.427.668.668,0,0,1-.225.254.479.479,0,0,0-.078.078l1.191.531c.084-.1.177-.218.28-.341a.677.677,0,0,1,.713-.079.816.816,0,0,1,.378.3.385.385,0,0,1,.059.407,3.02,3.02,0,0,1-.214.259l1.357.6a.5.5,0,0,1,.281.225.639.639,0,0,1-.238.629.419.419,0,0,1-.422,0l-1.558-.694-.252.567,1.274.567c.158.071.248.144.271.22a.459.459,0,0,1-.046.389.446.446,0,0,1-.192.24.413.413,0,0,1-.4-.01l-1.274-.568-.258.578,1.215.541c.166.075.264.151.294.23a.5.5,0,0,1-.053.373.553.553,0,0,1-.2.264.45.45,0,0,1-.411-.029l-1.216-.54-.273.612,1.322.59a.477.477,0,0,1,.272.247,10.4,10.4,0,0,0,2.337-1.5,5.9,5.9,0,0,0,1.3-1.811l.626-1.4a.575.575,0,0,1,.319-.339A.75.75,0,0,1,694.312,1171.614Zm-7.786,3.644.272-.615-1.415-.63-.216.484a.126.126,0,0,0,.073.188Zm.646-1.45.258-.578-1.416-.631-.258.578Zm.63-1.417.253-.565-1.417-.631-.251.566Zm-.684-3.923.779.346c.077.036.131.022.159-.041l.211-.472c.045-.1.009-.179-.11-.233l-.766-.342c-.071-.03-.129,0-.174.106l-.21.472C686.979,1168.367,687.016,1168.421,687.119,1168.467Zm.688-3.61.944.42.058-.129a.615.615,0,0,1,.292-.337.649.649,0,0,1,.506.071c.229.1.352.193.371.278a.556.556,0,0,1-.036.492l-.058.13,1.463.652.058-.13a.58.58,0,0,1,.3-.332.614.614,0,0,1,.494.065c.229.1.352.2.371.278a.537.537,0,0,1-.023.5l-.058.129.979.436a.611.611,0,0,1,.33.274.577.577,0,0,1-.068.407.6.6,0,0,1-.23.294.529.529,0,0,1-.453-.031l-.979-.437-.083.188a.551.551,0,0,1-.3.331.667.667,0,0,1-.511-.057.6.6,0,0,1-.362-.331.5.5,0,0,1,.032-.452l.084-.189-1.462-.652-.085.189a.6.6,0,0,1-.291.337.671.671,0,0,1-.511-.059.649.649,0,0,1-.374-.336.529.529,0,0,1,.044-.447l.084-.188-.944-.421a.6.6,0,0,1-.307-.264.491.491,0,0,1,.045-.418.577.577,0,0,1,.28-.315A.6.6,0,0,1,687.806,1164.857Zm2.709,3.314,1.558.693q.608.286.362.839l-.541,1.216a.5.5,0,0,1-.751.288l-1.7-.756a.52.52,0,0,1-.324-.766l.541-1.216A.565.565,0,0,1,690.515,1168.171Zm-.282,1.683.826.369q.117.051.16-.043l.21-.47q.068-.155-.12-.239l-.8-.357c-.062-.027-.117.01-.163.112l-.21.472C690.106,1169.76,690.139,1169.812,690.233,1169.854Zm5.173-2.347a.886.886,0,0,1,.378.294.51.51,0,0,1,.005.5,7.886,7.886,0,0,1-.7,1.06c-.022.027-.042.051-.061.072l2.006.893a1.019,1.019,0,0,1,.479.383.571.571,0,0,1,0,.579,2.725,2.725,0,0,1-.236.4,11.69,11.69,0,0,1-1.576,2.013.652.652,0,0,1-.225.125.559.559,0,0,1-.372-.053.681.681,0,0,1-.386-.368.337.337,0,0,1,.009-.307,2.106,2.106,0,0,1,.222-.34,14.629,14.629,0,0,0,1.2-1.458c.014-.031-.01-.062-.073-.089l-1.817-.809q-.921,1.114-1.63,1.818a.522.522,0,0,1-.593.062.8.8,0,0,1-.333-.333.5.5,0,0,1,.025-.37,2.567,2.567,0,0,1,.287-.424,32.014,32.014,0,0,0,2.815-3.5A.46.46,0,0,1,695.406,1167.507Z" transform="translate(468.93 -508.13)" fill="#249499"/>
    <path id="路径_268" data-name="路径 268" d="M713.085,1171.887a.943.943,0,0,1,.4.122.472.472,0,0,1,.214.4,1.435,1.435,0,0,1-.15.555,9.481,9.481,0,0,1-.964,1.5,5.423,5.423,0,0,1,.469.613,15.652,15.652,0,0,0,.8-1.616.572.572,0,0,1,.507-.316.836.836,0,0,1,.438.109.454.454,0,0,1,.239.416,1.75,1.75,0,0,1-.215.591,14.6,14.6,0,0,1-2.005,2.995,9.739,9.739,0,0,0,1.074-.115,3.052,3.052,0,0,0-.1-.478.652.652,0,0,0-.05-.157.372.372,0,0,1,.419-.407.552.552,0,0,1,.564.305,7.221,7.221,0,0,1,.3,1.981c0,.266-.178.4-.523.406a.434.434,0,0,1-.459-.42c-.007-.1-.019-.207-.034-.31a4.1,4.1,0,0,1-.675.21,7.836,7.836,0,0,1-1.939.2.628.628,0,0,1-.451-.135.6.6,0,0,1-.161-.481.76.76,0,0,1,.109-.4.784.784,0,0,1,.571-.159h.052q.525-.65.974-1.316a17.48,17.48,0,0,0-1.285-1.439.612.612,0,0,1-.265-.469.423.423,0,0,1,.159-.307.417.417,0,0,1,.312-.151,1.274,1.274,0,0,1,.426.1,7.619,7.619,0,0,0,.834-1.512Q712.853,1171.886,713.085,1171.887Zm-1.706,7.429,4.714.066,0-.219a.672.672,0,0,1,.135-.437.659.659,0,0,1,.545-.173c.259,0,.417.049.475.135a.613.613,0,0,1,.175.494l0,.219,4.817.067a.694.694,0,0,1,.437.123.607.607,0,0,1,.123.455.77.77,0,0,1-.11.425.586.586,0,0,1-.467.186l-3.836-.053a25.251,25.251,0,0,0,4.1,2.279.5.5,0,0,1,.213.416.444.444,0,0,1-.25.371.867.867,0,0,1-.479.136,2.951,2.951,0,0,1-1.479-.487,29.071,29.071,0,0,1-3.093-2.251l-.031,2.208a.614.614,0,0,1-.148.449.672.672,0,0,1-.518.161.727.727,0,0,1-.528-.175.594.594,0,0,1-.135-.454l.03-2.131-.014.013a16.576,16.576,0,0,1-2.594,1.72,9.1,9.1,0,0,1-1.183.539,2.558,2.558,0,0,1-.79.143.65.65,0,0,1-.514-.227.615.615,0,0,1-.161-.441.6.6,0,0,1,.276-.421,17.229,17.229,0,0,0,2.781-1.163q.767-.416,1.315-.731l-3.822-.053a.609.609,0,0,1-.424-.148.658.658,0,0,1-.136-.479.648.648,0,0,1,.148-.451A.7.7,0,0,1,711.379,1179.316Zm5.583-7.516a.845.845,0,0,1,.4.082.4.4,0,0,1,.163.339q-.015.142-.14.721l.349.006a.723.723,0,0,1,.816.786.32.32,0,0,1,.194-.062,1.323,1.323,0,0,1,.477.11,7.406,7.406,0,0,0,1-1.471.534.534,0,0,1,.469-.318.971.971,0,0,1,.425.136.51.51,0,0,1,.24.442,1.071,1.071,0,0,1-.2.54,9.491,9.491,0,0,1-1.13,1.418,8.2,8.2,0,0,1,.559.641,13.1,13.1,0,0,0,.755-1.359.575.575,0,0,1,.521-.29.927.927,0,0,1,.438.1.457.457,0,0,1,.213.429,1.81,1.81,0,0,1-.2.539,14.508,14.508,0,0,1-2.236,2.9,7.616,7.616,0,0,0,1.49-.315,3.565,3.565,0,0,0-.159-.609c-.024-.105-.046-.161-.062-.169,0-.259.147-.393.432-.408a.557.557,0,0,1,.563.332,6.37,6.37,0,0,1,.385,2.072q-.006.387-.523.393a.418.418,0,0,1-.459-.407c-.016-.121-.027-.233-.034-.337a4.639,4.639,0,0,1-.883.31,7.269,7.269,0,0,1-2.147.28.573.573,0,0,1-.412-.122.469.469,0,0,1-.113-.195.935.935,0,0,1-.492.109l-1.77-.025a.73.73,0,0,1-.8-.85l.054-3.823a.719.719,0,0,1,.825-.8l.232,0q.083-.387.192-.837A.567.567,0,0,1,716.962,1171.8Zm.193,5.581a.182.182,0,0,0,.209-.2l.015-1.085-1.188-.015-.015,1.085c0,.137.062.207.191.209Zm-.949-2.337,1.188.017.013-.891c0-.129-.067-.2-.2-.2l-.788-.012a.171.171,0,0,0-.2.191Zm2.289,2.524a.649.649,0,0,1,.181-.023,16.308,16.308,0,0,0,1.274-1.467,15.094,15.094,0,0,0-1.414-1.467Z" transform="translate(464.691 -509.232)" fill="#249499"/>
    <path id="路径_269" data-name="路径 269" d="M736.4,1169.55l2.054-.846a.787.787,0,0,1,1.163.484l2.5,6.067a.776.776,0,0,1-.5,1.138l-2.053.847a.765.765,0,0,1-1.13-.471l-2.5-6.067A.775.775,0,0,1,736.4,1169.55Zm1.267,2.229,1.481-.609-.413-1a.24.24,0,0,0-.354-.148l-1,.414q-.226.092-.124.344Zm.866,2.1,1.481-.61-.453-1.1-1.481.609Zm2.115,1.644a.235.235,0,0,0,.153-.343l-.373-.907-1.481.61.374.907a.223.223,0,0,0,.325.147Zm-.727,1.862a.925.925,0,0,1,.462-.064.441.441,0,0,1,.344.293,1.254,1.254,0,0,1,.059.449,11.572,11.572,0,0,1-.2,1.775.541.541,0,0,1-.267.4.786.786,0,0,1-.5.051.52.52,0,0,1-.4-.3.713.713,0,0,1-.027-.337,15.585,15.585,0,0,0,.278-1.9.623.623,0,0,1,.062-.221A.436.436,0,0,1,739.918,1177.387Zm.252-9.153.944-.389-.083-.2a.609.609,0,0,1,0-.435.532.532,0,0,1,.325-.26.679.679,0,0,1,.462-.064.5.5,0,0,1,.32.3l.083.2,1.326-.545-.084-.2a.613.613,0,0,1,0-.435.534.534,0,0,1,.326-.26.683.683,0,0,1,.463-.064.521.521,0,0,1,.307.305l.083.2.872-.359a.551.551,0,0,1,.415-.046c.094.027.18.132.255.314a.589.589,0,0,1,.055.368.552.552,0,0,1-.336.306l-.872.358.217.526.728-.3a.548.548,0,0,1,.42-.033c.1.027.179.132.255.313a.59.59,0,0,1,.054.369.578.578,0,0,1-.335.306l-.729.3.2.478,1.051-.434a.61.61,0,0,1,.427-.049.574.574,0,0,1,.248.331.707.707,0,0,1,.069.4.506.506,0,0,1-.331.319l-2.233.918.2.478,1.48-.61q.752-.31,1.008.311l.949,2.3.251-.1a.584.584,0,0,1,.414-.045q.142.04.26.325a.687.687,0,0,1,.064.394.531.531,0,0,1-.326.329l-.25.1.546,1.326a.78.78,0,0,1,.051.636,1.118,1.118,0,0,1-.552.422l-.453.188a3.473,3.473,0,0,1-.428.147.849.849,0,0,1-.514-.025.673.673,0,0,1-.293-.341.908.908,0,0,1-.073-.278.464.464,0,0,1,.148-.353,1.288,1.288,0,0,1,.381-.227l.358-.148c.056-.023.069-.07.04-.142l-.309-.752-3.427,1.411.668,1.624c.118.287-.019.511-.408.67-.352.145-.585.073-.7-.212l-.669-1.624-.275.113a.551.551,0,0,1-.42.033.658.658,0,0,1-.274-.361.65.65,0,0,1-.05-.428.636.636,0,0,1,.331-.247l.275-.113-.949-2.3q-.255-.622.425-.9l1.576-.651-.2-.477-2.305.95a.551.551,0,0,1-.407.027.743.743,0,0,1-.319-.776.587.587,0,0,1,.314-.254l1.1-.453-.2-.478-.7.291a.617.617,0,0,1-.415.045c-.106-.031-.2-.137-.272-.321a.533.533,0,0,1-.028-.408.581.581,0,0,1,.321-.271l.7-.29-.216-.525-.943.388a.588.588,0,0,1-.415.046.532.532,0,0,1-.26-.328.56.56,0,0,1-.041-.4A.58.58,0,0,1,740.17,1168.234Zm1.248,8.593a.741.741,0,0,1,.591.078,11.212,11.212,0,0,0,1.3,1.155.268.268,0,0,1,.174.153.493.493,0,0,1-.044.436.757.757,0,0,1-.374.28.564.564,0,0,1-.4.012,13.417,13.417,0,0,1-1.4-1.267.483.483,0,0,1-.194-.2.357.357,0,0,1,.007-.325A.648.648,0,0,1,741.418,1176.826Zm2.737-8.516-.217-.526-1.325.546.216.525Zm-.735,1.979,1.325-.546-.2-.478-1.326.546Zm.174,3.405,1.146-.472-.216-.525-1.1.454c-.033.013-.037.047-.014.1Zm.589,1.434,1.147-.472-.236-.573-1.147.473Zm1.487-2.9.216.525,1.135-.466-.2-.478c-.013-.032-.047-.036-.1-.014Zm.571,1.386.236.573,1.135-.467-.236-.574Z" transform="translate(460.755 -508.299)" fill="#249499"/>
  </g>
</svg>
