<svg id="license" xmlns="http://www.w3.org/2000/svg" xmlns:xlink="http://www.w3.org/1999/xlink" width="499.032" height="318.401" viewBox="0 0 499.032 318.401">
  <defs>
    <radialGradient id="radial-gradient" cx="0.5" cy="0.5" r="0.5" gradientTransform="translate(0)" gradientUnits="objectBoundingBox">
      <stop offset="0" stop-color="#c13935"/>
      <stop offset="0.181" stop-color="#bd3733"/>
      <stop offset="0.359" stop-color="#b13430"/>
      <stop offset="0.537" stop-color="#9d2d2b"/>
      <stop offset="0.713" stop-color="#812523"/>
      <stop offset="0.888" stop-color="#5e1a1a"/>
      <stop offset="0.974" stop-color="#4a1415"/>
    </radialGradient>
    <clipPath id="clip-path">
      <rect id="矩形_137" data-name="矩形 137" width="264.166" height="165.637" rx="20.686" fill="none"/>
    </clipPath>
  </defs>
  <path id="路径_7039" data-name="路径 7039" d="M305.479,356.568C172.111,356.568,64,380.329,64,276.867S172.111,89.533,305.479,89.533s241.484,83.873,241.484,187.334-108.116,79.7-241.484,79.7" transform="translate(-51.292 -62.908)" fill="#6170cf"/>
  <g id="组_9612" data-name="组 9612" transform="translate(0 0)">
    <ellipse id="椭圆_10" data-name="椭圆 10" cx="244.845" cy="23.812" rx="244.845" ry="23.812" transform="translate(9.342 270.778)" fill="#5865bf"/>
    <g id="组_9611" data-name="组 9611">
      <g id="组_9584" data-name="组 9584" transform="translate(0 136.88)">
        <g id="组_9583" data-name="组 9583">
          <g id="组_9578" data-name="组 9578" transform="translate(26.336 100.498)">
            <path id="路径_7040" data-name="路径 7040" d="M197.458,361.99H81.553v6.49h44.484A18.721,18.721,0,0,1,144.758,387.2h0a18.721,18.721,0,0,1-18.721,18.721H81.553v6.491H197.458A25.213,25.213,0,0,0,222.671,387.2h0A25.213,25.213,0,0,0,197.458,361.99Z" transform="translate(-81.553 -361.99)" fill="#f76767"/>
            <path id="路径_7041" data-name="路径 7041" d="M197.4,370.349H85.33v37.443H197.4a18.721,18.721,0,0,0,18.721-18.721h0A18.721,18.721,0,0,0,197.4,370.349Z" transform="translate(-82.397 -363.859)" fill="#fefefe"/>
            <g id="组_9577" data-name="组 9577" transform="translate(2.933 13.01)">
              <path id="路径_7042" data-name="路径 7042" d="M215.937,397.6c.026-.2.054-.393.075-.591H85.33v.591Z" transform="translate(-85.33 -382.829)" fill="#a5a5c6"/>
              <path id="路径_7043" data-name="路径 7043" d="M215.565,388.47c-.05-.2-.1-.4-.159-.591H85.33v.591Z" transform="translate(-85.33 -380.788)" fill="#a5a5c6"/>
              <path id="路径_7044" data-name="路径 7044" d="M85.33,379.337H212.076q-.238-.3-.488-.591H85.33Z" transform="translate(-85.33 -378.746)" fill="#a5a5c6"/>
              <path id="路径_7045" data-name="路径 7045" d="M214.294,383.9c-.1-.2-.2-.4-.3-.591H85.33v.591Z" transform="translate(-85.33 -379.767)" fill="#a5a5c6"/>
              <path id="路径_7046" data-name="路径 7046" d="M216.092,393.036c-.01-.2-.029-.394-.045-.591H85.33v.591Z" transform="translate(-85.33 -381.808)" fill="#a5a5c6"/>
              <path id="路径_7047" data-name="路径 7047" d="M210.663,411.3q.288-.289.564-.591H85.33v.591Z" transform="translate(-85.33 -385.891)" fill="#a5a5c6"/>
              <path id="路径_7048" data-name="路径 7048" d="M205.751,415.866q.556-.277,1.09-.591H85.33v.591Z" transform="translate(-85.33 -386.912)" fill="#a5a5c6"/>
              <path id="路径_7049" data-name="路径 7049" d="M213.433,406.734c.117-.194.229-.392.339-.591H85.33v.591Z" transform="translate(-85.33 -384.87)" fill="#a5a5c6"/>
              <path id="路径_7050" data-name="路径 7050" d="M215.089,402.168c.068-.2.137-.392.2-.591H85.33v.591Z" transform="translate(-85.33 -383.85)" fill="#a5a5c6"/>
            </g>
            <path id="路径_7051" data-name="路径 7051" d="M198.925,374.46a20.346,20.346,0,0,1,15.786,7.489,18.724,18.724,0,0,0-17.315-11.6H85.33v4.111Z" transform="translate(-82.397 -363.859)" fill="#a5a5c6"/>
          </g>
          <g id="组_9580" data-name="组 9580" transform="translate(38.07)">
            <path id="路径_7052" data-name="路径 7052" d="M212.57,232.56H96.665v6.491h44.484a18.72,18.72,0,0,1,18.721,18.721h0a18.72,18.72,0,0,1-18.721,18.721H96.665v6.491H212.57a25.212,25.212,0,0,0,25.212-25.212h0A25.212,25.212,0,0,0,212.57,232.56Z" transform="translate(-96.665 -232.56)" fill="#dadd57"/>
            <path id="路径_7053" data-name="路径 7053" d="M212.508,240.92H100.442v37.442H212.508a18.721,18.721,0,0,0,18.721-18.721h0A18.721,18.721,0,0,0,212.508,240.92Z" transform="translate(-97.509 -234.429)" fill="#fefefe"/>
            <g id="组_9579" data-name="组 9579" transform="translate(2.933 13.01)">
              <path id="路径_7054" data-name="路径 7054" d="M231.049,268.172c.026-.2.054-.393.075-.591H100.442v.591Z" transform="translate(-100.442 -253.399)" fill="#a5a5c6"/>
              <path id="路径_7055" data-name="路径 7055" d="M230.677,259.04c-.05-.2-.1-.4-.159-.591H100.442v.591Z" transform="translate(-100.442 -251.358)" fill="#a5a5c6"/>
              <path id="路径_7056" data-name="路径 7056" d="M100.442,249.908H227.188c-.158-.2-.321-.4-.488-.592H100.442Z" transform="translate(-100.442 -249.316)" fill="#a5a5c6"/>
              <path id="路径_7057" data-name="路径 7057" d="M229.406,254.474c-.1-.2-.2-.4-.3-.591H100.442v.591Z" transform="translate(-100.442 -250.337)" fill="#a5a5c6"/>
              <path id="路径_7058" data-name="路径 7058" d="M231.2,263.606c-.01-.2-.029-.394-.045-.591H100.442v.591Z" transform="translate(-100.442 -252.378)" fill="#a5a5c6"/>
              <path id="路径_7059" data-name="路径 7059" d="M225.775,281.87q.288-.289.563-.591h-125.9v.591Z" transform="translate(-100.442 -256.461)" fill="#a5a5c6"/>
              <path id="路径_7060" data-name="路径 7060" d="M220.863,286.437q.556-.278,1.089-.592H100.442v.592Z" transform="translate(-100.442 -257.482)" fill="#a5a5c6"/>
              <path id="路径_7061" data-name="路径 7061" d="M228.545,277.3c.117-.194.229-.392.339-.591H100.442v.591Z" transform="translate(-100.442 -255.44)" fill="#a5a5c6"/>
              <path id="路径_7062" data-name="路径 7062" d="M230.2,272.738c.068-.2.137-.392.2-.591H100.442v.591Z" transform="translate(-100.442 -254.42)" fill="#a5a5c6"/>
            </g>
            <path id="路径_7063" data-name="路径 7063" d="M214.036,245.031a20.346,20.346,0,0,1,15.787,7.489,18.724,18.724,0,0,0-17.315-11.6H100.442v4.111Z" transform="translate(-97.509 -234.429)" fill="#a5a5c6"/>
          </g>
          <g id="组_9582" data-name="组 9582" transform="translate(0 50.074)">
            <path id="路径_7064" data-name="路径 7064" d="M72.848,297.05h115.9v6.49H144.268a18.721,18.721,0,0,0-18.721,18.721h0a18.721,18.721,0,0,0,18.721,18.721h44.484v6.49H72.848a25.212,25.212,0,0,1-25.213-25.212h0A25.212,25.212,0,0,1,72.848,297.05Z" transform="translate(-47.635 -297.05)" fill="#ffab24"/>
            <path id="路径_7065" data-name="路径 7065" d="M75.883,305.409H187.949v37.443H75.883A18.721,18.721,0,0,1,57.162,324.13h0A18.721,18.721,0,0,1,75.883,305.409Z" transform="translate(-49.765 -298.919)" fill="#fefefe"/>
            <g id="组_9581" data-name="组 9581" transform="translate(7.423 13.01)">
              <path id="路径_7066" data-name="路径 7066" d="M57.372,332.661c-.026-.2-.054-.392-.075-.591H187.979v.591Z" transform="translate(-57.218 -317.889)" fill="#a5a5c6"/>
              <path id="路径_7067" data-name="路径 7067" d="M57.874,323.529c.049-.2.1-.394.159-.591H188.108v.591Z" transform="translate(-57.347 -315.847)" fill="#a5a5c6"/>
              <path id="路径_7068" data-name="路径 7068" d="M189.112,314.4H62.366q.239-.3.488-.591H189.112Z" transform="translate(-58.351 -313.806)" fill="#a5a5c6"/>
              <path id="路径_7069" data-name="路径 7069" d="M59.51,318.963c.1-.2.2-.4.3-.591H188.474v.591Z" transform="translate(-57.712 -314.827)" fill="#a5a5c6"/>
              <path id="路径_7070" data-name="路径 7070" d="M57.2,328.095c.01-.2.028-.394.044-.591H187.956v.591Z" transform="translate(-57.195 -316.868)" fill="#a5a5c6"/>
              <path id="路径_7071" data-name="路径 7071" d="M64.025,346.36q-.288-.29-.564-.591h125.9v.591Z" transform="translate(-58.596 -320.951)" fill="#a5a5c6"/>
              <path id="路径_7072" data-name="路径 7072" d="M70.2,350.926q-.556-.277-1.09-.591h121.51v.591Z" transform="translate(-59.858 -321.972)" fill="#a5a5c6"/>
              <path id="路径_7073" data-name="路径 7073" d="M60.521,341.794c-.117-.195-.229-.392-.34-.591H188.624v.591Z" transform="translate(-57.862 -319.93)" fill="#a5a5c6"/>
              <path id="路径_7074" data-name="路径 7074" d="M58.429,337.228c-.068-.2-.137-.392-.2-.591H188.188v.591Z" transform="translate(-57.427 -318.91)" fill="#a5a5c6"/>
            </g>
            <path id="路径_7075" data-name="路径 7075" d="M74.759,309.52a20.344,20.344,0,0,0-15.786,7.488,18.724,18.724,0,0,1,17.315-11.6H188.354v4.111Z" transform="translate(-50.169 -298.919)" fill="#a5a5c6"/>
          </g>
        </g>
        <path id="路径_7076" data-name="路径 7076" d="M239.642,357.464h0a25.213,25.213,0,0,0-25.213-25.212h-1.124v-5.685h-2.933V289.125h2.933v-6.14h12.858a25.212,25.212,0,0,0,25.212-25.213h0a25.212,25.212,0,0,0-25.212-25.212H173.929V347.534a23.71,23.71,0,0,0,12.655,20.98H163.755a6.279,6.279,0,0,0-6.278,6.279h0a18.272,18.272,0,0,0,.176,2.543h0a12.518,12.518,0,0,0,1.969,5.341H214.43A25.213,25.213,0,0,0,239.642,357.464Z" transform="translate(-72.189 -232.56)" fill="#b3c6c5" style="mix-blend-mode: multiply;isolation: isolate"/>
      </g>
      <g id="组_9588" data-name="组 9588" transform="translate(54.63 47.544)">
        <g id="组_9586" data-name="组 9586" transform="translate(11.144)">
          <path id="矩形_127" data-name="矩形 127" d="M14.882,0h0A14.882,14.882,0,0,1,29.765,14.882V46.166a0,0,0,0,1,0,0H0a0,0,0,0,1,0,0V14.882A14.882,14.882,0,0,1,14.882,0Z" transform="translate(0)" fill="#acc95b"/>
          <path id="路径_7077" data-name="路径 7077" d="M147.227,117.5h0a14.883,14.883,0,0,0-14.882,14.882v.649c7.883,1.514,21.614-2.287,26.984-9.307A14.861,14.861,0,0,0,147.227,117.5Z" transform="translate(-132.345 -117.505)" fill="#c6dd76"/>
          <path id="路径_7078" data-name="路径 7078" d="M162.11,134.975a14.83,14.83,0,0,0-1.216-5.9c1.177,13.846-3.643,28.325-28.549,29.143v8.036H162.11Z" transform="translate(-132.345 -120.092)" fill="#90ba52"/>
          <g id="组_9585" data-name="组 9585" transform="translate(6.071 0)">
            <path id="路径_7079" data-name="路径 7079" d="M140.164,164.246h1.367V120.078a14.956,14.956,0,0,0-1.367.892Z" transform="translate(-140.164 -118.08)" fill="#7fa047"/>
            <path id="路径_7080" data-name="路径 7080" d="M151.115,117.5c-.461,0-.916.024-1.367.065v46.1h1.367Z" transform="translate(-142.306 -117.505)" fill="#7fa047"/>
            <path id="路径_7081" data-name="路径 7081" d="M162.656,164.471h1.367V122.183a14.942,14.942,0,0,0-1.367-1.1Z" transform="translate(-145.192 -118.305)" fill="#7fa047"/>
          </g>
        </g>
        <g id="组_9587" data-name="组 9587" transform="translate(0 40.699)">
          <path id="路径_7082" data-name="路径 7082" d="M158.6,218.213H130.9a5.411,5.411,0,0,1-5.306-4.351L118.1,176.394a5.411,5.411,0,0,1,5.306-6.473h41.228a5.412,5.412,0,0,1,5.343,6.271l-6.032,37.469A5.412,5.412,0,0,1,158.6,218.213Z" transform="translate(-117.992 -169.921)" fill="#ffab24"/>
          <path id="路径_7083" data-name="路径 7083" d="M165.8,213.662l6.032-37.469a5.412,5.412,0,0,0-5.343-6.271H165c3.67,14.391,2.266,36.173-38.709,38.141l1.16,5.8a5.412,5.412,0,0,0,5.306,4.351h27.7A5.412,5.412,0,0,0,165.8,213.662Z" transform="translate(-119.846 -169.921)" fill="#f49711"/>
        </g>
      </g>
      <g id="组_9589" data-name="组 9589" transform="translate(112.323 84.833)">
        <rect id="矩形_128" data-name="矩形 128" width="283.729" height="188.9" rx="30.547" transform="translate(283.729 188.9) rotate(180)" fill="#f4f4f4"/>
        <path id="矩形_129" data-name="矩形 129" d="M25.546,0h132.7A25.547,25.547,0,0,1,183.8,25.547V253.079a25.547,25.547,0,0,1-25.547,25.547H25.547A25.547,25.547,0,0,1,0,253.079V25.546A25.546,25.546,0,0,1,25.546,0Z" transform="translate(2.552 186.348) rotate(-90)" fill="#323244"/>
        <rect id="矩形_130" data-name="矩形 130" width="264.166" height="165.637" rx="20.686" transform="translate(9.781 13.482)" fill="#67d0ff"/>
        <path id="路径_7084" data-name="路径 7084" d="M469.057,340.863V327.521a135,135,0,0,0-264.165,0v13.341a16.062,16.062,0,0,0,16.062,16.063H453A16.062,16.062,0,0,0,469.057,340.863Z" transform="translate(-195.11 -177.807)" fill="#28adde"/>
        <path id="路径_7085" data-name="路径 7085" d="M305.068,182.892v106.5H438.477v-106.5Z" transform="translate(-217.503 -169.41)" fill="#208bba"/>
        <path id="路径_7086" data-name="路径 7086" d="M376.888,175.126a2.652,2.652,0,1,1-2.652-2.652A2.652,2.652,0,0,1,376.888,175.126Z" transform="translate(-232.372 -167.081)" fill="#191923"/>
        <path id="路径_7087" data-name="路径 7087" d="M375.973,175.5a1.366,1.366,0,1,1-1.366-1.366A1.366,1.366,0,0,1,375.973,175.5Z" transform="translate(-232.742 -167.452)" fill="#323244"/>
        <path id="路径_7088" data-name="路径 7088" d="M384.5,175.666a.625.625,0,1,1-.625-.625A.624.624,0,0,1,384.5,175.666Z" transform="translate(-234.98 -167.655)" fill="#40d389"/>
      </g>
      <g id="组_9593" data-name="组 9593" transform="translate(314.915 28.176)">
        <path id="路径_7089" data-name="路径 7089" d="M510.642,165.529H453.268c13.889,23.076,46.457,55.318,81.092,68.378v-44.66A23.719,23.719,0,0,0,510.642,165.529Z" transform="translate(-453.224 -108.871)" fill="#b3c6c5" style="mix-blend-mode: multiply;isolation: isolate"/>
        <g id="组_9592" data-name="组 9592">
          <path id="路径_7090" data-name="路径 7090" d="M613.526,267.227a16.8,16.8,0,0,0-3.451,15.011h.69s-.517-4.831.6-6.988c0,0-1.467,9.318,3.451,13.89l3.709-.863s-4.659-6.816-4.141-12.251c0,0,2.329,8.541,6.556,13.114l3.71-.863s-5-9.231-6.816-12.941c0,0,7.506,9.318,9.059,12.855l3.624-2.157-8.11-10.008,7.42,5.781,1.294-1.9S621.2,269.211,613.526,267.227Z" transform="translate(-488.166 -131.605)" fill="#ffc36c"/>
          <ellipse id="椭圆_11" data-name="椭圆 11" cx="15.462" cy="51.314" rx="15.462" ry="51.314" transform="translate(15.064 49.565) rotate(-69.781)" fill="#545472"/>
          <g id="组_9590" data-name="组 9590" transform="translate(9.22 35.056)">
            <path id="路径_7091" data-name="路径 7091" d="M476.274,137.708l-10.363,19.9a4.814,4.814,0,0,0-.5.964c-2.951,8.013,14.563,24.469,41.156,34.264s50.545,11.239,53.5,3.225l12.517-22.882Z" transform="translate(-465.085 -137.708)" fill="#464666"/>
            <path id="路径_7092" data-name="路径 7092" d="M477.8,137.708,471.92,149c25.269,4.856,53.676,42.45,89.265,47.878a4.833,4.833,0,0,0,.4-.819L574.1,173.176Z" transform="translate(-466.613 -137.708)" fill="#3b3b59"/>
          </g>
          <g id="组_9591" data-name="组 9591">
            <path id="路径_7093" data-name="路径 7093" d="M453.211,95.82l44.33,72.579,113.215.435-51.936-68.668Z" transform="translate(-453.211 -93.289)" fill="#545472"/>
            <path id="路径_7094" data-name="路径 7094" d="M453.211,95.82l44.33,72.579,113.215.435-51.936-68.668Z" transform="translate(-453.211 -93.289)" fill="#5f5f89"/>
            <path id="路径_7095" data-name="路径 7095" d="M611.917,165.591l-1.15,2.531L453.255,95.108l1.15-2.473Z" transform="translate(-453.221 -92.577)" fill="#5f5f89"/>
            <path id="路径_7096" data-name="路径 7096" d="M454.693,92.56l44.33,72.579,113.215.435L560.3,96.906Z" transform="translate(-453.543 -92.56)" fill="#545472"/>
          </g>
          <path id="路径_7097" data-name="路径 7097" d="M554.514,138.19l62.807,40.031s9.2,38.651-11.5,59.357" transform="translate(-475.856 -102.76)" fill="none" stroke="#ffab24" stroke-linecap="round" stroke-miterlimit="10" stroke-width="5"/>
          <ellipse id="椭圆_12" data-name="椭圆 12" cx="4.601" cy="4.601" rx="4.601" ry="4.601" transform="translate(124.555 131.251)" fill="#ffab24"/>
          <ellipse id="椭圆_13" data-name="椭圆 13" cx="4.601" cy="4.601" rx="4.601" ry="4.601" transform="translate(124.555 131.251)" fill="#ffab24"/>
          <path id="路径_7098" data-name="路径 7098" d="M619.154,261.6a4.6,4.6,0,0,0-1.092.136,4.587,4.587,0,0,0,5.406,6.055,4.59,4.59,0,0,0-4.313-6.191Z" transform="translate(-489.997 -130.346)" fill="#ffc36c"/>
        </g>
      </g>
      <g id="组_9605" data-name="组 9605" transform="translate(122.104)">
        <path id="路径_7099" data-name="路径 7099" d="M283.309,207.255s-9,11-9.874,12.374-6.124,15.5-6.124,15.5h14.623Z" transform="translate(-218.845 -90.023)" fill="#f0ab90"/>
        <path id="路径_7100" data-name="路径 7100" d="M462.518,207.255s9,11,9.874,12.374,6.124,15.5,6.124,15.5H463.893Z" transform="translate(-262.481 -90.023)" fill="#f0ab90"/>
        <g id="组_9599" data-name="组 9599" transform="translate(61.218)">
          <rect id="矩形_131" data-name="矩形 131" width="141.729" height="197.22" transform="translate(0)" fill="#fefefe"/>
          <path id="路径_7101" data-name="路径 7101" d="M425.463,215.644c-20.274,28.992-55.217,63.927-98.145,45.729-21.4-9.072-34.788-21.5-43.584-33.254v61H425.463Z" transform="translate(-283.734 -91.898)" fill="#dce6f4"/>
          <g id="组_9594" data-name="组 9594" transform="translate(2.986 2.986)">
            <path id="路径_7102" data-name="路径 7102" d="M423.337,251.367H287.58V60.119H423.337Zm-134.98-.776h134.2V60.9h-134.2Z" transform="translate(-287.58 -60.119)" fill="#a5a5c6"/>
          </g>
          <g id="组_9597" data-name="组 9597" transform="translate(51.172 130.98)">
            <path id="路径_7103" data-name="路径 7103" d="M381.224,257.337l-11.9,3.849-11.9-3.849-7.784,22.9,9.254-2.575,5.992,7.505,4.439-13.058,4.439,13.058,5.992-7.505,9.254,2.575Z" transform="translate(-349.638 -232.198)" fill="#ffab24"/>
            <g id="组_9596" data-name="组 9596" transform="translate(0.089)">
              <path id="路径_7104" data-name="路径 7104" d="M353.227,245.386a16.95,16.95,0,1,1,16.95,16.951A16.95,16.95,0,0,1,353.227,245.386Z" transform="translate(-350.529 -225.738)" fill="url(#radial-gradient)"/>
              <path id="路径_7105" data-name="路径 7105" d="M388.191,247.812v0a6.4,6.4,0,0,0,0-6.4l-.118-.2a6.4,6.4,0,0,1-.857-3.144l0-.234a6.4,6.4,0,0,0-3.251-5.516h0a6.4,6.4,0,0,1-2.395-2.373h0a6.4,6.4,0,0,0-5.545-3.2h-.234a6.4,6.4,0,0,1-3.152-.829l-.2-.116a6.4,6.4,0,0,0-6.4.057h0a6.4,6.4,0,0,1-3.25.887h0a6.4,6.4,0,0,0-5.545,3.2l-.117.2a6.4,6.4,0,0,1-2.294,2.315l-.2.119a6.4,6.4,0,0,0-3.152,5.573v0a6.407,6.407,0,0,1-.858,3.259h0a6.4,6.4,0,0,0,0,6.4l.116.2a6.4,6.4,0,0,1,.858,3.144l0,.234a6.4,6.4,0,0,0,3.251,5.516h0a6.4,6.4,0,0,1,2.394,2.373h0a6.4,6.4,0,0,0,5.545,3.2h.235a6.4,6.4,0,0,1,3.151.829l.2.115a6.4,6.4,0,0,0,6.4-.057h0a6.4,6.4,0,0,1,3.251-.887h0a6.4,6.4,0,0,0,5.545-3.2l.118-.2a6.4,6.4,0,0,1,2.293-2.314l.2-.12a6.4,6.4,0,0,0,3.151-5.573v0A6.4,6.4,0,0,1,388.191,247.812Z" transform="translate(-349.753 -224.961)" fill="#f49711"/>
              <path id="路径_7106" data-name="路径 7106" d="M385.86,248.247h0a5.266,5.266,0,0,0,0-5.267l-.1-.166a5.255,5.255,0,0,1-.706-2.586l0-.193a5.262,5.262,0,0,0-2.674-4.537h0a5.26,5.26,0,0,1-1.969-1.951h0a5.266,5.266,0,0,0-4.56-2.633h-.193a5.265,5.265,0,0,1-2.593-.682l-.168-.1a5.268,5.268,0,0,0-5.266.047h0a5.263,5.263,0,0,1-2.673.729h0a5.267,5.267,0,0,0-4.56,2.633l-.1.168a5.265,5.265,0,0,1-1.887,1.9l-.167.1a5.267,5.267,0,0,0-2.592,4.583v0a5.262,5.262,0,0,1-.705,2.68h0a5.266,5.266,0,0,0,0,5.267l.1.166a5.266,5.266,0,0,1,.705,2.587l0,.192a5.266,5.266,0,0,0,2.674,4.538h0a5.265,5.265,0,0,1,1.969,1.951h0a5.265,5.265,0,0,0,4.56,2.634h.193a5.263,5.263,0,0,1,2.592.682l.168.095a5.265,5.265,0,0,0,5.265-.047h0a5.265,5.265,0,0,1,2.673-.729h0a5.266,5.266,0,0,0,4.56-2.633l.1-.168a5.267,5.267,0,0,1,1.887-1.9l.166-.1a5.264,5.264,0,0,0,2.593-4.583v0A5.27,5.27,0,0,1,385.86,248.247Z" transform="translate(-350.757 -225.965)" fill="#564172"/>
              <path id="路径_7107" data-name="路径 7107" d="M384.831,248.439h0a4.766,4.766,0,0,0,0-4.765l-.088-.151a4.765,4.765,0,0,1-.638-2.34l0-.174a4.764,4.764,0,0,0-2.419-4.1h0a4.762,4.762,0,0,1-1.781-1.765h0a4.764,4.764,0,0,0-4.127-2.382H375.6a4.767,4.767,0,0,1-2.346-.617l-.152-.086a4.765,4.765,0,0,0-4.764.043h0a4.765,4.765,0,0,1-2.419.66h0a4.764,4.764,0,0,0-4.127,2.382l-.087.151A4.766,4.766,0,0,1,360,237.011l-.15.089a4.764,4.764,0,0,0-2.346,4.148h0a4.762,4.762,0,0,1-.638,2.425h0a4.766,4.766,0,0,0,0,4.765l.088.151a4.773,4.773,0,0,1,.638,2.339l0,.175a4.765,4.765,0,0,0,2.419,4.1h0a4.76,4.76,0,0,1,1.78,1.765v0a4.765,4.765,0,0,0,4.126,2.382h.175a4.763,4.763,0,0,1,2.345.617l.152.086a4.765,4.765,0,0,0,4.764-.043h0a4.76,4.76,0,0,1,2.419-.66h0a4.765,4.765,0,0,0,4.126-2.382l.088-.152A4.774,4.774,0,0,1,381.7,255.1l.151-.089a4.763,4.763,0,0,0,2.345-4.147v0A4.772,4.772,0,0,1,384.831,248.439Z" transform="translate(-351.199 -226.408)" fill="#f2f2f4"/>
              <g id="组_9595" data-name="组 9595" transform="translate(7.082 7.082)">
                <path id="路径_7108" data-name="路径 7108" d="M371.44,259.215a12.567,12.567,0,1,1,12.567-12.566A12.581,12.581,0,0,1,371.44,259.215Zm0-24.369a11.8,11.8,0,1,0,11.8,11.8A11.816,11.816,0,0,0,371.44,234.846Z" transform="translate(-358.873 -234.082)" fill="#f49711"/>
              </g>
              <ellipse id="椭圆_14" data-name="椭圆 14" cx="9.351" cy="9.351" rx="9.351" ry="9.351" transform="translate(10.259 28.96) rotate(-89.759)" fill="#ffab24"/>
            </g>
          </g>
          <g id="组_9598" data-name="组 9598" transform="translate(16.033 19.247)">
            <rect id="矩形_132" data-name="矩形 132" width="109.663" height="21.372" transform="translate(0 49.118)" fill="#a5a5c6"/>
            <rect id="矩形_133" data-name="矩形 133" width="109.663" height="3.874" transform="translate(0 97.485)" fill="#a5a5c6"/>
            <rect id="矩形_134" data-name="矩形 134" width="109.663" height="3.874" fill="#a5a5c6"/>
            <rect id="矩形_135" data-name="矩形 135" width="109.663" height="3.874" transform="translate(0 87.987)" fill="#a5a5c6"/>
            <rect id="矩形_136" data-name="矩形 136" width="109.663" height="3.874" transform="translate(0 78.488)" fill="#a5a5c6"/>
            <text id="CERTIFICATE" transform="translate(53.479 33.729)" fill="#f76767" font-size="28" font-family="BebasNeueBold, Bebas Neue"><tspan x="-52.542" y="0">CERTIFICATE</tspan></text>
          </g>
        </g>
        <g id="组_9604" data-name="组 9604" transform="translate(0 98.315)">
          <g id="组_9603" data-name="组 9603" clip-path="url(#clip-path)">
            <g id="组_9602" data-name="组 9602" transform="translate(11.222 30.456)">
              <g id="组_9600" data-name="组 9600" transform="translate(163.853)">
                <path id="路径_7109" data-name="路径 7109" d="M481.765,280.817c-2.062-29.245-12.748-47.055-12.748-47.055s-13.685-11.061-15.747-11.624c-1.472-.4-10.967,4.737-16.282,7.711a7.9,7.9,0,0,0-4.01,6.107c-.892,8.847-2.871,29.671-2.579,37.55a36.472,36.472,0,0,0,.48,4.921,2.143,2.143,0,0,0-.043.7c.5,4.937,9.186,9.061,12.686,6.687,2.333-1.583,1.693-4.243,1.009-5.844l5.553-1.4.656,12.186s-2.906,9.936,6.093,18l9.186,52.68h42.556Z" transform="translate(-430.369 -222.116)" fill="#ffcfa8"/>
                <path id="路径_7110" data-name="路径 7110" d="M466.562,240.227l-6.092-.562-8.718-6.656s-12.577,5.456-18.669,9.516c-.131,1.359-.271,2.831-.415,4.387A67.889,67.889,0,0,1,451.1,236.383l8.624,5.812,5.155.094,4.969,4.968Z" transform="translate(-430.883 -224.551)" fill="#f0ab90"/>
                <path id="路径_7111" data-name="路径 7111" d="M463.737,254.035l-5.624,1.375-6.374-5.5s-14.114,7.037-20.433,12.625c-.083,1.089-.161,2.17-.234,3.236,4.389-2.675,13.446-8.074,20.292-11.36l6.874,5.5,5.125-2.5,5.624,3.062Z" transform="translate(-430.526 -228.329)" fill="#f0ab90"/>
                <path id="路径_7112" data-name="路径 7112" d="M461.612,274.648l5.625,3.374-4.625-6.5-7.124,3-5.249-3.124a36.8,36.8,0,0,0-19.868,11.166c0,.714.005,1.374.027,1.957.009.252.025.481.037.721,7.953-7.622,19.3-11.595,19.3-11.595l6.5,3.875Z" transform="translate(-430.369 -233.132)" fill="#f0ab90"/>
                <path id="路径_7113" data-name="路径 7113" d="M441.03,294.8a8.641,8.641,0,0,0,7.592-3.843s.094,4.406-2.343,5.156S441.03,294.8,441.03,294.8Z" transform="translate(-432.752 -237.504)" fill="#f0ab90"/>
                <path id="路径_7114" data-name="路径 7114" d="M447.709,295.814s3.937.875,10.436-3.812c0,0-6,2-9.123,1.812Z" transform="translate(-434.245 -237.738)" fill="#f0ab90"/>
              </g>
              <g id="组_9601" data-name="组 9601">
                <path id="路径_7115" data-name="路径 7115" d="M246.153,280.817c2.062-29.245,12.748-47.055,12.748-47.055s13.685-11.061,15.747-11.624c1.472-.4,10.967,4.737,16.282,7.711a7.9,7.9,0,0,1,4.01,6.107c.892,8.847,2.871,29.671,2.579,37.55a36.467,36.467,0,0,1-.48,4.921,2.142,2.142,0,0,1,.043.7c-.5,4.937-9.186,9.061-12.686,6.687-2.332-1.583-1.693-4.243-1.009-5.844l-5.552-1.4-.656,12.186s2.906,9.936-6.093,18L261.9,361.43H219.344Z" transform="translate(-219.344 -222.116)" fill="#ffcfa8"/>
                <path id="路径_7116" data-name="路径 7116" d="M273.167,240.227l6.093-.562,8.717-6.656s12.577,5.456,18.669,9.516c.131,1.359.271,2.831.415,4.387a67.889,67.889,0,0,0-18.428-10.529L280.01,242.2l-5.155.094-4.969,4.968Z" transform="translate(-230.642 -224.551)" fill="#f0ab90"/>
                <path id="路径_7117" data-name="路径 7117" d="M275.78,254.035l5.624,1.375,6.374-5.5s14.114,7.037,20.433,12.625c.083,1.089.161,2.17.235,3.236-4.39-2.675-13.447-8.074-20.293-11.36l-6.874,5.5-5.124-2.5-5.625,3.062Z" transform="translate(-230.786 -228.329)" fill="#f0ab90"/>
                <path id="路径_7118" data-name="路径 7118" d="M278.207,274.648l-5.624,3.374,4.624-6.5,7.124,3,5.249-3.124a36.8,36.8,0,0,1,19.869,11.166c0,.714-.006,1.374-.028,1.957-.009.252-.025.481-.037.721-7.953-7.622-19.3-11.595-19.3-11.595l-6.5,3.875Z" transform="translate(-231.245 -233.132)" fill="#f0ab90"/>
                <path id="路径_7119" data-name="路径 7119" d="M307.217,294.8a8.641,8.641,0,0,1-7.593-3.843s-.094,4.406,2.343,5.156S307.217,294.8,307.217,294.8Z" transform="translate(-237.289 -237.504)" fill="#f0ab90"/>
                <path id="路径_7120" data-name="路径 7120" d="M299.718,295.814s-3.937.875-10.436-3.812c0,0,6,2,9.124,1.812Z" transform="translate(-234.978 -237.738)" fill="#f0ab90"/>
              </g>
            </g>
          </g>
        </g>
      </g>
      <g id="组_9606" data-name="组 9606" transform="translate(95.871 270.994)">
        <path id="路径_7121" data-name="路径 7121" d="M481.46,405.284H177.384a6.278,6.278,0,0,0-6.278,6.278h0c0,11.331,9.186,14.434,20.516,14.434h275.6c11.331,0,20.516-3.1,20.516-14.434h0A6.279,6.279,0,0,0,481.46,405.284Z" transform="translate(-171.106 -405.284)" fill="#dfeaea"/>
        <path id="路径_7122" data-name="路径 7122" d="M171.334,416.645c1.3,9.255,9.909,11.891,20.339,11.891h275.6c10.43,0,19.036-2.635,20.339-11.891Z" transform="translate(-171.157 -407.824)" fill="#cad8d8"/>
        <path id="路径_7123" data-name="路径 7123" d="M321.482,405.284c.676,4.056,5.928,7.214,12.309,7.214h58.491c6.381,0,11.633-3.158,12.309-7.214Z" transform="translate(-204.721 -405.284)" fill="#b3c6c5"/>
      </g>
      <g id="组_9608" data-name="组 9608" transform="translate(206.794 212.111)">
        <path id="路径_7124" data-name="路径 7124" d="M437.645,377.9l-6.463-6.462,3.728-3.728-14.458-4.075,4.337,14.2,3.465-3.465,6.463,6.462Z" transform="translate(-337.767 -337.092)" fill="#51979b"/>
        <g id="组_9607" data-name="组 9607">
          <rect id="矩形_138" data-name="矩形 138" width="94.786" height="30.368" rx="15.184" transform="translate(0 3.566)" fill="#b2445b"/>
          <rect id="矩形_139" data-name="矩形 139" width="94.786" height="30.368" rx="15.184" fill="#f76767"/>
        </g>
        <text id="online" transform="translate(46.652 22.623)" fill="#fefefe" font-size="20" font-family="BebasNeueBold, Bebas Neue"><tspan x="-21.47" y="0">online</tspan></text>
        <path id="路径_7125" data-name="路径 7125" d="M438.434,375.561l-6.463-6.462,3.728-3.728L421.242,361.3l4.337,14.2,3.465-3.465,6.463,6.462Z" transform="translate(-337.944 -336.568)" fill="#fefefe"/>
      </g>
      <g id="组_9610" data-name="组 9610" transform="translate(375.233 202.112)">
        <path id="路径_7126" data-name="路径 7126" d="M561.886,391.905H539.057a23.711,23.711,0,0,0,12.656-20.98V345.434a22.506,22.506,0,0,0-20.1,28.074c.026.264.06.532.114.811.4,2.051.9,4.392,1.471,6.892l0,.013c.383,1.672.805,3.416,1.263,5.2.067.263.134.526.2.791q.171.656.349,1.318.132.493.268.987c.112.409.224.817.339,1.228.12.426.245.853.368,1.28.13.444.259.887.392,1.332q.269.9.548,1.792c.095.3.193.6.29.9q.227.707.46,1.408c.1.306.205.61.309.913q.249.728.506,1.447c.1.266.189.534.286.8q.362.988.738,1.952c.03.077.058.156.089.233.124.316.253.623.38.934h0c.158.389.316.778.478,1.158.091.215.185.423.277.636l.075.169c.019.045.039.09.059.135q.248.564.5,1.113.153.33.307.653c.035.075.071.151.106.225.187.388.378.766.57,1.141.092.18.182.366.276.543l.082.155c.3.573.613,1.131.927,1.666l0,.007c.2.436.429.859.668,1.274h3.334c.611,0,1.215-.012,1.813-.03l.171,0c.571-.019,1.135-.05,1.693-.089l.223-.016q.825-.062,1.623-.154l.216-.026q.806-.1,1.583-.227l.163-.029c.533-.092,1.058-.2,1.568-.314l.066-.016a20.284,20.284,0,0,0,4.465-1.565l.012-.006q.667-.335,1.28-.724l.03-.019a12.891,12.891,0,0,0,1.169-.837l.011-.009a11.722,11.722,0,0,0,4.253-7.824h0a18.166,18.166,0,0,0,.177-2.543h0A6.279,6.279,0,0,0,561.886,391.905Z" transform="translate(-530.894 -323.023)" fill="#b3c6c5" style="mix-blend-mode: multiply;isolation: isolate"/>
        <g id="组_9609" data-name="组 9609" transform="translate(6.442)">
          <path id="路径_7127" data-name="路径 7127" d="M624.145,373.637a22.5,22.5,0,0,0-21.4-27.989,22.384,22.384,0,0,0-8.244,1.4,35.623,35.623,0,0,1-24.986,0,22.387,22.387,0,0,0-8.244-1.4A22.51,22.51,0,0,0,539.9,373.785c.026.264.06.532.115.811,1.988,10.11,6.07,27.08,11.923,37.024A16.6,16.6,0,0,0,567,421.25q.829,0,1.638-.08a136.648,136.648,0,0,1,26.73,0q.808.079,1.638.08a16.606,16.606,0,0,0,15.009-9.505c5.893-9.927,10-27,11.995-37.148A8.627,8.627,0,0,0,624.145,373.637Z" transform="translate(-539.19 -323.07)" fill="#e54e67"/>
          <path id="路径_7128" data-name="路径 7128" d="M567.666,431.5q.829,0,1.638-.08a136.652,136.652,0,0,1,26.73,0q.808.079,1.638.08A16.606,16.606,0,0,0,612.68,422a76.74,76.74,0,0,0,6.344-14.926c-25.147,13.3-57.449-18.491-76.875-15.331,2.251,9.822,5.787,22.205,10.453,30.132A16.6,16.6,0,0,0,567.666,431.5Z" transform="translate(-539.852 -333.325)" fill="#c93d65"/>
          <path id="路径_7129" data-name="路径 7129" d="M569.621,438.056q.829,0,1.638-.08a136.657,136.657,0,0,1,26.73,0q.808.079,1.638.08a16.542,16.542,0,0,0,12.35-5.521c-23.81,1.309-46.794-9.372-61.081-11.709a58.869,58.869,0,0,0,3.663,7.6A16.6,16.6,0,0,0,569.621,438.056Z" transform="translate(-541.806 -339.876)" fill="#b23962"/>
          <ellipse id="椭圆_15" data-name="椭圆 15" cx="5.351" cy="1.179" rx="5.351" ry="1.179" transform="translate(37.946 29.268)" fill="#b23962"/>
          <path id="路径_7130" data-name="路径 7130" d="M593.135,348.182s-5.294-22.7,11.319-31.222a3.45,3.45,0,0,1,3.795.4h0a3.406,3.406,0,0,1-.335,5.484c-5.019,3.185-12.544,10.469-12,25.352Z" transform="translate(-551.069 -316.571)" fill="#6d392c"/>
          <path id="路径_7131" data-name="路径 7131" d="M594.583,341.163s9.509-22.022,32-7.087C626.582,334.077,610.122,351.649,594.583,341.163Z" transform="translate(-551.572 -319.323)" fill="#acc95b"/>
          <path id="路径_7132" data-name="路径 7132" d="M626.425,335.577c-17.183-3.469-31.842,6.924-31.842,6.924C609.26,352.406,624.752,337.284,626.425,335.577Z" transform="translate(-551.572 -320.661)" fill="#90ba52"/>
          <path id="路径_7133" data-name="路径 7133" d="M569.348,364.842l-.193-.117a7.845,7.845,0,0,1-3.307-8.938,3.652,3.652,0,0,0-.13-2.7c-1.364-2.764-6.633-2.951-11.77-.418s-8.2,6.828-6.834,9.592c.883,1.79,3.4,2.5,6.466,2.089a1.764,1.764,0,0,1,1.06.171c2.421,1.274,6.612,2.775,13.618,3.566A1.753,1.753,0,0,0,569.348,364.842Z" transform="translate(-540.889 -324.242)" fill="#ef6c79"/>
        </g>
      </g>
    </g>
  </g>
</svg>
