<svg xmlns="http://www.w3.org/2000/svg" width="94.911" height="32.835" viewBox="0 0 94.911 32.835">
  <g id="life_lease_color" transform="translate(4.169 -25.382)">
    <g id="组_68" data-name="组 68" transform="translate(0 0)">
      <g id="生活樂租" transform="translate(-4.169 25.382)">
        <path id="路径_184" data-name="路径 184" d="M549.078,619.619v-.873h.044a6.378,6.378,0,0,0,1.135.175.5.5,0,0,0,.349-.131.621.621,0,0,0,.087-.262V611.28a.5.5,0,0,1,.131-.349.418.418,0,0,1,.306-.087.621.621,0,0,1,.262.087.5.5,0,0,1,.131.349v7.465a.939.939,0,0,1-.087.437,1.116,1.116,0,0,1-.917.611,5.314,5.314,0,0,1-1.441-.175Zm0-1.746h0a.377.377,0,0,0,.262-.131.311.311,0,0,0,.131-.262v-5.807c0-.175-.044-.262-.131-.306a.377.377,0,0,0-.262-.131h0Zm0-6.636v6.636a.34.34,0,0,1-.306-.131.377.377,0,0,1-.131-.262v-5.807a.4.4,0,0,1,.131-.306c.044-.087.131-.131.306-.131Zm0,7.509v.873a.83.83,0,0,1-.48-.306.744.744,0,0,1-.044-.306.515.515,0,0,1,.218-.218.647.647,0,0,1,.306-.044Zm-13.752.568v-1.048a5.638,5.638,0,0,1,.917.873c.131.131.175.218.175.306a.7.7,0,0,1-.175.306.621.621,0,0,1-.262.087.442.442,0,0,1-.306-.175,2.631,2.631,0,0,0-.349-.349Zm0-1.4V612.59h.087a.794.794,0,0,1,.48.175.534.534,0,0,1,.131.393v4.1a2.128,2.128,0,0,1-.175.48,1.306,1.306,0,0,1-.437.175Zm0-5.937v-.786h.655c.087.044.175.044.262.087a.811.811,0,0,1,.087.306c-.044.087-.044.175-.087.262a.378.378,0,0,1-.262.131Zm10.74,3.318c.48.611.873,1.135,1.222,1.615.087.175.175.262.306.262a1.111,1.111,0,0,0,.306-.087.378.378,0,0,0,.131-.262.432.432,0,0,0-.044-.349c-.48-.611-1.135-1.4-1.921-2.27h1.7a.272.272,0,0,0,.262-.175.264.264,0,0,0,.131-.262.4.4,0,0,0-.131-.306.468.468,0,0,0-.262-.087h-1.7v-1.4c.655-.087,1.135-.175,1.528-.262.131-.044.218-.087.262-.218a.33.33,0,0,0,.044-.349.359.359,0,0,0-.218-.218,2.46,2.46,0,0,0-.306-.044,27.8,27.8,0,0,1-3.8.48.81.81,0,0,0-.306.087,2.8,2.8,0,0,0-.087.306.4.4,0,0,0,.131.306c.044.044.175.044.306.087a13.759,13.759,0,0,0,1.615-.131v1.353h-1.79a.509.509,0,0,0-.306.087.579.579,0,0,0,0,.611.4.4,0,0,0,.306.131h1.615a14.078,14.078,0,0,1-1.965,2.881.823.823,0,0,0-.087.349.581.581,0,0,0,.131.306c.131.044.218.087.306.044.393,0,.96-.786,1.79-2.314v4.016a.4.4,0,0,0,.131.306.34.34,0,0,0,.306.131.377.377,0,0,0,.262-.131.34.34,0,0,0,.131-.306Zm-10.74-4.1v.786h-1.4l-.131.611h1.528v5.326H533.71v-.742h1.266a.333.333,0,0,1,.218-.087,1.889,1.889,0,0,0,.044-.218v-.437H533.71v-.742h1.528V614.9H533.71v-.742h1.528v-.48a.529.529,0,0,0-.044-.218.282.282,0,0,0-.218-.087H533.71v-2.183Zm0,7.072a2.419,2.419,0,0,1-.349-.262c-.131-.087-.218-.131-.306-.087a.264.264,0,0,0-.262.131c-.087.131-.131.218-.087.306a.4.4,0,0,0,.175.262,5.416,5.416,0,0,1,.829.7Zm-1.615-7.072v2.183h-1.179c-.131,0-.175,0-.218.044a.37.37,0,0,0-.087.262v.48h1.484v.742h-1.484v.786h1.484v.742h-1.484v.437c.044.131.044.175.087.218a.334.334,0,0,0,.218.087h1.179v.742h-.742a.377.377,0,0,1,.131.262.27.27,0,0,1-.087.306,5.208,5.208,0,0,1-1.179,1.266.58.58,0,0,1-.306.131.373.373,0,0,1-.262-.131.58.58,0,0,1-.131-.306.7.7,0,0,1,.175-.306,12.693,12.693,0,0,0,1.091-1.091.539.539,0,0,1,.087-.131h-.524a1.548,1.548,0,0,1-.393-.175,1,1,0,0,1-.131-.48v-4.1a2.034,2.034,0,0,1,.131-.393.784.784,0,0,1,.393-.175h1l.087-.611h-1.484a.311.311,0,0,1-.262-.131.321.321,0,0,1-.087-.262.621.621,0,0,1,.087-.262.264.264,0,0,1,.262-.131Zm-15.629,7.029v-.742h.83c.175.044.262,0,.306-.044s.044-.131.044-.262v-.218h-1.179v-.7h1.179v-.218a.327.327,0,0,0-.044-.218.256.256,0,0,0-.218-.087h-.917v-.7h1.4a1.216,1.216,0,0,1,.524.175,1.163,1.163,0,0,1,.131.524v.524h.524a.334.334,0,0,1,.218.087.437.437,0,0,1,0,.524.738.738,0,0,1-.218.087h-.524v.437a1.262,1.262,0,0,1-.175.611.9.9,0,0,1-.655.218Zm0-3.711v-.7h.961a.334.334,0,0,0,.218-.087c.044-.044.044-.087.044-.218h0c0-.087,0-.131-.044-.175a.334.334,0,0,0-.218-.087h-.961v-.655h1.441a.651.651,0,0,1,.437.131.43.43,0,0,1,.131.349v.83a.775.775,0,0,1-.175.437.822.822,0,0,1-.393.175Zm0-2.4v-.7h2.4c.131,0,.218.044.218.087a.327.327,0,0,1,0,.524.334.334,0,0,1-.218.087Zm9.779-.655v3.973a16,16,0,0,1-.393,3.755.211.211,0,0,0,0,.306c0,.087.087.175.218.218h.306a.4.4,0,0,0,.175-.262,8.751,8.751,0,0,0,.262-1.266c.087-.611.175-1.572.218-2.75v-3.973c0-.175-.044-.306-.131-.349s-.175-.044-.262-.087a.378.378,0,0,0-.262.131.34.34,0,0,0-.131.306Zm1.921.262a.264.264,0,0,0-.131-.262c-.087-.087-.175-.131-.262-.087a.416.416,0,0,0-.306.087.905.905,0,0,1-.087.262v6.68a.4.4,0,0,0,.131.306c.044.044.131.044.262.087a.377.377,0,0,0,.262-.131.264.264,0,0,0,.131-.262v-6.68Zm1.179-.524a.4.4,0,0,0-.131-.306.289.289,0,0,0-.262-.044.743.743,0,0,0-.306.044,2.765,2.765,0,0,0-.087.306v8.295a.4.4,0,0,0,.131.306.369.369,0,0,0,.262.087.621.621,0,0,0,.262-.087.4.4,0,0,0,.131-.306Zm-12.879.218v.7H516.9v.48h1.179v.655H516.9v.568h1.179v.7H516.9v.524h1.179v.7H516.9v.524h1.179v.7H516.9v.524h1.179v.742H516.9v.611a.652.652,0,0,1-.131.437.96.96,0,0,1-.873.524,7.506,7.506,0,0,1-1.135-.087v-.829h.044q.917.2,1.179,0a.553.553,0,0,0,.044-.262v-.393h-1.266v-.742h1.266v-.524h-1.266v-.7h1.266v-.524h-1.266v-.7h1.266v-.524h-1.266v-.7h1.266v-.568h-1.266v-.655h1.266v-.48h-1.266v-.7h1.266v-.175a.5.5,0,0,1,.131-.349.509.509,0,0,1,.306-.087.621.621,0,0,1,.262.087.539.539,0,0,1,.175.349v.175Zm-3.318,0v.7h-2.4a.369.369,0,0,1-.262-.087.437.437,0,0,1,0-.524.62.62,0,0,1,.262-.087Zm0,1.179v.655h-.96c-.131,0-.175,0-.218.044a.738.738,0,0,0-.087.218h0c.044.131.044.218.087.218.044.087.131.087.218.087h.96v.7h-1.572c-.131-.044-.262-.087-.306-.175a.625.625,0,0,1-.175-.437v-.83a.4.4,0,0,1,.175-.349.471.471,0,0,1,.306-.131h1.572Zm0,2.445v.7H512.93c-.131,0-.218-.044-.306-.044a.621.621,0,0,1-.087-.262.369.369,0,0,1,.087-.262.4.4,0,0,1,.306-.131Zm0,1.222v.7h-2.445a.369.369,0,0,1-.262-.087.351.351,0,0,1,.262-.611Zm0,1.222v.742H513.1a.4.4,0,0,1-.306-.131.24.24,0,0,1-.131-.218.378.378,0,0,1,.131-.262c.044-.087.131-.131.306-.131Zm0,1.4v.829c-.349-.087-.568-.175-.655-.306a.744.744,0,0,1-.044-.306c.131-.262.349-.349.7-.218Zm-12.18.655v-.83h1.441V617h-1.441v-.829h1.441v-1.615h-1.441v-.83h1.441v-1.353a.62.62,0,0,0-.087-.262.472.472,0,0,0-.262-.044h-1.091v-.829h1.659a.517.517,0,0,1,.393.218.418.418,0,0,1,.218.393V618.7h.218a.378.378,0,0,1,.262.131c.087.044.087.131.087.306a.321.321,0,0,1-.087.262.377.377,0,0,1-.262.131Zm-2.838-2.576a.341.341,0,0,0,.175-.175v-.349c-.044-.087-.131-.175-.175-.262v.786Zm0-2.75a.768.768,0,0,0,.218-.175.369.369,0,0,0,.087-.262.63.63,0,0,0-.087-.306c-.087-.044-.131-.087-.218-.087v.83Zm0-2.489a.206.206,0,0,0,.218-.218.358.358,0,0,0,0-.306c0-.087-.087-.175-.175-.262h-.044v.786Zm2.838-.48v.829H501.36c-.087,0-.131.044-.175.044a.321.321,0,0,0-.087.262v1.353h1.484v.83H501.1v1.615h1.484V617H501.1v1.7h1.484v.83h-2.838v-.83h.524v-6.811c.044-.218.087-.349.218-.437a.7.7,0,0,1,.437-.218Zm-3.929,4.54c.175.349.349.655.524.96.044.175.087.262.218.262a.359.359,0,0,0,.306-.044h.044v-.786c-.306-.524-.655-1.135-1.091-1.79v-.175h1.091v-.83h-1.091v-1.4a7.2,7.2,0,0,0,1.048-.262h.044v-.786h-.306a14.379,14.379,0,0,1-2.576.48.509.509,0,0,0-.306.087c-.044.131-.087.218-.044.306,0,.175,0,.262.087.306a.368.368,0,0,0,.306.087c.262,0,.568-.044.961-.087v1.266H496.82a.436.436,0,0,0-.306.7.4.4,0,0,0,.306.131h.96a7.371,7.371,0,0,1-1.353,2.75.581.581,0,0,0-.131.349.316.316,0,0,0,.175.262.368.368,0,0,0,.306.087c.218-.044.611-.568,1.091-1.659v3.493a.631.631,0,0,0,.087.306.4.4,0,0,0,.306.131.264.264,0,0,0,.262-.131.34.34,0,0,0,.131-.306v-3.711Zm1.091,2.925v.83a.227.227,0,0,1-.175-.087.58.58,0,0,1-.131-.306.4.4,0,0,1,.131-.306A.6.6,0,0,1,499.745,618.7Z" transform="translate(-476.563 -587.089)" fill="#4d4d4d"/>
        <path id="路径_185" data-name="路径 185" d="M560.325,575.952a3.632,3.632,0,0,1,3.449,3.711V581.1a3.6,3.6,0,0,1-3.449,3.711v-1.79h0a2.136,2.136,0,0,0,2.052-2.183v-.873a2.148,2.148,0,0,0-2.052-2.227v-1.79Zm0,1.79,0,7.073a3.569,3.569,0,0,1-3.405-3.711v-1.441a3.6,3.6,0,0,1,3.405-3.711v1.79h0a2.142,2.142,0,0,0-2.008,2.227v.873a2.13,2.13,0,0,0,2.008,2.183v1.79Zm0-1.79" transform="translate(-500.427 -574.468)" fill="#920783" fill-rule="evenodd"/>
        <rect id="矩形_9" data-name="矩形 9" width="5.981" height="1.441" transform="translate(56.886 4.988)" fill="#920783"/>
        <path id="路径_186" data-name="路径 186" d="M530.417,590v-1.833q1.768.393,3.8.655l-1.048,1.746c-.96-.175-1.877-.349-2.75-.568Zm0-3.231v-1.615h3.449l-1.048,1.615Zm0-2.707V582.4l1.179-.087a2.928,2.928,0,0,1-.524-.873l2.008-.437a15.223,15.223,0,0,1,1.484,3.056l-1.921.393a2.333,2.333,0,0,1-.262-.611l-1.965.218Zm0-1.877a11.858,11.858,0,0,0,2.576-4.322l-2.1-.306c-.131.437-.306.917-.48,1.4v3.231Zm0-4.671v-1.441l.655.262q-.262.458-.655,1.179Zm13.359,7.116c.393.568.786,1.135,1.222,1.7l1.921-.917a47.291,47.291,0,0,0-3.143-3.58v-.306h1.484l1.048-1.7h-2.532v-2.139a16.41,16.41,0,0,0,2.707-.48l-.524-1.615a60.044,60.044,0,0,1-7.291,1l.437,1.615c.7-.044,1.528-.131,2.445-.218v1.833h-2.881v1.7h2.619a14.672,14.672,0,0,1-3.58,4.846l2.183.742a13.329,13.329,0,0,0,1.659-2.27v5.85h2.227Zm-13.359-8.557v1.441c-.306.48-.611,1-1,1.615.218.175.437.349.7.524.087-.262.218-.48.306-.7v3.231a1.16,1.16,0,0,0-.218.262l.218-.044v1.659l-3.58.306a6.2,6.2,0,0,1-.218-.961v-.655l1.179-.131c.393-.437.83-.917,1.353-1.484a9.909,9.909,0,0,0-2.576-1.877v-.48l.96-.96c.087,0,.175.044.393.175a19.371,19.371,0,0,0,1.222-2.314l1.266.393Zm0,9.081H524.7v-.83l-1.877-.044v.873h-4.977v1.615h2.794a26.528,26.528,0,0,1-2.794,1.091v1.877a30.341,30.341,0,0,0,4.977-2.183v3.187H524.7v-2.925A21.4,21.4,0,0,0,530.417,590v-1.833a18.118,18.118,0,0,1-3.755-1.4h3.755v-1.615Zm-12.573-1.091V582.4l.48-.044c-.175-.262-.262-.437-.349-.568l-.131.131V579a5.649,5.649,0,0,0,.742-1.572l2.052.306a14.365,14.365,0,0,1-2.576,3.973l1.877-.437a10.808,10.808,0,0,1,.96,1.877h0l.087.437c0-.044-.044-.087-.044-.131s-.044-.175,0-.044l.131.786-1.877.306a4.543,4.543,0,0,0-.131-.524l-1.222.087Zm0-6.592a8.609,8.609,0,0,0,.655-1.222l-.655-.218Zm0-1.441v1.441c-.175.306-.349.611-.568.96v-2.576l.568.175Zm0,2.969v2.925c-.175.175-.306.349-.48.524l.48-.044v1.659h-.568v-4.584a.341.341,0,0,1,.175.175,2.611,2.611,0,0,0,.393-.655Zm0,6.156v1.615h-.568v-1.615Zm0,2.707v1.877c-.175.087-.349.131-.568.218v-1.921A4.057,4.057,0,0,1,517.844,587.86Zm-.568-12.006v2.576c-.131.218-.262.437-.437.7a1.709,1.709,0,0,1,.437.349v4.584l-3.493.175a7.932,7.932,0,0,0-.349-1.572l1.572-.087c.48-.437.96-.96,1.484-1.528A30.731,30.731,0,0,0,513.522,579l1.135-1.266c.131.044.349.175.7.349.393-.742.83-1.572,1.222-2.488l.7.262Zm0,9.3v1.615h-3.493v-1.615Zm0,2.881v1.921q-1.31.393-2.619.655l-1.135-1.7a31.537,31.537,0,0,0,3.755-.873Zm-22.964-1.965v-1.441l.655.131q-.327.72-.655,1.31Zm0-4.235v-1.7h6.156v-2.008c-2.052.044-3.755.087-5.152.087l-.262-1.615c2.008,0,4.366-.087,6.985-.262,2.75-.131,4.8-.306,6.068-.48l.349,1.615c-1.091.175-2.838.349-5.2.524h-.524v2.139h6.33l-1.135,1.7h-5.2v1.877h-2.27v-1.877Zm0-3.405.087-.087-.087-.087Zm-20.65,10.478h-9.124v1.7h18.729l1.091-1.7H476.02v-3.624H481.7l1.179-1.7H476.02v-3.449h6.461l1-1.659H476.02v-2.488h-2.357v2.488H469.34a7.32,7.32,0,0,0,.742-2.139l-2.314-.349a11.593,11.593,0,0,1-1.4,3.405,14.513,14.513,0,0,1-2.619,2.532l1.921,1.091a14.567,14.567,0,0,0,2.794-2.881h5.2v3.449h-7.029v1.7h7.029v3.624Zm20.65-10.652v.175L493,579.652a24.517,24.517,0,0,0-3.929-2.227l1.31-1.353a16.37,16.37,0,0,1,3.929,2.183Zm0,1.877v1.7h-.087v-1.7Zm0,4.5v1.441a14.247,14.247,0,0,1-3.667,4.759l-2.1-.873a12.735,12.735,0,0,0,4.191-5.719l1.572.393Zm-5.326-3.1a26.365,26.365,0,0,1,3.929,1.921l1.31-1.353a20.983,20.983,0,0,0-3.929-2.008Z" transform="translate(-463.752 -573.422)" fill="#920783" fill-rule="evenodd"/>
        <path id="路径_187" data-name="路径 187" d="M522.06,590.818h3.58a1.8,1.8,0,0,1,1.7,1.877h0a1.642,1.642,0,0,1-1.7,1.659h-3.58v1.834H525.9a3.442,3.442,0,0,0,3.318-3.493h0a3.646,3.646,0,0,0-3.318-3.711H522.06Zm-3.624,0h3.624v-1.834h-3.842a3.611,3.611,0,0,0-3.274,3.711h0a3.406,3.406,0,0,0,3.274,3.493h3.842v-1.834h-3.624a1.631,1.631,0,0,1-1.659-1.659h0A1.8,1.8,0,0,1,518.437,590.818Z" transform="translate(-483.904 -578.966)" fill="#920783" fill-rule="evenodd"/>
        <path id="路径_188" data-name="路径 188" d="M606.542,575.736h0a5.549,5.549,0,0,1,5.37,5.675v7.946H609.6v-6.68c0-2.619-.611-4.759-3.056-4.759h0c-2.489,0-3.056,2.139-3.056,4.759v6.68h-2.358v-7.946A5.585,5.585,0,0,1,606.542,575.736Z" transform="translate(-518.135 -573.025)" fill="#920783" fill-rule="evenodd"/>
        <path id="路径_189" data-name="路径 189" d="M598.752,597.552h13.054l-.917,1.659H598.752Z" transform="translate(-516.894 -581.957)" fill="#920783" fill-rule="evenodd"/>
        <rect id="矩形_10" data-name="矩形 10" width="8.295" height="1.659" transform="translate(84.128 6.507)" fill="#920783"/>
        <rect id="矩形_11" data-name="矩形 11" width="8.295" height="1.659" transform="translate(84.128 10.514)" fill="#920783"/>
        <rect id="矩形_12" data-name="矩形 12" width="1.572" height="1.528" transform="translate(59.243)" fill="#920783"/>
      </g>
    </g>
  </g>
</svg>
