<svg xmlns="http://www.w3.org/2000/svg" width="50" height="50" viewBox="0 0 50 50">
  <g id="_7-Line" data-name="7-Line" transform="translate(10 10)">
    <circle id="椭圆_1" data-name="椭圆 1" cx="25" cy="25" r="25" transform="translate(-10 -10)" fill="#7db33d"/>
    <g id="组_1" data-name="组 1" transform="translate(-3 8)">
      <path id="路径_7" data-name="路径 7" d="M39.02,23.19a1.17,1.17,0,1,0,0-2.34H34.34V17.34h4.68a1.17,1.17,0,1,0,0-2.34H33.17A1.17,1.17,0,0,0,32,16.17v11.7a1.17,1.17,0,0,0,1.17,1.17h5.85a1.17,1.17,0,1,0,0-2.34H34.34V23.19Z" transform="translate(-5.089 -15)" fill="#fff"/>
      <path id="路径_8" data-name="路径 8" d="M16.02,29.04H10.17A1.17,1.17,0,0,1,9,27.87V16.17a1.17,1.17,0,1,1,2.34,0V26.7h4.68a1.17,1.17,0,1,1,0,2.34Z" transform="translate(-9 -15)" fill="#fff"/>
      <path id="路径_9" data-name="路径 9" d="M19.17,29.04A1.17,1.17,0,0,1,18,27.87V16.17a1.17,1.17,0,1,1,2.34,0v11.7A1.17,1.17,0,0,1,19.17,29.04Z" transform="translate(-7.47 -15)" fill="#fff"/>
      <path id="路径_10" data-name="路径 10" d="M30.19,29.04a1.17,1.17,0,0,1-1-.567L24.34,20.394V27.87a1.17,1.17,0,1,1-2.34,0V16.17a1.17,1.17,0,0,1,2.173-.6l4.847,8.079V16.17a1.17,1.17,0,1,1,2.34,0v11.7A1.17,1.17,0,0,1,30.5,29,1.189,1.189,0,0,1,30.19,29.04Z" transform="translate(-6.79 -15)" fill="#fff"/>
    </g>
  </g>
</svg>
