<svg xmlns="http://www.w3.org/2000/svg" width="90.13" height="96.388" viewBox="0 0 90.13 96.388">
  <g id="蛾" transform="translate(-282.934 -214.688)">
    <g id="组_304" data-name="组 304" transform="translate(282.934 220.946)">
      <g id="组_303" data-name="组 303">
        <path id="路径_479" data-name="路径 479" d="M328,309.9a45.065,45.065,0,1,1,45.064-45.064A45.116,45.116,0,0,1,328,309.9Zm0-84.914a39.85,39.85,0,1,0,39.85,39.85A39.895,39.895,0,0,0,328,224.982Z" transform="translate(-282.934 -219.766)" fill="#eb0000"/>
      </g>
    </g>
    <g id="组_350" data-name="组 350" transform="translate(294.485 214.688)">
      <g id="组_309" data-name="组 309" transform="translate(25.844 44.011)">
        <g id="组_306" data-name="组 306" transform="translate(3.735)">
          <g id="组_305" data-name="组 305">
            <path id="路径_480" data-name="路径 480" d="M322.638,268.243c2.952,2.823,7.317,2.073,10.37-.149a17.715,17.715,0,0,0,.3-3.992,49.416,49.416,0,0,0-2.873-15.016H321.77c-1.487,2.621-1.737,5.8-1.944,8.78C319.575,261.486,319.848,265.576,322.638,268.243Z" transform="translate(-319.754 -249.087)" fill="#f9ae06"/>
          </g>
        </g>
        <g id="组_308" data-name="组 308">
          <g id="组_307" data-name="组 307">
            <path id="路径_481" data-name="路径 481" d="M316.429,264.991c.319,7.131,4.129,10.63,8.551,10.63,3.634,0,7.346-2.129,8.419-7.526-3.053,2.222-7.417,2.971-10.37.149-2.79-2.668-3.063-6.757-2.812-10.376.207-2.976.457-6.16,1.944-8.78h-1.974C319.939,249.151,316.111,257.86,316.429,264.991Z" transform="translate(-316.41 -249.087)" fill="#f78f08"/>
          </g>
        </g>
      </g>
      <g id="组_311" data-name="组 311" transform="translate(19.057)">
        <g id="组_310" data-name="组 310">
          <path id="路径_482" data-name="路径 482" d="M310.334,209.688a10.13,10.13,0,0,0,4.785,7.762,46.509,46.509,0,0,1,7.657,5.69c1.186,1.257,2.633,5.067,2.633,5.067.851-.087-.239-3.553-3.075-6.695s-5.8-4.115-8.331-6.881A47.144,47.144,0,0,1,310.334,209.688Z" transform="translate(-310.334 -209.688)" fill="#873217"/>
        </g>
      </g>
      <g id="组_313" data-name="组 313" transform="translate(35.457)">
        <g id="组_312" data-name="组 312">
          <path id="路径_483" data-name="路径 483" d="M340.373,209.688a10.131,10.131,0,0,1-4.785,7.762,46.51,46.51,0,0,0-7.657,5.69c-1.186,1.257-2.633,5.067-2.633,5.067-.851-.087.239-3.553,3.075-6.695s5.8-4.115,8.331-6.881A47.143,47.143,0,0,0,340.373,209.688Z" transform="translate(-325.016 -209.688)" fill="#873217"/>
        </g>
      </g>
      <g id="组_315" data-name="组 315" transform="translate(30.542 17.111)">
        <g id="组_314" data-name="组 314">
          <path id="路径_484" data-name="路径 484" d="M329.386,230.046c0,2.784-1.963,5.04-4.384,5.04s-4.386-2.256-4.386-5.04,1.964-5.04,4.386-5.04S329.386,227.262,329.386,230.046Z" transform="translate(-320.616 -225.006)" fill="#b25336"/>
        </g>
      </g>
      <g id="组_317" data-name="组 317" transform="translate(28.963 17.32)">
        <g id="组_316" data-name="组 316">
          <path id="路径_485" data-name="路径 485" d="M323.392,225.417s-2.752-.923-3.886.975,1.276,4.545,1.276,4.545A7.131,7.131,0,0,0,323.392,225.417Z" transform="translate(-319.202 -225.193)" fill="#424242"/>
        </g>
      </g>
      <g id="组_319" data-name="组 319" transform="translate(36.62 17.32)">
        <g id="组_318" data-name="组 318">
          <path id="路径_486" data-name="路径 486" d="M326.057,225.417s2.751-.923,3.886.975-1.277,4.545-1.277,4.545A7.132,7.132,0,0,1,326.057,225.417Z" transform="translate(-326.057 -225.193)" fill="#424242"/>
        </g>
      </g>
      <g id="组_324" data-name="组 324" transform="translate(28.025 23.988)">
        <g id="组_321" data-name="组 321" transform="translate(0)">
          <g id="组_320" data-name="组 320">
            <path id="路径_487" data-name="路径 487" d="M325.265,246.1c4.161-2.437,3.048-10.592,2.221-14.562a5.748,5.748,0,0,0-2.045-.362v-.01c-.063,0-.115,0-.175.006s-.114-.006-.176-.006v.01c-3.6.1-3.685,1.788-5.309,6.062a20.5,20.5,0,0,0-1.416,7C319.8,246.111,322.143,247.925,325.265,246.1Z" transform="translate(-318.363 -231.162)" fill="#873217"/>
          </g>
        </g>
        <g id="组_323" data-name="组 323" transform="translate(0 0.372)">
          <g id="组_322" data-name="组 322">
            <path id="路径_488" data-name="路径 488" d="M325.089,253.5v.027s.065,0,.176-.01c.111.009.175.01.175.01V253.5a6.96,6.96,0,0,0,5.026-2.977c2.482-3.743,1.96-8.915.284-13.329-1.235-3.252-1.585-5-3.264-5.7.828,3.97,1.94,12.125-2.221,14.562-3.122,1.829-5.467.015-6.9-1.867a11.159,11.159,0,0,0,1.7,6.334A6.962,6.962,0,0,0,325.089,253.5Z" transform="translate(-318.363 -231.495)" fill="#6d210c"/>
          </g>
        </g>
      </g>
      <g id="组_334" data-name="组 334" transform="translate(0 28.523)">
        <g id="组_329" data-name="组 329" transform="translate(0.449)">
          <g id="组_326" data-name="组 326" transform="translate(3.251)">
            <g id="组_325" data-name="组 325">
              <path id="路径_489" data-name="路径 489" d="M324.843,253.015a66.044,66.044,0,0,1-.87-17.793A3.786,3.786,0,0,0,321.2,236.3c1.117,3.239-1.951,6.617-4.226,8.886-4.574,4.563-9.453,8.93-13.711,13.795a25.289,25.289,0,0,0-6.634,15.83,41.918,41.918,0,0,0,.547,8.625q.295,1.813.719,3.6c.092.387.3.932.5,1.489,2.941,1.854,6.657,1.594,10.871.206,4.257-1.4,8.457-5.523,10.061-7.55C323.5,275.9,326.4,261.536,324.843,253.015Z" transform="translate(-296.587 -235.222)" fill="#b25336"/>
            </g>
          </g>
          <g id="组_328" data-name="组 328" transform="translate(0 1.078)">
            <g id="组_327" data-name="组 327">
              <path id="路径_490" data-name="路径 490" d="M297.513,283.323a41.918,41.918,0,0,1-.547-8.625,25.289,25.289,0,0,1,6.634-15.83c4.258-4.865,9.136-9.231,13.711-13.795,2.274-2.269,5.343-5.647,4.226-8.886-1.087,1-2.067,2.646-3.976,4.775-3.237,3.61-16.83,13.609-20.591,22.342a36.959,36.959,0,0,0-2.659,6.757c-1.538,7.106-.323,15.04,4.076,18.128.113.079.229.149.343.22-.193-.557-.407-1.1-.5-1.489Q297.807,285.134,297.513,283.323Z" transform="translate(-293.676 -236.187)" fill="#9e432e"/>
            </g>
          </g>
        </g>
        <g id="组_331" data-name="组 331" transform="translate(13.925 10.452)">
          <g id="组_330" data-name="组 330">
            <path id="路径_491" data-name="路径 491" d="M316.149,244.787c.039-.209-.281-.3-.319-.088,0,.022-.011.044-.016.066a.074.074,0,0,0-.1.087c.015.068.022.136.034.2-1.192,5.632-5.632,9.545-8.176,14.541-1,1.962-3.668,9.245.189,9.9.095.016.206-.084.139-.181-3.136-4.53,2.068-10.423,4.44-14.2C314.073,252.367,316.756,247.221,316.149,244.787Z" transform="translate(-305.74 -244.579)" fill="#9e432e"/>
          </g>
        </g>
        <g id="组_333" data-name="组 333" transform="translate(0 0.195)">
          <g id="组_332" data-name="组 332">
            <path id="路径_492" data-name="路径 492" d="M320.4,248.354a25.766,25.766,0,0,0-1.171-9.06,29.765,29.765,0,0,1,3.672-3.9c-1.6.42-2.366,1.776-4.367,4-2.922,3.248-6.746,6.393-9.4,8.886a72.274,72.274,0,0,0-10.14,11.2c-4.863,7-8.333,17.861-3.129,25.674a24.218,24.218,0,0,1-1.763-11.281,19.235,19.235,0,0,0,5.753-5.509,38.265,38.265,0,0,0-2.292,9.028c-.391,3.414-.872,8.15,1.258,11.12-.951-2.643-1.173-7.7-.7-11.5.428-3.466,1.7-6.554,2.595-9.85,1.027-1.5,2.029-3.021,3.178-4.41a20.244,20.244,0,0,1,1.67-1.7,43.891,43.891,0,0,0-5.245,14.277c-.894,4.453-2.077,10.542,1.3,14.257-2.366-4.926-1.525-11.184-.4-15.909,1.166-4.887,3.315-9.182,5.44-13.649,2.661-2.48,5.715-5.54,4.622-8.521a16.8,16.8,0,0,0,4.06-8.1.171.171,0,0,0-.019-.09q.826-.784,1.628-1.59c.807,7.021-4.548,12.226-7.642,18-.353.659-.679,1.337-.972,2.03a32.994,32.994,0,0,0-5.485,13.771c-.643,3.943-1.645,10.938,1.925,13.874-2.513-3.759-2.053-10.947-1.089-15.469a39.447,39.447,0,0,1,4.083-10.671,13.246,13.246,0,0,0-.668,3.6c-.045,1.225-.011,3.362,1.319,3.948-3.588,5.082-4.245,13.353-.777,18.6a26,26,0,0,1-1.584-9.431,18.468,18.468,0,0,1,2.872-9.022c1.547.182,2.711-1.651,3.438-2.732A31.4,31.4,0,0,0,316,260.336a14.534,14.534,0,0,1,1.4-3.3,16.224,16.224,0,0,0,2.434-5.082,28.226,28.226,0,0,1-1.655,9.274,97.308,97.308,0,0,1-4.634,9.933c-2.775,5.566-5.226,11.5-4.249,17.831a12.617,12.617,0,0,0,.338-2.615c5.4-4.2,7.323-12.032,9.673-18.115C321.672,262.156,325.444,254.208,320.4,248.354Zm-13.712,10.6a41.172,41.172,0,0,0-4.2,4.669c-2.529,3.449-4.535,7.444-8.325,9.666a22.286,22.286,0,0,1,.467-2.983c.1-.41.216-.812.332-1.215,2-.722,3.347-2.7,4.521-4.377a54.744,54.744,0,0,1,6.495-7.682c1.6-1.583,3.351-3.243,4.907-5.047C311.1,254.8,308.546,257.091,306.683,258.956Zm-1.734-1.872c-3.567,3.551-7.429,10.184-9.783,11.282a34.912,34.912,0,0,1,6.251-11.114,97.625,97.625,0,0,1,9.554-9.887c1.257-1.176,2.555-2.347,3.833-3.547C312.786,249.26,309.013,253.038,304.95,257.084Zm10.653,2.765a33.819,33.819,0,0,1-2.92,6.9c-.3.516-.618,1.025-.965,1.513-.866,1.213-2.9,2.967-3.853,1.018-.484-.986-.118-3.628.044-4.392,1.451-6.821,8.2-12.224,9.476-19.018C319.07,250.21,316.927,255.658,315.6,259.848Zm1.819-3.883c1.08-3.627,1.893-7.024.083-10.87a11.571,11.571,0,0,0-.156-3.771q.813-.833,1.578-1.7C319.786,245.359,320.631,250.865,317.421,255.965Zm1,12.886c-2.288,5.86-4.1,12.364-8.769,16.8.2-6.392,3.486-12.231,6.309-17.908,2.512-5.052,5.361-11.165,4.146-16.953.116-.611.191-1.231.247-1.854,1.635,3.277,2.527,6.363,1.653,10.115C321.223,262.413,319.668,265.653,318.418,268.852Z" transform="translate(-293.274 -235.397)" fill="#873217"/>
          </g>
        </g>
      </g>
      <g id="组_344" data-name="组 344" transform="translate(37.5 28.523)">
        <g id="组_339" data-name="组 339">
          <g id="组_336" data-name="组 336">
            <g id="组_335" data-name="组 335">
              <path id="路径_493" data-name="路径 493" d="M327.272,253.015a65.951,65.951,0,0,0,.87-17.793,3.789,3.789,0,0,1,2.778,1.078c-1.117,3.239,1.951,6.617,4.226,8.886,4.574,4.563,9.451,8.93,13.711,13.795a25.288,25.288,0,0,1,6.633,15.83,41.926,41.926,0,0,1-.546,8.625q-.295,1.813-.719,3.6c-.092.387-.3.932-.5,1.489-2.94,1.854-6.657,1.594-10.871.206-4.257-1.4-8.457-5.523-10.06-7.55C328.616,275.9,325.714,261.536,327.272,253.015Z" transform="translate(-326.845 -235.222)" fill="#b25336"/>
            </g>
          </g>
          <g id="组_338" data-name="组 338" transform="translate(3.838 1.078)">
            <g id="组_337" data-name="组 337">
              <path id="路径_494" data-name="路径 494" d="M354.541,283.323a41.921,41.921,0,0,0,.546-8.625,25.288,25.288,0,0,0-6.633-15.83c-4.259-4.865-9.136-9.231-13.711-13.795-2.274-2.269-5.343-5.647-4.226-8.886,1.087,1,2.065,2.646,3.974,4.775,3.237,3.61,16.831,13.609,20.592,22.342a37.036,37.036,0,0,1,2.659,6.757c1.537,7.106.322,15.04-4.077,18.128-.112.079-.228.149-.343.22.194-.557.408-1.1.5-1.489Q354.246,285.134,354.541,283.323Z" transform="translate(-330.281 -236.187)" fill="#9e432e"/>
            </g>
          </g>
        </g>
        <g id="组_341" data-name="组 341" transform="translate(7.962 10.452)">
          <g id="组_340" data-name="组 340">
            <path id="路径_495" data-name="路径 495" d="M334.06,244.787c-.039-.209.282-.3.321-.088,0,.022.01.044.015.066a.074.074,0,0,1,.1.087c-.015.068-.021.136-.034.2,1.192,5.632,5.633,9.545,8.176,14.541,1,1.962,3.67,9.245-.189,9.9-.094.016-.206-.084-.139-.181,3.137-4.53-2.068-10.423-4.44-14.2C336.137,252.367,333.453,247.221,334.06,244.787Z" transform="translate(-333.972 -244.579)" fill="#9e432e"/>
          </g>
        </g>
        <g id="组_343" data-name="组 343" transform="translate(2.763 0.195)">
          <g id="组_342" data-name="组 342">
            <path id="路径_496" data-name="路径 496" d="M331.818,248.354a25.791,25.791,0,0,1,1.171-9.06,29.654,29.654,0,0,0-3.671-3.9c1.6.42,2.366,1.776,4.367,4,2.922,3.248,6.745,6.393,9.4,8.886a72.274,72.274,0,0,1,10.14,11.2c4.863,7,8.333,17.861,3.129,25.674a24.233,24.233,0,0,0,1.764-11.281,19.22,19.22,0,0,1-5.753-5.509,38.316,38.316,0,0,1,2.292,9.028c.39,3.414.871,8.15-1.258,11.12.951-2.643,1.173-7.7.7-11.5-.428-3.466-1.7-6.554-2.595-9.85-1.028-1.5-2.029-3.021-3.179-4.41a20.214,20.214,0,0,0-1.669-1.7,43.915,43.915,0,0,1,5.245,14.277c.893,4.453,2.077,10.542-1.3,14.257,2.366-4.926,1.526-11.184.4-15.909-1.167-4.887-3.315-9.182-5.441-13.649-2.66-2.48-5.715-5.54-4.622-8.521a16.808,16.808,0,0,1-4.059-8.1.171.171,0,0,1,.018-.09q-.824-.784-1.628-1.59c-.805,7.021,4.548,12.226,7.642,18,.354.659.68,1.337.973,2.03a33.01,33.01,0,0,1,5.485,13.771c.642,3.943,1.644,10.938-1.925,13.874,2.513-3.759,2.053-10.947,1.088-15.469a39.375,39.375,0,0,0-4.083-10.671,13.247,13.247,0,0,1,.669,3.6c.045,1.225.01,3.362-1.32,3.948,3.589,5.082,4.245,13.353.779,18.6a26.028,26.028,0,0,0,1.584-9.431,18.48,18.48,0,0,0-2.872-9.022c-1.548.182-2.712-1.651-3.439-2.732a31.394,31.394,0,0,1-3.632-7.894,14.537,14.537,0,0,0-1.4-3.3,16.2,16.2,0,0,1-2.433-5.082,28.2,28.2,0,0,0,1.656,9.274,97.06,97.06,0,0,0,4.634,9.933c2.775,5.566,5.224,11.5,4.249,17.831a12.467,12.467,0,0,1-.339-2.615c-5.4-4.2-7.323-12.032-9.673-18.115C330.542,262.156,326.77,254.208,331.818,248.354Zm13.712,10.6a41.172,41.172,0,0,1,4.2,4.669c2.53,3.449,4.535,7.444,8.325,9.666a22.1,22.1,0,0,0-.467-2.983c-.095-.41-.216-.812-.331-1.215-2-.722-3.347-2.7-4.522-4.377a54.674,54.674,0,0,0-6.495-7.682c-1.6-1.583-3.35-3.243-4.907-5.047C341.112,254.8,343.668,257.091,345.53,258.956Zm1.734-1.872c3.568,3.551,7.428,10.184,9.784,11.282a34.932,34.932,0,0,0-6.251-11.114,97.625,97.625,0,0,0-9.554-9.887c-1.257-1.176-2.556-2.347-3.834-3.547C339.429,249.26,343.2,253.038,347.264,257.084Zm-10.652,2.765a33.812,33.812,0,0,0,2.919,6.9c.3.516.619,1.025.966,1.513.865,1.213,2.9,2.967,3.853,1.018.484-.986.118-3.628-.045-4.392-1.451-6.821-8.2-12.224-9.475-19.018C333.143,250.21,335.288,255.658,336.611,259.848Zm-1.819-3.883c-1.081-3.627-1.893-7.024-.084-10.87a11.6,11.6,0,0,1,.156-3.771q-.811-.833-1.578-1.7C332.427,245.359,331.583,250.865,334.793,255.965Zm-1,12.886c2.289,5.86,4.1,12.364,8.769,16.8-.2-6.392-3.485-12.231-6.308-17.908-2.512-5.052-5.361-11.165-4.147-16.953-.117-.611-.191-1.231-.248-1.854-1.634,3.277-2.527,6.363-1.652,10.115C330.99,262.413,332.546,265.653,333.8,268.852Z" transform="translate(-329.318 -235.397)" fill="#873217"/>
          </g>
        </g>
      </g>
      <g id="组_349" data-name="组 349" transform="translate(23.47 23.505)">
        <g id="组_346" data-name="组 346" transform="translate(3.638)">
          <g id="组_345" data-name="组 345">
            <path id="路径_497" data-name="路径 497" d="M321.36,236.447a16.63,16.63,0,0,0-1.128,4,12.668,12.668,0,0,1,3.181-2.563c-.462,1.524-1.022,3.109-.653,4.57.621-1.324,2.088-2.869,2.568-4.5.717,2.214,1.947,3.176,2.569,4.5.367-1.461-.192-3.046-.655-4.57a12.668,12.668,0,0,1,3.181,2.563,16.674,16.674,0,0,0-1.127-4,8.866,8.866,0,0,0,3.817,1.172,5.531,5.531,0,0,1-1.58-2.867c-.086-.112-.171-.218-.258-.335-1.635-2.2-4.285-3.668-5.939-3.686-1.654.018-4.305,1.489-5.941,3.686-.094.125-.185.241-.278.361a5.53,5.53,0,0,1-1.576,2.842A8.87,8.87,0,0,0,321.36,236.447Z" transform="translate(-317.542 -230.73)" fill="#fbcc02"/>
          </g>
        </g>
        <g id="组_348" data-name="组 348" transform="translate(0 4.021)">
          <g id="组_347" data-name="组 347">
            <path id="路径_498" data-name="路径 498" d="M314.285,239.105s2.712-.159,3.69-1.125a12.041,12.041,0,0,0-1.243,5.725s1.223-3.137,2.5-3.954a17.372,17.372,0,0,0,.08,5.47s.754-3.424,1.674-4.015C320.692,243.943,323.2,246,323.2,246s.391-3.045,1-3.816a9.342,9.342,0,0,0,1.542,5.435c.417-.385,1.063-3.483,1.111-5.557A17.574,17.574,0,0,1,328.236,246s2.507-2.052,2.214-4.789c.922.591,1.676,4.015,1.676,4.015a17.384,17.384,0,0,0,.079-5.47c1.276.818,2.5,3.954,2.5,3.954a12.041,12.041,0,0,0-1.243-5.725c.977.966,3.69,1.125,3.69,1.125a16.371,16.371,0,0,1-5.235-4.775,5.531,5.531,0,0,0,1.58,2.867,8.866,8.866,0,0,1-3.817-1.172,16.674,16.674,0,0,1,1.127,4,12.668,12.668,0,0,0-3.181-2.563c.462,1.524,1.022,3.109.655,4.57-.622-1.324-1.852-2.286-2.569-4.5-.48,1.631-1.947,3.176-2.568,4.5-.369-1.461.191-3.046.653-4.57a12.668,12.668,0,0,0-3.181,2.563,16.63,16.63,0,0,1,1.128-4,8.87,8.87,0,0,1-3.818,1.172,5.53,5.53,0,0,0,1.576-2.842A16.332,16.332,0,0,1,314.285,239.105Z" transform="translate(-314.285 -234.33)" fill="#f9ae06"/>
          </g>
        </g>
      </g>
    </g>
    <g id="组_352" data-name="组 352" transform="translate(294.437 233.021)">
      <g id="组_351" data-name="组 351">
        <rect id="矩形_10" data-name="矩形 10" width="86.767" height="5.215" transform="translate(0 61.599) rotate(-45.23)" fill="#eb0000"/>
      </g>
    </g>
  </g>
</svg>
