<svg xmlns="http://www.w3.org/2000/svg" width="50" height="50" viewBox="0 0 50 50">
  <g id="phone" transform="translate(0.183 -15)">
    <circle id="椭圆_2" data-name="椭圆 2" cx="25" cy="25" r="25" transform="translate(-0.183 15)" fill="#0172bd"/>
    <g id="icons" transform="translate(18.129 26.754)">
      <path id="mobile" d="M657.527,5.208c0-2.864-1.972-5.208-4.382-5.208h-8.764C641.972,0,640,2.343,640,5.208V26.039c0,2.864,1.972,5.208,4.382,5.208h8.764c2.41,0,4.382-2.343,4.382-5.208Zm-7.668,23.435h-2.191c-.657,0-1.1-.521-1.1-1.3s.438-1.3,1.1-1.3h2.191c.657,0,1.1.521,1.1,1.3S650.516,28.642,649.859,28.642Zm5.477-6.51c0,.781-.438,1.3-1.1,1.3H643.286c-.657,0-1.1-.521-1.1-1.3V6.51c0-.781.438-1.3,1.1-1.3h10.955c.657,0,1.1.521,1.1,1.3Z" transform="translate(-642.312 -2.754)" fill="#fff"/>
    </g>
  </g>
</svg>
