<svg xmlns="http://www.w3.org/2000/svg" width="109" height="110" viewBox="0 0 109 110">
  <g id="ruten_store" transform="translate(0 -0.463)">
    <ellipse id="椭圆_5" data-name="椭圆 5" cx="54.5" cy="55" rx="54.5" ry="55" transform="translate(0 0.463)" fill="#ea501f"/>
    <g id="g30" transform="translate(18.31 23.569)">
      <path id="path10" d="M66.636,280.173a1.08,1.08,0,0,1-1.077-1.2,1.027,1.027,0,0,1,1.077-1.161h29.1a1.027,1.027,0,0,1,1.077,1.161,1.08,1.08,0,0,1-1.077,1.2H82.64v1.948H96.363c2.071,0,3.233.83,3.233,2.695v10.8c0,.911-.579,1.2-1.45,1.2-.913,0-1.576-.289-1.576-1.2V285.231c0-.7-.456-.951-1.244-.951H82.64v13.406c0,.954-.578,1.2-1.493,1.2s-1.533-.249-1.533-1.2V284.28h-12.6c-.787,0-1.243.249-1.243.951v10.3c0,.913-.582,1.244-1.492,1.244s-1.493-.332-1.493-1.244V284.816c0-1.865,1.163-2.695,3.276-2.695H79.613v-1.948Z" transform="translate(-62.78 -277.81)" fill="#fff"/>
      <g id="g16" transform="translate(18.979 30.878)">
        <g id="g14">
          <path id="path12" d="M270.193,592.585a1.845,1.845,0,0,0-1.5-.691H257.966a2,2,0,0,0-1.591.672l-.008.012a2.176,2.176,0,0,0-.543,1.458v3.954a1.848,1.848,0,0,0,.6,1.484,2.314,2.314,0,0,0,1.526.551h10.74a1.9,1.9,0,0,0,1.449-.6,2.412,2.412,0,0,0,.585-1.414v-3.972A2.272,2.272,0,0,0,270.193,592.585Zm-1.894,4.8a.765.765,0,0,1-.213.564,1.025,1.025,0,0,1-.529.21h-8.387a1.128,1.128,0,0,1-.668-.175.632.632,0,0,1-.248-.6v-2.712a1.046,1.046,0,0,1,.211-.7.847.847,0,0,1,.7-.213h8.387a.707.707,0,0,1,.564.246,1.6,1.6,0,0,1,.178.669v2.712Z" transform="translate(-255.823 -591.892)" fill="#fff"/>
        </g>
      </g>
      <g id="g22" transform="translate(1.489 20.247)">
        <g id="g20">
          <path id="path18" d="M93.488,498.912c-.147-.55-.4-.808-.881-.808a2.937,2.937,0,0,0-.513.075c-1.285.367-2.716.7-4.183.99v-3.377h3.928c.55,0,.842-.44.842-1.064a.81.81,0,0,0-.842-.916H87.911v-2.5h2.017c1.873,0,2.753-.77,2.753-2.605v-2.348c0-1.874-.842-2.607-2.753-2.607H82.771c-1.907,0-2.749.732-2.749,2.607v2.348c0,1.835.8,2.605,2.714,2.605h2.824v8.293c-.183.035-.367.073-.551.11-.732.11-1.5.256-2.239.329v-6.567c0-.589-.512-.919-1.209-.919-.735,0-1.212.33-1.212.919v6.861c-.477.035-.918.073-1.393.109a1.034,1.034,0,0,0-1.028,1.067v.219a1.072,1.072,0,0,0,1.137,1.064h.219a91.455,91.455,0,0,0,13.323-2.459,1.094,1.094,0,0,0,.918-1.065A1.278,1.278,0,0,0,93.488,498.912Zm-10.2-9.541c-.734,0-.99-.146-.99-.807v-1.981c0-.661.293-.809,1.029-.809h6.053c.7,0,1.028.148,1.028.809v1.981c0,.661-.367.808-1.066.808Z" transform="translate(-77.928 -483.758)" fill="#fff"/>
        </g>
      </g>
      <g id="g28" transform="translate(16.69 20.35)">
        <g id="g26">
          <path id="path24" d="M251.2,493a1.23,1.23,0,0,0-.911-.48,27.147,27.147,0,0,1-5-1.234l-.347-.122.783-.55a8.5,8.5,0,0,0,2.27-2.266,3.276,3.276,0,0,0,.683-1.886l-.022-.337c-.1-.73-.634-1.176-1.574-1.329h-7.746a4.085,4.085,0,0,0-2.788,1.491l-.006.006a6.151,6.151,0,0,1-2.709,1.54,1.357,1.357,0,0,0-.738.725,1.318,1.318,0,0,0,.032.955,1.016,1.016,0,0,0,.658.587c.546.235,1.482-.109,2.884-1.041l.2-.154.118.1c.7.59,1.453,1.165,2.379,1.812l.3.211-.351.122a40.478,40.478,0,0,1-5.618,1.444,1.489,1.489,0,0,0-.9.512,1.384,1.384,0,0,0-.25.822l.005.13a1.538,1.538,0,0,0,.472.846c.583.36,2.173.451,9.115-2.229l.1-.089.144.056A21.987,21.987,0,0,0,250,494.906a1.511,1.511,0,0,0,.952-.235,1.173,1.173,0,0,0,.489-.762V493.9c0-.032,0-.135,0-.135A1.181,1.181,0,0,0,251.2,493Zm-8.936-2.861a27.005,27.005,0,0,1-3.842-2.716,3.868,3.868,0,0,1,1.514-.951h5.29a.488.488,0,0,1,.53.316,1.268,1.268,0,0,1-.07.81A14.052,14.052,0,0,1,242.26,490.142Z" transform="translate(-232.547 -484.799)" fill="#fff"/>
        </g>
      </g>
    </g>
    <path id="path32" d="M79.783,150.78h2.185l3.211,6.371H82.4L80.88,153.3l-1.511,3.849H76.594Z" transform="translate(-52.6 -115.135)" fill="#fff"/>
    <path id="path34" d="M250.714,150.78H252.9l3.212,6.371h-2.781l-1.519-3.849-1.514,3.849h-2.773Z" transform="translate(-206.726 -115.135)" fill="#fff"/>
    <g id="g38" transform="translate(57.605 23.569)">
      <path id="path36" d="M442.773,325.092c-.854,0-1.245-.6-1.245-1.807,0-1.065.392-1.622,1.245-1.622h25.861c.818,0,1.245.556,1.245,1.622,0,1.2-.427,1.807-1.245,1.807H456.966v10.7h11.947c.817,0,1.246.557,1.246,1.622,0,1.206-.429,1.807-1.246,1.807H457.037a19.172,19.172,0,0,0,.926,4.958,18.206,18.206,0,0,0,3.094,5.793A24.766,24.766,0,0,0,466,354.517a46.711,46.711,0,0,0,5.548,3.013,2,2,0,0,1,.677,1.62c-.071,1.113-.464,1.716-1.246,1.807a2.957,2.957,0,0,1-1.245-.369,26.988,26.988,0,0,1-6.973-4.4,23.122,23.122,0,0,1-4.624-4.96,19.99,19.99,0,0,1-2.561-6.395,18.863,18.863,0,0,1-3.058,7.09,25.71,25.71,0,0,1-5.692,5.513,53.539,53.539,0,0,1-5.158,2.967,2.228,2.228,0,0,1-1.1.554q-1.334-.136-1.388-1.807a1.958,1.958,0,0,1,.676-1.62A29.43,29.43,0,0,0,448,352.615a19.246,19.246,0,0,0,6.224-13.39H443.007c-.855,0-1.247-.6-1.247-1.807,0-1.065.391-1.622,1.247-1.622H454.3v-10.7H442.773Z" transform="translate(-439.181 -321.663)" fill="#fff"/>
    </g>
    <g id="g70" transform="translate(21.756 65.268)">
      <g id="g44" transform="translate(68.894 0) rotate(90)">
        <g id="g42" transform="translate(0 0)">
          <rect id="矩形_5" data-name="矩形 5" width="27" height="69" rx="3" transform="translate(0.195 -0.35)" fill="#404040"/>
        </g>
      </g>
      <g id="g54" transform="translate(12.606 3.626)">
        <path id="path46" d="M814.242,346.459c.4,0,.653.326.653.789,0,.486-.257.811-.653.811h-1.855v2.854c.579-.234,1.113-.49,1.576-.72a.622.622,0,0,1,.325-.092c.257,0,.461.187.606.511a.9.9,0,0,1,.092.414.664.664,0,0,1-.4.6c-.629.349-1.392.695-2.2,1.045v5.655c0,1.487-.693,2.091-2.462,2.091a8.6,8.6,0,0,1-1.852-.188.732.732,0,0,1-.558-.788.859.859,0,0,1,.025-.234c.07-.46.347-.669.65-.669a.418.418,0,0,1,.16.024,6.534,6.534,0,0,0,1.4.16c.764,0,.926-.138.926-.788v-4.612c-.788.3-1.6.577-2.3.811a1.492,1.492,0,0,1-.3.045.751.751,0,0,1-.718-.626,1.1,1.1,0,0,1-.073-.371.648.648,0,0,1,.512-.648c.859-.256,1.882-.6,2.876-.949v-3.527h-2.6c-.441,0-.65-.325-.65-.788,0-.486.209-.812.65-.812h2.6V343.51c0-.443.328-.676.837-.676.555,0,.88.233.88.676v2.949Z" transform="translate(-807.282 -341.209)" fill="#fff"/>
        <g id="g52" transform="translate(7.861 0)">
          <g id="g50">
            <path id="path48" d="M854.6,338.432h-3.724a16.677,16.677,0,0,0,1.119-2.7.527.527,0,0,0,.021-.171c0-.3-.26-.5-.712-.6a3.168,3.168,0,0,0-.407-.042.628.628,0,0,0-.669.559,20.667,20.667,0,0,1-1.143,2.952h-1.595c-1.314,0-1.936.516-1.936,1.89v11.893c0,1.4.623,1.917,1.936,1.917H854.6c1.292,0,1.936-.52,1.936-1.917V340.322C856.538,338.949,855.894,338.432,854.6,338.432Zm.3,13.528c0,.449-.217.6-.693.6h-6.351c-.453,0-.672-.152-.672-.6v-5.193H854.9v5.195Zm0-6.722h-7.716v-4.653c0-.471.219-.6.672-.6h6.351c.477,0,.693.133.693.6v4.653Z" transform="translate(-845.556 -334.922)" fill="#fff"/>
          </g>
        </g>
      </g>
      <g id="组_6" data-name="组 6" transform="translate(35.542 3.626)">
        <g id="g60" transform="translate(0.364 11.062)">
          <g id="g58" transform="translate(0 0)">
            <path id="path56" d="M826.567,508.813a14.709,14.709,0,0,1-2.962-.469h.138c1.007,0,1.464-.374,1.464-1.291V503.19c0-.935-.476-1.306-1.551-1.306h-8.782c-1.059,0-1.554.37-1.554,1.307v3.861c0,.869.418,1.246,1.309,1.284a14.7,14.7,0,0,1-2.918.5.488.488,0,0,0-.512.529.32.32,0,0,0,.019.124.591.591,0,0,0,.619.549h.09a14.933,14.933,0,0,0,4.87-1.236.473.473,0,0,0,.32-.444v-.008H821v.008a.5.5,0,0,0,.369.459,15.464,15.464,0,0,0,5.036,1.219h.088a.592.592,0,0,0,.619-.566v-.1A.53.53,0,0,0,826.567,508.813Zm-11.977-5.621c0-.3.177-.391.512-.391h8.34c.335,0,.493.09.493.388v.687H814.59Zm0,1.517,9.345,0v.784l-9.345,0Zm.512,2.7c-.335,0-.512-.088-.512-.388v-.7h9.345v.7c0,.3-.158.388-.493.388Z" transform="translate(-811.198 -501.884)" fill="#fff"/>
          </g>
        </g>
        <path id="path62" d="M810.083,444.321h6.839v1.473h-5.46a.471.471,0,0,0-.435.515c0,.307.165.556.435.556h12.79c.27,0,.435-.25.435-.556a.471.471,0,0,0-.435-.515H818.4v-1.473h7.311c.267,0,.434-.265.434-.573s-.167-.537-.434-.537H818.4v-.819c0-.39-.272-.579-.743-.579-.493,0-.738.189-.738.579v.819h-6.839c-.289,0-.454.226-.454.537S809.794,444.321,810.083,444.321Z" transform="translate(-809.554 -441.812)" fill="#fff"/>
        <g id="g68" transform="translate(0 5.755)">
          <g id="g66" transform="translate(0 0)">
            <path id="path64" d="M824.245,473.061H810.824c-1.113,0-1.6.29-1.6,1.044v2.6c0,.755.49,1.027,1.6,1.027h13.421c1.131,0,1.624-.272,1.624-1.027v-2.6C825.869,473.353,825.376,473.061,824.245,473.061Zm-10.025,3.888h-2.964c-.367,0-.554-.068-.554-.345v-2.4c0-.291.187-.359.554-.359h2.965v3.1Zm4.963,0h-3.52v-3.1h3.52Zm5.208-.346c0,.277-.207.345-.559.345H820.62v-3.1h3.212c.352,0,.559.068.559.359Z" transform="translate(-809.221 -473.061)" fill="#fff"/>
          </g>
        </g>
      </g>
    </g>
  </g>
</svg>
