<svg xmlns="http://www.w3.org/2000/svg" width="50" height="50" viewBox="0 0 50 50">
  <g id="蝦皮購物" transform="translate(1731.171 -1357.592)">
    <circle id="椭圆_4" data-name="椭圆 4" cx="25" cy="25" r="25" transform="translate(-1731.171 1357.592)" fill="#ea501f"/>
    <g id="组_5" data-name="组 5" transform="translate(-1723.891 1362.732)">
      <g id="shopee-seeklogo.com" transform="translate(4 2)">
        <path id="减去_1" data-name="减去 1" d="M23.993,32.955H5.078a4.046,4.046,0,0,1-1.558-.29,3.27,3.27,0,0,1-1.143-.79,3.669,3.669,0,0,1-.728-1.168,4.777,4.777,0,0,1-.313-1.425L0,10.64a1.3,1.3,0,0,1,.356-.973A1.461,1.461,0,0,1,1.425,9.2H8.038a16.271,16.271,0,0,1,.6-3.184A12.645,12.645,0,0,1,9.759,3.346a8.924,8.924,0,0,1,.979-1.4A6.555,6.555,0,0,1,11.877.9,4.952,4.952,0,0,1,13.152.232,4.272,4.272,0,0,1,14.536,0a4.5,4.5,0,0,1,2.655.9,6.629,6.629,0,0,1,1.139,1.053,9.107,9.107,0,0,1,.982,1.393,12.487,12.487,0,0,1,1.121,2.663,16.313,16.313,0,0,1,.6,3.188h6.6a1.471,1.471,0,0,1,.6.129,1.486,1.486,0,0,1,.484.348,1.263,1.263,0,0,1,.342.957L27.734,29.281a4.863,4.863,0,0,1-.357,1.56,3.479,3.479,0,0,1-.782,1.153,3.285,3.285,0,0,1-1.148.715A4.175,4.175,0,0,1,23.993,32.955ZM10.11,25.179a.676.676,0,0,0-.377,1.234,7.8,7.8,0,0,0,.685.434,9.581,9.581,0,0,0,4.856,1.611,4.159,4.159,0,0,0,3.6-1.823l.015-.025h0c.025-.042.056-.1.1-.161a4.434,4.434,0,0,0,.5-1.133,3.753,3.753,0,0,0-.158-2.54A4.733,4.733,0,0,0,17.39,20.66a8.686,8.686,0,0,0-2.108-.894,10.037,10.037,0,0,1-1.952-.748,3.518,3.518,0,0,1-1.2-.96,1.7,1.7,0,0,1-.334-1.079,3.156,3.156,0,0,1,.43-1.391,1.831,1.831,0,0,1,.794-.747,3.359,3.359,0,0,1,1.288-.342c.121-.009.246-.014.372-.014a7.175,7.175,0,0,1,3.22.864.657.657,0,0,0,.311.079.687.687,0,0,0,.64-.89.663.663,0,0,0-.336-.393,8.539,8.539,0,0,0-3.838-1.009c-.157,0-.314.006-.465.018a3.8,3.8,0,0,0-3.17,1.8,3.459,3.459,0,0,0,.009,3.93,7.094,7.094,0,0,0,3.864,2.213,6.813,6.813,0,0,1,1.774.744,4.087,4.087,0,0,1,.88.708,2.869,2.869,0,0,1,.525.788,2.4,2.4,0,0,1,.088,1.629,3.329,3.329,0,0,1-.351.8.225.225,0,0,1-.031.05.794.794,0,0,0-.048.074,2.661,2.661,0,0,1-1.053.924,3.267,3.267,0,0,1-1.441.306,6.116,6.116,0,0,1-1.942-.353A11.078,11.078,0,0,1,11.1,25.7c-.2-.12-.4-.25-.615-.4A.662.662,0,0,0,10.11,25.179ZM14.536,1.664c-1.228,0-2.419.9-3.354,2.523A12.713,12.713,0,0,0,9.689,9.2h9.677a12.637,12.637,0,0,0-1.493-5.019C16.967,2.58,15.751,1.664,14.536,1.664Z" fill="#fff"/>
      </g>
    </g>
  </g>
</svg>
