<svg id="shop_store" xmlns="http://www.w3.org/2000/svg" width="109" height="111" viewBox="0 0 109 111">
  <ellipse id="椭圆_4" data-name="椭圆 4" cx="54.5" cy="55.5" rx="54.5" ry="55.5" fill="#ea501f"/>
  <g id="组_5" data-name="组 5" transform="translate(22.626 9.319)">
    <g id="shopee-seeklogo.com" transform="translate(7.252 0)">
      <path id="减去_1" data-name="减去 1" d="M43.5,59.748H9.207a7.336,7.336,0,0,1-2.824-.526A5.929,5.929,0,0,1,4.312,57.79a6.652,6.652,0,0,1-1.319-2.118,8.662,8.662,0,0,1-.567-2.584L.005,19.29a2.35,2.35,0,0,1,.646-1.764,2.649,2.649,0,0,1,1.933-.851H14.572A29.5,29.5,0,0,1,15.661,10.9a22.925,22.925,0,0,1,2.032-4.834,16.178,16.178,0,0,1,1.774-2.532,11.884,11.884,0,0,1,2.067-1.909A8.978,8.978,0,0,1,23.845.42,7.745,7.745,0,0,1,26.354,0a8.158,8.158,0,0,1,4.814,1.631,12.018,12.018,0,0,1,2.066,1.91,16.511,16.511,0,0,1,1.781,2.525,22.638,22.638,0,0,1,2.032,4.828,29.575,29.575,0,0,1,1.089,5.779H50.107a2.666,2.666,0,0,1,1.082.234,2.694,2.694,0,0,1,.878.631,2.289,2.289,0,0,1,.619,1.735l-2.4,33.814a8.817,8.817,0,0,1-.648,2.828,6.307,6.307,0,0,1-1.418,2.091,5.955,5.955,0,0,1-2.081,1.3A7.57,7.57,0,0,1,43.5,59.748ZM18.329,45.65a1.225,1.225,0,0,0-.684,2.238,14.149,14.149,0,0,0,1.242.786,17.37,17.37,0,0,0,8.8,2.921,7.54,7.54,0,0,0,6.527-3.306l.026-.045h0c.045-.077.1-.173.18-.291a8.038,8.038,0,0,0,.908-2.054,6.8,6.8,0,0,0-.287-4.606,8.581,8.581,0,0,0-3.519-3.835,15.748,15.748,0,0,0-3.821-1.621,18.2,18.2,0,0,1-3.538-1.356,6.379,6.379,0,0,1-2.177-1.741,3.081,3.081,0,0,1-.605-1.956,5.722,5.722,0,0,1,.78-2.522,3.32,3.32,0,0,1,1.439-1.354,6.09,6.09,0,0,1,2.334-.62c.219-.017.446-.025.674-.025a13.008,13.008,0,0,1,5.838,1.566,1.191,1.191,0,0,0,.563.143,1.245,1.245,0,0,0,1.16-1.613,1.2,1.2,0,0,0-.609-.712,15.482,15.482,0,0,0-6.958-1.829c-.285,0-.568.011-.843.032a6.88,6.88,0,0,0-5.747,3.258c-1.467,2.726-1.461,5.123.016,7.126,1.257,1.7,3.614,3.05,7.005,4.012a12.352,12.352,0,0,1,3.216,1.348,7.41,7.41,0,0,1,1.6,1.284A5.2,5.2,0,0,1,32.8,42.3a4.36,4.36,0,0,1,.159,2.953,6.036,6.036,0,0,1-.637,1.444.408.408,0,0,1-.056.091,1.439,1.439,0,0,0-.088.134A4.824,4.824,0,0,1,30.272,48.6a5.923,5.923,0,0,1-2.613.556,11.089,11.089,0,0,1-3.52-.64,20.085,20.085,0,0,1-4.01-1.928c-.359-.217-.723-.453-1.114-.722A1.2,1.2,0,0,0,18.329,45.65ZM26.354,3.017c-2.226,0-4.386,1.624-6.082,4.574a23.049,23.049,0,0,0-2.706,9.083H35.11a22.911,22.911,0,0,0-2.707-9.1C30.761,4.678,28.556,3.017,26.354,3.017Z" fill="#fff"/>
    </g>
    <text id="蝦皮購物" transform="translate(0 79.767)" fill="#fff" font-size="16" font-family="MicrosoftJhengHeiBold, Microsoft JhengHei"><tspan x="0" y="0">蝦皮購物</tspan></text>
  </g>
</svg>
