<svg xmlns="http://www.w3.org/2000/svg" width="214.981" height="305.17" viewBox="0 0 214.981 305.17">
  <g id="step03" transform="translate(-1036.256 -4798.355)">
    <text id="保固" transform="translate(1137 4847)" fill="#5b5b5f" font-size="39" font-family="MicrosoftJhengHeiBold, Microsoft JhengHei"><tspan x="-39" y="0">保固</tspan></text>
    <g id="组_9687" data-name="组 9687" transform="translate(602.84 4558.554)">
      <text id="_04" data-name="04" transform="translate(465.16 294.271)" fill="#de4753" font-size="36.507" font-family="Antonio-Bold, Antonio" font-weight="700"><tspan x="-17.478" y="0">04</tspan></text>
      <text id="STEP" transform="translate(465.16 256.801)" fill="#de4753" font-size="15.512" font-family="SegoeUI, Segoe UI"><tspan x="-16.452" y="0">STEP</tspan></text>
    </g>
    <g id="组_9807" data-name="组 9807" transform="translate(905 4808.876)">
      <g id="组_9739" data-name="组 9739" transform="translate(296.228 267.604)">
        <g id="组_9735" data-name="组 9735">
          <path id="路径_7416" data-name="路径 7416" d="M486.011,394.548c.524-.249,1.048-.5,1.57-.766,2.321-1.178,4.651-4.418,1.824-6.422-1.876-1.331-4.822-1.471-7.019-1.1a49.552,49.552,0,0,0-6.816,2.052c-2.693.868-4.973.436-7.649-.2a7.685,7.685,0,0,0-5.576.509c-2.314,1.217-4.005,3.3-6.261,4.621-2.934,1.713-6.237,2.532-9.324,3.894-2.633,1.161-5.438,2.92-6,5.974-.415,2.25,1.261,4.309,3.218,5.2,5.389,2.45,10.752-1.023,15.928-2.271a19.03,19.03,0,0,1,6.411-.534c2.033.213,3.876,1.291,5.994.94a6.355,6.355,0,0,0,4.4-3c.643-1.119.834-2.407,1.582-3.512C480.106,397.254,483.19,395.892,486.011,394.548Z" transform="translate(-440.696 -386.082)" fill="#bbd196"/>
          <path id="路径_7417" data-name="路径 7417" d="M444.314,410.059c5.389,2.45,10.752-1.023,15.928-2.271a19.03,19.03,0,0,1,6.411-.534c2.033.213,3.876,1.291,5.994.94a6.355,6.355,0,0,0,4.4-3c.643-1.119.834-2.407,1.582-3.512,1.811-2.676,4.9-4.038,7.716-5.382.524-.249,1.048-.5,1.57-.766,1.854-.941,3.711-3.2,2.943-5.09-20.919,3.136-41,12.7-49.326,17.049A5.976,5.976,0,0,0,444.314,410.059Z" transform="translate(-441.032 -387.834)" fill="#9eb276"/>
          <path id="路径_7418" data-name="路径 7418" d="M441.322,407.988a.178.178,0,0,1-.02-.028.15.15,0,0,1,.059-.2c.21-.115,21.266-11.565,45.045-16.324a.149.149,0,1,1,.059.293c-23.733,4.75-44.75,16.178-44.96,16.293A.15.15,0,0,1,441.322,407.988Z" transform="translate(-440.932 -388.23)" fill="#5b556d"/>
          <path id="路径_7419" data-name="路径 7419" d="M451.546,410.541a.152.152,0,0,1-.028-.046.149.149,0,0,1,.016-.136,19.494,19.494,0,0,0,2.412-4.932.15.15,0,1,1,.293.059,18.316,18.316,0,0,1-2.344,4.866,26.3,26.3,0,0,1,6.748,2.882.149.149,0,1,1-.171.245,26.81,26.81,0,0,0-6.852-2.893A.147.147,0,0,1,451.546,410.541Z" transform="translate(-445.038 -393.803)" fill="#5b556d"/>
          <path id="路径_7420" data-name="路径 7420" d="M475.383,399.014a.174.174,0,0,1-.024-.035.152.152,0,0,1,0-.136c.023-.043,2.344-4.311,2.666-6.962a.149.149,0,1,1,.3.036c-.3,2.432-2.158,6.052-2.607,6.895.943.23,5.146,1.456,10.343,6.025a.149.149,0,1,1-.2.224c-5.824-5.12-10.353-5.991-10.4-6A.144.144,0,0,1,475.383,399.014Z" transform="translate(-454.612 -388.358)" fill="#5b556d"/>
          <path id="路径_7421" data-name="路径 7421" d="M498.929,394.05a.151.151,0,0,1,.016-.215,11.329,11.329,0,0,0,2.317-2.777.15.15,0,1,1,.26.148,11.459,11.459,0,0,1-2.192,2.691,22.121,22.121,0,0,1,5.414,2.778.149.149,0,1,1-.19.23,23.463,23.463,0,0,0-5.562-2.813A.153.153,0,0,1,498.929,394.05Z" transform="translate(-464.069 -388.05)" fill="#5b556d"/>
        </g>
      </g>
      <g id="组_9793" data-name="组 9793" transform="translate(151.008 54.949)">
        <g id="组_9740" data-name="组 9740" transform="translate(0)">
          <rect id="矩形_205" data-name="矩形 205" width="151.984" height="222.167" rx="10.542" transform="translate(0 17.533)" fill="#ffd571"/>
          <path id="路径_7440" data-name="路径 7440" d="M344.077,85.627a5.932,5.932,0,0,1,5.71,6.118V300.479a5.931,5.931,0,0,1-5.71,6.118H204.71a5.931,5.931,0,0,1-5.71-6.118V91.745a5.932,5.932,0,0,1,5.71-6.118H344.077" transform="translate(-198.402 -67.496)" fill="#ff9676"/>
          <rect id="矩形_206" data-name="矩形 206" width="129.909" height="201.068" transform="translate(11.038 28.082)" fill="#fff"/>
          <path id="路径_7441" data-name="路径 7441" d="M277.155,84.627l3.222,11.66-12.624,1.59a14.4,14.4,0,0,0-7.329,3.055l-6.5,5.306c-.765.625-.13,1.847.953,1.847h82.879c1.084,0,1.718-1.222.953-1.847l-6.5-5.306a14.4,14.4,0,0,0-7.329-3.055l-12.624-1.59,3.222-11.66Z" transform="translate(-220.327 -67.094)" fill="#999" opacity="0.3" style="mix-blend-mode: multiply;isolation: isolate"/>
          <path id="路径_7442" data-name="路径 7442" d="M338.582,94.27,331.6,88.5a14.75,14.75,0,0,0-7.418-3.245l-12.341-1.668L314.568,71a2.992,2.992,0,0,0-1.927-3.453l-8.087-2.859a2.572,2.572,0,0,1-1.672-2.589,6.426,6.426,0,0,0-.229-2.012,6.479,6.479,0,0,0-12.727,1.721v.023a3.2,3.2,0,0,1-2.133,3.022l-7.62,2.693A2.992,2.992,0,0,0,278.246,71l2.725,12.593L268.63,85.259a14.748,14.748,0,0,0-7.418,3.245l-6.981,5.766a1.156,1.156,0,0,0,.737,2.047h82.879A1.156,1.156,0,0,0,338.582,94.27ZM296.407,57.582a4.225,4.225,0,1,1-4.226,4.225A4.225,4.225,0,0,1,296.407,57.582Z" transform="translate(-220.415 -55.326)" fill="#5b556d"/>
          <path id="路径_7443" data-name="路径 7443" d="M296.407,55.924a6.246,6.246,0,0,1,.917.069,5.931,5.931,0,0,1,4.751,4.251,5.851,5.851,0,0,1,.208,1.826,3.167,3.167,0,0,0,2.07,3.181l8.087,2.859a2.4,2.4,0,0,1,1.541,2.763l-2.725,12.593a.6.6,0,0,0,.5.719L324.1,85.852a14.143,14.143,0,0,1,7.117,3.113l6.981,5.766a.558.558,0,0,1-.355.987H254.967a.558.558,0,0,1-.355-.987l6.981-5.766a14.14,14.14,0,0,1,7.117-3.113l12.341-1.668a.6.6,0,0,0,.505-.719l-2.725-12.593a2.4,2.4,0,0,1,1.541-2.763l7.62-2.693a3.81,3.81,0,0,0,2.532-3.609,5.89,5.89,0,0,1,5.883-5.882m0,10.706a4.824,4.824,0,1,0-4.824-4.824,4.829,4.829,0,0,0,4.824,4.824m0-11.3a6.481,6.481,0,0,0-6.482,6.481v.023a3.2,3.2,0,0,1-2.133,3.022l-7.62,2.693A2.992,2.992,0,0,0,278.246,71l2.725,12.593L268.63,85.259a14.748,14.748,0,0,0-7.418,3.245l-6.981,5.765a1.156,1.156,0,0,0,.737,2.048h82.879a1.156,1.156,0,0,0,.736-2.048L331.6,88.5a14.751,14.751,0,0,0-7.418-3.245l-12.341-1.668L314.568,71a2.992,2.992,0,0,0-1.927-3.453l-8.087-2.859a2.572,2.572,0,0,1-1.672-2.589,6.426,6.426,0,0,0-.229-2.012,6.5,6.5,0,0,0-5.239-4.683,6.727,6.727,0,0,0-1.006-.076Zm0,10.706a4.225,4.225,0,1,1,4.226-4.226,4.226,4.226,0,0,1-4.226,4.226Z" transform="translate(-220.415 -55.326)" fill="#68637c"/>
        </g>
        <g id="组_9792" data-name="组 9792" transform="translate(19.648 97.729)">
          <g id="组_9753" data-name="组 9753" transform="translate(0 8.905)">
            <g id="组_9741" data-name="组 9741" transform="translate(63.523)">
              <path id="路径_7444" data-name="路径 7444" d="M384.429,208.9h-45.7A1.733,1.733,0,0,0,337,210.628h0a1.733,1.733,0,0,0,1.733,1.733h45.7a1.733,1.733,0,0,0,1.733-1.733h0A1.733,1.733,0,0,0,384.429,208.9Z" transform="translate(-336.999 -208.895)" fill="#d3d1e5"/>
            </g>
            <g id="组_9742" data-name="组 9742">
              <path id="路径_7445" data-name="路径 7445" d="M290.494,208.9H232.57a1.733,1.733,0,0,0-1.733,1.733h0a1.733,1.733,0,0,0,1.733,1.733h57.923a1.733,1.733,0,0,0,1.733-1.733h0A1.733,1.733,0,0,0,290.494,208.9Z" transform="translate(-230.837 -208.895)" fill="#d3d1e5"/>
            </g>
            <g id="组_9743" data-name="组 9743" transform="translate(0 7.475)">
              <path id="路径_7446" data-name="路径 7446" d="M248.249,221.387H232.57a1.733,1.733,0,0,0-1.733,1.733h0a1.733,1.733,0,0,0,1.733,1.733h15.679a1.733,1.733,0,0,0,1.733-1.733h0A1.733,1.733,0,0,0,248.249,221.387Z" transform="translate(-230.837 -221.387)" fill="#d3d1e5"/>
            </g>
            <g id="组_9744" data-name="组 9744" transform="translate(22.21 7.475)">
              <path id="路径_7447" data-name="路径 7447" d="M318.317,221.387H269.688a1.733,1.733,0,0,0-1.733,1.733h0a1.733,1.733,0,0,0,1.733,1.733h48.629a1.733,1.733,0,0,0,1.734-1.733h0A1.733,1.733,0,0,0,318.317,221.387Z" transform="translate(-267.955 -221.387)" fill="#d3d1e5"/>
            </g>
            <g id="组_9745" data-name="组 9745" transform="translate(77.269 7.475)">
              <path id="路径_7448" data-name="路径 7448" d="M393.656,221.387H361.7a1.733,1.733,0,0,0-1.733,1.733h0a1.733,1.733,0,0,0,1.733,1.733h31.952a1.733,1.733,0,0,0,1.733-1.733h0A1.733,1.733,0,0,0,393.656,221.387Z" transform="translate(-359.971 -221.387)" fill="#d3d1e5"/>
            </g>
            <g id="组_9746" data-name="组 9746" transform="translate(0 14.949)">
              <path id="路径_7449" data-name="路径 7449" d="M265.562,233.878H232.57a1.733,1.733,0,0,0-1.733,1.733h0a1.733,1.733,0,0,0,1.733,1.733h32.991a1.733,1.733,0,0,0,1.733-1.733h0A1.733,1.733,0,0,0,265.562,233.878Z" transform="translate(-230.837 -233.878)" fill="#d3d1e5"/>
            </g>
            <g id="组_9747" data-name="组 9747" transform="translate(39.333 14.949)">
              <path id="路径_7450" data-name="路径 7450" d="M313.067,233.878H298.3a1.733,1.733,0,0,0-1.733,1.733h0a1.733,1.733,0,0,0,1.733,1.733h14.762a1.733,1.733,0,0,0,1.733-1.733h0A1.733,1.733,0,0,0,313.067,233.878Z" transform="translate(-296.571 -233.878)" fill="#d3d1e5"/>
            </g>
            <g id="组_9748" data-name="组 9748" transform="translate(60.645 14.949)">
              <path id="路径_7451" data-name="路径 7451" d="M366.394,233.878H333.922a1.733,1.733,0,0,0-1.733,1.733h0a1.733,1.733,0,0,0,1.733,1.733h32.472a1.733,1.733,0,0,0,1.733-1.733h0A1.733,1.733,0,0,0,366.394,233.878Z" transform="translate(-332.189 -233.878)" fill="#d3d1e5"/>
            </g>
            <g id="组_9749" data-name="组 9749" transform="translate(99.477 14.949)">
              <path id="路径_7452" data-name="路径 7452" d="M408.563,233.878h-9.744a1.733,1.733,0,0,0-1.733,1.733h0a1.733,1.733,0,0,0,1.733,1.733h9.744a1.733,1.733,0,0,0,1.733-1.733h0A1.733,1.733,0,0,0,408.563,233.878Z" transform="translate(-397.086 -233.878)" fill="#d3d1e5"/>
            </g>
            <g id="组_9750" data-name="组 9750" transform="translate(32.368 22.424)">
              <path id="路径_7453" data-name="路径 7453" d="M303.844,246.37h-17.18a1.733,1.733,0,0,0-1.733,1.733h0a1.733,1.733,0,0,0,1.733,1.733h17.18a1.733,1.733,0,0,0,1.733-1.733h0A1.733,1.733,0,0,0,303.844,246.37Z" transform="translate(-284.932 -246.37)" fill="#d3d1e5"/>
            </g>
            <g id="组_9751" data-name="组 9751" transform="translate(55.206 22.424)">
              <path id="路径_7454" data-name="路径 7454" d="M337.178,246.37H324.832A1.733,1.733,0,0,0,323.1,248.1h0a1.733,1.733,0,0,0,1.733,1.733h12.346a1.733,1.733,0,0,0,1.733-1.733h0A1.733,1.733,0,0,0,337.178,246.37Z" transform="translate(-323.099 -246.37)" fill="#d3d1e5"/>
            </g>
            <g id="组_9752" data-name="组 9752" transform="translate(73.3 22.424)">
              <path id="路径_7455" data-name="路径 7455" d="M358.624,246.37h-3.552a1.733,1.733,0,0,0-1.733,1.733h0a1.733,1.733,0,0,0,1.733,1.733h3.552a1.733,1.733,0,0,0,1.733-1.733h0A1.733,1.733,0,0,0,358.624,246.37Z" transform="translate(-353.339 -246.37)" fill="#d3d1e5"/>
            </g>
          </g>
          <g id="组_9755" data-name="组 9755" transform="translate(27.283)">
            <g id="组_9754" data-name="组 9754">
              <path id="路径_7456" data-name="路径 7456" d="M309.919,194.013H278.932a2.5,2.5,0,0,0-2.5,2.5h0a2.5,2.5,0,0,0,2.5,2.5h30.987a2.5,2.5,0,0,0,2.5-2.5h0A2.5,2.5,0,0,0,309.919,194.013Z" transform="translate(-276.434 -194.013)" fill="#453351"/>
              <path id="路径_7457" data-name="路径 7457" d="M357.782,194.013h-14.8a2.5,2.5,0,0,0-2.5,2.5h0a2.5,2.5,0,0,0,2.5,2.5h14.8a2.5,2.5,0,0,0,2.5-2.5h0A2.5,2.5,0,0,0,357.782,194.013Z" transform="translate(-302.161 -194.013)" fill="#453351"/>
            </g>
          </g>
          <g id="组_9768" data-name="组 9768" transform="translate(0 55.077)">
            <g id="组_9756" data-name="组 9756" transform="translate(63.523)">
              <path id="路径_7458" data-name="路径 7458" d="M384.429,286.059h-45.7A1.733,1.733,0,0,0,337,287.792h0a1.733,1.733,0,0,0,1.733,1.733h45.7a1.733,1.733,0,0,0,1.733-1.733h0A1.733,1.733,0,0,0,384.429,286.059Z" transform="translate(-336.999 -286.059)" fill="#d3d1e5"/>
            </g>
            <g id="组_9757" data-name="组 9757">
              <path id="路径_7459" data-name="路径 7459" d="M290.494,286.059H232.57a1.733,1.733,0,0,0-1.733,1.733h0a1.733,1.733,0,0,0,1.733,1.733h57.923a1.733,1.733,0,0,0,1.733-1.733h0A1.733,1.733,0,0,0,290.494,286.059Z" transform="translate(-230.837 -286.059)" fill="#d3d1e5"/>
            </g>
            <g id="组_9758" data-name="组 9758" transform="translate(0 7.474)">
              <path id="路径_7460" data-name="路径 7460" d="M248.249,298.55H232.57a1.733,1.733,0,0,0-1.733,1.733h0a1.733,1.733,0,0,0,1.733,1.733h15.679a1.733,1.733,0,0,0,1.733-1.733h0A1.733,1.733,0,0,0,248.249,298.55Z" transform="translate(-230.837 -298.55)" fill="#d3d1e5"/>
            </g>
            <g id="组_9759" data-name="组 9759" transform="translate(22.21 7.474)">
              <path id="路径_7461" data-name="路径 7461" d="M318.317,298.55H269.688a1.733,1.733,0,0,0-1.733,1.733h0a1.733,1.733,0,0,0,1.733,1.733h48.629a1.733,1.733,0,0,0,1.734-1.733h0A1.733,1.733,0,0,0,318.317,298.55Z" transform="translate(-267.955 -298.55)" fill="#d3d1e5"/>
            </g>
            <g id="组_9760" data-name="组 9760" transform="translate(77.269 7.474)">
              <path id="路径_7462" data-name="路径 7462" d="M393.656,298.55H361.7a1.733,1.733,0,0,0-1.733,1.733h0a1.733,1.733,0,0,0,1.733,1.733h31.952a1.733,1.733,0,0,0,1.733-1.733h0A1.733,1.733,0,0,0,393.656,298.55Z" transform="translate(-359.971 -298.55)" fill="#d3d1e5"/>
            </g>
            <g id="组_9761" data-name="组 9761" transform="translate(0 14.949)">
              <path id="路径_7463" data-name="路径 7463" d="M265.562,311.042H232.57a1.733,1.733,0,0,0-1.733,1.733h0a1.733,1.733,0,0,0,1.733,1.733h32.991a1.733,1.733,0,0,0,1.733-1.733h0A1.733,1.733,0,0,0,265.562,311.042Z" transform="translate(-230.837 -311.042)" fill="#d3d1e5"/>
            </g>
            <g id="组_9762" data-name="组 9762" transform="translate(39.333 14.949)">
              <path id="路径_7464" data-name="路径 7464" d="M313.067,311.042H298.3a1.733,1.733,0,0,0-1.733,1.733h0a1.733,1.733,0,0,0,1.733,1.733h14.762a1.733,1.733,0,0,0,1.733-1.733h0A1.733,1.733,0,0,0,313.067,311.042Z" transform="translate(-296.571 -311.042)" fill="#d3d1e5"/>
            </g>
            <g id="组_9763" data-name="组 9763" transform="translate(60.645 14.949)">
              <path id="路径_7465" data-name="路径 7465" d="M366.394,311.042H333.922a1.733,1.733,0,0,0-1.733,1.733h0a1.733,1.733,0,0,0,1.733,1.733h32.472a1.733,1.733,0,0,0,1.733-1.733h0A1.733,1.733,0,0,0,366.394,311.042Z" transform="translate(-332.189 -311.042)" fill="#d3d1e5"/>
            </g>
            <g id="组_9764" data-name="组 9764" transform="translate(99.477 14.949)">
              <path id="路径_7466" data-name="路径 7466" d="M408.563,311.042h-9.744a1.733,1.733,0,0,0-1.733,1.733h0a1.733,1.733,0,0,0,1.733,1.733h9.744a1.733,1.733,0,0,0,1.733-1.733h0A1.733,1.733,0,0,0,408.563,311.042Z" transform="translate(-397.086 -311.042)" fill="#d3d1e5"/>
            </g>
            <g id="组_9765" data-name="组 9765" transform="translate(32.368 22.424)">
              <path id="路径_7467" data-name="路径 7467" d="M303.844,323.534h-17.18a1.733,1.733,0,0,0-1.733,1.733h0A1.733,1.733,0,0,0,286.665,327h17.18a1.733,1.733,0,0,0,1.733-1.733h0A1.733,1.733,0,0,0,303.844,323.534Z" transform="translate(-284.932 -323.534)" fill="#d3d1e5"/>
            </g>
            <g id="组_9766" data-name="组 9766" transform="translate(55.206 22.424)">
              <path id="路径_7468" data-name="路径 7468" d="M337.178,323.534H324.832a1.733,1.733,0,0,0-1.733,1.733h0A1.733,1.733,0,0,0,324.832,327h12.346a1.733,1.733,0,0,0,1.733-1.733h0A1.733,1.733,0,0,0,337.178,323.534Z" transform="translate(-323.099 -323.534)" fill="#d3d1e5"/>
            </g>
            <g id="组_9767" data-name="组 9767" transform="translate(73.3 22.424)">
              <path id="路径_7469" data-name="路径 7469" d="M358.624,323.534h-3.552a1.733,1.733,0,0,0-1.733,1.733h0A1.733,1.733,0,0,0,355.072,327h3.552a1.733,1.733,0,0,0,1.733-1.733h0A1.733,1.733,0,0,0,358.624,323.534Z" transform="translate(-353.339 -323.534)" fill="#d3d1e5"/>
            </g>
          </g>
          <g id="组_9780" data-name="组 9780" transform="translate(0 96.958)">
            <g id="组_9769" data-name="组 9769" transform="translate(34.606)">
              <path id="路径_7470" data-name="路径 7470" d="M310.859,356.053H289.617a.944.944,0,0,0-.945.944h0a.945.945,0,0,0,.945.944h21.242A.945.945,0,0,0,311.8,357h0A.944.944,0,0,0,310.859,356.053Z" transform="translate(-288.672 -356.053)" fill="#d3d1e5"/>
            </g>
            <g id="组_9770" data-name="组 9770">
              <path id="路径_7471" data-name="路径 7471" d="M263.337,356.053H231.781a.944.944,0,0,0-.944.944h0a.945.945,0,0,0,.944.944h31.556a.944.944,0,0,0,.944-.944h0A.944.944,0,0,0,263.337,356.053Z" transform="translate(-230.837 -356.053)" fill="#d3d1e5"/>
            </g>
            <g id="组_9771" data-name="组 9771" transform="translate(0 4.072)">
              <path id="路径_7472" data-name="路径 7472" d="M240.323,362.858h-8.542a.944.944,0,0,0-.944.944h0a.944.944,0,0,0,.944.944h8.542a.944.944,0,0,0,.944-.944h0A.944.944,0,0,0,240.323,362.858Z" transform="translate(-230.837 -362.858)" fill="#d3d1e5"/>
            </g>
            <g id="组_9772" data-name="组 9772" transform="translate(12.099 4.072)">
              <path id="路径_7473" data-name="路径 7473" d="M278.495,362.858H252a.944.944,0,0,0-.944.944h0a.944.944,0,0,0,.944.944h26.492a.944.944,0,0,0,.944-.944h0A.944.944,0,0,0,278.495,362.858Z" transform="translate(-251.058 -362.858)" fill="#d3d1e5"/>
            </g>
            <g id="组_9773" data-name="组 9773" transform="translate(42.095 4.072)">
              <path id="路径_7474" data-name="路径 7474" d="M329.638,362.858H302.131a.944.944,0,0,0-.944.944h0a.944.944,0,0,0,.944.944h27.507a.944.944,0,0,0,.944-.944h0A.944.944,0,0,0,329.638,362.858Z" transform="translate(-301.187 -362.858)" fill="#d3d1e5"/>
            </g>
            <g id="组_9774" data-name="组 9774" transform="translate(0 8.144)">
              <path id="路径_7475" data-name="路径 7475" d="M249.754,369.663H231.781a.945.945,0,0,0-.944.944h0a.944.944,0,0,0,.944.944h17.973a.944.944,0,0,0,.944-.944h0A.944.944,0,0,0,249.754,369.663Z" transform="translate(-230.837 -369.663)" fill="#d3d1e5"/>
            </g>
            <g id="组_9775" data-name="组 9775" transform="translate(21.428 8.144)">
              <path id="路径_7476" data-name="路径 7476" d="M275.635,369.663h-8.042a.945.945,0,0,0-.944.944h0a.944.944,0,0,0,.944.944h8.042a.944.944,0,0,0,.944-.944h0A.945.945,0,0,0,275.635,369.663Z" transform="translate(-266.648 -369.663)" fill="#d3d1e5"/>
            </g>
            <g id="组_9776" data-name="组 9776" transform="translate(33.038 8.144)">
              <path id="路径_7477" data-name="路径 7477" d="M313.186,369.663H287a.945.945,0,0,0-.944.944h0a.944.944,0,0,0,.944.944h26.19a.944.944,0,0,0,.944-.944h0A.944.944,0,0,0,313.186,369.663Z" transform="translate(-286.052 -369.663)" fill="#d3d1e5"/>
            </g>
            <g id="组_9777" data-name="组 9777" transform="translate(0 12.216)">
              <path id="路径_7478" data-name="路径 7478" d="M241.14,376.469h-9.359a.944.944,0,0,0-.944.944h0a.945.945,0,0,0,.944.944h9.359a.944.944,0,0,0,.944-.944h0A.944.944,0,0,0,241.14,376.469Z" transform="translate(-230.837 -376.469)" fill="#d3d1e5"/>
            </g>
            <g id="组_9778" data-name="组 9778" transform="translate(12.442 12.216)">
              <path id="路径_7479" data-name="路径 7479" d="M259.3,376.469h-6.726a.944.944,0,0,0-.944.944h0a.945.945,0,0,0,.944.944H259.3a.945.945,0,0,0,.944-.944h0A.944.944,0,0,0,259.3,376.469Z" transform="translate(-251.63 -376.469)" fill="#d3d1e5"/>
            </g>
            <g id="组_9779" data-name="组 9779" transform="translate(22.3 12.216)">
              <path id="路径_7480" data-name="路径 7480" d="M270.984,376.469h-1.935a.944.944,0,0,0-.944.944h0a.944.944,0,0,0,.944.944h1.935a.944.944,0,0,0,.944-.944h0A.944.944,0,0,0,270.984,376.469Z" transform="translate(-268.105 -376.469)" fill="#d3d1e5"/>
            </g>
          </g>
          <g id="组_9789" data-name="组 9789" transform="translate(60.173 96.958)">
            <g id="组_9781" data-name="组 9781" transform="translate(30.953)">
              <path id="路径_7481" data-name="路径 7481" d="M403.746,356.053H384.073a.944.944,0,0,0-.944.944h0a.944.944,0,0,0,.944.944h19.673a.945.945,0,0,0,.944-.944h0A.944.944,0,0,0,403.746,356.053Z" transform="translate(-383.129 -356.053)" fill="#d3d1e5"/>
            </g>
            <g id="组_9782" data-name="组 9782">
              <path id="路径_7482" data-name="路径 7482" d="M360.473,356.053H332.344a.944.944,0,0,0-.944.944h0a.945.945,0,0,0,.944.944h28.128a.944.944,0,0,0,.944-.944h0A.944.944,0,0,0,360.473,356.053Z" transform="translate(-331.4 -356.053)" fill="#d3d1e5"/>
            </g>
            <g id="组_9783" data-name="组 9783" transform="translate(12.834 4.072)">
              <path id="路径_7483" data-name="路径 7483" d="M374.751,362.858H353.793a.944.944,0,0,0-.944.944h0a.944.944,0,0,0,.944.944h20.958a.944.944,0,0,0,.944-.944h0A.944.944,0,0,0,374.751,362.858Z" transform="translate(-352.849 -362.858)" fill="#d3d1e5"/>
            </g>
            <g id="组_9784" data-name="组 9784" transform="translate(36.98 4.072)">
              <path id="路径_7484" data-name="路径 7484" d="M407.792,362.858H394.147a.944.944,0,0,0-.944.944h0a.944.944,0,0,0,.944.944h13.645a.944.944,0,0,0,.944-.944h0A.944.944,0,0,0,407.792,362.858Z" transform="translate(-393.203 -362.858)" fill="#d3d1e5"/>
            </g>
            <g id="组_9785" data-name="组 9785" transform="translate(3.094 8.144)">
              <path id="路径_7485" data-name="路径 7485" d="M351.616,369.663h-14.1a.944.944,0,0,0-.944.944h0a.944.944,0,0,0,.944.944h14.1a.944.944,0,0,0,.944-.944h0A.945.945,0,0,0,351.616,369.663Z" transform="translate(-336.571 -369.663)" fill="#d3d1e5"/>
            </g>
            <g id="组_9786" data-name="组 9786" transform="translate(20.344 8.144)">
              <path id="路径_7486" data-name="路径 7486" d="M372.449,369.663h-6.106a.944.944,0,0,0-.944.944h0a.944.944,0,0,0,.944.944h6.106a.944.944,0,0,0,.944-.944h0A.944.944,0,0,0,372.449,369.663Z" transform="translate(-365.399 -369.663)" fill="#d3d1e5"/>
            </g>
            <g id="组_9787" data-name="组 9787" transform="translate(29.691 8.144)">
              <path id="路径_7487" data-name="路径 7487" d="M395.837,369.663H381.964a.944.944,0,0,0-.944.944h0a.944.944,0,0,0,.944.944h13.872a.944.944,0,0,0,.944-.944h0A.944.944,0,0,0,395.837,369.663Z" transform="translate(-381.02 -369.663)" fill="#d3d1e5"/>
            </g>
            <g id="组_9788" data-name="组 9788" transform="translate(46.721 8.144)">
              <path id="路径_7488" data-name="路径 7488" d="M414.33,369.663h-3.9a.944.944,0,0,0-.944.944h0a.944.944,0,0,0,.944.944h3.9a.944.944,0,0,0,.944-.944h0A.945.945,0,0,0,414.33,369.663Z" transform="translate(-409.481 -369.663)" fill="#d3d1e5"/>
            </g>
          </g>
          <g id="组_9791" data-name="组 9791" transform="translate(27.283 46.172)">
            <g id="组_9790" data-name="组 9790">
              <path id="路径_7489" data-name="路径 7489" d="M309.919,271.177H278.932a2.5,2.5,0,0,0-2.5,2.5h0a2.5,2.5,0,0,0,2.5,2.5h30.987a2.5,2.5,0,0,0,2.5-2.5h0A2.5,2.5,0,0,0,309.919,271.177Z" transform="translate(-276.434 -271.177)" fill="#453351"/>
              <path id="路径_7490" data-name="路径 7490" d="M357.782,271.177h-14.8a2.5,2.5,0,0,0-2.5,2.5h0a2.5,2.5,0,0,0,2.5,2.5h14.8a2.5,2.5,0,0,0,2.5-2.5h0A2.5,2.5,0,0,0,357.782,271.177Z" transform="translate(-302.161 -271.177)" fill="#453351"/>
            </g>
          </g>
        </g>
      </g>
      <g id="组_9800" data-name="组 9800" transform="translate(243.978 110.315)">
        <g id="组_9794" data-name="组 9794" transform="translate(0 2.643)" opacity="0.2" style="mix-blend-mode: multiply;isolation: isolate">
          <path id="路径_7491" data-name="路径 7491" d="M428.31,354.817V208.683a79.68,79.68,0,0,0-8.571,2.649l.009.147-14.4,6.115a3.87,3.87,0,0,1-3.023,0l-18.45-7.4-.338.723c-.176-.132-.356-.259-.526-.4a1.291,1.291,0,0,1-.342-.366,2.049,2.049,0,0,1-.152-.782,3.075,3.075,0,0,0-.258-.939c-.069-.151-.151-.3-.206-.452a2.565,2.565,0,0,1-.1-.438,9.769,9.769,0,0,1-.135-1.737.652.652,0,0,0-.035-.272.491.491,0,0,0-.33-.241c-.663-.182-1.2.412-1.435.955a6.44,6.44,0,0,0-.387,2.307c-1.011-.55-3.543-2.2-3.816-.639a.948.948,0,0,0,.032.432,1.185,1.185,0,0,0-.8,1.6c-.763.573-.512,1.315,0,1.989.048.064.106.135.171.21-1.119,1.4,2.86,3.434,4.115,2.738.019-.011.035-.027.054-.039a5.367,5.367,0,0,0,1.655.212c.178,0,.357,0,.536-.013h.031l-.167.359,20.421,12.7a6.423,6.423,0,0,0,4.384.968l14.525-2.035c.378,4.856.783,9.711.913,14.581.14,5.219-.638,10.4-.638,15.612-.071,1.4-.607,3.885.457,5.04a1.373,1.373,0,0,0,.62.328c.168.053.34.09.509.139l-.984,90.866s.024.017.063.04l-.027.6a2.725,2.725,0,0,0-.794-.542,1.654,1.654,0,0,0-.92-.066,2.305,2.305,0,0,0-.307.083,3.484,3.484,0,0,0-1.107.654c-.24.2-.475.413-.712.62a3.2,3.2,0,0,0-.324-.148.153.153,0,0,0-.192.083.138.138,0,0,0,.09.18c.067.024.128.056.193.083-.187.162-.375.323-.567.478-.224.043-.442.091-.641.147a.14.14,0,0,0-.1.176.148.148,0,0,0,.143.1.155.155,0,0,0,.039-.006c-.054.04-.107.081-.162.119-.09-.046-.172-.1-.273-.139a.156.156,0,0,0-.2.075.137.137,0,0,0,.079.185c.044.018.076.043.119.063-.108.07-.226.128-.338.194-.149,0-.292-.015-.442-.011a.146.146,0,0,0-.145.146.136.136,0,0,0,.13.127l-.016.009-.014.006c-.127.06-.257.114-.389.164s-.258.091-.389.131h0a22.072,22.072,0,0,0-2.979.864,4.152,4.152,0,0,0-.4.217,3,3,0,0,0-1.471,2.424h0a2.532,2.532,0,0,0,.029.469.532.532,0,0,0,.1.232,1.979,1.979,0,0,0,.776.523c.72.313,6.944.269,11.515.174A7.312,7.312,0,0,0,428.31,354.817Z" transform="translate(-374.56 -180.443)" fill="#999"/>
          <path id="路径_7492" data-name="路径 7492" d="M451.989,191.15v-4.772c-.018.567,0,1.14-.013,1.678C451.956,189.086,451.962,190.118,451.989,191.15Z" transform="translate(-398.239 -174.668)" fill="#999"/>
          <path id="路径_7493" data-name="路径 7493" d="M450.455,179.37v-9.864a3.424,3.424,0,0,0-3.13,2.183C446.167,174.328,447.819,178.02,450.455,179.37Z" transform="translate(-396.705 -169.506)" fill="#999"/>
        </g>
        <path id="路径_7494" data-name="路径 7494" d="M489.057,418.551l-.426-6.252H480.2l.518,5.955S485.214,421.658,489.057,418.551Z" transform="translate(-406.878 -241.139)" fill="#f7dfc1"/>
        <g id="组_9796" data-name="组 9796" transform="translate(72.976 175.675)">
          <path id="路径_7495" data-name="路径 7495" d="M497.38,423.578c-1-.564-2.31-.607-3.338-1.193a13.675,13.675,0,0,1-2.941-2.7,2.09,2.09,0,0,0-2.257-.767,3.86,3.86,0,0,0-1.006.831c-1.734,1.667-4.049,1.59-6.181.949-.413-.124-1.173-.692-1.558-.457-.28.171-.346.679-.366,1a24.156,24.156,0,0,0,.035,3.023c.042.662.08,1.31.137,1.945a.875.875,0,0,0,.117.43c.38.556,1.4.532,1.955.56q1.407.072,2.808.116c3.425.112,11.965.274,12.822-.08.373-.155.789-.383.893-.681a2.422,2.422,0,0,0-.793-2.76A2.882,2.882,0,0,0,497.38,423.578Z" transform="translate(-479.701 -418.803)" fill="#5b556d"/>
          <path id="路径_7496" data-name="路径 7496" d="M483.56,429.082a11.194,11.194,0,0,0-.913-1.918,5.091,5.091,0,0,0-2.934-2.422c.011.452.032.9.06,1.339.042.662.08,1.31.137,1.945a.876.876,0,0,0,.117.43c.38.556,1.4.532,1.955.56C482.509,429.044,483.034,429.061,483.56,429.082Z" transform="translate(-479.705 -420.62)" fill="#453351"/>
          <path id="路径_7497" data-name="路径 7497" d="M494.637,419.689a2.09,2.09,0,0,0-2.257-.767,3.86,3.86,0,0,0-1.006.831c-.037.037-.079.06-.117.1.322,1.263,1.93,2.424,2.731,2.916a3.448,3.448,0,0,0,3.137.233c.4-.121.779-.216,1.158-.3a4.371,4.371,0,0,1-.7-.313A13.673,13.673,0,0,1,494.637,419.689Z" transform="translate(-483.236 -418.803)" fill="#453351"/>
          <path id="路径_7498" data-name="路径 7498" d="M479.959,428.943c.01.124.015.246.026.369a.877.877,0,0,0,.117.43c.38.556,1.4.532,1.955.56q1.407.072,2.808.116c3.424.112,11.965.274,12.822-.081.373-.155.789-.383.893-.681a2.656,2.656,0,0,0,.108-.43c-3.317.056-6.481.065-9.359.1A82.254,82.254,0,0,1,479.959,428.943Z" transform="translate(-479.78 -421.905)" fill="#fff"/>
          <g id="组_9795" data-name="组 9795" transform="translate(9.185 1.407)">
            <path id="路径_7499" data-name="路径 7499" d="M495.095,421.833a9.74,9.74,0,0,1,1.9.361.139.139,0,0,0,.041.007.16.16,0,0,0,.146-.108.14.14,0,0,0-.077-.188,9.156,9.156,0,0,0-1.677-.344,3.3,3.3,0,0,1,.77-.429.172.172,0,0,0,.1-.2.133.133,0,0,0-.179-.093,3.827,3.827,0,0,0-1.1.675c-1-.1-1.873-.108-1.934-.108h0a.154.154,0,0,0-.148.153.144.144,0,0,0,.138.153c.013,0,.746.005,1.641.083a5.728,5.728,0,0,0-.991,1.358.143.143,0,0,0,.059.194.133.133,0,0,0,.058.014.148.148,0,0,0,.131-.085A5.575,5.575,0,0,1,495.095,421.833Z" transform="translate(-492.935 -420.83)" fill="#fff"/>
            <path id="路径_7500" data-name="路径 7500" d="M498.584,423.3a9.843,9.843,0,0,0-1.114.03,3,3,0,0,1,.517-.289.168.168,0,0,0,.094-.2.129.129,0,0,0-.178-.08,3.442,3.442,0,0,0-.958.621,13.03,13.03,0,0,0-2.307.506.153.153,0,0,0-.1.183.131.131,0,0,0,.127.1.145.145,0,0,0,.044-.007,13.02,13.02,0,0,1,1.9-.439,3.55,3.55,0,0,0-.667,1.171.13.13,0,0,0,.091.168.149.149,0,0,0,.031,0,.151.151,0,0,0,.141-.108,3.466,3.466,0,0,1,.848-1.3,9.765,9.765,0,0,1,1.481-.071.158.158,0,0,0,.161-.142A.127.127,0,0,0,498.584,423.3Z" transform="translate(-493.425 -421.417)" fill="#fff"/>
          </g>
        </g>
        <path id="路径_7501" data-name="路径 7501" d="M450.025,418.825l.771-6.526h-8.141l-.263,5.98S446.181,421.932,450.025,418.825Z" transform="translate(-395.311 -241.139)" fill="#f7dfc1"/>
        <path id="路径_7502" data-name="路径 7502" d="M442.694,412.655a6.837,6.837,0,0,1,1.948-.356h1.719c.566.029,1.047.076,1.346.106,1.022.1,2.1.028,3.118.117l-.745,6.3a5.973,5.973,0,0,1-1.267.793c-.226-.146-.2-.245-.16-.5a3.955,3.955,0,0,0-.112-1.428,3.373,3.373,0,0,0-2.677-2.663,6.953,6.953,0,0,0-2.608.181c-.183.038-.442.175-.683.243Z" transform="translate(-395.366 -241.139)" fill="#e8cdaf"/>
        <path id="路径_7503" data-name="路径 7503" d="M454.5,384.644l8.753-68.659-4.182-11.25Z" transform="translate(-399.015 -208.233)" fill="#453351"/>
        <path id="路径_7504" data-name="路径 7504" d="M474.064,279.877l3.367,96.544a6.318,6.318,0,0,1-4.2,1.559,9.268,9.268,0,0,1-4.6-1.053l-13.446-76.542L450.8,377.039a15.87,15.87,0,0,1-4.416.518,7.956,7.956,0,0,1-3.987-1.254l1.023-95.829Z" transform="translate(-395.311 -200.628)" fill="#554263"/>
        <path id="路径_7505" data-name="路径 7505" d="M460.423,295.451a136.471,136.471,0,0,1-.459-15.142" transform="translate(-400.673 -200.76)" fill="none" stroke="#453351" stroke-linecap="round" stroke-linejoin="round" stroke-width="1"/>
        <path id="路径_7506" data-name="路径 7506" d="M459.171,292.675a2.444,2.444,0,0,1-2.034-2.4c-.188-3.1.077-7.81.077-7.81" transform="translate(-399.801 -201.419)" fill="none" stroke="#453351" stroke-linecap="round" stroke-linejoin="round" stroke-width="1"/>
        <path id="路径_7507" data-name="路径 7507" d="M444.034,286.515c.4-.4.932-.637,1.335-1.049a8.98,8.98,0,0,0,1.117-1.451,6,6,0,0,0,.745-1.634c.085-.309.613-.262.578.078a5.663,5.663,0,0,1-.661,2.068,8.283,8.283,0,0,1-1.233,1.837,2.734,2.734,0,0,1-1.4.79.517.517,0,0,1-.58-.377A.285.285,0,0,1,444.034,286.515Z" transform="translate(-395.783 -201.331)" fill="#453351"/>
        <path id="路径_7508" data-name="路径 7508" d="M479.246,281.193a10.111,10.111,0,0,0,5.787,6.239c.589.265.078,1.128-.507.867-2.71-1.21-5.886-3.841-6.226-6.978C478.24,280.772,479.106,280.682,479.246,281.193Z" transform="translate(-406.295 -200.927)" fill="#453351"/>
        <path id="路径_7509" data-name="路径 7509" d="M487.388,296.648a1.033,1.033,0,0,0,.806,1.1c.212.036.38-.083.586-.062a.668.668,0,0,1,.533.595c.246,1.122-.483,2.107-.837,3.114-.2.568-.567,1.728.26,1.986.419.131.8-.169,1.136-.659a4.762,4.762,0,0,0-.384,1.087c-.153.451-.357,1.056.315,1.2a1.153,1.153,0,0,0,1.179-.253,3.239,3.239,0,0,0,.557-1.038c-.037.322.005.86.374.983.664.222,1.167-.4,1.342-.964.011-.035.129-.36.134-.353.19.221.207.471.563.5a.9.9,0,0,0,.757-.389,8.367,8.367,0,0,0,.87-2.564,16.442,16.442,0,0,0,.335-6.1,17.763,17.763,0,0,1,.454-3.772c.175-1.207.171-1.535-.88-2.259a6.072,6.072,0,0,0-2.3-.892c-.333-.058-.795-.142-1.061.107-.521.489-.479,1.381-.616,2.029-.232,1.1-.557,2.179-.878,3.258a3.062,3.062,0,0,1-1.127,1.937c-.46.264-.994.361-1.438.662C487.785,296.092,487.449,296.264,487.388,296.648Z" transform="translate(-409.073 -203.066)" fill="#f7dfc1"/>
        <path id="路径_7510" data-name="路径 7510" d="M487.388,297.812c.061-.385.4-.556.679-.747.444-.3.977-.4,1.438-.662a3.061,3.061,0,0,0,1.127-1.936c.271-.908.541-1.816.758-2.738a10.225,10.225,0,0,1,4.934.759,15.3,15.3,0,0,0-.412,3.509c.045.654.088,1.31.109,1.964-.339-.2-.816-.439-.887-.473a8.24,8.24,0,0,0-1.372-.534,6.551,6.551,0,0,0-5.183.548,1.1,1.1,0,0,0-.536.695.938.938,0,0,0,.284.723.519.519,0,0,1-.135,0A1.033,1.033,0,0,1,487.388,297.812Z" transform="translate(-409.073 -204.23)" fill="#e8cdaf"/>
        <path id="路径_7511" data-name="路径 7511" d="M375.211,208.969c-1.119,1.418,2.86,3.483,4.115,2.777.019-.011.035-.027.054-.039a5.326,5.326,0,0,0,1.655.215c.544.006,1.088-.066,1.63-.017a11.322,11.322,0,0,1,1.564.388.427.427,0,0,0,.38-.094.35.35,0,0,0,.26-.1,5.41,5.41,0,0,0,1-2.142c.246-.693-.219-1.077-.835-1.24a3.631,3.631,0,0,1-1.031-.627q-.515-.364-1-.768a1.292,1.292,0,0,1-.342-.371,2.1,2.1,0,0,1-.152-.793,3.154,3.154,0,0,0-.258-.953c-.069-.153-.151-.3-.206-.459a2.619,2.619,0,0,1-.1-.444,10.047,10.047,0,0,1-.135-1.761.671.671,0,0,0-.035-.276.491.491,0,0,0-.33-.244c-.663-.185-1.2.417-1.435.968a6.619,6.619,0,0,0-.387,2.341c-1.011-.559-3.543-2.232-3.816-.649a.978.978,0,0,0,.032.439,1.205,1.205,0,0,0-.8,1.622c-.763.58-.512,1.334,0,2.018C375.088,208.82,375.146,208.893,375.211,208.969Z" transform="translate(-374.56 -176.799)" fill="#f7dfc1"/>
        <path id="路径_7512" data-name="路径 7512" d="M384.126,214.063c-.387,0-.773.036-1.16.033a5.325,5.325,0,0,1-1.655-.215,1.158,1.158,0,0,0,.025-.366.769.769,0,0,0-.18-.42c-.119-.137-.285-.3-.283-.5,0-.106.086-.137.179-.14a4.036,4.036,0,0,0,.45,0c.124-.018.269-.086.269-.23a.607.607,0,0,0-.117-.28,2.263,2.263,0,0,0-.312-.434.238.238,0,0,1,.022-.348.342.342,0,0,1,.345-.024.476.476,0,0,0,.359,0c.366-.18-.015-.626-.135-.841a.167.167,0,0,1,.081-.231c.119-.053.277.1.394.125.242.05.542-.063.521-.35a.87.87,0,0,0-.3-.5c-.141-.139.069-.341.215-.215.289.249.625.756.392,1.14a.631.631,0,0,1-.08.1,4.128,4.128,0,0,0-.157,2.184A2.689,2.689,0,0,0,384.126,214.063Z" transform="translate(-376.491 -178.972)" fill="#e8cdaf"/>
        <path id="路径_7513" data-name="路径 7513" d="M422.843,210.473l-14.471,6.232a3.819,3.819,0,0,1-3.023,0L386.9,209.2l-2.436,5.283,20.421,12.885a6.353,6.353,0,0,0,4.384.981l16.548-2.352Z" transform="translate(-377.59 -179.005)" fill="#ffd571"/>
        <path id="路径_7514" data-name="路径 7514" d="M475.4,210.74a10.111,10.111,0,0,1,1.728,3.153c2.487,6.215,7.572,23.35,6.823,32.15-.819,9.621-1.269,22.832-2.345,23.828-.566.524-6.407-.793-6.711-1.282-1.372-2.214.078-5.49.215-7.871.782-13.546-.832-23.425-3.25-30.118-.081,1.322-.058,1.952-.059,2.651-.014,6.62.84,13.685,1.5,20.269.141,1.4,1.789,6.829-.4,7.408a58.72,58.72,0,0,1-15.64,1.585c-5.053-.049-10.381,0-15.239-1.565a1.373,1.373,0,0,1-.62-.332c-1.064-1.173-.529-3.694-.457-5.114,0-5.285.778-10.543.638-15.838-.186-7.084-.938-14.134-1.365-21.2q-.231-3.835-.463-7.67l-.111-1.846c1.85-.744,11.491-4.13,18.872-4.346C464.569,204.422,473.685,208.87,475.4,210.74Z" transform="translate(-394.473 -177.597)" fill="#ffd571"/>
        <path id="路径_7515" data-name="路径 7515" d="M451.9,176.2a.785.785,0,0,0,.631-.172c2.861-.242,6.83-.706,9.116,1.024,2.616,1.979,1.848,6.529,3.007,9.466.28.711,1.528.71,1.487-.146a.314.314,0,0,0,.055-.01c1.764-.712,2.16-2.13,2.949-3.761,1.1-2.271,2.727-4.145,3.034-6.728.405-3.411-1.2-5.739-4.147-5.485a4.662,4.662,0,0,0-2.8-3.506c-3.795-1.8-8.291-.94-12.258-.3a4.59,4.59,0,0,0-2.263-.879,3.413,3.413,0,0,0-3.388,2.219C445.966,171.065,448.469,175.687,451.9,176.2Z" transform="translate(-396.705 -165.699)" fill="#453351"/>
        <path id="路径_7516" data-name="路径 7516" d="M451.976,182.209q-.031,1.674.017,3.35a17.66,17.66,0,0,0,.659,5.459,4.38,4.38,0,0,0,.967,1.592,3.28,3.28,0,0,0,1.177.777,5.306,5.306,0,0,0,1.078.245,2.8,2.8,0,0,1,1.02.309c.768.456.426,1.567.4,2.329-.016.416-.145.822.215,1.132a2.268,2.268,0,0,0,1.271.363,24.769,24.769,0,0,0,4.932-.127,2.153,2.153,0,0,0,.7-.171.866.866,0,0,0,.486-.75c.093-1.07-.178-2.138.674-2.995.332-.333.747-.572,1.107-.875a5.332,5.332,0,0,0,1.5-2.267,12.532,12.532,0,0,0,.509-1.918c.032-.162.038-.717.185-.81.164-.1.4.173.564.194a.7.7,0,0,0,.525-.221,3.939,3.939,0,0,0,1.16-2.089,11.244,11.244,0,0,0,.514-2.925,3.4,3.4,0,0,0-.659-2.16c-.789-.977-1.859.262-2.024,1.1-.04.2.044.566-.158.7-.158.1-.59-.026-.764-.043-.594-.058-.208-1.238-.192-1.608a1.23,1.23,0,0,0-.253-.9c-.2-.231-.5-.357-.666-.623a1.239,1.239,0,0,1-.114-.916c.11-.6.478-1.24.307-1.856a1.477,1.477,0,0,0-.682-.836c-1.323-.8-3.044-.287-4.47-.166a20.586,20.586,0,0,1-2.2.156c-.759-.017-1.518-.062-2.275-.122a12.356,12.356,0,0,0-2.438-.112c-1.871.226-2.618,1.9-2.873,3.577A14.719,14.719,0,0,0,451.976,182.209Z" transform="translate(-398.239 -168.616)" fill="#f7dfc1"/>
        <path id="路径_7517" data-name="路径 7517" d="M458.262,201.85a16.17,16.17,0,0,0,1.866.169,13.049,13.049,0,0,0,2.363-.083c.034.016-.083.139-.206.189-.221.092-.409.178-.632.275a5.168,5.168,0,0,0-1.618.982,4.324,4.324,0,0,0-1.041,1.8,2.6,2.6,0,0,1,0-.8c.029-.762.371-1.873-.4-2.329a2.8,2.8,0,0,0-1.02-.309C457.368,201.7,457.828,201.786,458.262,201.85Z" transform="translate(-399.94 -176.721)" fill="#e8cdaf"/>
        <g id="组_9797" data-name="组 9797" transform="translate(57.534 20.215)">
          <path id="路径_7518" data-name="路径 7518" d="M457.452,194.824h4.706a2.353,2.353,0,1,1-4.706,0Z" transform="translate(-457.452 -194.824)" fill="#453351"/>
          <path id="路径_7519" data-name="路径 7519" d="M461.976,195.729h-4.342a2.336,2.336,0,0,1-.182-.905h4.706A2.338,2.338,0,0,1,461.976,195.729Z" transform="translate(-457.452 -194.824)" fill="#fff"/>
        </g>
        <path id="路径_7520" data-name="路径 7520" d="M460.25,197.368a2.746,2.746,0,0,1,1.245.248,2.3,2.3,0,0,1-2.44-.023A2.843,2.843,0,0,1,460.25,197.368Z" transform="translate(-400.408 -175.387)" fill="#ff9676"/>
        <path id="路径_7521" data-name="路径 7521" d="M464.792,186.674a.675.675,0,1,1,.656.832A.76.76,0,0,1,464.792,186.674Z" transform="translate(-402.164 -171.861)" fill="#453351"/>
        <path id="路径_7522" data-name="路径 7522" d="M455.786,186.674a.675.675,0,1,1,.656.832A.76.76,0,0,1,455.786,186.674Z" transform="translate(-399.409 -171.861)" fill="#453351"/>
        <path id="路径_7523" data-name="路径 7523" d="M464.893,183.012l.054,0a4.57,4.57,0,0,1,.658.1,3.524,3.524,0,0,1,.81.174,2.582,2.582,0,0,1,.748.576c.1.106.19.231.284.345a3.14,3.14,0,0,1,.278.4l-.859-.421a2.9,2.9,0,0,0-.954-.215c-.34-.04-.683-.056-1.025-.081-.282-.02-.776.051-.806-.351C464.046,183.071,464.529,183,464.893,183.012Z" transform="translate(-401.946 -170.995)" fill="#453351"/>
        <path id="路径_7524" data-name="路径 7524" d="M456.311,183.013h-.044a3.682,3.682,0,0,0-.553.037,2.957,2.957,0,0,0-.684.09,2.17,2.17,0,0,0-.66.43c-.09.081-.173.179-.258.268a2.569,2.569,0,0,0-.257.312l.741-.293a2.434,2.434,0,0,1,.807-.115c.285-.01.571,0,.856,0,.236,0,.642.094.693-.238C457.011,183.119,456.615,183.026,456.311,183.013Z" transform="translate(-398.818 -170.995)" fill="#453351"/>
        <g id="组_9799" data-name="组 9799" transform="translate(35.028 175.675)">
          <path id="路径_7525" data-name="路径 7525" d="M426.5,423.506a2.974,2.974,0,0,0-1.442,2.934c.053.332.482.589.88.765.921.407,10.837.22,14.8.092q1.617-.051,3.234-.132c.635-.032,1.816,0,2.18-.63a.881.881,0,0,0,.078-.476c-.019-.691-.058-1.381-.1-2.071a22.094,22.094,0,0,0-.326-2.977c-.057-.3-.182-.766-.491-.921-.421-.213-1.153.3-1.571.419-2.186.6-4.615.671-6.415-.864a3.772,3.772,0,0,0-1.007-.738,2.423,2.423,0,0,0-2.334.68,15.822,15.822,0,0,1-3.316,2.517c-1.176.575-2.6.618-3.772,1.183A3.893,3.893,0,0,0,426.5,423.506Z" transform="translate(-425.026 -418.804)" fill="#5b556d"/>
          <path id="路径_7526" data-name="路径 7526" d="M449.705,428.927a11.341,11.341,0,0,1,.9-2.115,4.853,4.853,0,0,1,2.976-2.49q.065.676.1,1.353c.038.69.078,1.381.1,2.071a.883.883,0,0,1-.078.476c-.364.625-1.545.6-2.18.63C450.914,428.884,450.31,428.9,449.705,428.927Z" transform="translate(-432.576 -420.492)" fill="#453351"/>
          <path id="路径_7527" data-name="路径 7527" d="M436.125,419.587a2.423,2.423,0,0,1,2.334-.68,3.785,3.785,0,0,1,1.007.737c.038.033.08.054.119.085-.352,1.16-2.086,2.264-2.967,2.746a4.036,4.036,0,0,1-3.393.229c-.413-.12-.813-.213-1.209-.3a5.557,5.557,0,0,0,.793-.305A15.823,15.823,0,0,0,436.125,419.587Z" transform="translate(-427.165 -418.804)" fill="#453351"/>
          <path id="路径_7528" data-name="路径 7528" d="M446.209,428.676c0,.135.015.269.019.4a.884.884,0,0,1-.078.476c-.364.625-1.545.6-2.18.63q-1.616.081-3.234.132c-3.959.128-13.875.314-14.8-.092-.4-.176-.827-.432-.88-.765a2.541,2.541,0,0,1-.029-.475c3.749.061,7.335.072,10.6.108A95.592,95.592,0,0,0,446.209,428.676Z" transform="translate(-425.028 -421.824)" fill="#fff"/>
          <g id="组_9798" data-name="组 9798" transform="translate(5.53 1.253)">
            <path id="路径_7529" data-name="路径 7529" d="M436.9,421.537a11.8,11.8,0,0,0-2.026.341.159.159,0,0,1-.044.006.148.148,0,0,1-.143-.1.141.141,0,0,1,.1-.178,11.067,11.067,0,0,1,1.784-.322,3.244,3.244,0,0,0-.769-.4.141.141,0,0,1-.09-.183.153.153,0,0,1,.192-.085,3.689,3.689,0,0,1,1.1.621c1.052-.094,1.958-.1,2.021-.1h0a.143.143,0,1,1,0,.285c-.014,0-.781,0-1.722.078a5.093,5.093,0,0,1,.978,1.3.139.139,0,0,1-.072.189.154.154,0,0,1-.063.013.152.152,0,0,1-.136-.082A4.972,4.972,0,0,0,436.9,421.537Z" transform="translate(-433.51 -420.61)" fill="#fff"/>
            <path id="路径_7530" data-name="路径 7530" d="M433.139,422.916a11.4,11.4,0,0,1,1.18.029,2.925,2.925,0,0,0-.519-.278.14.14,0,0,1-.079-.187.155.155,0,0,1,.2-.076,3.245,3.245,0,0,1,.954.595,14.49,14.49,0,0,1,2.428.492.142.142,0,0,1,.094.181.15.15,0,0,1-.142.1.167.167,0,0,1-.047-.007,14.36,14.36,0,0,0-2.011-.432,3.131,3.131,0,0,1,.625,1.165.142.142,0,0,1-.112.171.144.144,0,0,1-.034,0,.148.148,0,0,1-.146-.11,3.053,3.053,0,0,0-.8-1.288,11.2,11.2,0,0,0-1.574-.069.142.142,0,0,1-.155-.138A.147.147,0,0,1,433.139,422.916Z" transform="translate(-432.994 -421.156)" fill="#fff"/>
          </g>
        </g>
        <path id="路径_7531" data-name="路径 7531" d="M459.031,189.4c-.01.262.091.337.282.482a5.343,5.343,0,0,0,1.573.832c.219.071.269-.2.294-.361a11.151,11.151,0,0,0,.04-1.4c.012-.489.028-.977.04-1.466,0-.18.144-1.4-.124-1.435a.1.1,0,0,0-.09.04.336.336,0,0,0-.051.088,7.756,7.756,0,0,1-1.286,2.272C459.466,188.7,459.047,189,459.031,189.4Z" transform="translate(-400.401 -171.925)" fill="#e8cdaf"/>
        <path id="路径_7532" data-name="路径 7532" d="M464.792,206.7s3.186,1.54,4.527,3.515a10.7,10.7,0,0,0,1.757-5.131l-2.222-.87S467.989,206.113,464.792,206.7Z" transform="translate(-402.164 -177.482)" fill="#ff9676"/>
        <path id="路径_7533" data-name="路径 7533" d="M462.068,206.845s-3.187,1.54-4.527,3.516a8.827,8.827,0,0,1-1.652-4.725l2.657-.945S458.871,206.258,462.068,206.845Z" transform="translate(-399.44 -177.627)" fill="#ff9676"/>
      </g>
      <g id="组_9804" data-name="组 9804" transform="translate(131.256 109.449)">
        <path id="路径_7534" data-name="路径 7534" d="M198.6,197.537q-.288,1.173-.6,2.342V144.927a9.331,9.331,0,0,0,2.72-.209,9.361,9.361,0,0,1,10.573,5.092,9.359,9.359,0,0,0,2.646,3.317h0a9.361,9.361,0,0,1,2.611,11.441h0a9.367,9.367,0,0,0-.944,4.138,9.361,9.361,0,0,1-7.317,9.175,9.39,9.39,0,0,0-1.525.5c.019.17.033.342.052.511a128.1,128.1,0,0,0,7.56,31.025c-2.66-.5-3.993-.781-6.66-1.428-1.622,2.213-2.41,3.351-3.933,5.684A143.209,143.209,0,0,1,198.6,197.537Z" transform="translate(-178.248 -140.539)" fill="#999" opacity="0.2" style="mix-blend-mode: multiply;isolation: isolate"/>
        <g id="组_9803" data-name="组 9803" transform="translate(4.573 32.904)">
          <g id="组_9801" data-name="组 9801" transform="translate(12.23)">
            <path id="路径_7535" data-name="路径 7535" d="M193.072,193.663l11.39-.774a128.311,128.311,0,0,0,7.935,34.676c-2.66-.5-3.993-.781-6.66-1.428-1.622,2.213-2.41,3.351-3.933,5.684A141.18,141.18,0,0,1,193.072,193.663Z" transform="translate(-193.072 -192.889)" fill="#ffe473"/>
            <path id="路径_7536" data-name="路径 7536" d="M193.935,193.651l10.356-.7a130.849,130.849,0,0,0,7.605,33.911c-2.416-.477-3.627-.747-6.048-1.349-1.487,2-2.211,3.031-3.617,5.135A140.736,140.736,0,0,1,193.935,193.651Z" transform="translate(-193.419 -192.912)" fill="#ffd571"/>
          </g>
          <g id="组_9802" data-name="组 9802">
            <path id="路径_7537" data-name="路径 7537" d="M191.957,193.663l-11.39-.774a128.31,128.31,0,0,1-7.935,34.676c2.66-.5,3.993-.781,6.66-1.428,1.622,2.213,2.41,3.351,3.933,5.684A141.181,141.181,0,0,0,191.957,193.663Z" transform="translate(-172.632 -192.889)" fill="#ffe473"/>
            <path id="路径_7538" data-name="路径 7538" d="M192.008,193.651l-10.356-.7a130.849,130.849,0,0,1-7.605,33.911c2.416-.477,3.627-.747,6.048-1.349,1.487,2,2.211,3.031,3.617,5.135A140.711,140.711,0,0,0,192.008,193.651Z" transform="translate(-173.2 -192.912)" fill="#ffd571"/>
          </g>
        </g>
        <path id="路径_7539" data-name="路径 7539" d="M185.641,192.889l.517.035h0l7.326.5,7.326-.5h0l.517-.035c.108,1.224.236,2.44.375,3.651a9.62,9.62,0,0,0-2.182,1.307h0a9.63,9.63,0,0,1-12.071,0h0a9.633,9.633,0,0,0-2.182-1.307C185.405,195.329,185.533,194.113,185.641,192.889Z" transform="translate(-173.133 -159.985)" fill="#999" opacity="0.2" style="mix-blend-mode: multiply;isolation: isolate"/>
        <path id="路径_7540" data-name="路径 7540" d="M184.194,141.718h0a9.361,9.361,0,0,0-10.573,5.092h0a9.366,9.366,0,0,1-2.646,3.317h0a9.362,9.362,0,0,0-2.612,11.441h0a9.367,9.367,0,0,1,.944,4.138h0a9.36,9.36,0,0,0,7.317,9.175h0a9.368,9.368,0,0,1,3.824,1.841h0a9.36,9.36,0,0,0,11.735,0h0a9.367,9.367,0,0,1,3.824-1.841h0a9.361,9.361,0,0,0,7.317-9.175h0a9.367,9.367,0,0,1,.944-4.138h0a9.361,9.361,0,0,0-2.611-11.441h0a9.359,9.359,0,0,1-2.646-3.317h0a9.361,9.361,0,0,0-10.573-5.092h0A9.359,9.359,0,0,1,184.194,141.718Z" transform="translate(-165.965 -139.334)" fill="#ffe473"/>
        <path id="路径_7541" data-name="路径 7541" d="M184.581,142.527h0a9.116,9.116,0,0,0-10.3,4.959h0a9.124,9.124,0,0,1-2.577,3.231h0a9.117,9.117,0,0,0-2.543,11.142h0a9.117,9.117,0,0,1,.92,4.029h0a9.117,9.117,0,0,0,7.126,8.935h0a9.111,9.111,0,0,1,3.723,1.793h0a9.117,9.117,0,0,0,11.429,0h0a9.111,9.111,0,0,1,3.723-1.793h0a9.117,9.117,0,0,0,7.126-8.935h0a9.117,9.117,0,0,1,.92-4.029h0a9.117,9.117,0,0,0-2.543-11.142h0a9.124,9.124,0,0,1-2.577-3.231h0a9.116,9.116,0,0,0-10.3-4.959h0A9.11,9.11,0,0,1,184.581,142.527Z" transform="translate(-166.297 -139.662)" fill="#ffd571"/>
        <circle id="椭圆_19" data-name="椭圆 19" cx="15.778" cy="15.778" r="15.778" transform="translate(0 11.2) rotate(-20.789)" fill="#ffe473"/>
        <path id="路径_7542" data-name="路径 7542" d="M201.825,158.766c-5.746,3.316-10.435,8.012-14.872,12.88a5.178,5.178,0,0,0-.421-.734,24.762,24.762,0,0,0-3.433-4.49c-.343-.356-.7-.7-1.06-1.035a4.856,4.856,0,0,0-1.03-.845.578.578,0,0,0-.211-.074.309.309,0,0,0-.318.264.705.705,0,0,0,.15.443l.312.491a51.772,51.772,0,0,1,4.576,8.808l.039.1c.254.648.543,1.823,1.392,1.916.9.1,1.3-.743,1.672-1.4a38.3,38.3,0,0,1,3.578-5.47,92,92,0,0,1,10.1-10.376C202.546,159.017,202.143,158.582,201.825,158.766Z" transform="translate(-171.21 -146.262)" fill="#fff"/>
      </g>
      <g id="组_9806" data-name="组 9806" transform="translate(144.812 222.662)">
        <g id="组_9805" data-name="组 9805" transform="translate(0)">
          <path id="路径_7543" data-name="路径 7543" d="M220.688,325.635a15.488,15.488,0,0,0-2.279-5.495l1.547-1.984L216,314.2l-1.985,1.547a15.5,15.5,0,0,0-5.495-2.279l-.309-2.493h-5.6l-.309,2.493a15.5,15.5,0,0,0-5.495,2.279l-1.985-1.547-3.956,3.957,1.546,1.984a15.5,15.5,0,0,0-2.279,5.495l-2.493.309v5.6l2.493.309a15.5,15.5,0,0,0,2.279,5.495l-1.546,1.985,3.956,3.956,1.985-1.547a15.488,15.488,0,0,0,5.495,2.279l.309,2.494h5.6l.309-2.494a15.487,15.487,0,0,0,5.495-2.279L216,343.284l3.956-3.956-1.547-1.985a15.488,15.488,0,0,0,2.279-5.495l2.494-.309v-5.6Zm-15.477,16.58A13.517,13.517,0,1,1,218.727,328.7,13.517,13.517,0,0,1,205.211,342.215Z" transform="translate(-187.644 -310.973)" fill="#5b556d"/>
          <circle id="椭圆_20" data-name="椭圆 20" cx="9.642" cy="9.642" r="9.642" transform="translate(7.925 8.083)" fill="#5b556d"/>
        </g>
        <path id="路径_7544" data-name="路径 7544" d="M257.9,371.108a13.564,13.564,0,0,0,.069-5.206l1.93-1.061-1.812-4.549-2.131.557a13.565,13.565,0,0,0-3.629-3.734l.614-2.112-4.5-1.936-1.111,1.9a13.564,13.564,0,0,0-5.206-.069l-1.061-1.93-4.549,1.812.557,2.131a13.566,13.566,0,0,0-3.734,3.629l-2.112-.614-1.936,4.5,1.9,1.112a13.561,13.561,0,0,0-.069,5.206L229.2,371.8l1.812,4.549,2.131-.556a13.57,13.57,0,0,0,3.629,3.733l-.614,2.112,4.5,1.936,1.112-1.9a13.572,13.572,0,0,0,5.206.068l1.061,1.93,4.549-1.812-.556-2.131a13.565,13.565,0,0,0,3.733-3.629l2.112.614,1.936-4.5Zm-17.58,6.583a10.314,10.314,0,1,1,13.551-5.4A10.314,10.314,0,0,1,240.325,377.691Z" transform="translate(-204.333 -327.839)" fill="#5b556d"/>
        <path id="路径_7545" data-name="路径 7545" d="M268.31,327.894a7.4,7.4,0,0,0,.037-2.838l1.052-.578-.987-2.48-1.161.3a7.392,7.392,0,0,0-1.978-2.034l.334-1.151-2.451-1.055-.606,1.034a7.393,7.393,0,0,0-2.837-.037l-.578-1.052-2.48.988.3,1.161a7.394,7.394,0,0,0-2.035,1.978l-1.151-.335-1.056,2.452,1.035.606a7.393,7.393,0,0,0-.037,2.837l-1.052.578.987,2.48,1.161-.3a7.4,7.4,0,0,0,1.978,2.035l-.334,1.151,2.452,1.055.606-1.035a7.394,7.394,0,0,0,2.837.037l.578,1.052,2.48-.987-.3-1.161a7.4,7.4,0,0,0,2.035-1.978l1.151.335,1.056-2.452Zm-9.582,3.588a5.622,5.622,0,1,1,7.386-2.942A5.622,5.622,0,0,1,258.728,331.482Z" transform="translate(-213.758 -313.798)" fill="#453351"/>
      </g>
    </g>
  </g>
</svg>
