<svg xmlns="http://www.w3.org/2000/svg" width="126" height="299.645" viewBox="0 0 126 299.645">
  <g id="step02" transform="translate(-1050 -4798.355)">
    <text id="估價" transform="translate(1137 4847)" fill="#5b5b5f" font-size="39" font-family="MicrosoftJhengHeiBold, Microsoft JhengHei"><tspan x="-39" y="0">估價</tspan></text>
    <g id="组_9687" data-name="组 9687" transform="translate(602.84 4558.554)">
      <text id="_02" data-name="02" transform="translate(465.16 294.271)" fill="#de4753" font-size="36.507" font-family="Antonio-Bold, Antonio" font-weight="700"><tspan x="-17.478" y="0">02</tspan></text>
      <text id="STEP" transform="translate(465.16 256.801)" fill="#de4753" font-size="15.512" font-family="SegoeUI, Segoe UI"><tspan x="-16.452" y="0">STEP</tspan></text>
    </g>
    <g id="组_9716" data-name="组 9716" transform="translate(734.14 4723.478)">
      <g id="组_9697" data-name="组 9697" transform="translate(357.6 214.82)">
        <g id="组_9691" data-name="组 9691" transform="translate(40.908 112.296)">
          <path id="路径_7320" data-name="路径 7320" d="M432.742,378.261c.654.265.792,1.525.835,4.025.034,1.892.364,5.2-1.864,5.809s-5.464.2-6.843-1.615c-1.721-2.263-2.874-4.247-5.34-7.017-2.139-2.4-4.461-4.653-5.271-7.973-.733-3-.038-4.28,2.016-5.1,2.826-1.129,7.134,2.866,9.312,3.529C427.464,370.489,432.088,378,432.742,378.261Z" transform="translate(-413.976 -366.189)" fill="#263238"/>
        </g>
        <g id="组_9692" data-name="组 9692" transform="translate(51.197 120.752)">
          <path id="路径_7321" data-name="路径 7321" d="M432.794,375.949l-.069,3.067a7.51,7.51,0,0,1-7.755.034c-.127-.3-.706-4.4-.706-4.4Z" transform="translate(-424.264 -374.645)" fill="#ffa8a7"/>
        </g>
        <g id="组_9693" data-name="组 9693" transform="translate(0 141.461)">
          <path id="路径_7322" data-name="路径 7322" d="M407.508,395.375s.82,2.687,1.242,5.03c.335,1.862.8,4.973.124,6.353s-3.233,2.223-7.159,2.105c-2.542-.077-6.544,1.561-9.292,3.014-2.837,1.5-8.68,1.992-11.636,1.577-3.485-.488-7.058-2.6-7.59-4.055s.252-2.945,8.564-6.267c.076-.031,11.528-3.472,15.611-7.778Z" transform="translate(-373.067 -395.354)" fill="#263238"/>
        </g>
        <g id="组_9694" data-name="组 9694" transform="translate(24.295 138.146)">
          <path id="路径_7323" data-name="路径 7323" d="M407.583,392.06s-.063,2.275-.081,3.576-1.6,3.2-5.57,2.973c-2.79-.163-4.723-.958-4.56-3.255l.074-3.315Z" transform="translate(-397.362 -392.039)" fill="#ffa8a7"/>
        </g>
        <g id="组_9695" data-name="组 9695" transform="translate(15.711)">
          <path id="路径_7324" data-name="路径 7324" d="M435.7,335.3a83.329,83.329,0,0,0-3.262-16.054s1.4-13.755,2.225-26.808c.885-14.1.687-31.853,1.035-35.367,0,0-45.33-10.239-46.51,6.056s.495,57.881.872,65.06,1.473,13.545,2.692,25.194c1.2,11.5,4.689,38.661,4.689,38.661a10.758,10.758,0,0,0,10.137.021s3.939-32.547,3.789-40.824a70.65,70.65,0,0,0-2.729-18.12s1.167-13.432,2.193-25.115,1.96-17.285,2.251-22.371l.991-.463s.544,20.207.921,27.386,1.362,14.076,3.136,27.435c1.538,11.588,6.344,36.142,6.344,36.142,5.139,2.93,8.315-.181,8.315-.181S436.883,345.348,435.7,335.3Z" transform="translate(-388.778 -253.893)" fill="#37474f"/>
        </g>
        <g id="组_9696" data-name="组 9696" transform="translate(40.02 21.757)">
          <path id="路径_7325" data-name="路径 7325" d="M413.087,285.63s11.169-5.2,16.809-9.98c0,0-5.3,7.118-12.108,10.173,0,0-2.962,25.021-2.938,24.524l-.828-24.733Z" transform="translate(-413.087 -275.65)" fill="#263238"/>
        </g>
      </g>
      <g id="组_9708" data-name="组 9708" transform="translate(333.86 158.885)">
        <path id="路径_7326" data-name="路径 7326" d="M405.345,192.627l2.36,14.892,13.419-.677-1.566-17.419Z" transform="translate(-346.486 -158.885)" fill="#ffa8a7"/>
        <g id="组_9704" data-name="组 9704" transform="translate(0 22.659)">
          <path id="路径_7327" data-name="路径 7327" d="M423.9,198.346s7.35-2.6,11.34,4.075.675,18.39.675,18.39Z" transform="translate(-349.328 -181.545)" fill="#27debf"/>
          <path id="路径_7328" data-name="路径 7328" d="M435.3,206.077c-1.235-4.062-6.252-8.566-11.393-7.731q-1.793.291-3.49.59c-.617,2.511-7.036,4.45-13.609,2.9q-2.973.78-5.447,1.6c-4.724,1.568-9.085,5.523-9.82,20.931,0,0-2.38,35.906-2.564,42.856,11.664,4.922,23.908,5.054,30.707,3.729,14.153-2.76,15.984-8.565,15.984-8.565s.764-25.841.593-37.013C436.112,215.887,436.145,208.867,435.3,206.077Z" transform="translate(-349.328 -181.545)" fill="#e6e6e6"/>
          <g id="组_9699" data-name="组 9699" transform="translate(1.06)">
            <path id="路径_7329" data-name="路径 7329" d="M362.87,181.545l-27.95,14.586L348.808,234.1l26.083-14.612Z" transform="translate(-334.92 -181.545)" fill="#27debf"/>
            <path id="路径_7330" data-name="路径 7330" d="M361.587,185.262,338.139,197.5l12.291,32.646,21.882-12.258Z" transform="translate(-334.92 -181.545)" fill="#f5f5f5"/>
            <path id="路径_7331" data-name="路径 7331" d="M356.64,188.785l-.455-1.162c-.25-.641-2.2-.259-4.358.855l-4.13,2.131c-2.156,1.114-3.7,2.536-3.451,3.178l.455,1.161Z" transform="translate(-334.92 -181.545)" opacity="0.15"/>
            <g id="组_9698" data-name="组 9698" transform="translate(6.931 2.228)">
              <path id="路径_7332" data-name="路径 7332" d="M356.186,184.138c-.155-.4-1-.336-1.9.146l-1.617.873s-1-2.508-4.714-.772-2.87,4.644-2.87,4.644l-1.716.945c-.948.523-1.623,1.276-1.508,1.684l.209.738,14.4-7.512S356.341,184.539,356.186,184.138Z" transform="translate(-341.851 -183.773)" fill="#37474f"/>
              <path id="路径_7333" data-name="路径 7333" d="M354.632,185.824c-1.34.658-1.867.976-1.481,1.965.44,1.13.85,1.94.85,1.94l-6.369,3.332s-.53-1.436-.762-1.991-.7-.819-1.712-.288l-.377-.4,10.044-5.12Z" transform="translate(-341.851 -183.773)" fill="#263238"/>
              <path id="路径_7334" data-name="路径 7334" d="M356.913,188.845l-.454-1.161c-.251-.641-2.2-.259-4.359.854l-4.129,2.132c-2.157,1.113-3.7,2.536-3.451,3.177l.454,1.162Z" transform="translate(-341.851 -183.773)" fill="#37474f"/>
            </g>
          </g>
          <g id="组_9700" data-name="组 9700" transform="translate(47.475 39.152)">
            <path id="路径_7335" data-name="路径 7335" d="M390.828,235.251s6.923-8.391,8.724-14.554a36.816,36.816,0,0,1-8.918,17.592Z" transform="translate(-390.634 -220.697)" fill="#e0e0e0"/>
          </g>
          <g id="组_9703" data-name="组 9703" transform="translate(23.043 22.214)">
            <g id="组_9701" data-name="组 9701">
              <path id="路径_7336" data-name="路径 7336" d="M400.576,203.759c-5.348,1.6-8.6,1.9-14.513,10.984s-19.282,26.125-20.564,28.291c-1.783,3.013-2.119,7.6-.581,10.365,1.437,2.585,4.893,1.062,10.756-4.082,5.67-4.975,17.633-18.654,17.633-18.654A96.88,96.88,0,0,0,400.576,203.759Z" transform="translate(-363.94 -203.759)" fill="#ffa8a7"/>
            </g>
            <g id="组_9702" data-name="组 9702" transform="translate(10.481)">
              <path id="路径_7337" data-name="路径 7337" d="M400.576,203.759a40.948,40.948,0,0,0-7.731,2.448,13.959,13.959,0,0,0-6.588,4.547c-4.8,6.42-11.836,19.392-11.836,19.392s1.608,7.641,11.948,10.608c0,0,9.99-12.041,11.355-15.042C400.053,220.593,402.252,211.792,400.576,203.759Z" transform="translate(-374.421 -203.759)" fill="#27debf"/>
            </g>
          </g>
          <path id="路径_7338" data-name="路径 7338" d="M366.719,254.673c-4.946-.6-15.625-15.558-18.91-20.678A36.518,36.518,0,0,0,337.8,223.434c-5.235-3.868-4.473-9.81-2.189-15.257.791-1.886,3.474-.659,3.474-.659l.945,2.584,1.637,4.476c1.109,1.029,1.74,1.365,1.814,1.058.14-.577-.815-2.985-.791-5.493.028-3.018,2.141-1.034,2.772.024a37.458,37.458,0,0,1,2.231,4.986c1.055,2.7.619,5.436,1.9,7.278s18.519,18.354,18.519,18.354Z" transform="translate(-333.86 -181.545)" fill="#ffa8a7"/>
        </g>
        <g id="组_9705" data-name="组 9705" transform="translate(49.388 15.47)">
          <path id="路径_7339" data-name="路径 7339" d="M395.415,174.355s-3.519,5.34-3.119,5.864,2.991,1,2.991,1Z" transform="translate(-392.264 -174.355)" fill="#f28f8f"/>
        </g>
        <g id="组_9706" data-name="组 9706" transform="translate(49.398 10.514)">
          <path id="路径_7340" data-name="路径 7340" d="M397.061,177.786a4.193,4.193,0,1,1,4.193-4.194A4.2,4.2,0,0,1,397.061,177.786Zm0-7.454a3.261,3.261,0,1,0,3.261,3.26A3.263,3.263,0,0,0,397.061,170.332Z" transform="translate(-392.869 -169.399)" fill="#263238"/>
        </g>
        <g id="组_9707" data-name="组 9707" transform="translate(45.806)">
          <path id="路径_7341" data-name="路径 7341" d="M405.186,159.583c-7.121,1.5-9.178,4.632-9.848,15.945-.7,11.821.5,15.537,2.058,17.129,1.049,1.074,6.874,1.268,9.813.458,3.678-1.014,11.99-3.96,15.884-9.906,4.579-7,5.782-16.477.879-20.366C417.073,157.369,408.084,158.971,405.186,159.583Z" transform="translate(-395.134 -158.885)" fill="#ffa8a7"/>
        </g>
        <path id="路径_7342" data-name="路径 7342" d="M393.26,172.717l12.662,1.638-.51.89-12.151-1.577Z" transform="translate(-343.991 -158.885)" fill="#263238"/>
      </g>
      <g id="组_9715" data-name="组 9715" transform="translate(376.573 152.522)">
        <g id="组_9710" data-name="组 9710">
          <g id="组_9709" data-name="组 9709">
            <path id="路径_7343" data-name="路径 7343" d="M394.552,163.28q.105.106.213.21c1.371,1.3,3.125,2.124,4.557,3.355a10.6,10.6,0,0,1,3.235,5.15c.473,1.638.657,3.579,2.437,4.339,0,0,1.126-4.37,4.809-3.82,3.707.553,4.207,5.278,1.871,8.148s-4.514,1.771-4.514,1.771.115,6.245,2.881,9.781c0,0,3.15,1.02,8.941-.215,3.56-.759,8.594-5.209,10.711-9.921,4.476-9.967,4.789-18.936-1.574-21.624-.688-4.594-4.3-6.653-8.427-7.6-6.166-1.416-11.931,2.244-18.029.879-1.277-.286-2.519-.744-3.819-.9a.772.772,0,0,0-.44.036c-.311.156-.29.6-.2.938A7.976,7.976,0,0,0,399,157.094a18.946,18.946,0,0,1-6.909-.872A8.894,8.894,0,0,0,394.552,163.28Z" transform="translate(-392.041 -152.522)" fill="#263238"/>
          </g>
        </g>
        <g id="组_9712" data-name="组 9712" transform="translate(35.845 5.739)">
          <g id="组_9711" data-name="组 9711">
            <path id="路径_7344" data-name="路径 7344" d="M428.229,161.991l4.261-2.512a2.473,2.473,0,1,0-4.261,2.512Z" transform="translate(-427.886 -158.261)" fill="#263238"/>
          </g>
        </g>
        <g id="组_9714" data-name="组 9714" transform="translate(10.471 21.358)">
          <g id="组_9713" data-name="组 9713">
            <path id="路径_7345" data-name="路径 7345" d="M404.918,178.826l.132-4.945a2.473,2.473,0,0,0-.132,4.945Z" transform="translate(-402.511 -173.88)" fill="#263238"/>
          </g>
        </g>
      </g>
    </g>
  </g>
</svg>
