<svg xmlns="http://www.w3.org/2000/svg" width="158.225" height="291.262" viewBox="0 0 158.225 291.262">
  <g id="step01" transform="translate(-1049.775 -4798.355)">
    <text id="勘場" transform="translate(1137 4847)" fill="#5b5b5f" font-size="39" font-family="MicrosoftJhengHeiBold, Microsoft JhengHei"><tspan x="-39" y="0">勘場</tspan></text>
    <g id="组_9687" data-name="组 9687" transform="translate(602.84 4558.554)">
      <text id="_01" data-name="01" transform="translate(465.16 294.271)" fill="#de4753" font-size="36.507" font-family="Antonio-Bold, Antonio" font-weight="700"><tspan x="-15.027" y="0">01</tspan></text>
      <text id="STEP" transform="translate(465.16 256.801)" fill="#de4753" font-size="15.512" font-family="SegoeUI, Segoe UI"><tspan x="-16.452" y="0">STEP</tspan></text>
    </g>
    <g id="组_9730" data-name="组 9730" transform="translate(1004.582 4864.129)">
      <g id="组_9717" data-name="组 9717" transform="translate(89.649 15.871)">
        <rect id="矩形_166" data-name="矩形 166" width="7.135" height="31.643" transform="translate(7.134 65.245)" fill="#5c5c5c"/>
        <rect id="矩形_167" data-name="矩形 167" width="7.134" height="31.643" transform="translate(0 8.4)" fill="#7b7a7a"/>
        <rect id="矩形_168" data-name="矩形 168" width="7.134" height="8.4" transform="translate(0 48.444)" fill="#7b7a7a"/>
        <rect id="矩形_169" data-name="矩形 169" width="7.134" height="31.643" transform="translate(0 65.245)" fill="#7b7a7a"/>
        <rect id="矩形_170" data-name="矩形 170" width="7.135" height="31.643" transform="translate(7.134 8.4)" fill="#5c5c5c"/>
        <rect id="矩形_171" data-name="矩形 171" width="7.135" height="8.4" transform="translate(7.134 48.444)" fill="#5c5c5c"/>
        <rect id="矩形_172" data-name="矩形 172" width="7.135" height="8.4" transform="translate(7.134)" fill="#acabab"/>
        <rect id="矩形_173" data-name="矩形 173" width="7.134" height="8.4" fill="#e5e4e4"/>
        <rect id="矩形_174" data-name="矩形 174" width="7.134" height="8.401" transform="translate(0 40.043)" fill="#b43c3c"/>
        <rect id="矩形_175" data-name="矩形 175" width="7.135" height="8.401" transform="translate(7.134 40.043)" fill="#872d2d"/>
        <rect id="矩形_176" data-name="矩形 176" width="7.135" height="8.401" transform="translate(7.134 56.844)" fill="#872d2d"/>
        <rect id="矩形_177" data-name="矩形 177" width="7.134" height="8.401" transform="translate(0 56.844)" fill="#b43c3c"/>
      </g>
      <g id="组_9718" data-name="组 9718" transform="translate(106.52 15.871)">
        <rect id="矩形_178" data-name="矩形 178" width="7.134" height="31.643" transform="translate(7.136 65.245)" fill="#5c5c5c"/>
        <rect id="矩形_179" data-name="矩形 179" width="7.136" height="31.643" transform="translate(0 8.4)" fill="#7b7a7a"/>
        <rect id="矩形_180" data-name="矩形 180" width="7.136" height="8.4" transform="translate(0 48.444)" fill="#7b7a7a"/>
        <rect id="矩形_181" data-name="矩形 181" width="7.136" height="31.643" transform="translate(0 65.245)" fill="#7b7a7a"/>
        <rect id="矩形_182" data-name="矩形 182" width="7.134" height="31.643" transform="translate(7.136 8.4)" fill="#5c5c5c"/>
        <rect id="矩形_183" data-name="矩形 183" width="7.134" height="8.4" transform="translate(7.136 48.444)" fill="#5c5c5c"/>
        <rect id="矩形_184" data-name="矩形 184" width="7.134" height="8.4" transform="translate(7.136)" fill="#acabab"/>
        <rect id="矩形_185" data-name="矩形 185" width="7.136" height="8.4" fill="#e5e4e4"/>
        <rect id="矩形_186" data-name="矩形 186" width="7.136" height="8.401" transform="translate(0 40.043)" fill="#b43c3c"/>
        <rect id="矩形_187" data-name="矩形 187" width="7.134" height="8.401" transform="translate(7.136 40.043)" fill="#872d2d"/>
        <rect id="矩形_188" data-name="矩形 188" width="7.134" height="8.401" transform="translate(7.136 56.844)" fill="#872d2d"/>
        <rect id="矩形_189" data-name="矩形 189" width="7.136" height="8.401" transform="translate(0 56.844)" fill="#b43c3c"/>
      </g>
      <path id="路径_7346" data-name="路径 7346" d="M68.846,61.637a6.075,6.075,0,1,1-6.075-6.075A6.075,6.075,0,0,1,68.846,61.637Z" transform="translate(12.186 51.122)" fill="#b4b1b1"/>
      <circle id="椭圆_16" data-name="椭圆 16" cx="6.075" cy="6.075" r="6.075" transform="translate(85.011 106.684)" fill="#b4b1b1"/>
      <path id="路径_7347" data-name="路径 7347" d="M104.515,61.637a6.076,6.076,0,1,1-6.077-6.075A6.076,6.076,0,0,1,104.515,61.637Z" transform="translate(37.719 51.122)" fill="#b4b1b1"/>
      <circle id="椭圆_17" data-name="椭圆 17" cx="6.075" cy="6.075" r="6.075" transform="translate(149.197 106.684)" fill="#b4b1b1"/>
      <rect id="矩形_190" data-name="矩形 190" width="147.287" height="44.267" transform="translate(45.192 112.759)" fill="#e1e0e0"/>
      <path id="路径_7348" data-name="路径 7348" d="M73.163,78.679l-2.668.354L60.484,73.22l6.6-.825Z" transform="translate(12.206 72.802)" fill="#a9a8a8"/>
      <g id="组_9719" data-name="组 9719" transform="translate(45.192 151.48)">
        <path id="路径_7349" data-name="路径 7349" d="M84.838,79.128H58.5V88.25H93.958Z" transform="translate(-28.05 -70.005)" fill="#878585"/>
        <rect id="矩形_191" data-name="矩形 191" width="30.452" height="9.122" transform="translate(0 9.123)" fill="#b4b1b1"/>
        <path id="路径_7350" data-name="路径 7350" d="M84.838,84.264l-9.123-9.123H58.5v9.123Z" transform="translate(-28.05 -75.141)" fill="#b6b6b6"/>
        <path id="路径_7351" data-name="路径 7351" d="M75.644,75.141H45.192v9.123H75.644Z" transform="translate(-45.192 -75.141)" fill="#f3f3f3"/>
        <rect id="矩形_192" data-name="矩形 192" width="30.452" height="46.639" transform="translate(0 27.368)" fill="#b4b1b1"/>
        <rect id="矩形_193" data-name="矩形 193" width="43.503" height="46.639" transform="translate(30.452 27.368)" fill="#878585"/>
      </g>
      <g id="组_9720" data-name="组 9720" transform="translate(81.845 151.48)">
        <path id="路径_7352" data-name="路径 7352" d="M79.132,88.25h8.047V79.128H70.013Z" transform="translate(-60.89 -70.005)" fill="#b4b1b1"/>
        <path id="路径_7353" data-name="路径 7353" d="M92.315,84.264V75.141H66.025l9.123,9.123Z" transform="translate(-66.025 -75.141)" fill="#f3f3f3"/>
      </g>
      <path id="路径_7354" data-name="路径 7354" d="M92.167,78.679l-2.667.354L79.489,73.22l6.6-.825Z" transform="translate(27.376 72.802)" fill="#a9a8a8"/>
      <g id="组_9721" data-name="组 9721" transform="translate(45.192 151.48)">
        <path id="路径_7355" data-name="路径 7355" d="M77.516,88.25h35.438l-9.123-9.122H77.516Z" transform="translate(-3.561 -70.005)" fill="#878585"/>
        <path id="路径_7356" data-name="路径 7356" d="M122.075,87.1H77.516v46.639h63.021V108.392h2.829Z" transform="translate(-3.561 -59.735)" fill="#878585"/>
        <path id="路径_7357" data-name="路径 7357" d="M103.831,84.264l-9.123-9.123H77.516v9.123Z" transform="translate(-3.561 -75.141)" fill="#b6b6b6"/>
        <path id="路径_7358" data-name="路径 7358" d="M77.516,92.238h38.736V86.413l-3.3-3.3H77.516Z" transform="translate(-3.561 -64.87)" fill="#1f1f1f"/>
        <rect id="矩形_194" data-name="矩形 194" width="73.955" height="9.123" transform="translate(0 18.245)" fill="#3d3d3d"/>
      </g>
      <g id="组_9722" data-name="组 9722" transform="translate(101.344 151.48)">
        <path id="路径_7359" data-name="路径 7359" d="M118.281,108.392H140.8v22.52l2.83,2.829h5.548V87.1H96.991Z" transform="translate(-69.624 -59.735)" fill="#b4b1b1"/>
        <path id="路径_7360" data-name="路径 7360" d="M98.14,88.25h61.31V79.128H89.017Z" transform="translate(-79.894 -70.005)" fill="#b4b1b1"/>
        <path id="路径_7361" data-name="路径 7361" d="M116.139,106.251v2.829h2.83Z" transform="translate(-44.962 -35.073)" fill="#878585"/>
        <path id="路径_7362" data-name="路径 7362" d="M164.585,84.264V75.141H85.03l9.123,9.123Z" transform="translate(-85.03 -75.141)" fill="#f3f3f3"/>
        <path id="路径_7363" data-name="路径 7363" d="M95.9,88.505h2.491L95.9,86.014Z" transform="translate(-71.026 -61.137)" fill="#1f1f1f"/>
        <path id="路径_7364" data-name="路径 7364" d="M95.9,89.747l2.491,2.491h52.188V83.115H95.9Z" transform="translate(-71.026 -64.87)" fill="#3d3d3d"/>
        <path id="路径_7365" data-name="路径 7365" d="M93,83.115l3.3,3.3v-3.3Z" transform="translate(-74.759 -64.87)" fill="#3d3d3d"/>
        <path id="路径_7366" data-name="路径 7366" d="M94.446,84.557v5.825h3.332V87.89Z" transform="translate(-72.902 -63.014)" fill="#e2e2e2"/>
        <path id="路径_7367" data-name="路径 7367" d="M97.778,83.115H94.446v3.3l3.332,3.334Z" transform="translate(-72.902 -64.87)" fill="#f3f3f3"/>
        <path id="路径_7368" data-name="路径 7368" d="M118.753,101.156H105.06v3.622h17.314Z" transform="translate(-59.231 -41.635)" fill="#444343"/>
        <path id="路径_7369" data-name="路径 7369" d="M105.06,104.321v3.622h24.557L126,104.321Z" transform="translate(-59.231 -37.558)" fill="#444343"/>
        <path id="路径_7370" data-name="路径 7370" d="M118.623,104.321H114.21l3.621,3.622h.792Z" transform="translate(-47.446 -37.558)" fill="#5a5959"/>
        <path id="路径_7371" data-name="路径 7371" d="M111.511,97.99H105.06v3.622h10.071Z" transform="translate(-59.231 -45.712)" fill="#444343"/>
        <path id="路径_7372" data-name="路径 7372" d="M111.5,101.612h15.277V97.99h-18.9Z" transform="translate(-55.6 -45.712)" fill="#5a5959"/>
        <path id="路径_7373" data-name="路径 7373" d="M114.666,104.778H122.7v-3.622H111.045Z" transform="translate(-51.523 -41.635)" fill="#5a5959"/>
        <path id="路径_7374" data-name="路径 7374" d="M107.889,96.408H105.06v3.621h6.451Z" transform="translate(-59.231 -47.75)" fill="#656464"/>
        <path id="路径_7375" data-name="路径 7375" d="M128.816,100.029V96.408H106.3l3.622,3.621Z" transform="translate(-57.639 -47.75)" fill="#878585"/>
        <path id="路径_7376" data-name="路径 7376" d="M115.131,99.573H105.06v3.621h13.693Z" transform="translate(-59.231 -43.673)" fill="#656464"/>
        <path id="路径_7377" data-name="路径 7377" d="M113.084,103.194h11.655V99.573H109.462Z" transform="translate(-53.562 -43.673)" fill="#878585"/>
        <path id="路径_7378" data-name="路径 7378" d="M116.249,106.36h4.413v-3.621h-8.035Z" transform="translate(-49.485 -39.596)" fill="#878585"/>
        <path id="路径_7379" data-name="路径 7379" d="M122.374,102.739H105.06v3.621H126Z" transform="translate(-59.231 -39.596)" fill="#656464"/>
        <path id="路径_7380" data-name="路径 7380" d="M129.617,105.9H105.06v3.621h25.349V106.7Z" transform="translate(-59.231 -35.519)" fill="#656464"/>
        <path id="路径_7381" data-name="路径 7381" d="M115.793,105.9l.792.792V105.9Z" transform="translate(-45.407 -35.519)" fill="#878585"/>
      </g>
      <rect id="矩形_195" data-name="矩形 195" width="3.334" height="9.123" transform="translate(158.015 169.725)" fill="#f3f3f3"/>
      <rect id="矩形_196" data-name="矩形 196" width="3.332" height="9.123" transform="translate(111.824 169.725)" fill="#f3f3f3"/>
      <rect id="矩形_197" data-name="矩形 197" width="3.334" height="9.123" transform="translate(88.728 169.725)" fill="#e2e2e2"/>
      <rect id="矩形_198" data-name="矩形 198" width="3.332" height="9.123" transform="translate(70.865 169.725)" fill="#f3f3f3"/>
      <g id="组_9724" data-name="组 9724" transform="translate(137.133 184.823)">
        <g id="组_9723" data-name="组 9723">
          <path id="路径_7382" data-name="路径 7382" d="M95.771,92.2v4.75a2.488,2.488,0,0,0,2.489,2.487V89.714A2.49,2.49,0,0,0,95.771,92.2Z" transform="translate(-95.771 -89.714)" fill="#656464"/>
          <path id="路径_7383" data-name="路径 7383" d="M96.859,89.714v9.724a2.487,2.487,0,0,0,2.489-2.487V92.2A2.488,2.488,0,0,0,96.859,89.714Z" transform="translate(-94.37 -89.714)" fill="#444343"/>
        </g>
        <path id="路径_7384" data-name="路径 7384" d="M98.891,92.568a1.3,1.3,0,1,1-1.3-1.3A1.3,1.3,0,0,1,98.891,92.568Z" transform="translate(-95.1 -87.709)" fill="#9b9b9b"/>
      </g>
      <g id="组_9726" data-name="组 9726" transform="translate(162.109 184.823)">
        <g id="组_9725" data-name="组 9725">
          <path id="路径_7385" data-name="路径 7385" d="M109.511,92.2v4.75A2.488,2.488,0,0,0,112,99.438V89.714A2.49,2.49,0,0,0,109.511,92.2Z" transform="translate(-109.511 -89.714)" fill="#878585"/>
          <path id="路径_7386" data-name="路径 7386" d="M110.6,89.714v9.724a2.488,2.488,0,0,0,2.489-2.487V92.2A2.49,2.49,0,0,0,110.6,89.714Z" transform="translate(-108.11 -89.714)" fill="#5a5959"/>
        </g>
        <path id="路径_7387" data-name="路径 7387" d="M112.631,92.568a1.3,1.3,0,1,1-1.3-1.3A1.3,1.3,0,0,1,112.631,92.568Z" transform="translate(-108.84 -87.709)" fill="#cfcece"/>
      </g>
      <g id="组_9727" data-name="组 9727" transform="translate(176.255 176.028)">
        <path id="路径_7388" data-name="路径 7388" d="M119.8,87.968v4.8a17.582,17.582,0,0,1,17.563,17.565v22.294h4.8V110.333A22.365,22.365,0,0,0,119.8,87.968Z" transform="translate(-119.801 -83.168)" fill="#878585"/>
        <path id="路径_7389" data-name="路径 7389" d="M119.8,85.87v4.8a22.365,22.365,0,0,1,22.363,22.365v22.294h4.8V113.035A27.2,27.2,0,0,0,119.8,85.87Z" transform="translate(-119.801 -85.87)" fill="#b7b6b6"/>
      </g>
      <g id="组_9728" data-name="组 9728" transform="translate(126.48 200.138)">
        <path id="路径_7390" data-name="路径 7390" d="M95.982,101.156H91.32v3.622h25.35v-3.622Z" transform="translate(-91.32 -90.292)" fill="#444343"/>
        <path id="路径_7391" data-name="路径 7391" d="M91.32,97.99v3.622h25.35V97.99Z" transform="translate(-91.32 -94.369)" fill="#444343"/>
        <path id="路径_7392" data-name="路径 7392" d="M103.224,104.321H91.32v3.622h25.35v-3.622Z" transform="translate(-91.32 -86.215)" fill="#444343"/>
        <rect id="矩形_199" data-name="矩形 199" width="25.35" height="3.621" fill="#656464"/>
        <path id="路径_7393" data-name="路径 7393" d="M92.361,99.573H91.32v3.621h25.35V99.573Z" transform="translate(-91.32 -92.33)" fill="#656464"/>
        <path id="路径_7394" data-name="路径 7394" d="M99.6,102.739H91.32v3.621h25.35v-3.621Z" transform="translate(-91.32 -88.253)" fill="#656464"/>
        <path id="路径_7395" data-name="路径 7395" d="M106.846,105.9H91.32v3.621h25.35V105.9Z" transform="translate(-91.32 -84.176)" fill="#656464"/>
      </g>
      <g id="组_9729" data-name="组 9729" transform="translate(50.831 140.713)">
        <rect id="矩形_200" data-name="矩形 200" width="15.901" height="43.524" transform="translate(24.813 15.901)" fill="#4f68b1"/>
        <path id="路径_7396" data-name="路径 7396" d="M67.453,86.336h15.9a15.9,15.9,0,0,0-31.8,0v43.524h15.9Z" transform="translate(-42.64 -70.435)" fill="#698aec"/>
        <path id="路径_7397" data-name="路径 7397" d="M86.467,86.336h15.9a15.9,15.9,0,1,0-31.8,0v43.524h15.9Z" transform="translate(-18.151 -70.435)" fill="#698aec"/>
        <rect id="矩形_201" data-name="矩形 201" width="15.901" height="43.524" transform="translate(68.316 15.901)" fill="#4f68b1"/>
        <path id="路径_7398" data-name="路径 7398" d="M93.415,96.408v9.447a15.9,15.9,0,0,1-15.9,15.9H102.9V96.408Z" transform="translate(-9.199 -36.982)" fill="#a9a8a8"/>
        <path id="路径_7399" data-name="路径 7399" d="M86.1,105.855V96.408H74.4v9.447a15.9,15.9,0,0,1-15.9,15.9h43.5A15.9,15.9,0,0,1,86.1,105.855Z" transform="translate(-33.689 -36.982)" fill="#a9a8a8"/>
        <path id="路径_7400" data-name="路径 7400" d="M56.569,105.855V96.408H47.657v25.349H72.47A15.9,15.9,0,0,1,56.569,105.855Z" transform="translate(-47.657 -36.982)" fill="#e1e0e0"/>
        <rect id="矩形_202" data-name="矩形 202" width="15.901" height="9.448" transform="translate(24.813 59.425)" fill="#a5acb5"/>
        <path id="路径_7401" data-name="路径 7401" d="M67.453,105.855V96.408h-15.9v9.447a15.9,15.9,0,0,0,31.8,0Z" transform="translate(-42.64 -36.982)" fill="#b8c0cc"/>
        <path id="路径_7402" data-name="路径 7402" d="M86.467,105.855V96.408h-15.9v9.447a15.9,15.9,0,1,0,31.8,0Z" transform="translate(-18.151 -36.982)" fill="#b8c0cc"/>
        <rect id="矩形_203" data-name="矩形 203" width="15.901" height="9.448" transform="translate(68.316 59.425)" fill="#a5acb5"/>
      </g>
      <rect id="矩形_204" data-name="矩形 204" width="93.698" height="5.401" transform="translate(50.832 200.138)" fill="#fff"/>
    </g>
  </g>
</svg>
