<svg xmlns="http://www.w3.org/2000/svg" xmlns:xlink="http://www.w3.org/1999/xlink" width="90.13" height="92" viewBox="0 0 90.13 92">
  <defs>
    <linearGradient id="linear-gradient" x1="0.603" y1="0.763" x2="0.351" y2="0.051" gradientUnits="objectBoundingBox">
      <stop offset="0.158" stop-color="#2b2b2b"/>
      <stop offset="0.426" stop-color="#343434"/>
      <stop offset="0.964" stop-color="#4a4a4a"/>
    </linearGradient>
    <linearGradient id="linear-gradient-2" x1="0.603" y1="0.75" x2="0.351" y2="-0.003" xlink:href="#linear-gradient"/>
    <linearGradient id="linear-gradient-3" x1="1.058" y1="0.544" x2="0.143" y2="0.473" xlink:href="#linear-gradient"/>
    <linearGradient id="linear-gradient-4" x1="1.057" y1="0.54" x2="0.142" y2="0.468" xlink:href="#linear-gradient"/>
    <linearGradient id="linear-gradient-5" x1="0.533" y1="0.822" x2="0.397" y2="0.18" xlink:href="#linear-gradient"/>
    <linearGradient id="linear-gradient-6" x1="0.533" y1="0.819" x2="0.397" y2="0.164" xlink:href="#linear-gradient"/>
    <linearGradient id="linear-gradient-7" x1="0.719" y1="-0.005" x2="0.336" y2="0.845" gradientUnits="objectBoundingBox">
      <stop offset="0.158" stop-color="#2b2b2b"/>
      <stop offset="0.865" stop-color="#191919"/>
    </linearGradient>
    <linearGradient id="linear-gradient-8" x1="0.468" y1="0.58" x2="0.664" y2="0.206" xlink:href="#linear-gradient"/>
    <linearGradient id="linear-gradient-9" x1="0.476" y1="0.572" x2="0.686" y2="0.191" xlink:href="#linear-gradient"/>
    <linearGradient id="linear-gradient-10" x1="0.358" y1="0.528" x2="0.743" y2="0.422" xlink:href="#linear-gradient"/>
    <linearGradient id="linear-gradient-11" x1="0.392" y1="0.527" x2="0.815" y2="0.42" xlink:href="#linear-gradient"/>
    <linearGradient id="linear-gradient-12" x1="0.474" y1="0.545" x2="0.557" y2="0.136" xlink:href="#linear-gradient"/>
    <linearGradient id="linear-gradient-13" x1="0.461" y1="0.704" x2="0.516" y2="0.296" xlink:href="#linear-gradient"/>
    <linearGradient id="linear-gradient-14" x1="0.435" y1="-0.02" x2="0.637" y2="2.572" xlink:href="#linear-gradient"/>
    <linearGradient id="linear-gradient-15" x1="40.888" y1="23.459" x2="41.141" y2="23.153" xlink:href="#linear-gradient"/>
    <linearGradient id="linear-gradient-16" x1="45.048" y1="24.159" x2="45.328" y2="23.843" xlink:href="#linear-gradient"/>
    <linearGradient id="linear-gradient-17" x1="65.766" y1="17.389" x2="66.413" y2="17.291" xlink:href="#linear-gradient"/>
    <linearGradient id="linear-gradient-18" x1="83.293" y1="17.391" x2="84.111" y2="17.293" xlink:href="#linear-gradient"/>
    <linearGradient id="linear-gradient-19" x1="31.181" y1="28.969" x2="31.275" y2="28.677" xlink:href="#linear-gradient"/>
    <linearGradient id="linear-gradient-20" x1="31.168" y1="29.083" x2="31.231" y2="28.791" xlink:href="#linear-gradient"/>
    <linearGradient id="linear-gradient-21" x1="128.091" y1="68.553" x2="128.265" y2="71.176" xlink:href="#linear-gradient"/>
    <linearGradient id="linear-gradient-22" x1="178.303" y1="0.763" x2="178.051" y2="0.051" xlink:href="#linear-gradient"/>
    <linearGradient id="linear-gradient-23" x1="178.296" y1="0.75" x2="178.044" y2="-0.003" xlink:href="#linear-gradient"/>
    <linearGradient id="linear-gradient-24" x1="305.889" y1="0.544" x2="304.973" y2="0.473" xlink:href="#linear-gradient"/>
    <linearGradient id="linear-gradient-25" x1="305.903" y1="0.54" x2="304.988" y2="0.468" xlink:href="#linear-gradient"/>
    <linearGradient id="linear-gradient-26" x1="197.142" y1="0.822" x2="197.006" y2="0.18" xlink:href="#linear-gradient"/>
    <linearGradient id="linear-gradient-27" x1="197.142" y1="0.819" x2="197.006" y2="0.164" xlink:href="#linear-gradient"/>
    <linearGradient id="linear-gradient-28" x1="765.175" y1="-0.005" x2="764.792" y2="0.845" xlink:href="#linear-gradient-7"/>
    <linearGradient id="linear-gradient-29" x1="208.729" y1="0.58" x2="208.924" y2="0.206" xlink:href="#linear-gradient"/>
    <linearGradient id="linear-gradient-30" x1="224.447" y1="0.572" x2="224.658" y2="0.191" xlink:href="#linear-gradient"/>
    <linearGradient id="linear-gradient-31" x1="260.765" y1="0.528" x2="261.15" y2="0.422" xlink:href="#linear-gradient"/>
    <linearGradient id="linear-gradient-32" x1="286.238" y1="0.526" x2="286.661" y2="0.42" xlink:href="#linear-gradient"/>
    <linearGradient id="linear-gradient-33" x1="181.78" y1="0.545" x2="181.863" y2="0.136" xlink:href="#linear-gradient"/>
    <linearGradient id="linear-gradient-34" x1="181.789" y1="0.704" x2="181.845" y2="0.296" xlink:href="#linear-gradient"/>
    <linearGradient id="linear-gradient-35" x1="985.791" y1="-0.02" x2="985.994" y2="2.572" xlink:href="#linear-gradient"/>
    <linearGradient id="linear-gradient-36" x1="298.803" y1="-28.023" x2="299.056" y2="-28.329" xlink:href="#linear-gradient"/>
    <linearGradient id="linear-gradient-37" x1="329.433" y1="-28.894" x2="329.713" y2="-29.21" xlink:href="#linear-gradient"/>
    <linearGradient id="linear-gradient-38" x1="486.171" y1="-20.23" x2="486.817" y2="-20.328" xlink:href="#linear-gradient"/>
    <linearGradient id="linear-gradient-39" x1="615.071" y1="-20.236" x2="615.891" y2="-20.334" xlink:href="#linear-gradient"/>
    <linearGradient id="linear-gradient-40" x1="228.616" y1="-33.927" x2="228.71" y2="-34.219" xlink:href="#linear-gradient"/>
    <linearGradient id="linear-gradient-41" x1="228.633" y1="-33.813" x2="228.696" y2="-34.105" xlink:href="#linear-gradient"/>
    <linearGradient id="linear-gradient-42" x1="945.864" y1="-82.182" x2="946.038" y2="-79.56" xlink:href="#linear-gradient"/>
    <linearGradient id="linear-gradient-43" x1="0.5" y1="1.448" x2="0.5" y2="-0.114" gradientUnits="objectBoundingBox">
      <stop offset="0" stop-color="#4b4b4b"/>
      <stop offset="0.732" stop-color="#868686"/>
    </linearGradient>
    <linearGradient id="linear-gradient-44" x1="0.5" y1="1.406" x2="0.5" y2="0.026" xlink:href="#linear-gradient-43"/>
    <linearGradient id="linear-gradient-45" x1="0.5" y1="2.003" x2="0.5" y2="-0.465" xlink:href="#linear-gradient-43"/>
    <linearGradient id="linear-gradient-46" x1="0.5" y1="1.992" x2="0.5" y2="-0.162" xlink:href="#linear-gradient-43"/>
    <linearGradient id="linear-gradient-47" x1="0.5" y1="1.143" x2="0.5" y2="0.136" xlink:href="#linear-gradient-43"/>
    <linearGradient id="linear-gradient-48" x1="0.5" y1="1.013" x2="0.5" y2="-0.435" xlink:href="#linear-gradient-43"/>
    <linearGradient id="linear-gradient-49" x1="0.5" y1="1.571" x2="0.5" y2="0.1" xlink:href="#linear-gradient-43"/>
    <linearGradient id="linear-gradient-50" x1="0.5" y1="1.419" x2="0.5" y2="0.08" xlink:href="#linear-gradient-43"/>
    <linearGradient id="linear-gradient-51" x1="0.5" y1="1.504" x2="0.5" y2="-0.255" xlink:href="#linear-gradient-43"/>
    <linearGradient id="linear-gradient-52" x1="0.5" y1="1.61" x2="0.5" y2="-0.517" xlink:href="#linear-gradient-43"/>
    <linearGradient id="linear-gradient-53" x1="0.5" y1="1.574" x2="0.5" y2="-0.375" xlink:href="#linear-gradient-43"/>
    <linearGradient id="linear-gradient-54" x1="0.5" y1="2.34" x2="0.5" y2="-0.958" xlink:href="#linear-gradient-43"/>
    <linearGradient id="linear-gradient-55" x1="0.5" y1="2.641" x2="0.5" y2="-0.92" xlink:href="#linear-gradient-43"/>
    <linearGradient id="linear-gradient-56" x1="0.5" y1="1.238" x2="0.5" y2="-0.443" xlink:href="#linear-gradient-43"/>
    <linearGradient id="linear-gradient-57" x1="0.5" y1="1.026" x2="0.5" y2="-1.831" xlink:href="#linear-gradient-43"/>
    <linearGradient id="linear-gradient-58" x1="0.5" y1="2.293" x2="0.5" y2="-1.039" xlink:href="#linear-gradient-43"/>
    <linearGradient id="linear-gradient-59" x1="0.5" y1="1.771" x2="0.5" y2="-0.693" xlink:href="#linear-gradient-43"/>
    <linearGradient id="linear-gradient-60" x1="0.5" y1="2.011" x2="0.5" y2="-1.517" xlink:href="#linear-gradient-43"/>
    <linearGradient id="linear-gradient-61" x1="0.5" y1="-1.349" x2="0.5" y2="2.853" gradientUnits="objectBoundingBox">
      <stop offset="0" stop-color="#e3e3e3"/>
      <stop offset="1" stop-color="#b8b8b8"/>
    </linearGradient>
    <linearGradient id="linear-gradient-62" x1="0.5" y1="-1.35" x2="0.5" y2="2.853" xlink:href="#linear-gradient-61"/>
    <linearGradient id="linear-gradient-63" x1="0.5" y1="1.504" x2="0.5" y2="-0.255" xlink:href="#linear-gradient-61"/>
    <linearGradient id="linear-gradient-64" x1="0.5" y1="1.504" x2="0.5" y2="-0.255" xlink:href="#linear-gradient-61"/>
    <linearGradient id="linear-gradient-65" x1="0.5" y1="1.504" x2="0.5" y2="-0.256" xlink:href="#linear-gradient-61"/>
    <linearGradient id="linear-gradient-66" x1="0.5" y1="1.504" x2="0.5" y2="-0.256" xlink:href="#linear-gradient-61"/>
    <linearGradient id="linear-gradient-67" x1="0.5" y1="1.504" x2="0.5" y2="-0.255" xlink:href="#linear-gradient-61"/>
    <linearGradient id="linear-gradient-68" x1="0.5" y1="1.503" x2="0.5" y2="-0.254" xlink:href="#linear-gradient-61"/>
    <linearGradient id="linear-gradient-69" x1="0.5" y1="1.504" x2="0.5" y2="-0.255" xlink:href="#linear-gradient-61"/>
    <linearGradient id="linear-gradient-70" x1="0.5" y1="1.504" x2="0.5" y2="-0.255" xlink:href="#linear-gradient-43"/>
    <linearGradient id="linear-gradient-71" x1="0.5" y1="11.042" x2="0.5" y2="-6.787" xlink:href="#linear-gradient-43"/>
    <linearGradient id="linear-gradient-72" x1="0.5" y1="15.654" x2="0.5" y2="-10.344" xlink:href="#linear-gradient-43"/>
    <linearGradient id="linear-gradient-73" x1="0.5" y1="2.044" x2="0.5" y2="-1.599" xlink:href="#linear-gradient-43"/>
    <linearGradient id="linear-gradient-74" x1="0.495" y1="77.295" x2="0.495" y2="-38.569" xlink:href="#linear-gradient-43"/>
    <linearGradient id="linear-gradient-75" x1="0.5" y1="-0.279" x2="0.5" y2="5.943" xlink:href="#linear-gradient-61"/>
    <linearGradient id="linear-gradient-76" x1="0.5" y1="0.853" x2="0.5" y2="-0.114" gradientUnits="objectBoundingBox">
      <stop offset="0.014" stop-color="#909090"/>
      <stop offset="0.425" stop-color="#343434"/>
      <stop offset="0.841" stop-color="#020202"/>
    </linearGradient>
    <linearGradient id="linear-gradient-77" x1="0.5" y1="1.03" x2="0.5" y2="-0.079" xlink:href="#linear-gradient-76"/>
    <linearGradient id="linear-gradient-78" x1="0.5" y1="0.991" x2="0.5" y2="-0.356" xlink:href="#linear-gradient-76"/>
    <linearGradient id="linear-gradient-79" x1="0.5" y1="2.204" x2="0.5" y2="-0.791" gradientUnits="objectBoundingBox">
      <stop offset="0.014" stop-color="#909090"/>
      <stop offset="0.574" stop-color="#343434"/>
      <stop offset="0.842" stop-color="#2b2b2b"/>
    </linearGradient>
    <linearGradient id="linear-gradient-80" x1="0.5" y1="6.191" x2="0.5" y2="-3.796" xlink:href="#linear-gradient-61"/>
    <linearGradient id="linear-gradient-81" x1="0.5" y1="5.153" x2="0.5" y2="-7.268" xlink:href="#linear-gradient-61"/>
    <linearGradient id="linear-gradient-82" x1="0.5" y1="2.457" x2="0.5" y2="-9.982" xlink:href="#linear-gradient-61"/>
    <radialGradient id="radial-gradient" cx="0.499" cy="1.994" r="1.991" gradientTransform="translate(-0.219) scale(1.439 1)" xlink:href="#linear-gradient"/>
    <linearGradient id="linear-gradient-83" x1="0.5" y1="0.91" x2="0.5" y2="-0.122" xlink:href="#linear-gradient-76"/>
    <linearGradient id="linear-gradient-84" x1="0.5" y1="0.246" x2="0.5" y2="1.636" xlink:href="#linear-gradient-79"/>
    <linearGradient id="linear-gradient-85" x1="0.5" y1="1.999" x2="0.5" y2="-0.008" xlink:href="#linear-gradient-79"/>
  </defs>
  <g id="白蟻" transform="translate(-282.934 -219.076)">
    <g id="组_304" data-name="组 304" transform="translate(282.934 220.946)">
      <g id="组_303" data-name="组 303">
        <path id="路径_479" data-name="路径 479" d="M328,309.9a45.065,45.065,0,1,1,45.064-45.064A45.116,45.116,0,0,1,328,309.9Zm0-84.914a39.85,39.85,0,1,0,39.85,39.85A39.895,39.895,0,0,0,328,224.982Z" transform="translate(-282.934 -219.766)" fill="#eb0000"/>
      </g>
    </g>
    <g id="组_352" data-name="组 352" transform="translate(294.437 233.021)">
      <g id="组_351" data-name="组 351">
        <g id="组_10036" data-name="组 10036" transform="translate(-25.795 -16.888)">
          <g id="组_9998" data-name="组 9998" transform="translate(43.453 2.943)">
            <g id="组_9994" data-name="组 9994">
              <path id="路径_8115" data-name="路径 8115" d="M39.171,3.832a.436.436,0,0,1-.476-.387.471.471,0,0,1,.077-.334.306.306,0,0,1,.273-.168.634.634,0,0,1,.3.093.46.46,0,0,1,.162.294A.436.436,0,0,1,39.171,3.832Z" transform="translate(-38.691 -2.943)" fill="#ababab"/>
              <path id="路径_8116" data-name="路径 8116" d="M39.291,4.562a.37.37,0,0,1-.144-.725.352.352,0,0,1,.4.294A.358.358,0,0,1,39.291,4.562Z" transform="translate(-38.512 -2.077)" fill="#ababab"/>
              <path id="路径_8117" data-name="路径 8117" d="M39.255,4.272a.432.432,0,0,1-.486-.371.424.424,0,0,1,.332-.508.431.431,0,0,1,.48.365A.436.436,0,0,1,39.255,4.272Z" transform="translate(-38.62 -2.508)" fill="#ababab"/>
              <path id="路径_8118" data-name="路径 8118" d="M39.372,4.923a.351.351,0,0,1-.413-.288.356.356,0,0,1,.255-.433.361.361,0,0,1,.413.29A.354.354,0,0,1,39.372,4.923Z" transform="translate(-38.437 -1.721)" fill="#ababab"/>
              <path id="路径_8119" data-name="路径 8119" d="M39.464,5.287A.355.355,0,0,1,39.045,5a.351.351,0,0,1,.245-.437.371.371,0,0,1,.174.719Z" transform="translate(-38.355 -1.366)" fill="#ababab"/>
              <path id="路径_8120" data-name="路径 8120" d="M39.567,5.648a.36.36,0,0,1-.429-.275.342.342,0,1,1,.429.275Z" transform="translate(-38.268 -1.014)" fill="#ababab"/>
              <g id="组_9992" data-name="组 9992" transform="translate(1.052 4.619)">
                <path id="路径_8121" data-name="路径 8121" d="M39.665,6.006a.371.371,0,0,1-.2-.713.356.356,0,0,1,.427.265A.365.365,0,0,1,39.665,6.006Z" transform="translate(-39.223 -5.281)" fill="#ababab"/>
                <path id="路径_8122" data-name="路径 8122" d="M39.784,6.362a.358.358,0,0,1-.437-.253.352.352,0,0,1,.215-.454A.362.362,0,0,1,40,5.907.358.358,0,0,1,39.784,6.362Z" transform="translate(-39.12 -4.93)" fill="#ababab"/>
                <path id="路径_8123" data-name="路径 8123" d="M39.907,6.715a.37.37,0,0,1-.233-.7.372.372,0,0,1,.233.7Z" transform="translate(-39.01 -4.582)" fill="#ababab"/>
                <path id="路径_8124" data-name="路径 8124" d="M40.03,7.072a.354.354,0,0,1-.442-.235.342.342,0,1,1,.642-.231A.365.365,0,0,1,40.03,7.072Z" transform="translate(-38.89 -4.236)" fill="#c3c3c3"/>
              </g>
              <path id="路径_8125" data-name="路径 8125" d="M40.176,7.413a.357.357,0,0,1-.456-.221.35.35,0,0,1,.184-.468.368.368,0,0,1,.454.221A.359.359,0,0,1,40.176,7.413Z" transform="translate(-37.714 0.725)" fill="#c3c3c3"/>
              <g id="组_9993" data-name="组 9993" transform="translate(2.253 8.111)">
                <path id="路径_8126" data-name="路径 8126" d="M40.317,7.758a.348.348,0,0,1-.456-.211.358.358,0,0,1,.178-.474.351.351,0,0,1,.45.213A.359.359,0,0,1,40.317,7.758Z" transform="translate(-39.831 -7.049)" fill="#c3c3c3"/>
                <path id="路径_8127" data-name="路径 8127" d="M40.481,8.1a.372.372,0,0,1-.308-.676.367.367,0,0,1,.466.2A.361.361,0,0,1,40.481,8.1Z" transform="translate(-39.687 -6.712)" fill="#c3c3c3"/>
                <path id="路径_8128" data-name="路径 8128" d="M40.649,8.43a.37.37,0,0,1-.322-.666.372.372,0,0,1,.322.666Z" transform="translate(-39.533 -6.38)" fill="#c3c3c3"/>
                <path id="路径_8129" data-name="路径 8129" d="M40.827,8.762a.373.373,0,0,1-.344-.658.372.372,0,0,1,.344.658Z" transform="translate(-39.367 -6.054)" fill="#c3c3c3"/>
              </g>
              <path id="路径_8130" data-name="路径 8130" d="M41.117,9.243a.291.291,0,0,1-.407-.115.3.3,0,0,1,.081-.419.3.3,0,0,1,.409.12A.3.3,0,0,1,41.117,9.243Z" transform="translate(-36.77 2.644)" fill="#d0d0d0"/>
              <path id="路径_8131" data-name="路径 8131" d="M40.951,8.976a.311.311,0,0,1-.31-.539.3.3,0,0,1,.4.13A.291.291,0,0,1,40.951,8.976Z" transform="translate(-36.929 2.382)" fill="#c3c3c3"/>
              <path id="路径_8132" data-name="路径 8132" d="M41.486,9.753a.313.313,0,0,1-.365-.506.31.31,0,0,1,.417.087A.3.3,0,0,1,41.486,9.753Z" transform="translate(-36.433 3.16)" fill="#d0d0d0"/>
              <path id="路径_8133" data-name="路径 8133" d="M41.3,9.5a.309.309,0,0,1-.421-.095.315.315,0,0,1,.077-.429A.315.315,0,0,1,41.3,9.5Z" transform="translate(-36.608 2.906)" fill="#d0d0d0"/>
              <path id="路径_8134" data-name="路径 8134" d="M41.9,10.233a.3.3,0,0,1-.423-.049.29.29,0,0,1,.016-.423.308.308,0,0,1,.423.049A.3.3,0,0,1,41.9,10.233Z" transform="translate(-36.057 3.645)" fill="#d0d0d0"/>
              <path id="路径_8135" data-name="路径 8135" d="M41.685,10a.3.3,0,0,1-.425-.065.31.31,0,0,1,.043-.433.294.294,0,0,1,.409.079A.3.3,0,0,1,41.685,10Z" transform="translate(-36.25 3.407)" fill="#d0d0d0"/>
              <path id="路径_8136" data-name="路径 8136" d="M42.364,10.657a.312.312,0,0,1-.466-.415.314.314,0,0,1,.466.415Z" transform="translate(-35.637 4.095)" fill="#d0d0d0"/>
              <path id="路径_8137" data-name="路径 8137" d="M42.115,10.464a.293.293,0,0,1-.429-.028A.311.311,0,0,1,41.692,10a.294.294,0,0,1,.415.041A.313.313,0,0,1,42.115,10.464Z" transform="translate(-35.852 3.876)" fill="#d0d0d0"/>
              <path id="路径_8138" data-name="路径 8138" d="M42.627,10.837a.314.314,0,0,1-.5-.375.3.3,0,0,1,.417-.034A.3.3,0,0,1,42.627,10.837Z" transform="translate(-35.399 4.29)" fill="#d0d0d0"/>
              <path id="路径_8139" data-name="路径 8139" d="M43.18,11.138a.313.313,0,0,1-.547-.3.3.3,0,0,1,.407-.1A.306.306,0,0,1,43.18,11.138Z" transform="translate(-34.883 4.622)" fill="#d0d0d0"/>
              <path id="路径_8140" data-name="路径 8140" d="M42.9,11a.311.311,0,0,1-.523-.336.294.294,0,0,1,.411-.067A.3.3,0,0,1,42.9,11Z" transform="translate(-35.146 4.465)" fill="#d0d0d0"/>
              <path id="路径_8141" data-name="路径 8141" d="M43.771,11.363a.29.29,0,0,1-.4.162.3.3,0,0,1-.19-.381.3.3,0,0,1,.391-.158A.316.316,0,0,1,43.771,11.363Z" transform="translate(-34.326 4.879)" fill="#d0d0d0"/>
              <path id="路径_8142" data-name="路径 8142" d="M43.472,11.264a.289.289,0,0,1-.4.132.288.288,0,1,1,.239-.521A.312.312,0,0,1,43.472,11.264Z" transform="translate(-34.608 4.761)" fill="#d0d0d0"/>
              <path id="路径_8143" data-name="路径 8143" d="M44.394,11.473a.286.286,0,0,1-.356.231.291.291,0,0,1-.261-.336.314.314,0,0,1,.616.1Z" transform="translate(-33.736 5.044)" fill="#d0d0d0"/>
              <path id="路径_8144" data-name="路径 8144" d="M44.081,11.437a.29.29,0,0,1-.379.194.294.294,0,0,1-.223-.363.312.312,0,0,1,.377-.194A.322.322,0,0,1,44.081,11.437Z" transform="translate(-34.034 4.975)" fill="#d0d0d0"/>
            </g>
            <g id="组_9997" data-name="组 9997" transform="translate(19.959)">
              <path id="路径_8145" data-name="路径 8145" d="M54.119,3.832a.43.43,0,0,1-.338-.5.465.465,0,0,1,.158-.294.642.642,0,0,1,.306-.093.3.3,0,0,1,.271.168.461.461,0,0,1,.077.334A.433.433,0,0,1,54.119,3.832Z" transform="translate(-43.939 -2.943)" fill="#ababab"/>
              <path id="路径_8146" data-name="路径 8146" d="M53.928,4.562a.36.36,0,0,1-.259-.431.343.343,0,1,1,.259.431Z" transform="translate(-44.049 -2.077)" fill="#ababab"/>
              <path id="路径_8147" data-name="路径 8147" d="M54.035,4.272a.436.436,0,0,1-.326-.514.43.43,0,0,1,.48-.365.424.424,0,0,1,.332.508A.433.433,0,0,1,54.035,4.272Z" transform="translate(-44.01 -2.508)" fill="#ababab"/>
              <path id="路径_8148" data-name="路径 8148" d="M53.849,4.923a.354.354,0,0,1-.255-.431.36.36,0,0,1,.411-.29.37.37,0,0,1-.156.721Z" transform="translate(-44.124 -1.721)" fill="#ababab"/>
              <path id="路径_8149" data-name="路径 8149" d="M53.756,5.287a.371.371,0,0,1,.176-.719A.349.349,0,0,1,54.174,5,.354.354,0,0,1,53.756,5.287Z" transform="translate(-44.206 -1.366)" fill="#ababab"/>
              <path id="路径_8150" data-name="路径 8150" d="M53.656,5.648a.372.372,0,1,1,.429-.275A.36.36,0,0,1,53.656,5.648Z" transform="translate(-44.294 -1.014)" fill="#ababab"/>
              <g id="组_9995" data-name="组 9995" transform="translate(8.247 4.619)">
                <path id="路径_8151" data-name="路径 8151" d="M53.553,6.006a.361.361,0,0,1-.225-.448.342.342,0,1,1,.656.184A.356.356,0,0,1,53.553,6.006Z" transform="translate(-52.636 -5.281)" fill="#ababab"/>
                <path id="路径_8152" data-name="路径 8152" d="M53.439,6.362a.371.371,0,0,1,.219-.707.353.353,0,0,1,.217.454A.358.358,0,0,1,53.439,6.362Z" transform="translate(-52.741 -4.93)" fill="#ababab"/>
                <path id="路径_8153" data-name="路径 8153" d="M53.316,6.715a.371.371,0,0,1,.233-.7.37.37,0,0,1-.233.7Z" transform="translate(-52.852 -4.582)" fill="#ababab"/>
                <path id="路径_8154" data-name="路径 8154" d="M53.191,7.072a.366.366,0,0,1-.2-.466.342.342,0,1,1,.642.231A.356.356,0,0,1,53.191,7.072Z" transform="translate(-52.971 -4.236)" fill="#c3c3c3"/>
              </g>
              <path id="路径_8155" data-name="路径 8155" d="M53.049,7.413a.357.357,0,0,1-.182-.468.367.367,0,0,1,.452-.221.35.35,0,0,1,.186.468A.357.357,0,0,1,53.049,7.413Z" transform="translate(-44.851 0.725)" fill="#c3c3c3"/>
              <g id="组_9996" data-name="组 9996" transform="translate(6.773 8.111)">
                <path id="路径_8156" data-name="路径 8156" d="M52.905,7.758a.359.359,0,0,1-.172-.472.35.35,0,0,1,.45-.213.358.358,0,0,1,.178.474A.349.349,0,0,1,52.905,7.758Z" transform="translate(-51.756 -7.049)" fill="#c3c3c3"/>
                <path id="路径_8157" data-name="路径 8157" d="M52.745,8.1a.359.359,0,0,1-.158-.476.365.365,0,0,1,.466-.2.372.372,0,0,1-.308.676Z" transform="translate(-51.904 -6.712)" fill="#c3c3c3"/>
                <path id="路径_8158" data-name="路径 8158" d="M52.575,8.43a.372.372,0,0,1,.322-.666.37.37,0,0,1-.322.666Z" transform="translate(-52.057 -6.38)" fill="#c3c3c3"/>
                <path id="路径_8159" data-name="路径 8159" d="M52.4,8.762a.372.372,0,0,1,.344-.658.373.373,0,0,1-.344.658Z" transform="translate(-52.224 -6.054)" fill="#c3c3c3"/>
              </g>
              <path id="路径_8160" data-name="路径 8160" d="M52.057,9.243a.3.3,0,0,1-.083-.413.3.3,0,0,1,.409-.12.3.3,0,0,1,.081.419A.292.292,0,0,1,52.057,9.243Z" transform="translate(-45.743 2.644)" fill="#d0d0d0"/>
              <path id="路径_8161" data-name="路径 8161" d="M52.223,8.976a.291.291,0,0,1-.089-.409.3.3,0,0,1,.4-.13.311.311,0,0,1-.31.539Z" transform="translate(-45.585 2.382)" fill="#c3c3c3"/>
              <path id="路径_8162" data-name="路径 8162" d="M51.688,9.753a.3.3,0,0,1-.049-.419.31.31,0,0,1,.417-.087.313.313,0,0,1-.367.506Z" transform="translate(-46.083 3.16)" fill="#d0d0d0"/>
              <path id="路径_8163" data-name="路径 8163" d="M51.875,9.5a.316.316,0,0,1,.346-.523.315.315,0,0,1,.077.429A.311.311,0,0,1,51.875,9.5Z" transform="translate(-45.906 2.906)" fill="#d0d0d0"/>
              <path id="路径_8164" data-name="路径 8164" d="M51.281,10.233a.3.3,0,0,1-.016-.423.311.311,0,0,1,.425-.049.291.291,0,0,1,.014.423A.3.3,0,0,1,51.281,10.233Z" transform="translate(-46.462 3.645)" fill="#d0d0d0"/>
              <path id="路径_8165" data-name="路径 8165" d="M51.49,10a.3.3,0,0,1-.03-.419.294.294,0,0,1,.409-.079.31.31,0,0,1,.045.433A.3.3,0,0,1,51.49,10Z" transform="translate(-46.265 3.407)" fill="#d0d0d0"/>
              <path id="路径_8166" data-name="路径 8166" d="M50.817,10.657a.313.313,0,1,1,.433.018A.3.3,0,0,1,50.817,10.657Z" transform="translate(-46.883 4.095)" fill="#d0d0d0"/>
              <path id="路径_8167" data-name="路径 8167" d="M51.061,10.464a.312.312,0,0,1,.006-.421A.294.294,0,0,1,51.482,10a.311.311,0,0,1,.006.435A.29.29,0,0,1,51.061,10.464Z" transform="translate(-46.663 3.876)" fill="#d0d0d0"/>
              <path id="路径_8168" data-name="路径 8168" d="M50.557,10.837a.316.316,0,0,1,.5-.375.314.314,0,0,1-.5.375Z" transform="translate(-47.125 4.29)" fill="#d0d0d0"/>
              <path id="路径_8169" data-name="路径 8169" d="M50.007,11.138a.307.307,0,0,1,.138-.4.3.3,0,0,1,.409.1.3.3,0,0,1-.132.407A.3.3,0,0,1,50.007,11.138Z" transform="translate(-47.643 4.622)" fill="#d0d0d0"/>
              <path id="路径_8170" data-name="路径 8170" d="M50.287,11a.3.3,0,0,1,.113-.4.3.3,0,0,1,.411.067.311.311,0,0,1-.523.336Z" transform="translate(-47.378 4.465)" fill="#d0d0d0"/>
              <path id="路径_8171" data-name="路径 8171" d="M49.417,11.363a.316.316,0,0,1,.192-.377.3.3,0,0,1,.393.158.3.3,0,0,1-.19.381A.289.289,0,0,1,49.417,11.363Z" transform="translate(-48.202 4.879)" fill="#d0d0d0"/>
              <path id="路径_8172" data-name="路径 8172" d="M49.715,11.264a.308.308,0,0,1,.166-.389.288.288,0,1,1,.239.521A.288.288,0,0,1,49.715,11.264Z" transform="translate(-47.919 4.761)" fill="#d0d0d0"/>
              <path id="路径_8173" data-name="路径 8173" d="M48.8,11.473a.317.317,0,0,1,.263-.336.308.308,0,0,1,.354.231.292.292,0,0,1-.259.336A.288.288,0,0,1,48.8,11.473Z" transform="translate(-48.795 5.044)" fill="#d0d0d0"/>
              <path id="路径_8174" data-name="路径 8174" d="M49.109,11.437a.32.32,0,0,1,.225-.363.313.313,0,0,1,.377.194.294.294,0,0,1-.225.363A.288.288,0,0,1,49.109,11.437Z" transform="translate(-48.496 4.975)" fill="#d0d0d0"/>
            </g>
          </g>
          <g id="组_10002" data-name="组 10002" transform="translate(62.915 22.772)">
            <path id="路径_8175" data-name="路径 8175" d="M57,16.228c.053-.065,0-.107-.055-.038a13.84,13.84,0,0,1-1.171,1.084,7.6,7.6,0,0,1,.678-1.14c.041-.053,0-.089-.043-.034a7.64,7.64,0,0,0-1.13,1.882c-.057.043-.113.085-.172.124s-.1.184,0,.117c.034-.026.065-.049.1-.073-.043.1-.081.205-.119.308l-.01.014a.088.088,0,0,0-.022.073c-.041.113-.079.223-.117.34-.1.089-.2.178-.3.275-.026.024-.051.113.014.069s.15-.115.225-.17c-.04.128-.079.259-.117.389-.12.124-.239.247-.354.375-.057.063-.024.15.051.073s.164-.168.247-.251c-.061.219-.117.442-.17.672l0,.018h0c-.03.036-.034.071-.018.085-.223,1.009-.213,2.044-.369,3.038a2.539,2.539,0,0,0-.174.239c-.059.095.032.1.085.034a.481.481,0,0,0,.051-.057l-.026.122a.972.972,0,0,1-.1.081c-.026.014-.13.166-.051.142a.433.433,0,0,0,.12-.053c-.016.067-.036.132-.053.2-.055.055-.111.113-.168.166-.036.034-.067.142.014.091.036-.024.069-.051.1-.073a5.173,5.173,0,0,1-.182.486c-.047.055-.095.111-.14.17s-.034.117,0,.111a3.432,3.432,0,0,1-.245.417c-.063.059-.126.119-.19.174-.018.016-.1.154-.016.132.328-.089.561-.48.782-.715a6.932,6.932,0,0,0,.774-.988c.067-.1-.047-.079-.093-.016a6.867,6.867,0,0,1-.648.812,3.4,3.4,0,0,0,.18-.4c.192-.219.377-.45.547-.681.061-.085,0-.136-.063-.053-.119.16-.251.31-.383.456.03-.093.061-.192.087-.288.231-.247.442-.527.674-.764.049-.051.047-.154-.032-.075-.2.2-.389.4-.583.6.014-.057.026-.115.038-.178l.095-.115a2.92,2.92,0,0,0,.549-.709c.041-.1-.081-.024-.1.024a2.345,2.345,0,0,1-.45.539.4.4,0,0,0-.051.061c.006-.045.014-.083.022-.124a4.763,4.763,0,0,0,.753-1.009c.036-.069-.053-.032-.075.006a4.062,4.062,0,0,1-.648.788c.008-.057.018-.119.024-.176a.09.09,0,0,0,.041-.026,5.489,5.489,0,0,0,.764-1.134c.049-.069,0-.113-.053-.041a12.582,12.582,0,0,1-.741,1.09c.008-.089.016-.174.022-.257l.006-.049,0,0a4.7,4.7,0,0,0,.832-1.268c.045-.079-.036-.059-.067-.01-.152.213-.259.45-.413.658-.115.156-.235.314-.342.476.012-.126.02-.249.034-.373l.018-.018a10.1,10.1,0,0,0,.849-1.14c.047-.065,0-.1-.047-.04-.138.172-.253.365-.4.533s-.277.338-.411.514c.008-.077.018-.15.024-.227.182-.215.365-.433.543-.652a4.238,4.238,0,0,0,.523-.672c.041-.081-.061-.038-.089,0a2.24,2.24,0,0,1-.227.269c-.115.144-.235.286-.352.431s-.255.308-.381.458c.016-.119.028-.235.045-.356.367-.409.705-.843,1.09-1.242.045-.045.045-.138-.028-.071a14.443,14.443,0,0,0-1.041,1.134c.016-.1.03-.211.047-.318a3.053,3.053,0,0,1,.45-.559c.16-.17.316-.348.478-.518.043-.045.041-.13-.024-.067-.184.188-.369.377-.545.569-.1.117-.227.235-.328.369.014-.075.026-.148.041-.227.377-.419.713-.893,1.076-1.321.047-.057,0-.085-.043-.036-.34.377-.666.764-.994,1.15.038-.194.079-.381.124-.573.413-.4.83-.8,1.235-1.215.045-.049.045-.142-.026-.071-.383.369-.778.729-1.161,1.1.024-.095.051-.19.079-.284.413-.338.81-.705,1.215-1.045.034-.022.067-.126,0-.079-.383.3-.778.595-1.154.909.03-.089.055-.18.087-.269a6.55,6.55,0,0,0,1.209-1.031c.041-.061,0-.1-.045-.038a6.072,6.072,0,0,1-1.1.881c.026-.075.053-.152.085-.225.452-.389.859-.845,1.335-1.2.03-.02.061-.115,0-.071a16.715,16.715,0,0,0-1.266,1.1c.028-.067.053-.132.083-.2A9.342,9.342,0,0,0,57,16.228Z" transform="translate(-44.062 -9.967)" fill="#5e5e5e"/>
            <g id="组_10001" data-name="组 10001">
              <g id="组_10000" data-name="组 10000" transform="translate(1.024)">
                <g id="组_9999" data-name="组 9999">
                  <path id="路径_8176" data-name="路径 8176" d="M54.59,17.744s-.523-.166-.2-.768,4.537-3.733,8.551-3.994c0,0,.561.478.2.792S57.6,16.6,56.8,17.377s-.97.709-1.284.764C55.072,18.22,54.59,17.744,54.59,17.744Z" transform="translate(-43.969 -12.982)" fill="url(#linear-gradient)"/>
                  <path id="路径_8177" data-name="路径 8177" d="M62.876,13.281c-.944.417-1.957.656-2.906,1.076a14.671,14.671,0,0,0-2.339,1.248,5.49,5.49,0,0,1-1.669.954.907.907,0,0,1-.992-.306,2.858,2.858,0,0,0-.583.585c-.322.6.2.768.2.768s.482.476.922.4c.314-.055.486.008,1.284-.764s5.981-3.291,6.344-3.6a.375.375,0,0,0,.034-.514C63.074,13.182,62.969,13.238,62.876,13.281Z" transform="translate(-43.969 -12.844)" opacity="0.6" fill="url(#linear-gradient-2)" style="mix-blend-mode: multiply;isolation: isolate"/>
                  <path id="路径_8178" data-name="路径 8178" d="M52.8,26.048a.6.6,0,0,1-.2-.855c.32-.6,2.046-8.952,3.251-9.953a.848.848,0,0,1,.922,0c.6.28,1.165.96.8,1.422a8.2,8.2,0,0,0-1.805,4.618c-.241,2.708-1.213,5.922-2.05,5.679A1.182,1.182,0,0,1,52.8,26.048Z" transform="translate(-45.716 -10.902)" fill="url(#linear-gradient-3)"/>
                  <path id="路径_8179" data-name="路径 8179" d="M56.858,15.2a2.321,2.321,0,0,1-.381,1.533A8.55,8.55,0,0,0,55.247,19.7c-.227.992-.375,1.991-.565,2.99-.162.83-.03,2.477-.879,2.957-.543.306-.9-.294-1.08-.9a2.178,2.178,0,0,1-.124.359.6.6,0,0,0,.2.855,1.182,1.182,0,0,0,.92.911c.837.243,1.809-2.971,2.05-5.679a8.2,8.2,0,0,1,1.805-4.618C57.919,16.141,57.425,15.505,56.858,15.2Z" transform="translate(-45.716 -10.82)" opacity="0.6" fill="url(#linear-gradient-4)" style="mix-blend-mode: multiply;isolation: isolate"/>
                  <path id="路径_8180" data-name="路径 8180" d="M49.376,23.87A32.245,32.245,0,0,0,54.1,21.454c1.566-1.1,1.084-1.3,1.967-.9s1.406,2.082.6,2.327-1.244.3-2.088.591-5.517,1.677-5.517,1.677Z" transform="translate(-49.062 -5.783)" fill="url(#linear-gradient-5)"/>
                  <path id="路径_8181" data-name="路径 8181" d="M56.064,20.511c-.087-.04-.158-.071-.219-.1a1.285,1.285,0,0,1,.521,1.189c-.111.721-.9.8-1.472,1-1.159.415-2.311.913-3.435,1.42a1.432,1.432,0,0,1-.832.227c-.358-.081-.595-.525-.966-.506a.14.14,0,0,1-.061-.016c-.142.059-.225.1-.225.1l-.314,1.28s4.675-1.385,5.517-1.677,1.284-.348,2.088-.591S56.947,20.912,56.064,20.511Z" transform="translate(-49.062 -5.738)" opacity="0.6" fill="url(#linear-gradient-6)" style="mix-blend-mode: multiply;isolation: isolate"/>
                </g>
                <path id="路径_8182" data-name="路径 8182" d="M50.012,23.449a29.212,29.212,0,0,0,2.959-1.294c.6-.3,1.711-.879,1.713-1.679C54.132,21.189,50.826,23.02,50.012,23.449Z" transform="translate(-48.136 -5.674)" fill="#565656" opacity="0.4" style="mix-blend-mode: screen;isolation: isolate"/>
                <path id="路径_8183" data-name="路径 8183" d="M55.592,15.463A23.789,23.789,0,0,0,52.854,24.5c0,.04.063-.024.067-.043a51.108,51.108,0,0,1,2.751-9C55.706,15.38,55.613,15.425,55.592,15.463Z" transform="translate(-45.364 -10.61)" fill="#565656" opacity="0.4" style="mix-blend-mode: screen;isolation: isolate"/>
                <path id="路径_8184" data-name="路径 8184" d="M58.237,14.149a29.315,29.315,0,0,0-2.86,1.612,3.689,3.689,0,0,0-.49.549c1.108-.543,2.135-1.26,3.259-1.793s2.311-.907,3.472-1.365c.026-.01.087-.1.034-.093A14.519,14.519,0,0,0,58.237,14.149Z" transform="translate(-43.381 -12.907)" fill="#565656" opacity="0.4" style="mix-blend-mode: screen;isolation: isolate"/>
              </g>
              <path id="路径_8185" data-name="路径 8185" d="M49.558,21.932s.994.03,1.033.794-1.679,1.679-1.934,1.72,0-1.323,0-1.323Z" transform="translate(-48.544 -4.254)" fill="url(#linear-gradient-7)"/>
              <path id="路径_8186" data-name="路径 8186" d="M49.243,21.965a1.078,1.078,0,0,1,.425.9,1.279,1.279,0,0,1-.324.723,1.3,1.3,0,0,0,.565-.9A.811.811,0,0,0,49.243,21.965Z" transform="translate(-47.862 -4.222)" fill="#565656" style="mix-blend-mode: screen;isolation: isolate"/>
            </g>
          </g>
          <g id="组_10006" data-name="组 10006" transform="translate(63.153 43.325)">
            <path id="路径_8187" data-name="路径 8187" d="M57.464,34.172a33.325,33.325,0,0,0-1.639-3.907c-.358-.776-.757-1.535-1.136-2.3-.231-.458-.531-1.381-1.023-1.608.036.018.1-.055.083-.091l-.02-.04c-.028-.055-.115.065-.107.1a5.514,5.514,0,0,0,.32,1.094c.028.18.077.358.115.529a7.409,7.409,0,0,1,.182,1.363c0,.049.075-.026.079-.053a9.12,9.12,0,0,0-.049-1.1l.006.01c.089.442.12.9.19,1.341.008.069.113-.036.109-.079-.028-.235-.038-.5-.053-.776.109.207.219.411.33.612-.008.6-.01,1.191,0,1.793,0,.04.065-.024.067-.047,0-.523.024-1.045.034-1.568.026.04.045.079.069.117a8.112,8.112,0,0,0,.176,2.216c.008.041.107-.047.1-.089a14.969,14.969,0,0,1-.1-1.809l.156.29a11.527,11.527,0,0,0,.117,2.2c.006.061.1-.034.1-.075-.03-.573-.006-1.171-.028-1.754.087.176.172.352.257.527a21.545,21.545,0,0,0,0,2.173c0,.059.1-.034.1-.073.014-.555.079-1.142.079-1.716.041.087.081.172.12.259a.148.148,0,0,0-.038.063A14.711,14.711,0,0,0,56,33.363c0,.059.1-.038.1-.075.016-.458.085-.922.075-1.381.034.069.067.142.1.211-.028.628.061,1.25.085,1.876,0,.063.1-.034.1-.077,0-.338-.014-.674-.038-1.007-.01-.156-.008-.31,0-.464.047.1.1.211.146.314a.109.109,0,0,0-.024.049,8.241,8.241,0,0,0,.107,1.242,4.644,4.644,0,0,1,.075,1.13c-.01.073.077,0,.087-.03a1.75,1.75,0,0,0,.071-.61,9.334,9.334,0,0,1,.168,1.049c.006.061.1-.04.1-.075a7.5,7.5,0,0,0-.109-1.782c.1.186.2.367.3.549C57.381,34.338,57.48,34.218,57.464,34.172Z" transform="translate(-43.829 -20.63)" fill="#5e5e5e"/>
            <g id="组_10005" data-name="组 10005">
              <g id="组_10004" data-name="组 10004">
                <g id="组_10003" data-name="组 10003" transform="translate(1.092 1.088)">
                  <path id="路径_8188" data-name="路径 8188" d="M55.806,30.8s-.122.96.318,1.148a17.323,17.323,0,0,1,4.1,2.605c.762.922,3.249,3.17,3.249,2.325S60.4,32.1,56.957,30.461Z" transform="translate(-42.807 -17.577)" fill="url(#linear-gradient-8)"/>
                  <path id="路径_8189" data-name="路径 8189" d="M56.677,31.379c.038-.4.523-.559.924-.585-.211-.119-.427-.233-.644-.334l-1.152.34s-.122.96.318,1.148a17.323,17.323,0,0,1,4.1,2.605,13.23,13.23,0,0,0,2.708,2.376C58.834,31.589,56.623,31.954,56.677,31.379Z" transform="translate(-42.807 -17.577)" opacity="0.4" fill="url(#linear-gradient-9)" style="mix-blend-mode: multiply;isolation: isolate"/>
                  <path id="路径_8190" data-name="路径 8190" d="M53.382,25.914s.363-.674,1.2.2S58.48,32.725,59,33.728s.521,1.8,0,1.9-1.365.885-1.768-1.033-3.652-7.616-3.854-7.978A.763.763,0,0,1,53.382,25.914Z" transform="translate(-45.242 -22.252)" fill="url(#linear-gradient-10)"/>
                  <path id="路径_8191" data-name="路径 8191" d="M58.184,34.949c-.514-1.122-.877-2.307-1.416-3.425q-.581-1.206-1.231-2.372c-.35-.63-.788-1.2-1.142-1.817a1.026,1.026,0,0,1-.079-1.154.377.377,0,0,1,.2-.144c-.788-.751-1.13-.124-1.13-.124a.763.763,0,0,0,0,.707c.2.361,3.453,6.064,3.854,7.978.365,1.738,1.09,1.258,1.614,1.076A1.31,1.31,0,0,1,58.184,34.949Z" transform="translate(-45.242 -22.251)" opacity="0.4" fill="url(#linear-gradient-11)" style="mix-blend-mode: multiply;isolation: isolate"/>
                  <path id="路径_8192" data-name="路径 8192" d="M49.255,23.938l8.065,2.817A.975.975,0,0,1,57.88,27.8c-.16.709-1.163,1.231-1.608.508s-7.055-3.376-7.055-3.376Z" transform="translate(-49.217 -23.938)" fill="url(#linear-gradient-12)"/>
                  <path id="路径_8193" data-name="路径 8193" d="M57.758,27.14c.055.466-.038.932-.6.794a2.6,2.6,0,0,1-.711-.4,12.028,12.028,0,0,0-1.076-.585c-.65-.3-5.268-1.489-5.41-2.767l-.7-.247-.038.994s6.615,2.655,7.055,3.376,1.448.2,1.608-.508A.8.8,0,0,0,57.758,27.14Z" transform="translate(-49.217 -23.938)" opacity="0.6" fill="url(#linear-gradient-13)" style="mix-blend-mode: multiply;isolation: isolate"/>
                </g>
                <path id="路径_8194" data-name="路径 8194" d="M48.826,23.387a2.306,2.306,0,0,1,1.42,1.685c.1,1.165-1.582,1.1-1.582,1.1Z" transform="translate(-48.664 -23.387)" fill="url(#linear-gradient-14)"/>
              </g>
              <path id="路径_8195" data-name="路径 8195" d="M49.853,24.221s3.547,1.369,4.985,1.8,2.031.614,2.119,1.055c0,0-1.323-.448-2.809-1.055C52.915,25.515,50.195,24.841,49.853,24.221Z" transform="translate(-47.504 -22.574)" fill="#565656" opacity="0.4" style="mix-blend-mode: screen;isolation: isolate"/>
              <path id="路径_8196" data-name="路径 8196" d="M53.958,26.008s4.6,7.342,4.658,8.665A97.51,97.51,0,0,1,53.958,26.008Z" transform="translate(-43.501 -20.831)" fill="#565656" opacity="0.4" style="mix-blend-mode: screen;isolation: isolate"/>
              <path id="路径_8197" data-name="路径 8197" d="M56.667,30.759s4.454,2.678,5.718,5.691C62.385,36.45,60.969,34.1,56.667,30.759Z" transform="translate(-40.859 -16.198)" fill="#565656" opacity="0.4" style="mix-blend-mode: screen;isolation: isolate"/>
            </g>
          </g>
          <g id="组_10010" data-name="组 10010" transform="translate(63.153 45.132)">
            <path id="路径_8198" data-name="路径 8198" d="M55.287,38.169a1.92,1.92,0,0,1-.13-.213c0-.148,0-.3-.006-.448,0-.051-.043-.028-.083.012-.024,0-.067.034-.093.069a4.521,4.521,0,0,1-.166-.468,1.2,1.2,0,0,0,.041-.166c.01-.077-.043-.047-.087-.008-.045-.182-.085-.365-.119-.553a1.931,1.931,0,0,0,.03-.4c0-.051-.043-.03-.083,0a.555.555,0,0,0,.016-.119c0-.036-.018-.036-.041-.022-.014-.115-.028-.229-.04-.348a2.352,2.352,0,0,0,.02-.261c0-.038-.022-.034-.049-.014-.055-.545-.1-1.08-.2-1.56-.022-.117-.047-.231-.071-.348,0-.045,0-.091,0-.138,0-.028-.018-.034-.038-.028-.344-1.6-.808-3.172-1.116-4.766-.006-.045-.093.043-.093.073.014.3.041.6.077.907a.185.185,0,0,0-.045.079c-.032.377.026.757.012,1.138,0,.069.1-.026.124-.079a3.564,3.564,0,0,1-.053.628c-.018.083.1-.012.109-.049.028-.117.053-.235.075-.363l0,.01c-.016.168-.024.334-.036.5-.024.251-.043.506-.055.757,0,.059.093-.04.1-.073.012-.079.024-.158.038-.239-.02.223-.041.444-.083.666-.014.093.1-.01.115-.057.045-.184.1-.385.134-.591.012.063.026.119.041.178-.024.217-.03.435-.061.65a5.246,5.246,0,0,0-.073.672c0,.065.1-.028.1-.063.034-.235.1-.482.152-.735l.026.1a13.327,13.327,0,0,0-.188,1.566c0,.057.091-.036.095-.069.043-.35.13-.7.2-1.043l0,.008a8.042,8.042,0,0,0-.1,1.683c0,.073.113-.043.115-.081.028-.314.083-.63.13-.95.014.061.026.122.038.182-.067.48-.111.964-.221,1.436-.018.087.1-.012.111-.053.065-.2.126-.415.182-.628-.01.117-.02.233-.039.348a7.949,7.949,0,0,1-.217.966c-.022.075.083,0,.1-.036a6.388,6.388,0,0,0,.229-.861l.026.31q-.012.107-.03.213c-.067.385-.209.751-.3,1.13-.02.085.1-.016.111-.055.075-.265.174-.529.263-.8.01.089.018.178.028.267a12.367,12.367,0,0,1-.423,1.2c-.038.091.071.024.093-.022.122-.257.259-.537.375-.824.008.036.014.071.018.1-.049.16-.1.322-.154.482a1.623,1.623,0,0,1-.164.46c-.036.032-.111.1-.018.047-.016.008-.091.091-.043.1.162.028.306-.452.34-.533s.061-.168.091-.249c0,.024.012.051.016.079a3.72,3.72,0,0,1-.115.4c-.083.237-.178.681-.391.841-.036.024-.075.128,0,.083a1.5,1.5,0,0,0,.44-.7c.045-.107.091-.215.136-.328a2.788,2.788,0,0,0,.087.3c-.134.344-.245.7-.358,1.045-.026.081.091,0,.107-.04.075-.188.186-.373.255-.565-.073.354-.164.7-.267,1.055-.024.075.087,0,.1-.036.109-.32.251-.658.334-1,.053.109.107.211.168.314-.02.095-.038.194-.059.288a5.445,5.445,0,0,1-.318,1.14c-.03.065.049.03.069,0a4.258,4.258,0,0,0,.314-.916c.034-.12.065-.243.1-.363l0,0c-.012.188-.028.373-.047.555a4.232,4.232,0,0,1-.279,1.553c-.043.063.022.075.055.024a2.441,2.441,0,0,0,.282-1.019c.067-.346.124-.7.16-1.047C55.224,38.394,55.333,38.236,55.287,38.169Z" transform="translate(-44.451 -20.321)" fill="#5e5e5e"/>
            <g id="组_10009" data-name="组 10009">
              <g id="组_10008" data-name="组 10008">
                <g id="组_10007" data-name="组 10007" transform="translate(1.242 1.306)">
                  <path id="路径_8199" data-name="路径 8199" d="M54.063,33.175s-.373.9,0,1.193a17.373,17.373,0,0,1,3.249,3.6c.488,1.09,2.287,3.923,2.511,3.111s-1.683-5.422-4.559-7.927Z" transform="translate(-44.803 -16.972)" fill="url(#linear-gradient-15)"/>
                  <path id="路径_8200" data-name="路径 8200" d="M54.748,33.969c.142-.373.654-.4,1.049-.318-.176-.172-.352-.336-.531-.494l-1.2.018s-.373.9,0,1.193a17.373,17.373,0,0,1,3.249,3.6,13.256,13.256,0,0,0,1.975,3.016C56.771,34.745,54.545,34.508,54.748,33.969Z" transform="translate(-44.803 -16.972)" opacity="0.4" fill="url(#linear-gradient-16)" style="mix-blend-mode: multiply;isolation: isolate"/>
                  <path id="路径_8201" data-name="路径 8201" d="M53.006,27.917s.529-.553,1.108.512,1.987,7.409,2.222,8.517.022,1.878-.508,1.837-1.553.488-1.428-1.468S52.915,29,52.818,28.6A.761.761,0,0,1,53.006,27.917Z" transform="translate(-45.875 -22.222)" fill="url(#linear-gradient-17)"/>
                  <path id="路径_8202" data-name="路径 8202" d="M55.222,37.9c-.2-1.219-.233-2.455-.452-3.678-.158-.879-.342-1.748-.551-2.615-.17-.7-.44-1.365-.616-2.054a1.034,1.034,0,0,1,.233-1.136.372.372,0,0,1,.223-.085c-.555-.934-1.053-.421-1.053-.421a.761.761,0,0,0-.188.681c.1.4,1.707,6.763,1.582,8.717-.115,1.774.717,1.5,1.266,1.47A1.288,1.288,0,0,1,55.222,37.9Z" transform="translate(-45.875 -22.221)" opacity="0.4" fill="url(#linear-gradient-18)" style="mix-blend-mode: multiply;isolation: isolate"/>
                  <path id="路径_8203" data-name="路径 8203" d="M49.593,24.963l7.018,4.869a.975.975,0,0,1,.265,1.157c-.346.64-1.452.871-1.685.061s-5.9-5.138-5.9-5.138Z" transform="translate(-49.293 -24.963)" fill="url(#linear-gradient-19)"/>
                  <path id="路径_8204" data-name="路径 8204" d="M56.935,30.318c-.075.466-.288.891-.8.606a2.423,2.423,0,0,1-.579-.575c-.282-.294-.575-.583-.885-.849-.541-.464-4.677-2.842-4.47-4.112l-.612-.425-.3.95s5.665,4.324,5.9,5.138,1.339.579,1.685-.061A.822.822,0,0,0,56.935,30.318Z" transform="translate(-49.293 -24.963)" opacity="0.6" fill="url(#linear-gradient-20)" style="mix-blend-mode: multiply;isolation: isolate"/>
                </g>
                <path id="路径_8205" data-name="路径 8205" d="M49.565,24.3a2.3,2.3,0,0,1,.918,2c-.211,1.15-1.819.642-1.819.642Z" transform="translate(-48.664 -24.302)" fill="url(#linear-gradient-21)"/>
              </g>
              <path id="路径_8206" data-name="路径 8206" d="M49.965,25.4s3.052,2.27,4.322,3.068,1.792,1.134,1.76,1.582c0,0-1.156-.784-2.424-1.768C52.568,27.464,50.127,26.091,49.965,25.4Z" transform="translate(-47.395 -23.231)" fill="#565656" opacity="0.4" style="mix-blend-mode: screen;isolation: isolate"/>
              <path id="路径_8207" data-name="路径 8207" d="M53.443,28.22s2.469,8.3,2.175,9.59C55.618,37.81,53.573,30.266,53.443,28.22Z" transform="translate(-44.003 -20.481)" fill="#565656" opacity="0.4" style="mix-blend-mode: screen;isolation: isolate"/>
              <path id="路径_8208" data-name="路径 8208" d="M54.783,33.521s3.581,3.771,4,7.01C58.779,40.531,58.042,37.888,54.783,33.521Z" transform="translate(-42.697 -15.311)" fill="#565656" opacity="0.4" style="mix-blend-mode: screen;isolation: isolate"/>
            </g>
          </g>
          <g id="组_10023" data-name="组 10023" transform="translate(33.807 22.772)">
            <g id="组_10014" data-name="组 10014" transform="translate(1.679)">
              <path id="路径_8209" data-name="路径 8209" d="M38.4,16.228c-.053-.065,0-.107.053-.038a13.866,13.866,0,0,0,1.173,1.084,7.611,7.611,0,0,0-.679-1.14c-.041-.053,0-.089.041-.034a7.6,7.6,0,0,1,1.136,1.882c.055.043.111.085.17.124s.1.184,0,.117l-.1-.073.119.308.01.014a.1.1,0,0,1,.022.073c.041.113.079.223.117.34.1.089.2.178.294.275.026.024.051.113-.01.069-.079-.053-.152-.115-.229-.17.041.128.079.259.117.389.119.124.241.247.356.375.055.063.024.15-.049.073s-.166-.168-.251-.251c.061.219.119.442.172.672l.006.018h0c.03.036.032.071.016.085.225,1.009.211,2.044.371,3.038.061.075.119.158.174.239s-.03.1-.087.034l-.049-.057c.006.041.016.081.024.122a.823.823,0,0,0,.1.081c.028.014.13.166.051.142a.377.377,0,0,1-.119-.053c.014.067.034.132.051.2.055.055.109.113.168.166.038.034.067.142-.014.091-.036-.024-.067-.051-.1-.073a4.679,4.679,0,0,0,.182.486c.047.055.095.111.14.17s.034.117,0,.111a3.709,3.709,0,0,0,.245.417c.063.059.126.119.19.174.02.016.1.154.018.132-.328-.089-.561-.48-.78-.715a6.819,6.819,0,0,1-.778-.988c-.067-.1.049-.079.093-.016a6.865,6.865,0,0,0,.648.812c-.065-.128-.124-.257-.18-.4-.19-.219-.377-.45-.545-.681-.061-.085,0-.136.065-.053a5.617,5.617,0,0,0,.381.456c-.034-.093-.061-.192-.087-.288-.233-.247-.442-.527-.674-.764-.049-.051-.047-.154.028-.075.2.2.393.4.587.6-.014-.057-.028-.115-.038-.178l-.095-.115a2.97,2.97,0,0,1-.549-.709c-.041-.1.079-.024.1.024a2.4,2.4,0,0,0,.45.539.558.558,0,0,1,.051.061c-.008-.045-.014-.083-.022-.124a4.762,4.762,0,0,1-.753-1.009c-.036-.069.053-.032.073.006a4.211,4.211,0,0,0,.648.788c-.006-.057-.016-.119-.022-.176a.118.118,0,0,1-.043-.026,5.56,5.56,0,0,1-.762-1.134c-.049-.069,0-.113.055-.041a12.132,12.132,0,0,0,.739,1.09c-.01-.089-.018-.174-.026-.257l0-.049,0,0a4.643,4.643,0,0,1-.83-1.268c-.045-.079.034-.059.065-.01.148.213.261.45.413.658.115.156.233.314.342.476l-.032-.373-.02-.018a10.361,10.361,0,0,1-.851-1.14c-.047-.065,0-.1.049-.04.138.172.251.365.4.533s.279.338.411.514c-.008-.077-.016-.15-.022-.227q-.276-.323-.543-.652a4.126,4.126,0,0,1-.523-.672c-.041-.081.063-.038.085,0a2.122,2.122,0,0,0,.233.269c.115.144.233.286.35.431s.251.308.379.458c-.014-.119-.028-.235-.043-.356-.369-.409-.709-.843-1.09-1.242-.045-.045-.045-.138.026-.071a14.468,14.468,0,0,1,1.043,1.134c-.014-.1-.032-.211-.047-.318a2.973,2.973,0,0,0-.45-.559c-.16-.17-.316-.348-.48-.518-.041-.045-.041-.13.026-.067.184.188.369.377.543.569a4.241,4.241,0,0,1,.328.369c-.014-.075-.028-.148-.04-.227-.379-.419-.713-.893-1.076-1.321-.045-.057,0-.085.043-.036.34.377.664.764.992,1.15-.038-.194-.077-.381-.124-.573-.413-.4-.83-.8-1.235-1.215-.045-.049-.043-.142.028-.071.381.369.776.729,1.161,1.1-.024-.095-.051-.19-.079-.284-.413-.338-.812-.705-1.217-1.045-.03-.022-.065-.126,0-.079.385.3.776.595,1.154.909-.028-.089-.057-.18-.087-.269a6.55,6.55,0,0,1-1.209-1.031c-.043-.061,0-.1.045-.038a6.072,6.072,0,0,0,1.1.881c-.028-.075-.055-.152-.083-.225-.456-.389-.859-.845-1.337-1.2-.03-.02-.061-.115,0-.071.454.322.841.737,1.266,1.1-.028-.067-.053-.132-.083-.2A9.343,9.343,0,0,1,38.4,16.228Z" transform="translate(-31.026 -9.967)" fill="#5e5e5e"/>
              <g id="组_10013" data-name="组 10013">
                <g id="组_10012" data-name="组 10012">
                  <g id="组_10011" data-name="组 10011">
                    <path id="路径_8210" data-name="路径 8210" d="M43.328,17.744s.519-.166.2-.768-4.537-3.733-8.551-3.994c0,0-.561.478-.2.792s5.542,2.827,6.342,3.6.972.709,1.284.764C42.846,18.22,43.328,17.744,43.328,17.744Z" transform="translate(-34.657 -12.982)" fill="url(#linear-gradient-22)"/>
                    <path id="路径_8211" data-name="路径 8211" d="M35.042,13.281c.946.417,1.957.656,2.9,1.076a14.607,14.607,0,0,1,2.341,1.248,5.5,5.5,0,0,0,1.667.954.9.9,0,0,0,.99-.306,2.86,2.86,0,0,1,.587.585c.318.6-.2.768-.2.768s-.482.476-.924.4c-.312-.055-.484.008-1.284-.764s-5.981-3.291-6.342-3.6a.372.372,0,0,1-.034-.514A3.136,3.136,0,0,0,35.042,13.281Z" transform="translate(-34.657 -12.844)" opacity="0.6" fill="url(#linear-gradient-23)" style="mix-blend-mode: multiply;isolation: isolate"/>
                    <path id="路径_8212" data-name="路径 8212" d="M43.255,26.048a.606.606,0,0,0,.2-.855c-.322-.6-2.048-8.952-3.251-9.953a.851.851,0,0,0-.924,0c-.6.28-1.163.96-.8,1.422a8.167,8.167,0,0,1,1.807,4.618c.241,2.708,1.213,5.922,2.052,5.679A1.186,1.186,0,0,0,43.255,26.048Z" transform="translate(-31.044 -10.902)" fill="url(#linear-gradient-24)"/>
                    <path id="路径_8213" data-name="路径 8213" d="M39.194,15.2a2.331,2.331,0,0,0,.379,1.533A8.554,8.554,0,0,1,40.805,19.7c.227.992.373,1.991.567,2.99.156.83.028,2.477.879,2.957.541.306.9-.294,1.078-.9a2.177,2.177,0,0,0,.124.359.606.606,0,0,1-.2.855,1.186,1.186,0,0,1-.92.911c-.839.243-1.811-2.971-2.052-5.679a8.167,8.167,0,0,0-1.807-4.618C38.133,16.141,38.625,15.505,39.194,15.2Z" transform="translate(-31.044 -10.82)" opacity="0.6" fill="url(#linear-gradient-25)" style="mix-blend-mode: multiply;isolation: isolate"/>
                    <path id="路径_8214" data-name="路径 8214" d="M48.063,23.87a32.23,32.23,0,0,1-4.723-2.416c-1.568-1.1-1.084-1.3-1.967-.9s-1.406,2.082-.6,2.327,1.244.3,2.088.591,5.517,1.677,5.517,1.677Z" transform="translate(-29.083 -5.783)" fill="url(#linear-gradient-26)"/>
                    <path id="路径_8215" data-name="路径 8215" d="M41.373,20.511l.219-.1a1.285,1.285,0,0,0-.521,1.189c.111.721.9.8,1.474,1,1.159.415,2.309.913,3.431,1.42a1.444,1.444,0,0,0,.832.227c.359-.081.6-.525.968-.506a.147.147,0,0,0,.061-.016c.142.059.227.1.227.1l.312,1.28S43.7,23.72,42.858,23.428s-1.284-.348-2.088-.591S40.49,20.912,41.373,20.511Z" transform="translate(-29.083 -5.738)" opacity="0.6" fill="url(#linear-gradient-27)" style="mix-blend-mode: multiply;isolation: isolate"/>
                  </g>
                  <path id="路径_8216" data-name="路径 8216" d="M45.78,23.449a28.608,28.608,0,0,1-2.957-1.294c-.606-.3-1.713-.879-1.714-1.679C41.658,21.189,44.965,23.02,45.78,23.449Z" transform="translate(-28.365 -5.674)" fill="#565656" opacity="0.4" style="mix-blend-mode: screen;isolation: isolate"/>
                  <path id="路径_8217" data-name="路径 8217" d="M39.289,15.463A23.754,23.754,0,0,1,42.027,24.5c0,.04-.061-.024-.069-.043a51.43,51.43,0,0,0-2.748-9C39.174,15.38,39.267,15.425,39.289,15.463Z" transform="translate(-30.225 -10.61)" fill="#565656" opacity="0.4" style="mix-blend-mode: screen;isolation: isolate"/>
                  <path id="路径_8218" data-name="路径 8218" d="M38.6,14.149a28.849,28.849,0,0,1,2.86,1.612,3.816,3.816,0,0,1,.492.549c-1.108-.543-2.135-1.26-3.261-1.793s-2.309-.907-3.472-1.365c-.024-.01-.087-.1-.034-.093A14.49,14.49,0,0,1,38.6,14.149Z" transform="translate(-34.164 -12.907)" fill="#565656" opacity="0.4" style="mix-blend-mode: screen;isolation: isolate"/>
                </g>
                <path id="路径_8219" data-name="路径 8219" d="M44.937,21.932s-.992.03-1.031.794,1.677,1.679,1.934,1.72,0-1.323,0-1.323Z" transform="translate(-25.637 -4.254)" fill="url(#linear-gradient-28)"/>
                <path id="路径_8220" data-name="路径 8220" d="M44.572,21.965a1.08,1.08,0,0,0-.427.9,1.279,1.279,0,0,0,.324.723,1.3,1.3,0,0,1-.563-.9A.811.811,0,0,1,44.572,21.965Z" transform="translate(-25.637 -4.222)" fill="#565656" style="mix-blend-mode: screen;isolation: isolate"/>
              </g>
            </g>
            <g id="组_10018" data-name="组 10018" transform="translate(0 20.552)">
              <path id="路径_8221" data-name="路径 8221" d="M38.035,34.283c.1-.182.2-.363.3-.549a7.5,7.5,0,0,0-.109,1.782c0,.036.1.136.1.075a9.815,9.815,0,0,1,.17-1.049,1.7,1.7,0,0,0,.071.61c.01.03.1.1.085.03a4.646,4.646,0,0,1,.077-1.13,7.988,7.988,0,0,0,.1-1.242.162.162,0,0,0-.022-.049c.047-.1.095-.209.144-.314,0,.154.008.308,0,.464-.022.334-.041.67-.04,1.007,0,.043.107.14.107.077.026-.626.111-1.248.085-1.876.034-.069.065-.142.1-.211-.008.458.061.922.077,1.381,0,.038.1.134.1.075a15.235,15.235,0,0,0-.049-1.59.172.172,0,0,0-.038-.063c.039-.087.079-.172.117-.259,0,.575.069,1.161.081,1.716,0,.04.1.132.1.073.012-.713.061-1.456,0-2.173.085-.176.17-.352.257-.527-.024.583,0,1.181-.028,1.754,0,.041.095.136.1.075a11.857,11.857,0,0,0,.113-2.2c.053-.093.1-.192.158-.29a14.579,14.579,0,0,1-.1,1.809c0,.041.091.13.1.089a8.191,8.191,0,0,0,.178-2.216c.02-.038.043-.077.063-.117.014.523.032,1.045.038,1.568,0,.024.065.087.065.047.008-.6,0-1.2,0-1.793.109-.2.221-.4.33-.612-.018.273-.026.541-.053.776-.006.043.1.148.109.079.071-.444.1-.9.192-1.341l0-.01a9.115,9.115,0,0,0-.047,1.1c0,.028.075.1.077.053a7.241,7.241,0,0,1,.18-1.363c.041-.172.087-.35.117-.529a5.659,5.659,0,0,0,.322-1.094c.006-.038-.083-.158-.109-.1l-.02.04c-.018.036.047.109.083.091-.49.227-.794,1.15-1.021,1.608-.381.764-.78,1.523-1.14,2.3a34.016,34.016,0,0,0-1.639,3.907C37.907,34.218,38,34.338,38.035,34.283Z" transform="translate(-29.798 -20.63)" fill="#5e5e5e"/>
              <g id="组_10017" data-name="组 10017">
                <g id="组_10016" data-name="组 10016">
                  <g id="组_10015" data-name="组 10015" transform="translate(0 1.088)">
                    <path id="路径_8222" data-name="路径 8222" d="M41.473,30.8s.12.96-.322,1.148a17.429,17.429,0,0,0-4.093,2.605c-.762.922-3.251,3.17-3.251,2.325s3.069-4.774,6.512-6.417Z" transform="translate(-33.807 -17.577)" fill="url(#linear-gradient-29)"/>
                    <path id="路径_8223" data-name="路径 8223" d="M40.335,31.379c-.038-.4-.523-.559-.926-.585.213-.119.427-.233.644-.334l1.154.34s.12.96-.322,1.148a17.429,17.429,0,0,0-4.093,2.605,13.138,13.138,0,0,1-2.71,2.376C38.178,31.589,40.386,31.954,40.335,31.379Z" transform="translate(-33.54 -17.577)" opacity="0.4" fill="url(#linear-gradient-30)" style="mix-blend-mode: multiply;isolation: isolate"/>
                    <path id="路径_8224" data-name="路径 8224" d="M43.114,25.914s-.361-.674-1.2.2-3.9,6.611-4.415,7.614-.523,1.8,0,1.9,1.363.885,1.766-1.033,3.652-7.616,3.852-7.978A.763.763,0,0,0,43.114,25.914Z" transform="translate(-30.591 -22.252)" fill="url(#linear-gradient-31)"/>
                    <path id="路径_8225" data-name="路径 8225" d="M38.046,34.949c.514-1.122.879-2.307,1.416-3.425q.578-1.206,1.231-2.372c.348-.63.786-1.2,1.142-1.817a1.026,1.026,0,0,0,.077-1.154.365.365,0,0,0-.194-.144c.788-.751,1.128-.124,1.128-.124a.763.763,0,0,1,0,.707c-.2.361-3.451,6.064-3.852,7.978-.365,1.738-1.094,1.258-1.614,1.076A1.31,1.31,0,0,0,38.046,34.949Z" transform="translate(-30.323 -22.251)" opacity="0.4" fill="url(#linear-gradient-32)" style="mix-blend-mode: multiply;isolation: isolate"/>
                    <path id="路径_8226" data-name="路径 8226" d="M48.52,23.938l-8.065,2.817a.972.972,0,0,0-.561,1.045c.16.709,1.165,1.231,1.6.508s7.057-3.376,7.057-3.376Z" transform="translate(-27.893 -23.938)" fill="url(#linear-gradient-33)"/>
                    <path id="路径_8227" data-name="路径 8227" d="M40.013,27.14c-.051.466.041.932.606.794a2.544,2.544,0,0,0,.711-.4c.354-.211.709-.409,1.08-.585.648-.3,5.266-1.489,5.406-2.767l.7-.247.036.994S41.94,27.586,41.5,28.307s-1.444.2-1.6-.508A.826.826,0,0,1,40.013,27.14Z" transform="translate(-27.893 -23.938)" opacity="0.6" fill="url(#linear-gradient-34)" style="mix-blend-mode: multiply;isolation: isolate"/>
                  </g>
                  <path id="路径_8228" data-name="路径 8228" d="M45.445,23.387a2.316,2.316,0,0,0-1.424,1.685c-.1,1.165,1.584,1.1,1.584,1.1Z" transform="translate(-23.85 -23.387)" fill="url(#linear-gradient-35)"/>
                </g>
                <path id="路径_8229" data-name="路径 8229" d="M47.142,24.221s-3.547,1.369-4.985,1.8-2.031.614-2.121,1.055c0,0,1.325-.448,2.809-1.055C44.078,25.515,46.8,24.841,47.142,24.221Z" transform="translate(-27.733 -22.574)" fill="#565656" opacity="0.4" style="mix-blend-mode: screen;isolation: isolate"/>
                <path id="路径_8230" data-name="路径 8230" d="M41.828,26.008s-4.6,7.342-4.658,8.665A97.512,97.512,0,0,0,41.828,26.008Z" transform="translate(-30.527 -20.831)" fill="#565656" opacity="0.4" style="mix-blend-mode: screen;isolation: isolate"/>
                <path id="路径_8231" data-name="路径 8231" d="M39.642,30.759s-4.454,2.678-5.718,5.691C33.924,36.45,35.338,34.1,39.642,30.759Z" transform="translate(-33.693 -16.198)" fill="#565656" opacity="0.4" style="mix-blend-mode: screen;isolation: isolate"/>
              </g>
            </g>
            <g id="组_10022" data-name="组 10022" transform="translate(5.473 22.359)">
              <path id="路径_8232" data-name="路径 8232" d="M39.34,38.169a1.676,1.676,0,0,0,.132-.213c0-.148,0-.3.006-.448,0-.051.045-.028.081.012.024,0,.069.034.093.069a4.1,4.1,0,0,0,.166-.468.96.96,0,0,1-.038-.166c-.012-.077.041-.047.085-.008.045-.182.085-.365.117-.553a2.077,2.077,0,0,1-.028-.4c0-.051.043-.03.081,0a.716.716,0,0,1-.016-.119c0-.036.016-.036.043-.022.012-.115.028-.229.041-.348a2.366,2.366,0,0,1-.024-.261c0-.038.026-.034.051-.014.055-.545.1-1.08.2-1.56.022-.117.047-.231.073-.348,0-.045-.006-.091,0-.138,0-.028.018-.034.038-.028.342-1.6.808-3.172,1.116-4.766.006-.045.093.043.091.073-.01.3-.041.6-.075.907a.209.209,0,0,1,.045.079c.032.377-.026.757-.012,1.138,0,.069-.1-.026-.124-.079a3.562,3.562,0,0,0,.051.628c.018.083-.095-.012-.1-.049-.03-.117-.057-.235-.079-.363v.01c.016.168.022.334.038.5.018.251.043.506.053.757,0,.059-.095-.04-.1-.073-.01-.079-.026-.158-.036-.239.02.223.041.444.081.666.016.093-.1-.01-.113-.057-.045-.184-.1-.385-.134-.591-.014.063-.028.119-.041.178.022.217.028.435.061.65a5.245,5.245,0,0,1,.073.672c0,.065-.1-.028-.1-.063-.036-.235-.1-.482-.156-.735l-.024.1a12.916,12.916,0,0,1,.186,1.566c0,.057-.089-.036-.093-.069-.043-.35-.132-.7-.2-1.043l0,.008a8.176,8.176,0,0,1,.095,1.683c0,.073-.111-.043-.115-.081-.026-.314-.083-.63-.13-.95-.012.061-.026.122-.036.182.067.48.111.964.221,1.436.02.087-.1-.012-.113-.053-.063-.2-.126-.415-.18-.628.008.117.018.233.036.348a8.351,8.351,0,0,0,.221.966c.022.075-.087,0-.1-.036a6.7,6.7,0,0,1-.229-.861c-.008.1-.018.205-.028.31.008.071.02.142.032.213.067.385.209.751.3,1.13.02.085-.1-.016-.113-.055-.073-.265-.172-.529-.261-.8-.008.089-.02.178-.03.267q.184.61.423,1.2c.036.091-.071.024-.091-.022-.124-.257-.259-.537-.377-.824,0,.036-.012.071-.016.1.049.16.095.322.15.482.03.075.091.4.168.46.036.032.111.1.02.047.014.008.089.091.043.1-.162.028-.308-.452-.34-.533s-.065-.168-.093-.249l-.018.079a3.734,3.734,0,0,0,.117.4c.083.237.174.681.391.841.034.024.073.128,0,.083a1.481,1.481,0,0,1-.438-.7c-.045-.107-.093-.215-.136-.328-.026.1-.053.2-.087.3.134.344.245.7.356,1.045.026.081-.091,0-.1-.04-.077-.188-.186-.373-.255-.565.075.354.162.7.269,1.055.02.075-.089,0-.1-.036-.109-.32-.251-.658-.336-1-.049.109-.107.211-.166.314.018.095.036.194.059.288a5.444,5.444,0,0,0,.318,1.14c.03.065-.049.03-.069,0a4.148,4.148,0,0,1-.312-.916c-.036-.12-.069-.243-.1-.363l0,0c.014.188.026.373.047.555A4.192,4.192,0,0,0,40,40.5c.041.063-.022.075-.055.024a2.505,2.505,0,0,1-.286-1.019c-.063-.346-.122-.7-.156-1.047C39.408,38.394,39.293,38.236,39.34,38.169Z" transform="translate(-33.895 -20.321)" fill="#5e5e5e"/>
              <g id="组_10021" data-name="组 10021">
                <g id="组_10020" data-name="组 10020">
                  <g id="组_10019" data-name="组 10019" transform="translate(0 1.306)">
                    <path id="路径_8233" data-name="路径 8233" d="M42.36,33.175s.373.9,0,1.193a17.373,17.373,0,0,0-3.249,3.6c-.49,1.09-2.287,3.923-2.512,3.111s1.685-5.422,4.561-7.927Z" transform="translate(-36.578 -16.972)" fill="url(#linear-gradient-36)"/>
                    <path id="路径_8234" data-name="路径 8234" d="M41.4,33.969c-.142-.373-.652-.4-1.049-.318.174-.172.35-.336.531-.494l1.2.018s.373.9,0,1.193a17.373,17.373,0,0,0-3.249,3.6,13.322,13.322,0,0,1-1.975,3.016C39.377,34.745,41.6,34.508,41.4,33.969Z" transform="translate(-36.304 -16.972)" opacity="0.4" fill="url(#linear-gradient-37)" style="mix-blend-mode: multiply;isolation: isolate"/>
                    <path id="路径_8235" data-name="路径 8235" d="M42.272,27.917s-.527-.553-1.106.512-1.987,7.409-2.222,8.517-.022,1.878.508,1.837S41,39.27,40.88,37.315,42.365,29,42.462,28.6A.759.759,0,0,0,42.272,27.917Z" transform="translate(-34.363 -22.222)" fill="url(#linear-gradient-38)"/>
                    <path id="路径_8236" data-name="路径 8236" d="M39.681,37.9c.2-1.219.235-2.455.452-3.678.156-.879.342-1.748.551-2.615.17-.7.438-1.365.614-2.054a1.027,1.027,0,0,0-.233-1.136.364.364,0,0,0-.225-.085c.559-.934,1.055-.421,1.055-.421a.759.759,0,0,1,.19.681c-.1.4-1.709,6.763-1.582,8.717.113,1.774-.717,1.5-1.268,1.47A1.282,1.282,0,0,0,39.681,37.9Z" transform="translate(-33.987 -22.221)" opacity="0.4" fill="url(#linear-gradient-39)" style="mix-blend-mode: multiply;isolation: isolate"/>
                    <path id="路径_8237" data-name="路径 8237" d="M47.689,24.963l-7.018,4.869a.975.975,0,0,0-.265,1.157c.346.64,1.452.871,1.685.061s5.9-5.138,5.9-5.138Z" transform="translate(-32.947 -24.963)" fill="url(#linear-gradient-40)"/>
                    <path id="路径_8238" data-name="路径 8238" d="M40.346,30.318c.073.466.286.891.794.606a2.467,2.467,0,0,0,.581-.575c.284-.294.573-.583.885-.849.543-.464,4.675-2.842,4.47-4.112l.612-.425.3.95s-5.665,4.324-5.9,5.138-1.339.579-1.685-.061A.83.83,0,0,1,40.346,30.318Z" transform="translate(-32.947 -24.963)" opacity="0.6" fill="url(#linear-gradient-41)" style="mix-blend-mode: multiply;isolation: isolate"/>
                  </g>
                  <path id="路径_8239" data-name="路径 8239" d="M44.833,24.3a2.309,2.309,0,0,0-.92,2c.213,1.15,1.819.642,1.819.642Z" transform="translate(-29.45 -24.302)" fill="url(#linear-gradient-42)"/>
                </g>
                <path id="路径_8240" data-name="路径 8240" d="M46.525,25.4s-3.052,2.27-4.322,3.068S40.41,29.6,40.442,30.05c0,0,1.157-.784,2.426-1.768C43.922,27.464,46.363,26.091,46.525,25.4Z" transform="translate(-32.811 -23.231)" fill="#565656" opacity="0.4" style="mix-blend-mode: screen;isolation: isolate"/>
                <path id="路径_8241" data-name="路径 8241" d="M41.129,28.22s-2.469,8.3-2.175,9.59A97.316,97.316,0,0,0,41.129,28.22Z" transform="translate(-34.284 -20.481)" fill="#565656" opacity="0.4" style="mix-blend-mode: screen;isolation: isolate"/>
                <path id="路径_8242" data-name="路径 8242" d="M40.673,33.521s-3.577,3.771-3.992,7.01C36.681,40.531,37.416,37.888,40.673,33.521Z" transform="translate(-36.477 -15.311)" fill="#565656" opacity="0.4" style="mix-blend-mode: screen;isolation: isolate"/>
              </g>
            </g>
          </g>
          <g id="组_10026" data-name="组 10026" transform="translate(48.806 38.262)">
            <g id="组_10024" data-name="组 10024" transform="translate(0 8.715)">
              <path id="路径_8243" data-name="路径 8243" d="M61.877,37.395c.741-2.222-.788-6.062-.788-6.062S58.873,33.764,52.57,33.7c-6.722-.065-9.955-2.366-9.955-2.366s-1.477,3.713-.826,5.951a23.7,23.7,0,0,0,10.85,2.337C57.936,39.674,60.739,38.2,61.877,37.395Z" transform="translate(-41.184 -19.29)" fill="url(#linear-gradient-43)"/>
              <path id="路径_8244" data-name="路径 8244" d="M60.627,33.87c.4-2.127-1.434-5.138-1.434-5.138s-2.631,1.89-7.828,1.888c-5.181,0-7.776-1.888-7.776-1.888s-1.837,3.01-1.436,5.138c0,0,3.233,2.3,9.955,2.366C58.411,36.3,60.627,33.87,60.627,33.87Z" transform="translate(-40.722 -21.827)" fill="url(#linear-gradient-44)"/>
              <path id="路径_8245" data-name="路径 8245" d="M56.342,27.806c-.12-1.525-2.329-2.57-2.329-2.57H45.9s-2.208,1.045-2.329,2.57C43.568,27.806,49.928,31.719,56.342,27.806Z" transform="translate(-39.287 -25.236)" fill="url(#linear-gradient-45)"/>
              <path id="路径_8246" data-name="路径 8246" d="M58.5,30.873c.531-2.086-1.416-4.336-1.416-4.336-6.414,3.913-12.774,0-12.774,0s-1.948,2.25-1.414,4.336c0,0,2.6,1.884,7.776,1.888C55.871,32.763,58.5,30.873,58.5,30.873Z" transform="translate(-40.031 -23.967)" fill="url(#linear-gradient-46)"/>
              <path id="路径_8247" data-name="路径 8247" d="M62.307,41.05a10.661,10.661,0,0,0-.239-6.516l.026-.077c-1.138.808-3.941,2.279-9.238,2.226a23.7,23.7,0,0,1-10.85-2.337c.022.063.04.128.063.188a10.713,10.713,0,0,0-.261,6.453c1.235.7,4.865,2.386,11.047,2.445C58.521,43.491,61.331,41.806,62.307,41.05Z" transform="translate(-41.401 -16.352)" fill="url(#linear-gradient-47)"/>
              <path id="路径_8248" data-name="路径 8248" d="M44.515,47.161l.057.045s1.543,3.812,4.434,4.614c2.7-.747,4.268-4.122,4.464-4.567a23.269,23.269,0,0,1-3.617.3A30.024,30.024,0,0,1,44.515,47.161Z" transform="translate(-38.363 -3.854)" fill="url(#linear-gradient-48)"/>
              <path id="路径_8249" data-name="路径 8249" d="M41.958,40.935c.03.075.059.148.091.219,0,0,.16,4.5,2.368,6.947l.02.1a27.563,27.563,0,0,0,7.911.972,20.132,20.132,0,0,0,6.261-.95c.018-.077.026-.12.026-.12C60.841,45.652,61,41.154,61,41.154h0c-1.387.818-4.1,1.918-8.691,1.872A24.511,24.511,0,0,1,41.958,40.935Z" transform="translate(-40.857 -9.926)" fill="url(#linear-gradient-49)"/>
              <path id="路径_8250" data-name="路径 8250" d="M52.713,40.153c-6.182-.059-9.813-1.75-11.047-2.445.012.03.022.059.032.093a12.172,12.172,0,0,0,.662,6.281,24.511,24.511,0,0,0,10.354,2.092c4.588.045,7.3-1.055,8.691-1.872a12.1,12.1,0,0,0,.749-6.5l.012-.03C61.189,38.528,58.378,40.213,52.713,40.153Z" transform="translate(-41.258 -13.073)" fill="url(#linear-gradient-50)"/>
              <path id="路径_8251" data-name="路径 8251" d="M43.213,44.613c.128.593.873,3.7,2.572,5.033a30.024,30.024,0,0,0,5.339.4,23.269,23.269,0,0,0,3.617-.3l.022-.047c1.72-1.294,2.481-4.407,2.623-5.057a20.132,20.132,0,0,1-6.261.95A27.563,27.563,0,0,1,43.213,44.613Z" transform="translate(-39.633 -6.339)" fill="url(#linear-gradient-51)"/>
            </g>
            <g id="组_10025" data-name="组 10025" transform="translate(0.003 9.799)" style="mix-blend-mode: multiply;isolation: isolate">
              <path id="路径_8252" data-name="路径 8252" d="M61.455,35.173a6.379,6.379,0,0,1-3,1.764,19.352,19.352,0,0,1-8.329.533c-2.341-.306-4.91-.567-6.886-1.977a3.346,3.346,0,0,1-1.292-3.046,7.964,7.964,0,0,0-.154,3.751,23.682,23.682,0,0,0,10.846,2.337c5.3.053,8.1-1.418,9.24-2.226a5.467,5.467,0,0,0,.17-2.145A3.41,3.41,0,0,1,61.455,35.173Z" transform="translate(-41.185 -19.288)" fill="url(#linear-gradient-52)"/>
              <path id="路径_8253" data-name="路径 8253" d="M58.641,33.057a12.078,12.078,0,0,1-6.378,1.254,17.89,17.89,0,0,1-6.87-1.254,5.5,5.5,0,0,1-2.479-1.952,2.362,2.362,0,0,1-.352-1.264,6,6,0,0,0-.409,2.947s3.233,2.3,9.955,2.366c6.3.065,8.519-2.366,8.519-2.366a4.27,4.27,0,0,0-.014-1.46A5.413,5.413,0,0,1,58.641,33.057Z" transform="translate(-40.724 -21.83)" fill="url(#linear-gradient-53)"/>
              <path id="路径_8254" data-name="路径 8254" d="M56.145,26.595a2.9,2.9,0,0,1-1.539,1.238,10.715,10.715,0,0,1-5.128.8c-1.444-.107-5.77-.768-5.12-2.846a2.461,2.461,0,0,0-.79,1.485s6.36,3.913,12.774,0A1.877,1.877,0,0,0,56.145,26.595Z" transform="translate(-39.289 -25.785)" fill="url(#linear-gradient-54)"/>
              <path id="路径_8255" data-name="路径 8255" d="M57.043,29.751a12.447,12.447,0,0,1-4.456,1.2,15,15,0,0,1-5.7-.442,7.034,7.034,0,0,1-3.3-1.661,2.289,2.289,0,0,1-.616-1.071,3.572,3.572,0,0,0-.077,1.876s2.6,1.884,7.774,1.888c5.2,0,7.828-1.888,7.828-1.888a3.363,3.363,0,0,0,.02-1.477A3.13,3.13,0,0,1,57.043,29.751Z" transform="translate(-40.032 -23.837)" fill="url(#linear-gradient-55)"/>
              <path id="路径_8256" data-name="路径 8256" d="M62.13,38.16A15.3,15.3,0,0,1,59.2,39.7c-2.941,1.207-6.018,1.14-9.139.847s-7.9-.747-8.649-4.355a8.148,8.148,0,0,0,.4,3c1.233.7,4.863,2.386,11.043,2.445,5.667.059,8.478-1.626,9.453-2.382a7.172,7.172,0,0,0,.356-1.5A6.009,6.009,0,0,1,62.13,38.16Z" transform="translate(-41.402 -15.637)" fill="url(#linear-gradient-56)"/>
              <path id="路径_8257" data-name="路径 8257" d="M45.21,48.324a6.189,6.189,0,0,0,3.119,2.362,6.209,6.209,0,0,0,3.062-2.256A5.627,5.627,0,0,1,45.21,48.324Z" transform="translate(-37.688 -3.805)" fill="url(#linear-gradient-57)"/>
              <path id="路径_8258" data-name="路径 8258" d="M57.42,44.937a13.291,13.291,0,0,1-6.307.895,18.967,18.967,0,0,1-6.789-1.2,5.057,5.057,0,0,1-1.869-1.363,8.015,8.015,0,0,0,1.475,2.566s.008.034.022.1a27.553,27.553,0,0,0,7.911.972,20.132,20.132,0,0,0,6.261-.95c.016-.077.026-.12.026-.12a7.939,7.939,0,0,0,1.43-2.437A8.019,8.019,0,0,1,57.42,44.937Z" transform="translate(-40.374 -8.739)" fill="url(#linear-gradient-58)"/>
              <path id="路径_8259" data-name="路径 8259" d="M52.872,43.169a36.957,36.957,0,0,1-6.548-.652A8.231,8.231,0,0,1,42.828,41a4.307,4.307,0,0,1-1.209-1.337,11.289,11.289,0,0,0,.672,2.509,24.508,24.508,0,0,0,10.352,2.092c4.59.045,7.31-1.055,8.695-1.872a11.18,11.18,0,0,0,.64-2.062C59.981,42.934,55.983,43.262,52.872,43.169Z" transform="translate(-41.19 -12.249)" fill="url(#linear-gradient-59)"/>
              <path id="路径_8260" data-name="路径 8260" d="M48.538,47.524a9.107,9.107,0,0,1-4.865-1.533A6.275,6.275,0,0,0,45.338,48.3a30.039,30.039,0,0,0,5.339.4,23.22,23.22,0,0,0,3.615-.3l.024-.047a5.915,5.915,0,0,0,1.61-2.125A14.263,14.263,0,0,1,48.538,47.524Z" transform="translate(-39.187 -6.08)" fill="url(#linear-gradient-60)"/>
            </g>
            <path id="路径_8261" data-name="路径 8261" d="M43.672,26.9s4.754,3.8,12.4,0C56.076,26.9,49.916,31.469,43.672,26.9Z" transform="translate(-39.185 -14.895)" opacity="0.6" fill="url(#linear-gradient-61)" style="mix-blend-mode: screen;isolation: isolate"/>
            <path id="路径_8262" data-name="路径 8262" d="M42.8,28.89s6.07,4.855,15.841,0C58.643,28.89,50.776,34.717,42.8,28.89Z" transform="translate(-40.034 -12.958)" opacity="0.6" fill="url(#linear-gradient-62)" style="mix-blend-mode: screen;isolation: isolate"/>
            <path id="路径_8263" data-name="路径 8263" d="M42.2,34.811a23.325,23.325,0,0,0,18.217.225A17.283,17.283,0,0,1,42.2,34.811Z" transform="translate(-40.62 -7.184)" opacity="0.6" fill="url(#linear-gradient-63)" style="mix-blend-mode: screen;isolation: isolate"/>
            <path id="路径_8264" data-name="路径 8264" d="M42.2,38.261a23.335,23.335,0,0,0,18.217.225A17.293,17.293,0,0,1,42.2,38.261Z" transform="translate(-40.62 -3.819)" opacity="0.6" fill="url(#linear-gradient-64)" style="mix-blend-mode: screen;isolation: isolate"/>
            <path id="路径_8265" data-name="路径 8265" d="M42.772,41.392a20.44,20.44,0,0,0,15.96.2A16.034,16.034,0,0,1,42.772,41.392Z" transform="translate(-40.063 -0.766)" opacity="0.6" fill="url(#linear-gradient-65)" style="mix-blend-mode: screen;isolation: isolate"/>
            <path id="路径_8266" data-name="路径 8266" d="M43.717,44.809a22.267,22.267,0,0,0,12.227.15A12.28,12.28,0,0,1,43.717,44.809Z" transform="translate(-39.141 2.566)" opacity="0.6" fill="url(#linear-gradient-66)" style="mix-blend-mode: screen;isolation: isolate"/>
            <path id="路径_8267" data-name="路径 8267" d="M44.866,47.362a14.011,14.011,0,0,0,7.688.095A7.72,7.72,0,0,1,44.866,47.362Z" transform="translate(-38.021 5.056)" opacity="0.6" fill="url(#linear-gradient-67)" style="mix-blend-mode: screen;isolation: isolate"/>
            <path id="路径_8268" data-name="路径 8268" d="M45.76,48.776a7.593,7.593,0,0,0,4.172.051A4.19,4.19,0,0,1,45.76,48.776Z" transform="translate(-37.149 6.435)" opacity="0.6" fill="url(#linear-gradient-68)" style="mix-blend-mode: screen;isolation: isolate"/>
            <path id="路径_8269" data-name="路径 8269" d="M42.707,31.861s6.581,4.016,16.217.2C58.924,32.062,50.165,36.862,42.707,31.861Z" transform="translate(-40.126 -10.061)" opacity="0.6" fill="url(#linear-gradient-69)" style="mix-blend-mode: screen;isolation: isolate"/>
            <path id="路径_8270" data-name="路径 8270" d="M62.307,49.934a10.661,10.661,0,0,0-.239-6.516l.026-.077c.741-2.222-.788-6.062-.788-6.062.4-2.127-1.434-5.138-1.434-5.138.531-2.086-1.416-4.336-1.416-4.336-.12-1.525-2.329-2.57-2.329-2.57H48.011s-2.208,1.045-2.329,2.57c0,0-1.948,2.25-1.414,4.336,0,0-1.837,3.01-1.436,5.138,0,0-1.477,3.713-.826,5.951.022.063.04.128.063.188a10.713,10.713,0,0,0-.261,6.453c.012.03.022.059.032.093a12.172,12.172,0,0,0,.662,6.281c.03.075.059.148.091.219,0,0,.16,4.5,2.368,6.947l.02.1c.128.593.873,3.7,2.572,5.033l.057.045S49.152,72.4,52.044,73.2c2.7-.747,4.268-4.122,4.464-4.567l.022-.047c1.72-1.294,2.481-4.407,2.623-5.057.018-.077.026-.12.026-.12,2.206-2.449,2.368-6.947,2.368-6.947h0a12.1,12.1,0,0,0,.749-6.5ZM57.786,55.9c-1.138,2.258-2.9,4.462-5.621,4.622a7.076,7.076,0,0,1-6.273-3.7,18.707,18.707,0,0,1-2.212-8.211,33.1,33.1,0,0,1,.648-10.184c.948-4.033,2.439-10.571,7.871-10.1,5.465.472,6.607,7.449,7.255,11.731C60.243,45.294,60.217,51.066,57.786,55.9Z" transform="translate(-41.401 -16.521)" opacity="0.6" fill="url(#linear-gradient-70)" style="mix-blend-mode: multiply;isolation: isolate"/>
            <path id="路径_8271" data-name="路径 8271" d="M41.614,35.3a9.408,9.408,0,0,0,.19,4.735C41.672,38.467,41.626,36.887,41.614,35.3Z" transform="translate(-41.4 -6.704)" opacity="0.6" fill="url(#linear-gradient-71)" style="mix-blend-mode: multiply;isolation: isolate"/>
            <path id="路径_8272" data-name="路径 8272" d="M52.005,39.284a8.363,8.363,0,0,0,.365-3.245A30.655,30.655,0,0,1,52.005,39.284Z" transform="translate(-31.059 -5.986)" opacity="0.6" fill="url(#linear-gradient-72)" style="mix-blend-mode: multiply;isolation: isolate"/>
            <path id="路径_8273" data-name="路径 8273" d="M60.278,44.284c-1.088,2.617-2.443,5.766-4.906,7.381a6.8,6.8,0,0,1-7.784-.61,13.791,13.791,0,0,1-4.642-6.791,27.956,27.956,0,0,1-1.266-6.439A12.213,12.213,0,0,0,42.359,44c.03.075.059.148.091.219,0,0,.16,4.5,2.368,6.947l.02.1c.128.593.873,3.7,2.572,5.033l.057.045s1.543,3.812,4.434,4.614c2.7-.747,4.268-4.122,4.464-4.567l.022-.047c1.72-1.294,2.481-4.407,2.623-5.057.018-.077.026-.12.026-.12C61.242,48.718,61.4,44.22,61.4,44.22h0a12.138,12.138,0,0,0,.762-6.429A30.875,30.875,0,0,1,60.278,44.284Z" transform="translate(-41.258 -4.278)" opacity="0.6" fill="url(#linear-gradient-73)" style="mix-blend-mode: multiply;isolation: isolate"/>
            <path id="路径_8274" data-name="路径 8274" d="M51.961,33.261c.018.243.03.486.043.729C52,33.749,51.985,33.506,51.961,33.261Z" transform="translate(-31.102 -8.695)" opacity="0.6" fill="url(#linear-gradient-74)" style="mix-blend-mode: multiply;isolation: isolate"/>
            <path id="路径_8275" data-name="路径 8275" d="M44.461,25.666s3.575,2.578,9.226,0C53.687,25.666,48.263,28.714,44.461,25.666Z" transform="translate(-38.416 -16.102)" opacity="0.6" fill="url(#linear-gradient-75)" style="mix-blend-mode: screen;isolation: isolate"/>
            <path id="路径_8276" data-name="路径 8276" d="M52.96,23.55H45.389a2.828,2.828,0,0,0-1.114,2.167c0,1.385.677,2.048,2.175,2.467a10.016,10.016,0,0,0,5.45,0c1.5-.419,2.175-1.082,2.175-2.467A2.828,2.828,0,0,0,52.96,23.55Z" transform="translate(-38.597 -18.166)" fill="url(#linear-gradient-76)"/>
            <path id="路径_8277" data-name="路径 8277" d="M52.861,22.5c-1.041.15-2.082.3-3.123.456a13.894,13.894,0,0,1-4.15-.442c-.085-.014-.356-.1-.437-.067a1.24,1.24,0,0,0-.612,1.562c.735,2.345,3.409,2.981,6.149,2.3A4.5,4.5,0,0,0,52.8,25.28a4.178,4.178,0,0,0,.65-1.215A1.239,1.239,0,0,0,52.861,22.5Z" transform="translate(-38.415 -19.253)" fill="url(#linear-gradient-77)"/>
            <path id="路径_8278" data-name="路径 8278" d="M54.723,21.231c-.359-.762-.733-.219-.733-.219H44.8s-.371-.543-.731.219-.2,3.571,4.176,3.933h2.3C54.924,24.8,55.082,21.993,54.723,21.231Z" transform="translate(-38.916 -20.824)" fill="url(#linear-gradient-78)"/>
            <path id="路径_8279" data-name="路径 8279" d="M44.87,22.029c.81.034,1.594.385,2.4.494a17.1,17.1,0,0,0,3.178.15,9.721,9.721,0,0,0,2.058-.308,5.178,5.178,0,0,1,1.519-.275.977.977,0,0,1,.772.3,2,2,0,0,0-.075-1.163c-.359-.762-.733-.219-.733-.219H44.8s-.371-.543-.731.219a2.2,2.2,0,0,0,.03,1.547C44.12,22.349,44.3,22.005,44.87,22.029Z" transform="translate(-38.916 -20.824)" opacity="0.6" fill="url(#linear-gradient-79)" style="mix-blend-mode: multiply;isolation: isolate"/>
            <path id="路径_8280" data-name="路径 8280" d="M47.133,22.781a10.58,10.58,0,0,0,6.813-.958,17.287,17.287,0,0,1-9.605-.188A8.5,8.5,0,0,0,47.133,22.781Z" transform="translate(-38.534 -20.033)" opacity="0.3" fill="url(#linear-gradient-80)" style="mix-blend-mode: screen;isolation: isolate"/>
            <path id="路径_8281" data-name="路径 8281" d="M47.049,23.867c3.51.626,5.238-.735,5.238-.735a13.263,13.263,0,0,1-7.385-.148A6.55,6.55,0,0,0,47.049,23.867Z" transform="translate(-37.986 -18.718)" opacity="0.3" fill="url(#linear-gradient-81)" style="mix-blend-mode: screen;isolation: isolate"/>
            <path id="路径_8282" data-name="路径 8282" d="M47.049,25.293c3.51.63,5.238-.733,5.238-.733a13.31,13.31,0,0,1-7.385-.146A6.5,6.5,0,0,0,47.049,25.293Z" transform="translate(-37.986 -17.323)" opacity="0.3" fill="url(#linear-gradient-82)" style="mix-blend-mode: screen;isolation: isolate"/>
          </g>
          <g id="组_10035" data-name="组 10035" transform="translate(50.403 4.591)">
            <g id="组_10031" data-name="组 10031">
              <g id="组_10028" data-name="组 10028">
                <g id="组_10027" data-name="组 10027">
                  <path id="路径_8283" data-name="路径 8283" d="M45.1,3.777s-6.5,7.265,0,13.848l.482.431,1.284-1.521a8.4,8.4,0,0,1-2.85-7.662l1.246.6S44.616,5.543,45.1,3.777Z" transform="translate(-42.209 -3.777)" fill="#111"/>
                  <path id="路径_8284" data-name="路径 8284" d="M43.556,8.873l1.246.6s-.644-3.933-.162-5.7l-.071.081a15.931,15.931,0,0,0-.541,2.068,16.208,16.208,0,0,0-.051,2.5.122.122,0,0,1-.15.119,3.326,3.326,0,0,1-.907-.32,9.057,9.057,0,0,0,.346,5.27,10.267,10.267,0,0,0,.828,1.7,5.1,5.1,0,0,1,.573.966c.1.3-.176.715-.429,1.033q.193.219.4.433l.482.431,1.284-1.521A8.4,8.4,0,0,1,43.556,8.873Z" transform="translate(-41.752 -3.777)" fill="#343434" opacity="0.5" style="mix-blend-mode: multiply;isolation: isolate"/>
                  <path id="路径_8285" data-name="路径 8285" d="M43.851,4.772A10.788,10.788,0,0,0,42.467,12a7.316,7.316,0,0,0,1.869,3.567S40.659,11.247,43.851,4.772Z" transform="translate(-42.106 -2.807)" fill="#343434" style="mix-blend-mode: screen;isolation: isolate"/>
                </g>
                <path id="路径_8286" data-name="路径 8286" d="M45.639,11.7s.33-1.673,1.454-2.034c0,0,.521-.178.563.142s.016,1.766.016,1.766Z" transform="translate(-38.865 1.915)" fill="#0d0d0d"/>
                <path id="路径_8287" data-name="路径 8287" d="M45.867,10.732a1.162,1.162,0,0,1,.916-.98s.255-.111.288.144a1.626,1.626,0,0,1-.14.648Z" transform="translate(-38.642 2.026)" fill="#1f1f1f"/>
                <path id="路径_8288" data-name="路径 8288" d="M48.023,10.967s-.482-1.485-2.408-.8-2.71,3.688-1.065,4.215Z" transform="translate(-40.798 2.277)" fill="#343434"/>
                <path id="路径_8289" data-name="路径 8289" d="M46.146,10.024a1.266,1.266,0,0,1,.837.294.125.125,0,0,1-.053.2,6.019,6.019,0,0,0-2.838,2.751.12.12,0,0,1-.207,0,1.544,1.544,0,0,1-.215-.518,1.408,1.408,0,0,0,.881,1.622l3.472-3.413A1.573,1.573,0,0,0,46.146,10.024Z" transform="translate(-40.797 2.28)" fill="#232323" opacity="0.5" style="mix-blend-mode: multiply;isolation: isolate"/>
                <path id="路径_8290" data-name="路径 8290" d="M46.15,10.066A3.31,3.31,0,0,0,43.7,12.632,5.2,5.2,0,0,1,46.15,10.066Z" transform="translate(-40.753 2.356)" fill="#fff" opacity="0.5" style="mix-blend-mode: screen;isolation: isolate"/>
              </g>
              <g id="组_10030" data-name="组 10030" transform="translate(9.209)">
                <g id="组_10029" data-name="组 10029" transform="translate(4.159)">
                  <path id="路径_8291" data-name="路径 8291" d="M50.743,3.777s6.5,7.265,0,13.848l-.482.431-1.284-1.521a8.4,8.4,0,0,0,2.85-7.662l-1.246.6S51.225,5.543,50.743,3.777Z" transform="translate(-48.977 -3.777)" fill="#111"/>
                  <path id="路径_8292" data-name="路径 8292" d="M51.827,8.873l-1.246.6s.644-3.933.162-5.7c0,0,.026.028.071.081a15.94,15.94,0,0,1,.543,2.068,16.207,16.207,0,0,1,.047,2.5.124.124,0,0,0,.152.119,3.326,3.326,0,0,0,.907-.32,9.041,9.041,0,0,1-.346,5.27,10.115,10.115,0,0,1-.828,1.7,5.1,5.1,0,0,0-.573.966c-.1.3.178.715.429,1.033-.128.146-.261.29-.4.433l-.482.431-1.284-1.521A8.4,8.4,0,0,0,51.827,8.873Z" transform="translate(-48.977 -3.777)" fill="#343434" opacity="0.5" style="mix-blend-mode: multiply;isolation: isolate"/>
                  <path id="路径_8293" data-name="路径 8293" d="M50.689,4.772A10.788,10.788,0,0,1,52.074,12,7.316,7.316,0,0,1,50.2,15.565S53.881,11.247,50.689,4.772Z" transform="translate(-47.779 -2.807)" fill="#343434" style="mix-blend-mode: screen;isolation: isolate"/>
                </g>
                <path id="路径_8294" data-name="路径 8294" d="M48.911,11.7s-.33-1.673-1.454-2.034c0,0-.521-.178-.563.142s-.016,1.766-.016,1.766Z" transform="translate(-46.871 1.915)" fill="#0d0d0d"/>
                <path id="路径_8295" data-name="路径 8295" d="M48.273,10.732a1.162,1.162,0,0,0-.916-.98s-.257-.111-.288.144a1.662,1.662,0,0,0,.14.648Z" transform="translate(-46.683 2.026)" fill="#1f1f1f"/>
                <path id="路径_8296" data-name="路径 8296" d="M47.676,10.967s.482-1.485,2.41-.8,2.708,3.688,1.063,4.215Z" transform="translate(-46.087 2.277)" fill="#343434"/>
                <path id="路径_8297" data-name="路径 8297" d="M49.554,10.024a1.267,1.267,0,0,0-.839.294.124.124,0,0,0,.053.2A6.006,6.006,0,0,1,51.6,13.273a.122.122,0,0,0,.209,0,1.549,1.549,0,0,0,.217-.518,1.409,1.409,0,0,1-.883,1.622l-3.472-3.413A1.574,1.574,0,0,1,49.554,10.024Z" transform="translate(-46.087 2.28)" fill="#232323" opacity="0.5" style="mix-blend-mode: multiply;isolation: isolate"/>
                <path id="路径_8298" data-name="路径 8298" d="M48.6,10.066a3.31,3.31,0,0,1,2.447,2.566A5.206,5.206,0,0,0,48.6,10.066Z" transform="translate(-45.185 2.356)" fill="#fff" opacity="0.5" style="mix-blend-mode: screen;isolation: isolate"/>
              </g>
            </g>
            <g id="组_10034" data-name="组 10034" transform="translate(0.349 16.158)">
              <g id="组_10032" data-name="组 10032">
                <path id="路径_8299" data-name="路径 8299" d="M45.246,14.592s.6-2.311-.041-2.546c-1.039-.385-2.007.531-2.487,1.975s-.545,3.652.549,3.615S45.246,14.592,45.246,14.592Z" transform="translate(-42.386 -11.957)" fill="#232323"/>
                <path id="路径_8300" data-name="路径 8300" d="M45.2,12.046c-1.039-.385-2.007.531-2.487,1.975s-.545,3.652.549,3.615,1.979-3.044,1.979-3.044S45.849,12.281,45.2,12.046Zm-.834,1.932s-.48,1.624-1.071,1.645-.559-1.173-.3-1.955.784-1.278,1.347-1.071C44.695,12.725,44.371,13.977,44.371,13.977Z" transform="translate(-42.386 -11.957)" fill="#232323" opacity="0.5" style="mix-blend-mode: multiply;isolation: isolate"/>
                <path id="路径_8301" data-name="路径 8301" d="M43.472,12.514c-.332-.308-.636.4-.575.65C43.025,13.679,43.863,12.881,43.472,12.514Z" transform="translate(-41.896 -11.489)" fill="#fff" opacity="0.5" style="mix-blend-mode: screen;isolation: isolate"/>
                <path id="路径_8302" data-name="路径 8302" d="M42.924,12.982c-.13-.122-.251.158-.225.257C42.75,13.444,43.082,13.128,42.924,12.982Z" transform="translate(-42.084 -10.988)" fill="#fff" opacity="0.5" style="mix-blend-mode: screen;isolation: isolate"/>
              </g>
              <g id="组_10033" data-name="组 10033" transform="translate(14.21)">
                <path id="路径_8303" data-name="路径 8303" d="M49.837,14.592s-.6-2.311.04-2.546c1.041-.385,2.007.531,2.489,1.975s.543,3.652-.553,3.615S49.837,14.592,49.837,14.592Z" transform="translate(-49.58 -11.957)" fill="#232323"/>
                <path id="路径_8304" data-name="路径 8304" d="M49.837,14.592s.883,3,1.975,3.044,1.035-2.169.553-3.615-1.448-2.36-2.489-1.975C49.234,12.281,49.837,14.592,49.837,14.592Zm.9-1.995c.561-.207,1.086.29,1.345,1.071s.3,1.977-.3,1.955-1.069-1.645-1.069-1.645S50.386,12.725,50.733,12.6Z" transform="translate(-49.58 -11.957)" fill="#232323" opacity="0.5" style="mix-blend-mode: multiply;isolation: isolate"/>
                <path id="路径_8305" data-name="路径 8305" d="M50.41,12.514c.334-.308.636.4.573.65C50.853,13.679,50.019,12.881,50.41,12.514Z" transform="translate(-48.872 -11.489)" fill="#fff" opacity="0.5" style="mix-blend-mode: screen;isolation: isolate"/>
                <path id="路径_8306" data-name="路径 8306" d="M50.751,12.982c.132-.122.253.158.227.257C50.929,13.444,50.6,13.128,50.751,12.982Z" transform="translate(-48.478 -10.988)" fill="#fff" opacity="0.5" style="mix-blend-mode: screen;isolation: isolate"/>
              </g>
            </g>
            <path id="路径_8307" data-name="路径 8307" d="M56.728,14.539c-2.066-4.344-5.256-4.365-6.117-4.286-.863-.079-4.053-.057-6.119,4.286-2.41,5.057-1.766,12.764-.723,14.53,1.023,1.73,2.9,3.615,6.842,3.536,3.937.079,5.817-1.805,6.84-3.536C58.494,27.3,59.138,19.6,56.728,14.539Z" transform="translate(-41.599 2.521)" fill="url(#radial-gradient)"/>
            <path id="路径_8308" data-name="路径 8308" d="M56.728,14.539c-2.066-4.344-5.256-4.365-6.117-4.286-.863-.079-4.053-.057-6.119,4.286-2.41,5.057-1.766,12.764-.723,14.53,1.023,1.73,2.9,3.615,6.842,3.536,3.937.079,5.817-1.805,6.84-3.536C58.494,27.3,59.138,19.6,56.728,14.539Z" transform="translate(-41.599 2.521)" fill="url(#linear-gradient-83)"/>
            <path id="路径_8309" data-name="路径 8309" d="M57.563,20.7A6.622,6.622,0,0,1,55.4,23.372a7.9,7.9,0,0,1-6.751,1.256,7.649,7.649,0,0,1-5.2-4.784,12.3,12.3,0,0,1-.612-3.166c-.018,2.811.4,5.215.932,6.107,1.023,1.73,2.9,3.615,6.842,3.536,3.937.079,5.817-1.805,6.84-3.536a13.108,13.108,0,0,0,.92-5.136A14.289,14.289,0,0,1,57.563,20.7Z" transform="translate(-41.598 8.804)" opacity="0.6" fill="url(#linear-gradient-84)" style="mix-blend-mode: multiply;isolation: isolate"/>
            <path id="路径_8310" data-name="路径 8310" d="M54.925,14.08c-1.693-3.553-4.306-3.573-5.009-3.506-.707-.067-3.316-.047-5.011,3.506-1.971,4.142-1.448,10.455-.593,11.9a5.812,5.812,0,0,0,5.6,2.89,5.805,5.805,0,0,0,5.6-2.89C56.369,24.535,56.9,18.222,54.925,14.08Z" transform="translate(-40.904 2.838)" opacity="0.6" fill="url(#linear-gradient-85)" style="mix-blend-mode: color-dodge;isolation: isolate"/>
          </g>
          <path id="路径_8311" data-name="路径 8311" d="M47.843,10.9s-2.951,1.187-3.382,6.978A15.471,15.471,0,0,1,47.843,10.9Z" transform="translate(10.39 7.757)" fill="#fff" opacity="0.4" style="mix-blend-mode: screen;isolation: isolate"/>
          <path id="路径_8312" data-name="路径 8312" d="M47.063,10.9s2.951,1.187,3.38,6.978A15.456,15.456,0,0,0,47.063,10.9Z" transform="translate(12.927 7.757)" fill="#fff" opacity="0.4" style="mix-blend-mode: screen;isolation: isolate"/>
        </g>
        <rect id="矩形_10" data-name="矩形 10" width="86.767" height="5.215" transform="translate(0 61.599) rotate(-45.23)" fill="#eb0000"/>
      </g>
    </g>
  </g>
</svg>
